<svg xmlns="http://www.w3.org/2000/svg" width="50.566" height="50.514" viewBox="0 0 50.566 50.514">
  <g id="Grupo_218427" data-name="Grupo 218427" transform="translate(-436.569 -2707.809)">
    <g id="Grupo_215477" data-name="Grupo 215477" transform="translate(436.851 2708.059)">
      <path id="Trazado_227379" data-name="Trazado 227379" d="M245.222,245.458h.534q5.292,0,10.585,0A16.086,16.086,0,0,0,272.3,232.728a15.664,15.664,0,0,0-.818-9.482.489.489,0,0,0-.545-.372c-.839.022-1.68,0-2.52.014a.4.4,0,0,1-.466-.329c-.093-.321-.206-.639-.33-.95a.42.42,0,0,0-.639-.261c-.03.014-.063.025-.093.038-.366.165-.775.519-1.086.447-.368-.086-.658-.531-.965-.836-.991-.981-1.966-1.978-2.965-2.95a.551.551,0,0,1-.146-.771c.7-1.351.669-1.253-.7-1.732-.142-.05-.281-.1-.447-.165v-1.744c-1.17-.142-2.324-.376-3.484-.409a16.077,16.077,0,0,0-16.327,12.807,17.716,17.716,0,0,0-.336,3.147c-.054,1.661-.016,3.326-.016,4.988v.435l1.777-1.847,1.1,1.184-3.672,3.659-3.7-3.711,1.113-1,1.641,1.684.128-.057c0-.174,0-.348,0-.522.027-2.1-.066-4.207.108-6.293a16.91,16.91,0,0,1,6.219-11.9,36.556,36.556,0,0,1,3.55-2.367.648.648,0,0,0,.267-.233h-.532c-4.3,0-8.6.019-12.9-.007a4.01,4.01,0,0,1-3.566-5.788,3.833,3.833,0,0,1,3.49-2.258c.871-.037,1.744-.007,2.6-.007.812-2.2,2.166-3.259,4.081-3.226,1.822.032,3.178,1.146,3.878,3.2h9.817l-2.187-1.774,1-1.251,4.815,3.852-4.815,3.854-1.007-1.254,2.179-1.757h-9.8a4.081,4.081,0,0,1-7.959-.026c-.921,0-1.847-.05-2.765.012a2.341,2.341,0,0,0-2.124,2.449,2.388,2.388,0,0,0,2.234,2.36c.185.011.37.005.554.005,5.578,0,11.156-.012,16.733.006,2.616.008,5.245-.191,7.872.464v-2.629c.426-.157.828-.309,1.233-.45.388-.135.472-.374.3-.74s-.52-.8-.448-1.132c.079-.364.541-.65.847-.958.983-.989,1.979-1.964,2.951-2.965.238-.245.43-.317.732-.13a8.392,8.392,0,0,0,.815.393.427.427,0,0,0,.641-.26c.02-.046.03-.1.048-.143.42-1.13.42-1.13,1.653-1.13,1.445,0,2.89.009,4.334-.007.3,0,.455.088.532.379s.2.571.3.855a.452.452,0,0,0,.705.293c.393-.176.829-.522,1.181-.453s.643.547.951.854c.976.972,1.942,1.955,2.929,2.915.253.246.354.449.143.771a6.949,6.949,0,0,0-.355.722.46.46,0,0,0,.3.739c.395.136.786.283,1.19.428v5.978c-.411.148-.82.291-1.226.441a.429.429,0,0,0-.282.667c.007.016.012.031.018.047.163.4.5.825.438,1.184-.058.341-.53.614-.827.911-.984.987-1.982,1.962-2.95,2.965a.524.524,0,0,1-.774.116,6.964,6.964,0,0,0-.724-.351.451.451,0,0,0-.712.276c-.041.11-.077.222-.116.333-.308.871-.308.871-1.275.928a17.588,17.588,0,0,1-.092,13,17.777,17.777,0,0,1-8.98,9.516h6.227q0-1.2,0-2.4a2.135,2.135,0,0,1,3.32-2.051c2.236,1.116,4.475,2.229,6.705,3.357a2.029,2.029,0,0,1,1.055,2.776,2.578,2.578,0,0,1-1.023,1.049c-2.3,1.2-4.632,2.362-6.969,3.5a2.1,2.1,0,0,1-3.087-1.967c-.007-.854,0-1.707,0-2.593H245.2a5.688,5.688,0,0,1-2.9,4.107,5.485,5.485,0,0,1-3.85.578,5.648,5.648,0,1,1,6.771-6.33Zm33.451-28.122a1.634,1.634,0,0,1-.169-1.968,1.576,1.576,0,0,1,1.092-1.021.541.541,0,0,0,.319-.394c.027-1.04.022-2.081,0-3.122,0-.123-.139-.333-.239-.35-.707-.119-.968-.6-1.225-1.21a1.449,1.449,0,0,1,.024-1.531.528.528,0,0,0-.053-.5c-.775-.813-1.577-1.6-2.38-2.405a1.661,1.661,0,0,0-.336.14,1.355,1.355,0,0,1-1.479.052c-.616-.267-1.127-.517-1.257-1.249-.018-.106-.29-.234-.447-.238-.957-.022-1.914.007-2.871-.021-.352-.01-.542.1-.594.434-.082.521-.421.735-.882.955a1.67,1.67,0,0,1-2.059-.123c-.771.773-1.473,1.518-2.224,2.213-.339.315-.444.584-.163.968a.83.83,0,0,1,.02,1.056.842.842,0,0,0-.143.32,1.3,1.3,0,0,1-1.11,1.117.536.536,0,0,0-.3.408c-.025,1.023-.021,2.048,0,3.072,0,.129.125.353.215.366.765.111,1,.665,1.282,1.285a1.316,1.316,0,0,1-.056,1.434.378.378,0,0,0,.055.564c.739.709,1.447,1.45,2.186,2.159a.5.5,0,0,0,.451.1A1.547,1.547,0,0,1,268,219.82c.557.249.988.485,1.112,1.127a.533.533,0,0,0,.4.307q1.536.039,3.073,0a.53.53,0,0,0,.406-.3c.123-.671.584-.9,1.156-1.15a1.452,1.452,0,0,1,1.576.013.488.488,0,0,0,.465-.031C277.015,219,277.816,218.19,278.673,217.336Zm-6.808,28.9c0,1.123,0,2.247,0,3.371,0,.614.334.824.881.551q3.375-1.679,6.737-3.382c.182-.093.417-.336.405-.492a.819.819,0,0,0-.416-.541c-2.238-1.142-4.487-2.264-6.736-3.384-.553-.275-.868-.072-.872.554C271.86,244.023,271.865,245.13,271.865,246.238Zm-28.227.045a4.031,4.031,0,1,0-4.063,4.011A4.041,4.041,0,0,0,243.637,246.283Zm.806-40.319a2.418,2.418,0,1,0-2.408,2.4A2.429,2.429,0,0,0,244.443,205.964Z" transform="translate(-231.527 -201.91)" fill="#4dd0e1" stroke="#4dd0e1" stroke-width="0.5"/>
      <path id="Trazado_227380" data-name="Trazado 227380" d="M258.9,230.391v4.766h-4.793v-4.766Zm-1.626,1.616h-1.55v1.552h1.55Z" transform="translate(-238.735 -211.001)" fill="#4dd0e1" stroke="#4dd0e1" stroke-width="0.5"/>
      <path id="Trazado_227381" data-name="Trazado 227381" d="M254.087,244.648V239.87h4.787v4.778Zm1.632-3.182v1.568h1.541v-1.568Z" transform="translate(-238.728 -214.026)" fill="#4dd0e1" stroke="#4dd0e1" stroke-width="0.5"/>
      <path id="Trazado_227382" data-name="Trazado 227382" d="M258.891,249.346v4.775h-4.776v-4.775Zm-3.175,1.6V252.5h1.548v-1.556Z" transform="translate(-238.737 -217.051)" fill="#4dd0e1" stroke="#4dd0e1" stroke-width="0.5"/>
      <path id="Trazado_227383" data-name="Trazado 227383" d="M273.205,239.87v1.552h-9.613V239.87Z" transform="translate(-241.762 -214.026)" fill="#4dd0e1" stroke="#4dd0e1" stroke-width="0.5"/>
      <path id="Trazado_227384" data-name="Trazado 227384" d="M273.2,244.609v1.55h-9.632v-1.55Z" transform="translate(-241.754 -215.539)" fill="#4dd0e1" stroke="#4dd0e1" stroke-width="0.5"/>
      <path id="Trazado_227385" data-name="Trazado 227385" d="M273.205,249.345V250.9h-9.613v-1.552Z" transform="translate(-241.762 -217.05)" fill="#4dd0e1" stroke="#4dd0e1" stroke-width="0.5"/>
      <path id="Trazado_227386" data-name="Trazado 227386" d="M263.567,255.621v-1.553h9.613v1.553Z" transform="translate(-241.754 -218.558)" fill="#4dd0e1" stroke="#4dd0e1" stroke-width="0.5"/>
      <path id="Trazado_227387" data-name="Trazado 227387" d="M274.713,231.951H268.32v-1.565h6.393Z" transform="translate(-243.271 -210.999)" fill="#4dd0e1" stroke="#4dd0e1" stroke-width="0.5"/>
      <path id="Trazado_227388" data-name="Trazado 227388" d="M268.3,236.672V235.12h6.388v1.552Z" transform="translate(-243.266 -212.51)" fill="#4dd0e1" stroke="#4dd0e1" stroke-width="0.5"/>
      <path id="Trazado_227389" data-name="Trazado 227389" d="M263.583,230.378h1.552v1.55h-1.552Z" transform="translate(-241.759 -210.996)" fill="#4dd0e1" stroke="#4dd0e1" stroke-width="0.5"/>
      <path id="Trazado_227390" data-name="Trazado 227390" d="M265.136,235.137v1.546h-1.569v-1.546Z" transform="translate(-241.754 -212.515)" fill="#4dd0e1" stroke="#4dd0e1" stroke-width="0.5"/>
      <path id="Trazado_227391" data-name="Trazado 227391" d="M286.552,220.743a6.45,6.45,0,1,1,6.466-6.422A6.471,6.471,0,0,1,286.552,220.743Zm.029-11.287a4.837,4.837,0,1,0,4.823,4.85A4.851,4.851,0,0,0,286.581,209.457Z" transform="translate(-247.036 -203.804)" fill="#4dd0e1" stroke="#4dd0e1" stroke-width="0.5"/>
      <path id="Trazado_227392" data-name="Trazado 227392" d="M239.844,265.858a2.418,2.418,0,1,1,2.376,2.484A2.429,2.429,0,0,1,239.844,265.858Zm3.22.069a.8.8,0,1,0-.8.8A.811.811,0,0,0,243.063,265.927Z" transform="translate(-234.181 -221.571)" fill="#4dd0e1" stroke="#4dd0e1" stroke-width="0.5"/>
      <path id="Trazado_227393" data-name="Trazado 227393" d="M288.088,212.582a3.224,3.224,0,1,1-3.232,3.228A3.23,3.23,0,0,1,288.088,212.582Zm-.05,4.834a1.611,1.611,0,1,0-1.569-1.64A1.627,1.627,0,0,0,288.038,217.416Z" transform="translate(-248.549 -205.316)" fill="#4dd0e1" stroke="#4dd0e1" stroke-width="0.5"/>
    </g>
  </g>
</svg>
