<svg xmlns="http://www.w3.org/2000/svg" xmlns:xlink="http://www.w3.org/1999/xlink" width="150" height="150" viewBox="0 0 150 150">
  <defs>
    <clipPath id="clip-path">
      <rect id="Rectángulo_304590" data-name="Rectángulo 304590" width="80" height="80" transform="translate(0 0)" fill="#fff"/>
    </clipPath>
  </defs>
  <g id="Grupo_219990" data-name="Grupo 219990" transform="translate(-1187 -4348)">
    <g id="Grupo_139934" data-name="Grupo 139934" transform="translate(-4954.5 14734.014)">
      <circle id="Elipse_4809" data-name="Elipse 4809" cx="75" cy="75" r="75" transform="translate(6141.5 -10386.014)" fill="#0f2771"/>
    </g>
    <g id="Grupo_218419" data-name="Grupo 218419" transform="translate(1222 4383)">
      <g id="Grupo_218419-2" data-name="Grupo 218419" clip-path="url(#clip-path)">
        <path id="Trazado_229039" data-name="Trazado 229039" d="M19.96,80a4.935,4.935,0,0,1-4.93-4.93V42.505a4.935,4.935,0,0,1,4.93-4.929H30.929a4.895,4.895,0,0,1,3.485,1.443l2.809,2.809a2.569,2.569,0,0,0,1.829.758H40a1.172,1.172,0,1,1,0,2.343h-.949a4.9,4.9,0,0,1-3.486-1.443l-2.809-2.809a2.566,2.566,0,0,0-1.828-.758H19.96a2.589,2.589,0,0,0-2.586,2.586V75.07a2.589,2.589,0,0,0,2.586,2.586,1.172,1.172,0,1,1,0,2.344" fill="#fff"/>
        <path id="Trazado_229040" data-name="Trazado 229040" d="M63.8,49.94a1.172,1.172,0,0,1-1.172-1.172V47.516A2.589,2.589,0,0,0,60.04,44.93H45.01a1.172,1.172,0,0,1,0-2.344H60.04a4.935,4.935,0,0,1,4.93,4.93v1.252A1.172,1.172,0,0,1,63.8,49.94" fill="#fff"/>
        <path id="Trazado_229041" data-name="Trazado 229041" d="M58.788,73.737H50.02a1.172,1.172,0,1,1,0-2.344h8.768a1.172,1.172,0,1,1,0,2.344" fill="#fff"/>
        <path id="Trazado_229042" data-name="Trazado 229042" d="M61.293,68.727H52.525a1.172,1.172,0,1,1,0-2.344h8.768a1.172,1.172,0,1,1,0,2.344" fill="#fff"/>
        <path id="Trazado_229043" data-name="Trazado 229043" d="M61.09,80H19.959a1.172,1.172,0,0,1,0-2.344H61.09a2.581,2.581,0,0,0,2.452-1.768l8.614-25.842a.073.073,0,0,0-.01-.073.075.075,0,0,0-.066-.033H28.931a2.582,2.582,0,0,0-2.453,1.768L17.987,77.179a1.172,1.172,0,1,1-2.223-.742l8.491-25.471a4.922,4.922,0,0,1,4.676-3.37H72.08a2.424,2.424,0,0,1,2.3,3.191L65.766,76.629A4.924,4.924,0,0,1,61.09,80" fill="#fff"/>
        <path id="Trazado_229044" data-name="Trazado 229044" d="M19.959,24.889H4.929a2.426,2.426,0,0,1-2.424-2.424V2.425A2.427,2.427,0,0,1,4.929,0h10.02a1.176,1.176,0,0,1,.829.343L22.04,6.606a1.173,1.173,0,0,1,.344.829v15.03a2.427,2.427,0,0,1-2.425,2.424M4.929,2.344a.081.081,0,0,0-.081.081v20.04a.081.081,0,0,0,.081.081h15.03a.081.081,0,0,0,.081-.081V7.92L14.464,2.344Z" fill="#fff"/>
        <path id="Trazado_229045" data-name="Trazado 229045" d="M21.212,8.606H16.2a2.428,2.428,0,0,1-2.425-2.424V1.171a1.172,1.172,0,0,1,2.344,0V6.182a.08.08,0,0,0,.081.08h5.01a1.172,1.172,0,1,1,0,2.344" fill="#fff"/>
        <path id="Trazado_229046" data-name="Trazado 229046" d="M14.95,13.617H8.687a1.172,1.172,0,1,1,0-2.344H14.95a1.172,1.172,0,0,1,0,2.344" fill="#fff"/>
        <path id="Trazado_229047" data-name="Trazado 229047" d="M14.95,18.627H8.687a1.172,1.172,0,1,1,0-2.344H14.95a1.172,1.172,0,1,1,0,2.344" fill="#fff"/>
        <path id="Trazado_229048" data-name="Trazado 229048" d="M47.515,24.889H32.485a2.426,2.426,0,0,1-2.424-2.424V2.425A2.427,2.427,0,0,1,32.485,0h10.02a1.176,1.176,0,0,1,.829.343L49.6,6.606a1.176,1.176,0,0,1,.343.829v15.03a2.427,2.427,0,0,1-2.425,2.424M32.485,2.344a.081.081,0,0,0-.081.081v20.04a.081.081,0,0,0,.081.081h15.03a.081.081,0,0,0,.081-.081V7.92L42.02,2.344Z" fill="#fff"/>
        <path id="Trazado_229049" data-name="Trazado 229049" d="M48.768,8.606h-5.01a2.428,2.428,0,0,1-2.425-2.424V1.171a1.172,1.172,0,0,1,2.344,0V6.182a.08.08,0,0,0,.081.08h5.01a1.172,1.172,0,0,1,0,2.344" fill="#fff"/>
        <path id="Trazado_229050" data-name="Trazado 229050" d="M42.505,13.617H36.242a1.172,1.172,0,0,1,0-2.344h6.263a1.172,1.172,0,0,1,0,2.344" fill="#fff"/>
        <path id="Trazado_229051" data-name="Trazado 229051" d="M42.505,18.627H36.242a1.172,1.172,0,0,1,0-2.344h6.263a1.172,1.172,0,0,1,0,2.344" fill="#fff"/>
        <path id="Trazado_229052" data-name="Trazado 229052" d="M75.07,24.889H60.04a2.427,2.427,0,0,1-2.425-2.424V2.425A2.428,2.428,0,0,1,60.04,0H70.06a1.176,1.176,0,0,1,.829.343l6.262,6.263a1.173,1.173,0,0,1,.344.829v15.03a2.427,2.427,0,0,1-2.425,2.424M60.04,2.344a.081.081,0,0,0-.081.081v20.04a.081.081,0,0,0,.081.081H75.07a.081.081,0,0,0,.081-.081V7.92L69.575,2.344Z" fill="#fff"/>
        <path id="Trazado_229053" data-name="Trazado 229053" d="M76.323,8.606h-5.01a2.428,2.428,0,0,1-2.425-2.424V1.171a1.172,1.172,0,0,1,2.344,0V6.182a.08.08,0,0,0,.081.08h5.01a1.172,1.172,0,1,1,0,2.344" fill="#fff"/>
        <path id="Trazado_229054" data-name="Trazado 229054" d="M70.061,13.617H63.8a1.172,1.172,0,1,1,0-2.344h6.263a1.172,1.172,0,1,1,0,2.344" fill="#fff"/>
        <path id="Trazado_229055" data-name="Trazado 229055" d="M70.061,18.627H63.8a1.172,1.172,0,1,1,0-2.344h6.263a1.172,1.172,0,1,1,0,2.344" fill="#fff"/>
        <path id="Trazado_229056" data-name="Trazado 229056" d="M40,49.94a1.172,1.172,0,0,1-1.172-1.172V33.738a1.172,1.172,0,0,1,2.344,0v15.03A1.172,1.172,0,0,1,40,49.94" fill="#fff"/>
        <path id="Trazado_229057" data-name="Trazado 229057" d="M65.05,32.4H42.5a1.172,1.172,0,0,1,0-2.344H65.05a1.335,1.335,0,0,0,1.333-1.333v-5.01a1.172,1.172,0,1,1,2.344,0v5.01A3.681,3.681,0,0,1,65.05,32.4" fill="#fff"/>
        <path id="Trazado_229058" data-name="Trazado 229058" d="M37.495,32.4H14.95a3.681,3.681,0,0,1-3.677-3.677v-5.01a1.172,1.172,0,0,1,2.344,0v5.01A1.335,1.335,0,0,0,14.95,30.06H37.495a1.172,1.172,0,1,1,0,2.344" fill="#fff"/>
        <path id="Trazado_229059" data-name="Trazado 229059" d="M40,34.909a3.677,3.677,0,1,1,3.677-3.677A3.681,3.681,0,0,1,40,34.909m0-5.01a1.333,1.333,0,1,0,1.333,1.333A1.335,1.335,0,0,0,40,29.9" fill="#fff"/>
        <path id="Trazado_229060" data-name="Trazado 229060" d="M40,29.9a1.172,1.172,0,0,1-1.172-1.172v-5.01a1.172,1.172,0,0,1,2.344,0v5.01A1.172,1.172,0,0,1,40,29.9" fill="#fff"/>
      </g>
    </g>
  </g>
</svg>
