<svg id="Grupo_218349" data-name="Grupo 218349" xmlns="http://www.w3.org/2000/svg" xmlns:xlink="http://www.w3.org/1999/xlink" width="147.066" height="126.62" viewBox="0 0 147.066 126.62">
  <defs>
    <clipPath id="clip-path">
      <rect id="Rectángulo_304371" data-name="Rectángulo 304371" width="147.066" height="126.62" fill="none"/>
    </clipPath>
  </defs>
  <g id="Grupo_218291" data-name="Grupo 218291" clip-path="url(#clip-path)">
    <path id="Trazado_228797" data-name="Trazado 228797" d="M4.846,230a2.169,2.169,0,0,1,.609.169,2.1,2.1,0,0,1,.518.349,6.355,6.355,0,0,1,.56.609l15.593,19.71c-.064-.627-.105-1.243-.135-1.833s-.045-1.153-.045-1.679V229.94h6.713v32.824H24.691a3.637,3.637,0,0,1-1.484-.27,3.183,3.183,0,0,1-1.172-.992L6.555,241.968c.049.567.083,1.127.113,1.675s.049,1.063.049,1.544v17.6H0V229.94H4.008a6.447,6.447,0,0,1,.838.064" transform="translate(0 -143.564)" fill="#4d77cf"/>
    <path id="Trazado_228798" data-name="Trazado 228798" d="M94.056,255.11v14.823a4.078,4.078,0,0,0,.789,2.682,2.863,2.863,0,0,0,2.322.947,4.98,4.98,0,0,0,2.152-.473,8.03,8.03,0,0,0,1.95-1.33V255.11h6.983v23.362h-4.324a1.649,1.649,0,0,1-1.717-1.172l-.424-1.352a14.03,14.03,0,0,1-1.4,1.187,8.76,8.76,0,0,1-1.544.9,9.212,9.212,0,0,1-1.784.594,9.373,9.373,0,0,1-2.07.214,8.173,8.173,0,0,1-3.381-.665,7.015,7.015,0,0,1-2.491-1.856,8.14,8.14,0,0,1-1.533-2.817,11.65,11.65,0,0,1-.518-3.561V255.11Z" transform="translate(-54.361 -159.278)" fill="#4d77cf"/>
    <path id="Trazado_228799" data-name="Trazado 228799" d="M155.45,277.854V254.485h4.327a1.929,1.929,0,0,1,1.093.293,1.582,1.582,0,0,1,.62.879l.376,1.262a12.475,12.475,0,0,1,1.213-1.127,7.818,7.818,0,0,1,1.364-.879,7.394,7.394,0,0,1,3.437-.8,5.483,5.483,0,0,1,3.5,1.093,6.813,6.813,0,0,1,2.1,2.915,7.024,7.024,0,0,1,1.431-1.848,7.67,7.67,0,0,1,1.826-1.236,8.89,8.89,0,0,1,2.07-.7,10.749,10.749,0,0,1,2.179-.225,9.874,9.874,0,0,1,3.557.6,6.784,6.784,0,0,1,2.6,1.735,7.572,7.572,0,0,1,1.589,2.795,12.032,12.032,0,0,1,.541,3.756v14.846H182.3V263.008q0-3.629-3.107-3.625a3.179,3.179,0,0,0-2.355.935,3.625,3.625,0,0,0-.935,2.69v14.846h-6.976V263.008a4,4,0,0,0-.789-2.817,3.094,3.094,0,0,0-2.322-.808,3.953,3.953,0,0,0-1.792.424,6.665,6.665,0,0,0-1.589,1.149v16.9Z" transform="translate(-97.056 -158.653)" fill="#4d77cf"/>
    <path id="Trazado_228800" data-name="Trazado 228800" d="M263.944,251.784v10.973H256.33V229.932h11.577a19.111,19.111,0,0,1,5.962.815,11.451,11.451,0,0,1,4.1,2.254,8.776,8.776,0,0,1,2.378,3.4,11.509,11.509,0,0,1,.751,4.234,12.441,12.441,0,0,1-.789,4.508,9.048,9.048,0,0,1-2.412,3.516,11.271,11.271,0,0,1-4.11,2.284,18.746,18.746,0,0,1-5.879.838Zm0-5.744h3.963c1.983,0,3.411-.47,4.282-1.42a5.616,5.616,0,0,0,1.307-3.963,5.93,5.93,0,0,0-.338-2.051,4.173,4.173,0,0,0-1.026-1.589,4.658,4.658,0,0,0-1.735-1.026,7.782,7.782,0,0,0-2.491-.376h-3.963Z" transform="translate(-160.04 -143.556)" fill="#4d77cf"/>
    <path id="Trazado_228801" data-name="Trazado 228801" d="M337.92,284.538a2.513,2.513,0,0,1-.751,1.022,2.486,2.486,0,0,1-1.442.327h-5.24l4.508-9.459-9.324-21.322h6.172a1.974,1.974,0,0,1,1.262.376,1.935,1.935,0,0,1,.631.857l3.828,10.071a22.145,22.145,0,0,1,.879,2.784c.15-.481.316-.954.5-1.416s.353-.939.518-1.42l3.471-10.026a1.692,1.692,0,0,1,.71-.868,2.03,2.03,0,0,1,1.127-.349H350.4Z" transform="translate(-203.333 -159.274)" fill="#4d77cf"/>
    <path id="Trazado_228802" data-name="Trazado 228802" d="M131.514,33.46l-13.948-7.04-15.311,7.641,14.327,7.194Z" transform="translate(-63.843 -16.496)" fill="#4dabcf"/>
    <path id="Trazado_228803" data-name="Trazado 228803" d="M172.413,53.75l14.624,7.385-15.172,7.618-14.35-7.2Z" transform="translate(-98.345 -33.559)" fill="#4dabcf"/>
    <path id="Trazado_228804" data-name="Trazado 228804" d="M227.454,26.7l15.026,7.536-13.441,6.747L214.385,33.59Z" transform="translate(-133.852 -16.67)" fill="#4dabcf"/>
    <path id="Trazado_228805" data-name="Trazado 228805" d="M187.233,6.785,173.706,0,160.325,6.679l13.94,7.028Z" transform="translate(-100.099 0)" fill="#4dabcf"/>
    <path id="Trazado_228806" data-name="Trazado 228806" d="M203.8,159.516v18.459l16.386-8.178-.015-18.467Z" transform="translate(-127.246 -94.483)" fill="#4dabcf"/>
    <path id="Trazado_228807" data-name="Trazado 228807" d="M220.168,103.8l-.019-18.272L203.8,93.656v18.279Z" transform="translate(-127.246 -53.401)" fill="#4dabcf"/>
    <path id="Trazado_228808" data-name="Trazado 228808" d="M276.484,125.06v18.531l-13.978,6.972-.011-18.444Z" transform="translate(-163.889 -78.082)" fill="#4dabcf"/>
    <path id="Trazado_228809" data-name="Trazado 228809" d="M276.459,77.629V59.47l-14,6.961.011,18.309Z" transform="translate(-163.864 -37.13)" fill="#4dabcf"/>
    <path id="Trazado_228810" data-name="Trazado 228810" d="M128.068,76.373l-11.037-5.552V94.8s-13.5-28.722-14.748-31.3a2.751,2.751,0,0,0-.992-.789c-2.434-1.27-9.526-4.861-9.526-4.861v42.384l9.812,5.259V83.33s13.354,25.664,13.493,25.946,1.473,2.983,2.908,3.933c1.9,1.266,10.082,6.183,10.082,6.183Z" transform="translate(-57.294 -36.119)" fill="#4d77cf"/>
  </g>
</svg>
