<svg xmlns="http://www.w3.org/2000/svg" width="820" height="316" viewBox="0 0 820 316">
  <g id="Grupo_220037" data-name="Grupo 220037" transform="translate(7838 9695)">
    <path id="Trazado_229925" data-name="Trazado 229925" d="M0,0H820V316H0Z" transform="translate(-7838 -9695)" fill="none"/>
    <g id="Grupo_217324" data-name="Grupo 217324" transform="translate(-7585.279 -9588.804)">
      <path id="Trazado_228319" data-name="Trazado 228319" d="M286.138,129.506c-.569-.145-.862-.415-.773-.875a.659.659,0,0,1,.708-.569c.425.035.78.241.766.729-.013.509-.477.544-.7.715" transform="translate(-93.994 -24.815)" fill="#868686"/>
      <g id="Grupo_217322" data-name="Grupo 217322" transform="translate(100.472 0)">
        <path id="Trazado_228317" data-name="Trazado 228317" d="M261.622,75.864c2.764.661,5.206,2.109,7.7,3.362a6.092,6.092,0,0,0,5.271.184c2.547-.881,4-2.265,4.527-4.92.391-1.959,1.288-3.81,1.8-5.751a1.553,1.553,0,0,1,1.836-1.352c1.879.062,3.765.091,5.639-.009a1.836,1.836,0,0,1,2.172,1.5c.762,2.43,1.719,4.8,2.491,7.224a4.171,4.171,0,0,0,2.262,2.561c2.975,1.62,5.686,1.78,8.539-.294a46.857,46.857,0,0,1,4.63-2.421,1.372,1.372,0,0,1,2.065.368,1.776,1.776,0,0,0,.143.142c1.628,1.687,4.111,3.143,4.648,5.126.547,2.016-1.352,4.424-2.636,6.279-2.342,3.378-.847,6.174.518,9.156.34.742,1.035.8,1.643,1,2.477.836,4.951,1.691,7.458,2.428a1.967,1.967,0,0,1,1.706,2.266c-.1,1.807-.063,3.625-.009,5.436a1.808,1.808,0,0,1-1.481,2.042,39.938,39.938,0,0,1-4.745,1.635c-3.925.655-5.45,3.371-6.448,6.748a2.849,2.849,0,0,0,.332,2.287c1.226,2.387,2.393,4.807,3.67,7.165a1.556,1.556,0,0,1-.311,2.249c-1.487,1.356-2.9,2.8-4.276,4.269a1.5,1.5,0,0,1-2.084.354c-2.457-1.234-5-2.305-7.446-3.554a3.719,3.719,0,0,0-3.012-.116c-3.351.942-5.446,2.863-5.926,6.4a11.691,11.691,0,0,1-.591,1.92c-1.294,4.056-1.294,4.056-5.659,4.056-4.381,0-4.382,0-5.819-4.049a11.941,11.941,0,0,1-.573-1.715,7.891,7.891,0,0,0-6.466-6.7,2.962,2.962,0,0,0-2.432.113c-2.4,1.332-4.911,2.482-7.324,3.8a1.622,1.622,0,0,1-2.422-.4c-.281-.372-.675-.656-.987-1.007-1.282-1.445-3.595-2.492-3.757-4.259-.149-1.62,1.35-3.393,2.125-5.1a4.036,4.036,0,0,1,.366-.716c2.067-2.8,1.914-5.554.171-8.512a4.088,4.088,0,0,0-2.554-2.217c-2.383-.679-4.7-1.581-7.079-2.287-1.207-.359-1.809-.933-1.706-2.265.171-2.2-.751-4.765.35-6.524,1.122-1.791,3.923-1.714,5.936-2.58a1.453,1.453,0,0,1,.375-.142c4.131-.44,5.026-3.8,6.263-6.881.286-.714-.121-1.133-.387-1.656-1.218-2.391-2.37-4.819-3.664-7.168a1.928,1.928,0,0,1,.378-2.8c1.411-1.233,2.729-2.572,4.087-3.865a.9.9,0,0,1,.692-.817" transform="translate(-207.534 -45.708)" fill="#bddcf6"/>
        <path id="Trazado_228318" data-name="Trazado 228318" d="M271.83,81.412l-.694.817c-1.558-.842-2.715.462-4.038.8a4.874,4.874,0,0,0-3.5,2.607c-1.239,2.381-.212,4.065.764,5.958,1.86,3.609,1.784,3.553-.909,6.428-1.148,1.225-2.124,1.566-3.565.617a21.963,21.963,0,0,0-2.707-1.328c-3.652-1.735-6.275-.616-7.535,3.213-.042.128-.071.259-.113.387-1.528,4.612-1.527,4.583-6.334,4.359a1.66,1.66,0,0,1-1.764-1.265c-.485-1.463-1.113-2.879-1.555-4.354a3.993,3.993,0,0,0-2.342-2.511,4.375,4.375,0,0,0-5.04.305,4.851,4.851,0,0,1-.717.366c-4.132,2.085-4.626,1.955-7.485-1.745a1.34,1.34,0,0,1-.175-1.635,40.073,40.073,0,0,1,1.739-3.621,4.737,4.737,0,0,0,.14-5.229,3.583,3.583,0,0,0-2.584-2.222,11.328,11.328,0,0,1-1.342-.426c-4.471-1.473-4.439-1.473-4.283-6.19A1.6,1.6,0,0,1,219.029,75c1.53-.5,3.011-1.147,4.548-1.614a4.088,4.088,0,0,0,2.413-2.159c1.209-2.042.691-3.689-.337-5.576-2.375-4.357-2.281-4.373,1.327-7.669a1.452,1.452,0,0,1,1.932-.289c1.25.648,2.609,1.1,3.8,1.834a4.509,4.509,0,0,0,4.7.12,3.766,3.766,0,0,0,2.516-2.805,11.448,11.448,0,0,1,.528-1.73c1.652-4.479.315-3.694,5.339-3.847,1.422-.043,2.273.325,2.62,1.787.245,1.038.876,2,1.026,3.041.4,2.8,2.561,3.5,4.733,4.257a1.577,1.577,0,0,0,1.34-.19c.651-.347,1.32-.659,1.979-.995,4.537-2.313,4.519-2.3,7.856,1.468a1.32,1.32,0,0,1,.273,1.756,22.989,22.989,0,0,1-1.717,3.405c-1.7,2.163-.743,4.084.144,6.131.4.913,1.165,1.023,1.893,1.307,1.916.749,4.635.647,5.6,2.266.891,1.5.253,3.91.288,5.92" transform="translate(-217.742 -51.256)" fill="#bddcf6"/>
        <path id="Trazado_228322" data-name="Trazado 228322" d="M279.113,86.813a11.857,11.857,0,0,1,12.074,11.921,11.991,11.991,0,0,1-12.028,12.277,12.259,12.259,0,0,1-12.166-12.242,12.051,12.051,0,0,1,12.12-11.956" transform="translate(-200.786 -39.014)" fill="#fff"/>
        <path id="Trazado_228323" data-name="Trazado 228323" d="M248.581,73.6a8.571,8.571,0,0,1-8.443,8.679,8.634,8.634,0,1,1,.126-17.268,8.525,8.525,0,0,1,8.317,8.59" transform="translate(-212.984 -46.521)" fill="#fff"/>
      </g>
      <g id="Grupo_217321" data-name="Grupo 217321" transform="translate(0 38.64)">
        <rect id="Rect치ngulo_304279" data-name="Rect치ngulo 304279" width="32.262" height="8.066" transform="translate(0 6.721)" fill="#0f2771"/>
        <path id="Trazado_228340" data-name="Trazado 228340" d="M163,101.508V80l21.508,10.754Z" transform="translate(-136.115 -80)" fill="#0f2771"/>
      </g>
      <g id="Grupo_217323" data-name="Grupo 217323" transform="translate(266.164 38.64)">
        <rect id="Rect치ngulo_304280" data-name="Rect치ngulo 304280" width="32.262" height="8.066" transform="translate(0 6.721)" fill="#0f2771"/>
        <path id="Trazado_228341" data-name="Trazado 228341" d="M361,101.508V80l21.508,10.754Z" transform="translate(-334.115 -80)" fill="#0f2771"/>
      </g>
    </g>
    <path id="Trazado_228315" data-name="Trazado 228315" d="M167.671,129.43V156.66c0,12.429-.059,24.858.044,37.286a7.611,7.611,0,0,1-3.246,6.533c-4.725,3.634-10.242,5.563-15.865,7.172-11.906,3.409-24.108,5.116-36.424,6.206A301.4,301.4,0,0,1,74.356,214.9c-19-.707-37.9-2.346-56.2-8a42.9,42.9,0,0,1-13.218-6.259A7.889,7.889,0,0,1,1.473,193.8c.082-20.692.043-41.384.043-62.077v-2.361a41,41,0,0,0,10.1,5.881c9.019,3.643,18.467,5.606,28.014,7.11a288.814,288.814,0,0,0,49.555,3.211c18.476-.286,36.856-1.721,54.886-6.061,7.051-1.7,14.007-3.764,20.227-7.688,1.058-.667,2.046-1.442,3.371-2.385" transform="translate(-7777.637 -9628.957)" fill="#4dd0e1"/>
    <path id="Trazado_228316" data-name="Trazado 228316" d="M85.677,149.163a275.8,275.8,0,0,1-49.063-3.7c-9.322-1.609-18.572-3.6-27.153-7.832a23.6,23.6,0,0,1-5.389-3.5c-3.422-3.062-3.385-6.184.125-9.176a31.938,31.938,0,0,1,9.461-5.253c9.128-3.51,18.658-5.42,28.286-6.829a296.922,296.922,0,0,1,52.194-2.784c16.775.516,33.473,1.981,49.826,6.022,6.446,1.594,12.836,3.455,18.543,7.053a15.233,15.233,0,0,1,3.585,2.9c2.158,2.535,2.1,4.955-.269,7.32-3.467,3.457-7.875,5.294-12.383,6.887-10.171,3.593-20.737,5.443-31.393,6.755a267.39,267.39,0,0,1-36.37,2.131" transform="translate(-7776.98 -9635.646)" fill="#4dd0e1"/>
    <g id="Grupo_217320" data-name="Grupo 217320" transform="translate(-7777.509 -9656.016)">
      <path id="Trazado_228324" data-name="Trazado 228324" d="M69.58,20.164H33.4a1.4,1.4,0,0,1-1.4-1.4V1.4A1.4,1.4,0,0,1,33.4,0H69.58a1.4,1.4,0,0,1,1.4,1.4V18.761a1.4,1.4,0,0,1-1.4,1.4" transform="translate(11.016)" fill="#4dd0e1"/>
      <path id="Trazado_228325" data-name="Trazado 228325" d="M101.58,20.164H65.4a1.4,1.4,0,0,1-1.4-1.4V1.4A1.4,1.4,0,0,1,65.4,0H101.58a1.4,1.4,0,0,1,1.4,1.4V18.761a1.4,1.4,0,0,1-1.4,1.4" transform="translate(22.033)" fill="#4dd0e1"/>
      <path id="Trazado_228326" data-name="Trazado 228326" d="M133.58,20.164H97.4a1.4,1.4,0,0,1-1.4-1.4V1.4A1.4,1.4,0,0,1,97.4,0H133.58a1.4,1.4,0,0,1,1.4,1.4V18.761a1.4,1.4,0,0,1-1.4,1.4" transform="translate(33.049)" fill="#4dd0e1"/>
      <path id="Trazado_228327" data-name="Trazado 228327" d="M37.58,20.164H1.4a1.4,1.4,0,0,1-1.4-1.4V1.4A1.4,1.4,0,0,1,1.4,0H37.58a1.4,1.4,0,0,1,1.4,1.4V18.761a1.4,1.4,0,0,1-1.4,1.4" fill="#4dd0e1"/>
      <path id="Trazado_228328" data-name="Trazado 228328" d="M69.58,38.164H33.4a1.4,1.4,0,0,1-1.4-1.4V19.4A1.4,1.4,0,0,1,33.4,18H69.58a1.4,1.4,0,0,1,1.4,1.4V36.761a1.4,1.4,0,0,1-1.4,1.4" transform="translate(11.016 6.197)" fill="#4dd0e1"/>
      <path id="Trazado_228329" data-name="Trazado 228329" d="M101.58,38.164H65.4a1.4,1.4,0,0,1-1.4-1.4V19.4A1.4,1.4,0,0,1,65.4,18H101.58a1.4,1.4,0,0,1,1.4,1.4V36.761a1.4,1.4,0,0,1-1.4,1.4" transform="translate(22.033 6.197)" fill="#4dd0e1"/>
      <path id="Trazado_228330" data-name="Trazado 228330" d="M133.58,38.164H97.4a1.4,1.4,0,0,1-1.4-1.4V19.4A1.4,1.4,0,0,1,97.4,18H133.58a1.4,1.4,0,0,1,1.4,1.4V36.761a1.4,1.4,0,0,1-1.4,1.4" transform="translate(33.049 6.197)" fill="#4dd0e1"/>
      <path id="Trazado_228331" data-name="Trazado 228331" d="M37.58,38.164H1.4a1.4,1.4,0,0,1-1.4-1.4V19.4A1.4,1.4,0,0,1,1.4,18H37.58a1.4,1.4,0,0,1,1.4,1.4V36.761a1.4,1.4,0,0,1-1.4,1.4" transform="translate(0 6.197)" fill="#4dd0e1"/>
      <path id="Trazado_228332" data-name="Trazado 228332" d="M69.58,56.164H33.4a1.4,1.4,0,0,1-1.4-1.4V37.4A1.4,1.4,0,0,1,33.4,36H69.58a1.4,1.4,0,0,1,1.4,1.4V54.761a1.4,1.4,0,0,1-1.4,1.4" transform="translate(11.016 12.393)" fill="#4dd0e1"/>
      <path id="Trazado_228333" data-name="Trazado 228333" d="M101.58,56.164H65.4a1.4,1.4,0,0,1-1.4-1.4V37.4A1.4,1.4,0,0,1,65.4,36H101.58a1.4,1.4,0,0,1,1.4,1.4V54.761a1.4,1.4,0,0,1-1.4,1.4" transform="translate(22.033 12.393)" fill="#4dd0e1"/>
      <path id="Trazado_228334" data-name="Trazado 228334" d="M133.58,56.164H97.4a1.4,1.4,0,0,1-1.4-1.4V37.4A1.4,1.4,0,0,1,97.4,36H133.58a1.4,1.4,0,0,1,1.4,1.4V54.761a1.4,1.4,0,0,1-1.4,1.4" transform="translate(33.049 12.393)" fill="#4dd0e1"/>
      <path id="Trazado_228335" data-name="Trazado 228335" d="M37.58,56.164H1.4a1.4,1.4,0,0,1-1.4-1.4V37.4A1.4,1.4,0,0,1,1.4,36H37.58a1.4,1.4,0,0,1,1.4,1.4V54.761a1.4,1.4,0,0,1-1.4,1.4" transform="translate(0 12.393)" fill="#4dd0e1"/>
      <path id="Trazado_228336" data-name="Trazado 228336" d="M69.58,74.164H33.4a1.4,1.4,0,0,1-1.4-1.4V55.4A1.4,1.4,0,0,1,33.4,54H69.58a1.4,1.4,0,0,1,1.4,1.4V72.761a1.4,1.4,0,0,1-1.4,1.4" transform="translate(11.016 18.59)" fill="#4dd0e1"/>
      <path id="Trazado_228337" data-name="Trazado 228337" d="M101.58,74.164H65.4a1.4,1.4,0,0,1-1.4-1.4V55.4A1.4,1.4,0,0,1,65.4,54H101.58a1.4,1.4,0,0,1,1.4,1.4V72.761a1.4,1.4,0,0,1-1.4,1.4" transform="translate(22.033 18.59)" fill="#4dd0e1"/>
      <path id="Trazado_228338" data-name="Trazado 228338" d="M133.58,74.164H97.4a1.4,1.4,0,0,1-1.4-1.4V55.4A1.4,1.4,0,0,1,97.4,54H133.58a1.4,1.4,0,0,1,1.4,1.4V72.761a1.4,1.4,0,0,1-1.4,1.4" transform="translate(33.049 18.59)" fill="#4dd0e1"/>
      <path id="Trazado_228339" data-name="Trazado 228339" d="M37.58,74.164H1.4a1.4,1.4,0,0,1-1.4-1.4V55.4A1.4,1.4,0,0,1,1.4,54H37.58a1.4,1.4,0,0,1,1.4,1.4V72.761a1.4,1.4,0,0,1-1.4,1.4" transform="translate(0 18.59)" fill="#4dd0e1"/>
    </g>
    <path id="Trazado_229926" data-name="Trazado 229926" d="M16.168,12.6H10.6v4.5h6.563V19H8.229V4.781H17.1v1.9H10.6V10.7h5.566Zm6.68-.547L24.8,8.434h2.725l-3.32,5.225L27.623,19h-2.7l-2.041-3.711L20.846,19H18.131l3.418-5.342-3.32-5.225h2.7Zm9.385-6.191V8.434h1.895v1.758H32.232v5.84a1.273,1.273,0,0,0,.283.933,1.026,1.026,0,0,0,.752.278,2.1,2.1,0,0,0,.381-.034A2.315,2.315,0,0,0,34,17.115l.254,1.738a2.726,2.726,0,0,1-.718.259,3.951,3.951,0,0,1-.864.093,2.738,2.738,0,0,1-2.056-.767,3.343,3.343,0,0,1-.747-2.407v-5.84H28.258V8.434h1.611V5.865ZM41.3,10.572l-1.016-.039a2.128,2.128,0,0,0-1.157.293,1.929,1.929,0,0,0-.718.83V19H36.041V8.434h2.168l.156,1.533A3.389,3.389,0,0,1,39.4,8.7a2.4,2.4,0,0,1,1.45-.459,2.211,2.211,0,0,1,.4.034,2.924,2.924,0,0,1,.342.083ZM49.43,19q-.127-.4-.21-.781a5.585,5.585,0,0,1-.112-.762A4.07,4.07,0,0,1,47.828,18.7a3.291,3.291,0,0,1-1.787.5,3.513,3.513,0,0,1-2.534-.85,3.085,3.085,0,0,1-.884-2.334,2.757,2.757,0,0,1,1.211-2.388,5.847,5.847,0,0,1,3.408-.854h1.846v-.928a1.725,1.725,0,0,0-.483-1.3,1.934,1.934,0,0,0-1.4-.469,2,2,0,0,0-1.289.386,1.226,1.226,0,0,0-.479,1l-2.285.01-.01-.059a2.617,2.617,0,0,1,1.118-2.217,4.738,4.738,0,0,1,3.091-.967,4.521,4.521,0,0,1,2.979.938,3.3,3.3,0,0,1,1.133,2.7v4.7a8.662,8.662,0,0,0,.088,1.255A6.664,6.664,0,0,0,51.832,19Zm-2.9-1.7a2.966,2.966,0,0,0,1.606-.449,2.262,2.262,0,0,0,.952-1.025V14.264H47.2a2.379,2.379,0,0,0-1.621.513A1.558,1.558,0,0,0,45,15.982a1.23,1.23,0,0,0,.4.962A1.644,1.644,0,0,0,46.529,17.3Zm11.719.01A1.972,1.972,0,0,0,59.62,16.8a1.662,1.662,0,0,0,.562-1.289H62.33l.02.059a3.186,3.186,0,0,1-1.177,2.559,4.71,4.71,0,0,1-6.45-.435,5.792,5.792,0,0,1-1.24-3.8v-.342a5.8,5.8,0,0,1,1.24-3.8,4.288,4.288,0,0,1,3.516-1.514,4.144,4.144,0,0,1,3,1.108,3.618,3.618,0,0,1,1.113,2.817l-.02.059H60.182a2.144,2.144,0,0,0-.537-1.475,1.79,1.79,0,0,0-1.406-.605,1.936,1.936,0,0,0-1.826.981,4.857,4.857,0,0,0-.557,2.427v.342a4.9,4.9,0,0,0,.552,2.446A1.947,1.947,0,0,0,58.248,17.311ZM67.379,5.865V8.434h1.895v1.758H67.379v5.84a1.273,1.273,0,0,0,.283.933,1.026,1.026,0,0,0,.752.278,2.1,2.1,0,0,0,.381-.034,2.315,2.315,0,0,0,.352-.093l.254,1.738a2.726,2.726,0,0,1-.718.259,3.951,3.951,0,0,1-.864.093,2.738,2.738,0,0,1-2.056-.767,3.343,3.343,0,0,1-.747-2.407v-5.84H63.4V8.434h1.611V5.865Zm3.369,7.754a5.738,5.738,0,0,1,1.294-3.872,4.942,4.942,0,0,1,7.109,0,5.738,5.738,0,0,1,1.294,3.872v.205a5.729,5.729,0,0,1-1.294,3.882,4.959,4.959,0,0,1-7.109,0,5.733,5.733,0,0,1-1.294-3.877Zm2.373.205a4.687,4.687,0,0,0,.605,2.52,2.284,2.284,0,0,0,3.735,0,4.6,4.6,0,0,0,.62-2.515v-.205a4.6,4.6,0,0,0-.62-2.5,2.073,2.073,0,0,0-1.88-.981,2.032,2.032,0,0,0-1.851.981,4.653,4.653,0,0,0-.61,2.5Z" transform="translate(-7737 -9689)" fill="#12263f"/>
    <path id="Trazado_229927" data-name="Trazado 229927" d="M17.244,6.686H12.85V19H10.477V6.686H6.15v-1.9H17.244Zm6.191,3.887-1.016-.039a2.128,2.128,0,0,0-1.157.293,1.929,1.929,0,0,0-.718.83V19H18.172V8.434H20.34L20.5,9.967a3.389,3.389,0,0,1,1.03-1.27,2.4,2.4,0,0,1,1.45-.459,2.211,2.211,0,0,1,.4.034,2.924,2.924,0,0,1,.342.083ZM31.561,19q-.127-.4-.21-.781a5.585,5.585,0,0,1-.112-.762A4.07,4.07,0,0,1,29.959,18.7a3.291,3.291,0,0,1-1.787.5,3.513,3.513,0,0,1-2.534-.85,3.085,3.085,0,0,1-.884-2.334,2.757,2.757,0,0,1,1.211-2.388,5.847,5.847,0,0,1,3.408-.854h1.846v-.928a1.725,1.725,0,0,0-.483-1.3,1.934,1.934,0,0,0-1.4-.469,2,2,0,0,0-1.289.386,1.226,1.226,0,0,0-.479,1l-2.285.01-.01-.059A2.617,2.617,0,0,1,26.39,9.205a4.738,4.738,0,0,1,3.091-.967,4.521,4.521,0,0,1,2.979.938,3.3,3.3,0,0,1,1.133,2.7v4.7a8.662,8.662,0,0,0,.088,1.255A6.664,6.664,0,0,0,33.963,19Zm-2.9-1.7a2.966,2.966,0,0,0,1.606-.449,2.262,2.262,0,0,0,.952-1.025V14.264H29.334a2.379,2.379,0,0,0-1.621.513,1.558,1.558,0,0,0-.586,1.206,1.23,1.23,0,0,0,.4.962A1.644,1.644,0,0,0,28.66,17.3Zm9.561-8.867.137,1.523a3.779,3.779,0,0,1,1.3-1.265,3.479,3.479,0,0,1,1.772-.454,3.3,3.3,0,0,1,2.573,1.016,4.615,4.615,0,0,1,.923,3.174V19H42.557V12.447a2.552,2.552,0,0,0-.479-1.748,1.875,1.875,0,0,0-1.445-.518,2.833,2.833,0,0,0-1.318.288,2.309,2.309,0,0,0-.889.8V19H36.053V8.434Zm15.117,7.676a1.094,1.094,0,0,0-.464-.9,4.8,4.8,0,0,0-1.753-.64,7.13,7.13,0,0,1-2.852-1.123,2.366,2.366,0,0,1-.986-1.992,2.869,2.869,0,0,1,1.123-2.271,4.45,4.45,0,0,1,2.959-.942,4.588,4.588,0,0,1,3.052.972,2.815,2.815,0,0,1,1.108,2.339l-.02.059H53.23a1.481,1.481,0,0,0-.508-1.118,1.91,1.91,0,0,0-1.357-.474,1.939,1.939,0,0,0-1.309.391,1.221,1.221,0,0,0-.449.957,1.029,1.029,0,0,0,.42.859,4.6,4.6,0,0,0,1.729.576,7.158,7.158,0,0,1,2.93,1.147,2.424,2.424,0,0,1,.986,2.026A2.808,2.808,0,0,1,54.5,18.3a4.956,4.956,0,0,1-3.1.9,4.732,4.732,0,0,1-3.252-1.055,2.979,2.979,0,0,1-1.133-2.422l.02-.059h2.207a1.583,1.583,0,0,0,.664,1.338,2.669,2.669,0,0,0,1.523.42,2.387,2.387,0,0,0,1.411-.361A1.124,1.124,0,0,0,53.338,16.109ZM58.572,19V10.191H56.961V8.434h1.611V7.2a3.635,3.635,0,0,1,.952-2.7A3.622,3.622,0,0,1,62.2,3.561a4.587,4.587,0,0,1,.693.054q.352.054.791.151L63.436,5.6q-.2-.039-.435-.068a4.226,4.226,0,0,0-.513-.029,1.458,1.458,0,0,0-1.157.439,1.852,1.852,0,0,0-.386,1.26v1.23h1.963v1.758H60.945V19Zm5.557-5.381a5.738,5.738,0,0,1,1.294-3.872,4.942,4.942,0,0,1,7.109,0,5.738,5.738,0,0,1,1.294,3.872v.205a5.729,5.729,0,0,1-1.294,3.882,4.959,4.959,0,0,1-7.109,0,5.733,5.733,0,0,1-1.294-3.877Zm2.373.205a4.687,4.687,0,0,0,.605,2.52,2.284,2.284,0,0,0,3.735,0,4.6,4.6,0,0,0,.62-2.515v-.205a4.6,4.6,0,0,0-.62-2.5,2.073,2.073,0,0,0-1.88-.981,2.032,2.032,0,0,0-1.851.981,4.653,4.653,0,0,0-.61,2.5ZM81.16,10.572l-1.016-.039a2.128,2.128,0,0,0-1.157.293,1.929,1.929,0,0,0-.718.83V19H75.9V8.434h2.168l.156,1.533a3.389,3.389,0,0,1,1.03-1.27,2.4,2.4,0,0,1,1.45-.459,2.211,2.211,0,0,1,.4.034,2.924,2.924,0,0,1,.342.083Zm3.926-2.139.127,1.377a3.581,3.581,0,0,1,1.3-1.162,3.831,3.831,0,0,1,1.807-.41,3.26,3.26,0,0,1,1.777.469,2.833,2.833,0,0,1,1.113,1.406A3.7,3.7,0,0,1,92.5,8.736a3.477,3.477,0,0,1,1.875-.5,3.1,3.1,0,0,1,2.515,1.108,5.156,5.156,0,0,1,.923,3.354V19H95.438V12.691a3.113,3.113,0,0,0-.464-1.948,1.7,1.7,0,0,0-1.392-.562,2.036,2.036,0,0,0-1.289.41,2.285,2.285,0,0,0-.762,1.1q0,.146.01.254t.01.205V19H89.178V12.691a3.078,3.078,0,0,0-.474-1.924,1.684,1.684,0,0,0-1.392-.586,2.5,2.5,0,0,0-1.226.278,2.052,2.052,0,0,0-.8.786V19H82.918V8.434ZM106.678,19q-.127-.4-.21-.781a5.585,5.585,0,0,1-.112-.762,4.07,4.07,0,0,1-1.279,1.245,3.291,3.291,0,0,1-1.787.5,3.513,3.513,0,0,1-2.534-.85,3.085,3.085,0,0,1-.884-2.334,2.757,2.757,0,0,1,1.211-2.388,5.847,5.847,0,0,1,3.408-.854h1.846v-.928a1.725,1.725,0,0,0-.483-1.3,1.934,1.934,0,0,0-1.4-.469,2,2,0,0,0-1.289.386,1.226,1.226,0,0,0-.479,1l-2.285.01-.01-.059a2.617,2.617,0,0,1,1.118-2.217,4.738,4.738,0,0,1,3.091-.967,4.521,4.521,0,0,1,2.979.938,3.3,3.3,0,0,1,1.133,2.7v4.7a8.662,8.662,0,0,0,.088,1.255A6.663,6.663,0,0,0,109.08,19Zm-2.9-1.7a2.966,2.966,0,0,0,1.606-.449,2.262,2.262,0,0,0,.952-1.025V14.264h-1.885a2.379,2.379,0,0,0-1.621.513,1.558,1.558,0,0,0-.586,1.206,1.23,1.23,0,0,0,.4.962A1.644,1.644,0,0,0,103.777,17.3Zm11.719.01a1.972,1.972,0,0,0,1.372-.508,1.662,1.662,0,0,0,.562-1.289h2.148l.02.059a3.186,3.186,0,0,1-1.177,2.559,4.71,4.71,0,0,1-6.45-.435,5.792,5.792,0,0,1-1.24-3.8v-.342a5.8,5.8,0,0,1,1.24-3.8,4.288,4.288,0,0,1,3.516-1.514,4.144,4.144,0,0,1,3,1.108,3.618,3.618,0,0,1,1.113,2.817l-.02.059H117.43a2.144,2.144,0,0,0-.537-1.475,1.79,1.79,0,0,0-1.406-.605,1.936,1.936,0,0,0-1.826.981,4.857,4.857,0,0,0-.557,2.427v.342a4.9,4.9,0,0,0,.552,2.446A1.947,1.947,0,0,0,115.5,17.311ZM124.119,19h-2.373V8.434h2.373Zm0-13.154h-2.373V3.766h2.373Zm2.217,7.773a5.738,5.738,0,0,1,1.294-3.872,4.942,4.942,0,0,1,7.109,0,5.738,5.738,0,0,1,1.294,3.872v.205a5.729,5.729,0,0,1-1.294,3.882,4.959,4.959,0,0,1-7.109,0,5.733,5.733,0,0,1-1.294-3.877Zm2.373.205a4.687,4.687,0,0,0,.605,2.52,2.284,2.284,0,0,0,3.735,0,4.605,4.605,0,0,0,.62-2.515v-.205a4.6,4.6,0,0,0-.62-2.5,2.073,2.073,0,0,0-1.88-.981,2.032,2.032,0,0,0-1.851.981,4.653,4.653,0,0,0-.61,2.5Zm3.223-9.893h2.686l.02.059-2.666,2.539h-1.9Zm8.32,4.5.137,1.523a3.779,3.779,0,0,1,1.3-1.265,3.479,3.479,0,0,1,1.772-.454,3.3,3.3,0,0,1,2.573,1.016,4.615,4.615,0,0,1,.923,3.174V19h-2.373V12.447a2.552,2.552,0,0,0-.479-1.748,1.875,1.875,0,0,0-1.445-.518,2.833,2.833,0,0,0-1.318.288,2.309,2.309,0,0,0-.889.8V19h-2.373V8.434Z" transform="translate(-7498 -9689)" fill="#12263f"/>
    <path id="Trazado_229928" data-name="Trazado 229928" d="M19.947,11.34h-5.4V17H12.819V4.2h8.024V5.565H14.551V9.978h5.4Zm8.2,4.245a3.245,3.245,0,0,1-1.156,1.182,3.13,3.13,0,0,1-1.622.417,3.055,3.055,0,0,1-2.426-.993,4.611,4.611,0,0,1-.87-3.094V7.49h1.731v5.625a3.541,3.541,0,0,0,.448,2.092,1.667,1.667,0,0,0,1.4.571,2.822,2.822,0,0,0,1.525-.378,2.356,2.356,0,0,0,.91-1.072V7.49h1.731V17H28.262Zm8.314,1.6a4.278,4.278,0,0,1-3.327-1.314,4.9,4.9,0,0,1-1.2-3.441v-.387a4.934,4.934,0,0,1,1.182-3.388A3.707,3.707,0,0,1,36,7.314,3.451,3.451,0,0,1,38.866,8.5a4.888,4.888,0,0,1,.954,3.155v.914H33.737l-.018.044a3.692,3.692,0,0,0,.672,2.32,2.434,2.434,0,0,0,2.07.9,4.23,4.23,0,0,0,1.371-.18,9.121,9.121,0,0,0,1.2-.549l.431,1.222a5.016,5.016,0,0,1-1.156.6A5.343,5.343,0,0,1,36.462,17.185ZM36,8.677a1.882,1.882,0,0,0-1.5.7,3.306,3.306,0,0,0-.725,1.789l.018.044h4.289v-.141a2.769,2.769,0,0,0-.51-1.714A1.842,1.842,0,0,0,36,8.677Zm7.3-1.187.123,1.415a3.453,3.453,0,0,1,1.191-1.173,3.178,3.178,0,0,1,1.63-.417,3.1,3.1,0,0,1,2.382.9A3.955,3.955,0,0,1,49.479,11v6H47.747V11.032a2.572,2.572,0,0,0-.5-1.784,1.989,1.989,0,0,0-1.516-.527,2.684,2.684,0,0,0-1.358.321,2.332,2.332,0,0,0-.883.9V17H41.762V7.49ZM54.2,5.2V7.49H56V8.773H54.2v5.774a1.293,1.293,0,0,0,.277.94,1,1,0,0,0,.734.272,1.732,1.732,0,0,0,.33-.035,2.017,2.017,0,0,0,.321-.088l.237,1.187a1.626,1.626,0,0,1-.58.259,2.883,2.883,0,0,1-.747.1,2.246,2.246,0,0,1-1.674-.637,2.755,2.755,0,0,1-.628-2V8.773h-1.5V7.49h1.5V5.2Zm7.655,11.988a4.278,4.278,0,0,1-3.327-1.314,4.9,4.9,0,0,1-1.2-3.441v-.387a4.934,4.934,0,0,1,1.182-3.388A3.707,3.707,0,0,1,61.4,7.314,3.451,3.451,0,0,1,64.257,8.5a4.888,4.888,0,0,1,.954,3.155v.914H59.129l-.018.044a3.692,3.692,0,0,0,.672,2.32,2.434,2.434,0,0,0,2.07.9,4.23,4.23,0,0,0,1.371-.18,9.121,9.121,0,0,0,1.2-.549l.431,1.222a5.016,5.016,0,0,1-1.156.6A5.343,5.343,0,0,1,61.854,17.185ZM61.4,8.677a1.882,1.882,0,0,0-1.5.7,3.306,3.306,0,0,0-.725,1.789l.018.044h4.289v-.141a2.769,2.769,0,0,0-.51-1.714A1.842,1.842,0,0,0,61.4,8.677Zm9.835,3.744a6.346,6.346,0,0,1,.98-3.7,3.158,3.158,0,0,1,2.747-1.406,3.405,3.405,0,0,1,1.481.308,3.036,3.036,0,0,1,1.1.9V3.289h1.731V17H77.946l-.264-1.2a3.086,3.086,0,0,1-1.151,1.037,3.44,3.44,0,0,1-1.591.352,3.264,3.264,0,0,1-2.725-1.261,5.241,5.241,0,0,1-.984-3.318Zm1.731.185a4.037,4.037,0,0,0,.589,2.307,2.056,2.056,0,0,0,1.828.866,2.293,2.293,0,0,0,1.3-.352,2.625,2.625,0,0,0,.861-.984V10a2.666,2.666,0,0,0-.866-.936A2.288,2.288,0,0,0,75.4,8.721a1.979,1.979,0,0,0-1.841,1.028,5.308,5.308,0,0,0-.593,2.672Zm13.017,4.579a4.278,4.278,0,0,1-3.327-1.314,4.9,4.9,0,0,1-1.2-3.441v-.387a4.934,4.934,0,0,1,1.182-3.388,3.707,3.707,0,0,1,2.887-1.34A3.451,3.451,0,0,1,88.383,8.5a4.888,4.888,0,0,1,.954,3.155v.914H83.255l-.018.044a3.692,3.692,0,0,0,.672,2.32,2.434,2.434,0,0,0,2.07.9,4.23,4.23,0,0,0,1.371-.18,9.121,9.121,0,0,0,1.2-.549l.431,1.222a5.016,5.016,0,0,1-1.156.6A5.343,5.343,0,0,1,85.979,17.185Zm-.457-8.508a1.882,1.882,0,0,0-1.5.7,3.306,3.306,0,0,0-.725,1.789l.018.044h4.289v-.141a2.769,2.769,0,0,0-.51-1.714A1.842,1.842,0,0,0,85.522,8.677Zm9.835,3.744a6.346,6.346,0,0,1,.98-3.7,3.158,3.158,0,0,1,2.747-1.406,3.405,3.405,0,0,1,1.481.308,3.036,3.036,0,0,1,1.1.9V3.289H103.4V17h-1.327l-.264-1.2a3.086,3.086,0,0,1-1.151,1.037,3.44,3.44,0,0,1-1.591.352,3.264,3.264,0,0,1-2.725-1.261,5.241,5.241,0,0,1-.984-3.318Zm1.731.185a4.037,4.037,0,0,0,.589,2.307,2.056,2.056,0,0,0,1.828.866,2.293,2.293,0,0,0,1.3-.352,2.625,2.625,0,0,0,.861-.984V10a2.666,2.666,0,0,0-.866-.936,2.288,2.288,0,0,0-1.279-.347,1.979,1.979,0,0,0-1.841,1.028,5.308,5.308,0,0,0-.593,2.672ZM111.828,17q-.088-.431-.136-.76a5.58,5.58,0,0,1-.057-.664,4.037,4.037,0,0,1-1.261,1.147,3.225,3.225,0,0,1-1.674.461,3.109,3.109,0,0,1-2.263-.76,2.8,2.8,0,0,1-.778-2.1,2.456,2.456,0,0,1,1.1-2.131,5.151,5.151,0,0,1,2.993-.769h1.881v-.94a1.745,1.745,0,0,0-.51-1.323,2,2,0,0,0-1.441-.488,2.091,2.091,0,0,0-1.362.422,1.266,1.266,0,0,0-.519,1.011l-1.644.018-.018-.053a2.276,2.276,0,0,1,.971-1.9,4.025,4.025,0,0,1,2.667-.861,3.927,3.927,0,0,1,2.6.822,2.911,2.911,0,0,1,.984,2.369v4.579a8.913,8.913,0,0,0,.053.984,5.062,5.062,0,0,0,.193.932Zm-2.874-1.266a3.082,3.082,0,0,0,1.7-.483,2.3,2.3,0,0,0,.984-1.107V12.6h-1.942a2.52,2.52,0,0,0-1.674.527,1.577,1.577,0,0,0-.628,1.239,1.3,1.3,0,0,0,.4,1A1.656,1.656,0,0,0,108.954,15.734ZM118.086,5.2V7.49h1.8V8.773h-1.8v5.774a1.293,1.293,0,0,0,.277.94,1,1,0,0,0,.734.272,1.732,1.732,0,0,0,.33-.035,2.017,2.017,0,0,0,.321-.088l.237,1.187a1.626,1.626,0,0,1-.58.259,2.883,2.883,0,0,1-.747.1,2.246,2.246,0,0,1-1.674-.637,2.755,2.755,0,0,1-.628-2V8.773h-1.5V7.49h1.5V5.2Zm3.129,6.961a5.235,5.235,0,0,1,1.143-3.476,4.234,4.234,0,0,1,6.227,0,5.218,5.218,0,0,1,1.147,3.48v.193a5.21,5.21,0,0,1-1.143,3.48,4.253,4.253,0,0,1-6.227,0,5.2,5.2,0,0,1-1.147-3.476Zm1.731.193a4.511,4.511,0,0,0,.637,2.5,2.3,2.3,0,0,0,3.775,0,4.487,4.487,0,0,0,.642-2.5v-.193a4.473,4.473,0,0,0-.646-2.487,2.117,2.117,0,0,0-1.894-.993,2.088,2.088,0,0,0-1.876.993,4.52,4.52,0,0,0-.637,2.487Zm14.432,2.092a1.154,1.154,0,0,0-.435-.932,4.2,4.2,0,0,0-1.648-.633,6.915,6.915,0,0,1-2.58-1.011,2.041,2.041,0,0,1-.9-1.74,2.508,2.508,0,0,1,.989-1.986,4.363,4.363,0,0,1,5.181.053,2.518,2.518,0,0,1,.958,2.048l-.018.053h-1.652a1.5,1.5,0,0,0-.541-1.116,1.932,1.932,0,0,0-1.367-.5A1.97,1.97,0,0,0,134,9.09a1.289,1.289,0,0,0-.453.984,1.043,1.043,0,0,0,.391.87,4.329,4.329,0,0,0,1.613.563,6.815,6.815,0,0,1,2.654,1.046,2.106,2.106,0,0,1,.905,1.767,2.5,2.5,0,0,1-1.024,2.065,4.224,4.224,0,0,1-2.676.8,4.179,4.179,0,0,1-2.865-.923,2.633,2.633,0,0,1-.993-2.153l.018-.053h1.652a1.6,1.6,0,0,0,.686,1.349,2.652,2.652,0,0,0,1.5.426,2.368,2.368,0,0,0,1.446-.391A1.2,1.2,0,0,0,137.378,14.442ZM150.72,17h-1.74V5.8l-2.786.026V4.493l4.526-.475Z" transform="translate(-7778 -9556)" fill="#12263f"/>
    <path id="Trazado_229929" data-name="Trazado 229929" d="M42.756,14.6h.053L46.9,4.2h2.153V17H47.318V7.411L47.265,7.4,43.389,17h-1.2l-3.99-9.914-.053.009V17H36.411V4.2h2.276Zm8.49-2.443a5.235,5.235,0,0,1,1.143-3.476,4.234,4.234,0,0,1,6.227,0,5.218,5.218,0,0,1,1.147,3.48v.193a5.21,5.21,0,0,1-1.143,3.48,4.253,4.253,0,0,1-6.227,0,5.2,5.2,0,0,1-1.147-3.476Zm1.731.193a4.511,4.511,0,0,0,.637,2.5,2.3,2.3,0,0,0,3.775,0,4.487,4.487,0,0,0,.642-2.5v-.193a4.473,4.473,0,0,0-.646-2.487,2.117,2.117,0,0,0-1.894-.993,2.088,2.088,0,0,0-1.876.993,4.52,4.52,0,0,0-.637,2.487ZM64.087,5.2V7.49h1.8V8.773h-1.8v5.774a1.293,1.293,0,0,0,.277.94,1,1,0,0,0,.734.272,1.732,1.732,0,0,0,.33-.035,2.017,2.017,0,0,0,.321-.088l.237,1.187a1.626,1.626,0,0,1-.58.259,2.883,2.883,0,0,1-.747.1,2.246,2.246,0,0,1-1.674-.637,2.755,2.755,0,0,1-.628-2V8.773h-1.5V7.49h1.5V5.2Zm3.129,6.961a5.235,5.235,0,0,1,1.143-3.476,4.234,4.234,0,0,1,6.227,0,5.218,5.218,0,0,1,1.147,3.48v.193a5.21,5.21,0,0,1-1.143,3.48,4.253,4.253,0,0,1-6.227,0,5.2,5.2,0,0,1-1.147-3.476Zm1.731.193a4.511,4.511,0,0,0,.637,2.5,2.3,2.3,0,0,0,3.775,0,4.487,4.487,0,0,0,.642-2.5v-.193a4.473,4.473,0,0,0-.646-2.487,2.117,2.117,0,0,0-1.894-.993,2.088,2.088,0,0,0-1.876.993,4.52,4.52,0,0,0-.637,2.487Zm13.4-3.331-.888-.053a1.983,1.983,0,0,0-1.156.325,2.086,2.086,0,0,0-.725.914V17H77.851V7.49H79.4l.123,1.477a3.339,3.339,0,0,1,1-1.213,2.334,2.334,0,0,1,1.406-.439,2.139,2.139,0,0,1,.369.031,2.446,2.446,0,0,1,.29.066Zm5.88,3.4a6.346,6.346,0,0,1,.98-3.7,3.158,3.158,0,0,1,2.747-1.406,3.405,3.405,0,0,1,1.481.308,3.036,3.036,0,0,1,1.1.9V3.289h1.731V17H94.946l-.264-1.2a3.086,3.086,0,0,1-1.151,1.037,3.44,3.44,0,0,1-1.591.352,3.264,3.264,0,0,1-2.725-1.261,5.241,5.241,0,0,1-.984-3.318Zm1.731.185a4.037,4.037,0,0,0,.589,2.307,2.056,2.056,0,0,0,1.828.866,2.293,2.293,0,0,0,1.3-.352,2.625,2.625,0,0,0,.861-.984V10a2.666,2.666,0,0,0-.866-.936A2.288,2.288,0,0,0,92.4,8.721a1.979,1.979,0,0,0-1.841,1.028,5.308,5.308,0,0,0-.593,2.672Zm13.017,4.579a4.278,4.278,0,0,1-3.327-1.314,4.9,4.9,0,0,1-1.2-3.441v-.387a4.934,4.934,0,0,1,1.182-3.388,3.707,3.707,0,0,1,2.887-1.34A3.451,3.451,0,0,1,105.383,8.5a4.888,4.888,0,0,1,.954,3.155v.914h-6.082l-.018.044a3.692,3.692,0,0,0,.672,2.32,2.434,2.434,0,0,0,2.07.9,4.23,4.23,0,0,0,1.371-.18,9.121,9.121,0,0,0,1.2-.549l.431,1.222a5.016,5.016,0,0,1-1.156.6A5.343,5.343,0,0,1,102.979,17.185Zm-.457-8.508a1.882,1.882,0,0,0-1.5.7,3.306,3.306,0,0,0-.725,1.789l.018.044H104.6v-.141a2.769,2.769,0,0,0-.51-1.714A1.842,1.842,0,0,0,102.522,8.677ZM12.641,21.2V23.49h1.8v1.283h-1.8v5.774a1.293,1.293,0,0,0,.277.94,1,1,0,0,0,.734.272,1.732,1.732,0,0,0,.33-.035,2.017,2.017,0,0,0,.321-.088l.237,1.187a1.626,1.626,0,0,1-.58.259,2.883,2.883,0,0,1-.747.1,2.246,2.246,0,0,1-1.674-.637,2.755,2.755,0,0,1-.628-2V24.773h-1.5V23.49h1.5V21.2Zm8.033,3.823-.888-.053a1.983,1.983,0,0,0-1.156.325,2.086,2.086,0,0,0-.725.914V33H16.174V23.49h1.547l.123,1.477a3.339,3.339,0,0,1,1-1.213,2.334,2.334,0,0,1,1.406-.439,2.139,2.139,0,0,1,.369.031,2.446,2.446,0,0,1,.29.066ZM28.32,33q-.088-.431-.136-.76a5.58,5.58,0,0,1-.057-.664,4.037,4.037,0,0,1-1.261,1.147,3.225,3.225,0,0,1-1.674.461,3.109,3.109,0,0,1-2.263-.76,2.8,2.8,0,0,1-.778-2.1,2.456,2.456,0,0,1,1.1-2.131,5.151,5.151,0,0,1,2.993-.769h1.881v-.94a1.745,1.745,0,0,0-.51-1.323,2,2,0,0,0-1.441-.488,2.091,2.091,0,0,0-1.362.422,1.266,1.266,0,0,0-.519,1.011l-1.644.018-.018-.053a2.276,2.276,0,0,1,.971-1.9,4.025,4.025,0,0,1,2.667-.861,3.927,3.927,0,0,1,2.6.822,2.911,2.911,0,0,1,.984,2.369v4.579a8.913,8.913,0,0,0,.053.984A5.062,5.062,0,0,0,30.1,33Zm-2.874-1.266a3.082,3.082,0,0,0,1.7-.483,2.3,2.3,0,0,0,.984-1.107V28.6H26.185a2.52,2.52,0,0,0-1.674.527,1.577,1.577,0,0,0-.628,1.239,1.3,1.3,0,0,0,.4,1A1.656,1.656,0,0,0,25.446,31.734Zm8.473-8.244.123,1.415a3.453,3.453,0,0,1,1.191-1.173,3.178,3.178,0,0,1,1.63-.417,3.1,3.1,0,0,1,2.382.9A3.955,3.955,0,0,1,40.089,27v6H38.357V27.032a2.572,2.572,0,0,0-.5-1.784,1.989,1.989,0,0,0-1.516-.527,2.684,2.684,0,0,0-1.358.321,2.332,2.332,0,0,0-.883.9V33H32.372V23.49Zm14.212,6.952a1.154,1.154,0,0,0-.435-.932,4.2,4.2,0,0,0-1.648-.633,6.915,6.915,0,0,1-2.58-1.011,2.041,2.041,0,0,1-.9-1.74,2.508,2.508,0,0,1,.989-1.986,4.363,4.363,0,0,1,5.181.053,2.518,2.518,0,0,1,.958,2.048l-.018.053H48.025a1.5,1.5,0,0,0-.541-1.116,1.932,1.932,0,0,0-1.367-.5,1.97,1.97,0,0,0-1.367.413,1.289,1.289,0,0,0-.453.984,1.043,1.043,0,0,0,.391.87,4.329,4.329,0,0,0,1.613.563,6.815,6.815,0,0,1,2.654,1.046,2.106,2.106,0,0,1,.905,1.767,2.5,2.5,0,0,1-1.024,2.065,4.224,4.224,0,0,1-2.676.8,4.179,4.179,0,0,1-2.865-.923,2.633,2.633,0,0,1-.993-2.153l.018-.053h1.652a1.6,1.6,0,0,0,.686,1.349,2.652,2.652,0,0,0,1.5.426,2.368,2.368,0,0,0,1.446-.391A1.2,1.2,0,0,0,48.131,30.442ZM52.5,33V24.773H51V23.49H52.5v-1.2a3.275,3.275,0,0,1,.791-2.351A2.913,2.913,0,0,1,55.5,19.1a3.82,3.82,0,0,1,.6.048q.3.048.672.136l-.211,1.318q-.158-.035-.382-.062a3.947,3.947,0,0,0-.461-.026,1.364,1.364,0,0,0-1.129.453,2.053,2.053,0,0,0-.365,1.314v1.2h1.723v1.283H54.23V33Zm4.6-4.843a5.235,5.235,0,0,1,1.143-3.476,4.234,4.234,0,0,1,6.227,0,5.218,5.218,0,0,1,1.147,3.48v.193a5.21,5.21,0,0,1-1.143,3.48,4.253,4.253,0,0,1-6.227,0A5.2,5.2,0,0,1,57.1,28.351Zm1.731.193a4.511,4.511,0,0,0,.637,2.5,2.3,2.3,0,0,0,3.775,0,4.487,4.487,0,0,0,.642-2.5v-.193a4.473,4.473,0,0,0-.646-2.487,2.117,2.117,0,0,0-1.894-.993,2.088,2.088,0,0,0-1.876.993,4.52,4.52,0,0,0-.637,2.487Zm13.4-3.331-.888-.053a1.983,1.983,0,0,0-1.156.325,2.086,2.086,0,0,0-.725.914V33H67.73V23.49h1.547l.123,1.477a3.339,3.339,0,0,1,1-1.213,2.334,2.334,0,0,1,1.406-.439,2.139,2.139,0,0,1,.369.031,2.446,2.446,0,0,1,.29.066Zm3.349-1.529.123,1.248a3.23,3.23,0,0,1,1.182-1.05,3.552,3.552,0,0,1,1.666-.374,2.942,2.942,0,0,1,1.63.439A2.658,2.658,0,0,1,81.2,25.072,3.557,3.557,0,0,1,82.4,23.785a3.115,3.115,0,0,1,1.718-.47,2.847,2.847,0,0,1,2.294,1,4.557,4.557,0,0,1,.844,3V33H85.52V27.3a3.161,3.161,0,0,0-.483-1.991,1.763,1.763,0,0,0-1.441-.584,1.835,1.835,0,0,0-1.437.615,2.678,2.678,0,0,0-.646,1.556V33h-1.74V27.3a3.118,3.118,0,0,0-.5-1.956,1.723,1.723,0,0,0-1.428-.62,2.379,2.379,0,0,0-1.3.325,2.1,2.1,0,0,0-.782.914V33H74.032V23.49ZM95.609,33q-.088-.431-.136-.76a5.58,5.58,0,0,1-.057-.664,4.037,4.037,0,0,1-1.261,1.147,3.225,3.225,0,0,1-1.674.461,3.109,3.109,0,0,1-2.263-.76,2.8,2.8,0,0,1-.778-2.1,2.456,2.456,0,0,1,1.1-2.131,5.151,5.151,0,0,1,2.993-.769h1.881v-.94a1.745,1.745,0,0,0-.51-1.323,2,2,0,0,0-1.441-.488A2.091,2.091,0,0,0,92.1,25.1a1.266,1.266,0,0,0-.519,1.011l-1.644.018-.018-.053a2.276,2.276,0,0,1,.971-1.9,4.025,4.025,0,0,1,2.667-.861,3.927,3.927,0,0,1,2.6.822,2.911,2.911,0,0,1,.984,2.369v4.579a8.913,8.913,0,0,0,.053.984,5.062,5.062,0,0,0,.193.932Zm-2.874-1.266a3.082,3.082,0,0,0,1.7-.483,2.3,2.3,0,0,0,.984-1.107V28.6H93.474a2.52,2.52,0,0,0-1.674.527,1.577,1.577,0,0,0-.628,1.239,1.3,1.3,0,0,0,.4,1A1.656,1.656,0,0,0,92.735,31.734Zm10.705.1a2.036,2.036,0,0,0,1.4-.532,1.68,1.68,0,0,0,.6-1.305H107l.026.053a2.731,2.731,0,0,1-1.055,2.184,4.03,4.03,0,0,1-5.625-.409,5.259,5.259,0,0,1-1.09-3.393v-.369a5.235,5.235,0,0,1,1.094-3.379,3.731,3.731,0,0,1,3.089-1.367,3.588,3.588,0,0,1,2.606.984,3.122,3.122,0,0,1,.98,2.417l-.018.053h-1.573a2.1,2.1,0,0,0-.567-1.481,1.866,1.866,0,0,0-1.428-.611,2,2,0,0,0-1.859.989,4.628,4.628,0,0,0-.584,2.4v.369a4.716,4.716,0,0,0,.576,2.417A2,2,0,0,0,103.44,31.831ZM110.955,33h-1.731V23.49h1.731Zm0-11.944h-1.731V19.289h1.731Zm2.259,7.1a5.235,5.235,0,0,1,1.143-3.476,4.234,4.234,0,0,1,6.227,0,5.218,5.218,0,0,1,1.147,3.48v.193a5.21,5.21,0,0,1-1.143,3.48,4.253,4.253,0,0,1-6.227,0,5.2,5.2,0,0,1-1.147-3.476Zm1.731.193a4.511,4.511,0,0,0,.637,2.5,2.3,2.3,0,0,0,3.775,0,4.487,4.487,0,0,0,.642-2.5v-.193a4.473,4.473,0,0,0-.646-2.487,2.117,2.117,0,0,0-1.894-.993,2.088,2.088,0,0,0-1.876.993,4.52,4.52,0,0,0-.637,2.487Zm3.366-8.895h2.021l.018.053-2.364,2.285h-1.3ZM125.4,23.49l.123,1.415a3.453,3.453,0,0,1,1.191-1.173,3.178,3.178,0,0,1,1.63-.417,3.1,3.1,0,0,1,2.382.9A3.955,3.955,0,0,1,131.565,27v6h-1.731V27.032a2.572,2.572,0,0,0-.5-1.784,1.989,1.989,0,0,0-1.516-.527,2.684,2.684,0,0,0-1.358.321,2.332,2.332,0,0,0-.883.9V33h-1.731V23.49Z" transform="translate(-7498 -9471)" fill="#12263f"/>
    <path id="Trazado_228344" data-name="Trazado 228344" d="M563.268,45.205v2.514q0,57.949.058,115.9a8.7,8.7,0,0,1-4.053,7.781c-5.271,3.666-11.264,5.611-17.376,7.235a195.054,195.054,0,0,1-31.7,5.349,295.934,295.934,0,0,1-33.17,1.434c-19.211-.328-38.337-1.641-57.065-6.357-5.731-1.442-11.382-3.154-16.56-6.114a20.975,20.975,0,0,1-4.1-2.906,6.523,6.523,0,0,1-2.227-4.966q.046-58.957.031-117.913a1.84,1.84,0,0,1,.336-1.507,38.013,38.013,0,0,0,10.768,6A130.547,130.547,0,0,0,435.7,58.431a294.491,294.491,0,0,0,36.685,3,316.379,316.379,0,0,0,44.994-2.061,153.565,153.565,0,0,0,32.589-6.95,38.636,38.636,0,0,0,13.3-7.213" transform="translate(-7640.809 -9647.175)" fill="#4dd0e1"/>
    <path id="Trazado_228345" data-name="Trazado 228345" d="M480.277,25.947c19.909.1,39.7,1.42,59.123,6.115,6.466,1.562,12.851,3.424,18.566,7a13.2,13.2,0,0,1,4.111,3.5c1.547,2.245,1.522,4.12-.276,6.235-2.883,3.393-6.853,5.11-10.87,6.661-9.189,3.552-18.8,5.42-28.5,6.833a294.872,294.872,0,0,1-51.817,2.738c-17.25-.54-34.421-2.014-51.208-6.368-6.049-1.569-12.01-3.413-17.365-6.784a15.059,15.059,0,0,1-3.4-2.812c-2.092-2.4-2.074-4.868.144-7.17,3.461-3.593,7.945-5.435,12.523-7.035,9.607-3.355,19.556-5.174,29.618-6.491a295.651,295.651,0,0,1,39.357-2.43" transform="translate(-7640.806 -9653.805)" fill="#4dd0e1"/>
    <path id="Trazado_229930" data-name="Trazado 229930" d="M36.076,14.352l.02.059a4.384,4.384,0,0,1-1.4,3.472,5.5,5.5,0,0,1-3.877,1.323A5.217,5.217,0,0,1,26.8,17.53a6.073,6.073,0,0,1-1.543-4.282V10.543a6.141,6.141,0,0,1,1.523-4.282,5.107,5.107,0,0,1,3.975-1.685A5.738,5.738,0,0,1,34.7,5.855a4.339,4.339,0,0,1,1.4,3.506l-.02.059H33.791a2.922,2.922,0,0,0-.771-2.183,3.107,3.107,0,0,0-2.266-.757,2.7,2.7,0,0,0-2.29,1.147,4.754,4.754,0,0,0-.845,2.9v2.725a4.73,4.73,0,0,0,.859,2.915,2.771,2.771,0,0,0,2.344,1.147,2.986,2.986,0,0,0,2.212-.762,2.986,2.986,0,0,0,.757-2.2ZM44.5,19q-.127-.4-.21-.781a5.585,5.585,0,0,1-.112-.762A4.07,4.07,0,0,1,42.9,18.7a3.291,3.291,0,0,1-1.787.5,3.513,3.513,0,0,1-2.534-.85,3.085,3.085,0,0,1-.884-2.334,2.757,2.757,0,0,1,1.211-2.388,5.847,5.847,0,0,1,3.408-.854h1.846v-.928a1.725,1.725,0,0,0-.483-1.3,1.934,1.934,0,0,0-1.4-.469,2,2,0,0,0-1.289.386,1.226,1.226,0,0,0-.479,1l-2.285.01-.01-.059a2.617,2.617,0,0,1,1.118-2.217,4.738,4.738,0,0,1,3.091-.967,4.521,4.521,0,0,1,2.979.938,3.3,3.3,0,0,1,1.133,2.7v4.7a8.662,8.662,0,0,0,.088,1.255A6.664,6.664,0,0,0,46.906,19Zm-2.9-1.7a2.966,2.966,0,0,0,1.606-.449,2.262,2.262,0,0,0,.952-1.025V14.264H42.277a2.379,2.379,0,0,0-1.621.513,1.558,1.558,0,0,0-.586,1.206,1.23,1.23,0,0,0,.4.962A1.644,1.644,0,0,0,41.6,17.3Zm12.676-6.729-1.016-.039a2.128,2.128,0,0,0-1.157.293,1.929,1.929,0,0,0-.718.83V19H49.016V8.434h2.168l.156,1.533A3.389,3.389,0,0,1,52.37,8.7a2.4,2.4,0,0,1,1.45-.459,2.211,2.211,0,0,1,.4.034,2.924,2.924,0,0,1,.342.083Zm1.2,3.291a6.968,6.968,0,0,1,1.084-4.077,3.506,3.506,0,0,1,3.047-1.548,3.329,3.329,0,0,1,1.665.405,3.518,3.518,0,0,1,1.216,1.167l.234-1.377H64.7V19a3.988,3.988,0,0,1-1.26,3.154,5.224,5.224,0,0,1-3.574,1.113,7,7,0,0,1-1.665-.22,7.735,7.735,0,0,1-1.616-.581l.381-1.865a6.012,6.012,0,0,0,1.353.474,6.832,6.832,0,0,0,1.528.171,2.711,2.711,0,0,0,1.885-.552,2.2,2.2,0,0,0,.6-1.694V17.916a3.32,3.32,0,0,1-1.177.962,3.545,3.545,0,0,1-1.558.327,3.6,3.6,0,0,1-3.027-1.416,5.958,5.958,0,0,1-1.084-3.721Zm2.363.205A4.226,4.226,0,0,0,58.41,16.4a1.978,1.978,0,0,0,1.787.869,2.431,2.431,0,0,0,1.284-.317,2.343,2.343,0,0,0,.845-.913V11.412a2.536,2.536,0,0,0-.854-.9,2.317,2.317,0,0,0-1.255-.327,1.921,1.921,0,0,0-1.8,1.021,5.385,5.385,0,0,0-.576,2.661ZM73.547,19q-.127-.4-.21-.781a5.585,5.585,0,0,1-.112-.762A4.07,4.07,0,0,1,71.945,18.7a3.291,3.291,0,0,1-1.787.5,3.513,3.513,0,0,1-2.534-.85,3.085,3.085,0,0,1-.884-2.334,2.757,2.757,0,0,1,1.211-2.388,5.847,5.847,0,0,1,3.408-.854h1.846v-.928a1.725,1.725,0,0,0-.483-1.3,1.934,1.934,0,0,0-1.4-.469,2,2,0,0,0-1.289.386,1.226,1.226,0,0,0-.479,1l-2.285.01-.01-.059a2.617,2.617,0,0,1,1.118-2.217,4.738,4.738,0,0,1,3.091-.967,4.521,4.521,0,0,1,2.979.938,3.3,3.3,0,0,1,1.133,2.7v4.7a8.662,8.662,0,0,0,.088,1.255A6.663,6.663,0,0,0,75.949,19Zm-2.9-1.7a2.966,2.966,0,0,0,1.606-.449,2.262,2.262,0,0,0,.952-1.025V14.264H71.32a2.379,2.379,0,0,0-1.621.513,1.558,1.558,0,0,0-.586,1.206,1.23,1.23,0,0,0,.4.962A1.644,1.644,0,0,0,70.646,17.3Z" transform="translate(-7211 -9689)" fill="#12263f"/>
    <path id="Trazado_229931" data-name="Trazado 229931" d="M49.335,11.744a5.46,5.46,0,0,1-1.455,3.894,4.946,4.946,0,0,1-3.775,1.547,4.688,4.688,0,0,1-3.643-1.547,5.579,5.579,0,0,1-1.4-3.894V9.468a5.6,5.6,0,0,1,1.4-3.894,4.676,4.676,0,0,1,3.643-1.556A4.939,4.939,0,0,1,47.88,5.57a5.476,5.476,0,0,1,1.455,3.9ZM47.6,9.45a4.317,4.317,0,0,0-.949-2.883,3.164,3.164,0,0,0-2.549-1.125,2.932,2.932,0,0,0-2.413,1.125,4.468,4.468,0,0,0-.9,2.883v2.294a4.5,4.5,0,0,0,.9,2.9,2.932,2.932,0,0,0,2.413,1.125,3.166,3.166,0,0,0,2.553-1.121,4.353,4.353,0,0,0,.945-2.9Zm12.111,3.155a5.225,5.225,0,0,1-.989,3.318,3.267,3.267,0,0,1-2.72,1.261,3.447,3.447,0,0,1-1.648-.374,3.059,3.059,0,0,1-1.156-1.1L52.921,17H51.594V3.289h1.731V8.615a3,3,0,0,1,1.112-.967,3.409,3.409,0,0,1,1.551-.334A3.16,3.16,0,0,1,58.73,8.721a6.325,6.325,0,0,1,.984,3.7Zm-1.731-.185a5.25,5.25,0,0,0-.6-2.667,1.982,1.982,0,0,0-1.833-1.033,2.266,2.266,0,0,0-1.349.391,2.758,2.758,0,0,0-.875,1.05v4.122a2.831,2.831,0,0,0,.875,1.1,2.254,2.254,0,0,0,1.367.4,2.057,2.057,0,0,0,1.819-.87,4,4,0,0,0,.6-2.3ZM63.819,7.49V17.782a3.158,3.158,0,0,1-.756,2.263,2.759,2.759,0,0,1-2.1.8,2.868,2.868,0,0,1-.5-.04,3.926,3.926,0,0,1-.479-.119l.123-1.362a1.823,1.823,0,0,0,.352.075,2.934,2.934,0,0,0,.378.031,1.148,1.148,0,0,0,.91-.387,1.892,1.892,0,0,0,.338-1.257V7.49Zm-.053-2.47H62.035V3.289h1.731ZM70.6,17.185a4.278,4.278,0,0,1-3.327-1.314,4.9,4.9,0,0,1-1.2-3.441v-.387A4.934,4.934,0,0,1,67.26,8.655a3.707,3.707,0,0,1,2.887-1.34A3.451,3.451,0,0,1,73.008,8.5a4.888,4.888,0,0,1,.954,3.155v.914H67.88l-.018.044a3.692,3.692,0,0,0,.672,2.32,2.434,2.434,0,0,0,2.07.9,4.23,4.23,0,0,0,1.371-.18,9.121,9.121,0,0,0,1.2-.549l.431,1.222a5.016,5.016,0,0,1-1.156.6A5.343,5.343,0,0,1,70.6,17.185Zm-.457-8.508a1.882,1.882,0,0,0-1.5.7,3.306,3.306,0,0,0-.725,1.789l.018.044H72.23v-.141a2.769,2.769,0,0,0-.51-1.714A1.842,1.842,0,0,0,70.147,8.677ZM78.11,5.2V7.49h1.8V8.773h-1.8v5.774a1.293,1.293,0,0,0,.277.94,1,1,0,0,0,.734.272,1.732,1.732,0,0,0,.33-.035,2.017,2.017,0,0,0,.321-.088l.237,1.187a1.626,1.626,0,0,1-.58.259,2.883,2.883,0,0,1-.747.1,2.246,2.246,0,0,1-1.674-.637,2.755,2.755,0,0,1-.628-2V8.773h-1.5V7.49h1.5V5.2ZM83.516,17H81.784V7.49h1.731Zm0-11.944H81.784V3.289h1.731ZM89.352,14.2l.149.668h.053l.167-.668L91.909,7.49h1.767L90.178,17h-1.31L85.326,7.49H87.1Zm5.2-2.039A5.235,5.235,0,0,1,95.7,8.681a4.234,4.234,0,0,1,6.227,0,5.218,5.218,0,0,1,1.147,3.48v.193a5.21,5.21,0,0,1-1.143,3.48,4.253,4.253,0,0,1-6.227,0,5.2,5.2,0,0,1-1.147-3.476Zm1.731.193a4.511,4.511,0,0,0,.637,2.5,2.3,2.3,0,0,0,3.775,0,4.487,4.487,0,0,0,.642-2.5v-.193a4.473,4.473,0,0,0-.646-2.487A2.117,2.117,0,0,0,98.8,8.677a2.088,2.088,0,0,0-1.876.993,4.52,4.52,0,0,0-.637,2.487Z" transform="translate(-7232 -9543)" fill="#12263f"/>
    <path id="Trazado_229932" data-name="Trazado 229932" d="M18.947,11.34h-5.4V17H11.819V4.2h8.024V5.565H13.551V9.978h5.4Zm8.2,4.245a3.245,3.245,0,0,1-1.156,1.182,3.13,3.13,0,0,1-1.622.417,3.055,3.055,0,0,1-2.426-.993,4.611,4.611,0,0,1-.87-3.094V7.49h1.731v5.625a3.541,3.541,0,0,0,.448,2.092,1.667,1.667,0,0,0,1.4.571,2.822,2.822,0,0,0,1.525-.378,2.356,2.356,0,0,0,.91-1.072V7.49h1.731V17H27.262Zm8.314,1.6a4.278,4.278,0,0,1-3.327-1.314,4.9,4.9,0,0,1-1.2-3.441v-.387a4.934,4.934,0,0,1,1.182-3.388A3.707,3.707,0,0,1,35,7.314,3.451,3.451,0,0,1,37.866,8.5a4.888,4.888,0,0,1,.954,3.155v.914H32.737l-.018.044a3.692,3.692,0,0,0,.672,2.32,2.434,2.434,0,0,0,2.07.9,4.23,4.23,0,0,0,1.371-.18,9.121,9.121,0,0,0,1.2-.549l.431,1.222a5.016,5.016,0,0,1-1.156.6A5.343,5.343,0,0,1,35.462,17.185ZM35,8.677a1.882,1.882,0,0,0-1.5.7,3.306,3.306,0,0,0-.725,1.789l.018.044h4.289v-.141a2.769,2.769,0,0,0-.51-1.714A1.842,1.842,0,0,0,35,8.677Zm7.3-1.187.123,1.415a3.453,3.453,0,0,1,1.191-1.173,3.178,3.178,0,0,1,1.63-.417,3.1,3.1,0,0,1,2.382.9A3.955,3.955,0,0,1,48.479,11v6H46.747V11.032a2.572,2.572,0,0,0-.5-1.784,1.989,1.989,0,0,0-1.516-.527,2.684,2.684,0,0,0-1.358.321,2.332,2.332,0,0,0-.883.9V17H40.762V7.49ZM53.2,5.2V7.49H55V8.773H53.2v5.774a1.293,1.293,0,0,0,.277.94,1,1,0,0,0,.734.272,1.732,1.732,0,0,0,.33-.035,2.017,2.017,0,0,0,.321-.088l.237,1.187a1.626,1.626,0,0,1-.58.259,2.883,2.883,0,0,1-.747.1,2.246,2.246,0,0,1-1.674-.637,2.755,2.755,0,0,1-.628-2V8.773h-1.5V7.49h1.5V5.2Zm7.655,11.988a4.278,4.278,0,0,1-3.327-1.314,4.9,4.9,0,0,1-1.2-3.441v-.387a4.934,4.934,0,0,1,1.182-3.388A3.707,3.707,0,0,1,60.4,7.314,3.451,3.451,0,0,1,63.257,8.5a4.888,4.888,0,0,1,.954,3.155v.914H58.129l-.018.044a3.692,3.692,0,0,0,.672,2.32,2.434,2.434,0,0,0,2.07.9,4.23,4.23,0,0,0,1.371-.18,9.121,9.121,0,0,0,1.2-.549l.431,1.222a5.016,5.016,0,0,1-1.156.6A5.343,5.343,0,0,1,60.854,17.185ZM60.4,8.677a1.882,1.882,0,0,0-1.5.7,3.306,3.306,0,0,0-.725,1.789l.018.044h4.289v-.141a2.769,2.769,0,0,0-.51-1.714A1.842,1.842,0,0,0,60.4,8.677Zm9.835,3.744a6.346,6.346,0,0,1,.98-3.7,3.158,3.158,0,0,1,2.747-1.406,3.405,3.405,0,0,1,1.481.308,3.036,3.036,0,0,1,1.1.9V3.289h1.731V17H76.946l-.264-1.2a3.086,3.086,0,0,1-1.151,1.037,3.44,3.44,0,0,1-1.591.352,3.264,3.264,0,0,1-2.725-1.261,5.241,5.241,0,0,1-.984-3.318Zm1.731.185a4.037,4.037,0,0,0,.589,2.307,2.056,2.056,0,0,0,1.828.866,2.293,2.293,0,0,0,1.3-.352,2.625,2.625,0,0,0,.861-.984V10a2.666,2.666,0,0,0-.866-.936A2.288,2.288,0,0,0,74.4,8.721a1.979,1.979,0,0,0-1.841,1.028,5.308,5.308,0,0,0-.593,2.672Zm13.017,4.579a4.278,4.278,0,0,1-3.327-1.314,4.9,4.9,0,0,1-1.2-3.441v-.387a4.934,4.934,0,0,1,1.182-3.388,3.707,3.707,0,0,1,2.887-1.34A3.451,3.451,0,0,1,87.383,8.5a4.888,4.888,0,0,1,.954,3.155v.914H82.255l-.018.044a3.692,3.692,0,0,0,.672,2.32,2.434,2.434,0,0,0,2.07.9,4.23,4.23,0,0,0,1.371-.18,9.121,9.121,0,0,0,1.2-.549l.431,1.222a5.016,5.016,0,0,1-1.156.6A5.343,5.343,0,0,1,84.979,17.185Zm-.457-8.508a1.882,1.882,0,0,0-1.5.7,3.306,3.306,0,0,0-.725,1.789l.018.044h4.289v-.141a2.769,2.769,0,0,0-.51-1.714A1.842,1.842,0,0,0,84.522,8.677Zm9.835,3.744a6.346,6.346,0,0,1,.98-3.7,3.158,3.158,0,0,1,2.747-1.406,3.405,3.405,0,0,1,1.481.308,3.036,3.036,0,0,1,1.1.9V3.289H102.4V17h-1.327l-.264-1.2a3.086,3.086,0,0,1-1.151,1.037,3.44,3.44,0,0,1-1.591.352,3.264,3.264,0,0,1-2.725-1.261,5.241,5.241,0,0,1-.984-3.318Zm1.731.185a4.037,4.037,0,0,0,.589,2.307,2.056,2.056,0,0,0,1.828.866,2.293,2.293,0,0,0,1.3-.352,2.625,2.625,0,0,0,.861-.984V10a2.666,2.666,0,0,0-.866-.936,2.288,2.288,0,0,0-1.279-.347,1.979,1.979,0,0,0-1.841,1.028,5.308,5.308,0,0,0-.593,2.672ZM110.828,17q-.088-.431-.136-.76a5.58,5.58,0,0,1-.057-.664,4.037,4.037,0,0,1-1.261,1.147,3.225,3.225,0,0,1-1.674.461,3.109,3.109,0,0,1-2.263-.76,2.8,2.8,0,0,1-.778-2.1,2.456,2.456,0,0,1,1.1-2.131,5.151,5.151,0,0,1,2.993-.769h1.881v-.94a1.745,1.745,0,0,0-.51-1.323,2,2,0,0,0-1.441-.488,2.091,2.091,0,0,0-1.362.422,1.266,1.266,0,0,0-.519,1.011l-1.644.018-.018-.053a2.276,2.276,0,0,1,.971-1.9,4.025,4.025,0,0,1,2.667-.861,3.927,3.927,0,0,1,2.6.822,2.911,2.911,0,0,1,.984,2.369v4.579a8.913,8.913,0,0,0,.053.984,5.062,5.062,0,0,0,.193.932Zm-2.874-1.266a3.082,3.082,0,0,0,1.7-.483,2.3,2.3,0,0,0,.984-1.107V12.6h-1.942a2.52,2.52,0,0,0-1.674.527,1.577,1.577,0,0,0-.628,1.239,1.3,1.3,0,0,0,.4,1A1.656,1.656,0,0,0,107.954,15.734ZM117.086,5.2V7.49h1.8V8.773h-1.8v5.774a1.293,1.293,0,0,0,.277.94,1,1,0,0,0,.734.272,1.732,1.732,0,0,0,.33-.035,2.017,2.017,0,0,0,.321-.088l.237,1.187a1.626,1.626,0,0,1-.58.259,2.883,2.883,0,0,1-.747.1,2.246,2.246,0,0,1-1.674-.637,2.755,2.755,0,0,1-.628-2V8.773h-1.5V7.49h1.5V5.2Zm3.129,6.961a5.235,5.235,0,0,1,1.143-3.476,4.234,4.234,0,0,1,6.227,0,5.218,5.218,0,0,1,1.147,3.48v.193a5.21,5.21,0,0,1-1.143,3.48,4.253,4.253,0,0,1-6.227,0,5.2,5.2,0,0,1-1.147-3.476Zm1.731.193a4.511,4.511,0,0,0,.637,2.5,2.3,2.3,0,0,0,3.775,0,4.487,4.487,0,0,0,.642-2.5v-.193a4.473,4.473,0,0,0-.646-2.487,2.117,2.117,0,0,0-1.894-.993,2.088,2.088,0,0,0-1.876.993,4.52,4.52,0,0,0-.637,2.487Zm14.432,2.092a1.154,1.154,0,0,0-.435-.932,4.2,4.2,0,0,0-1.648-.633,6.915,6.915,0,0,1-2.58-1.011,2.041,2.041,0,0,1-.9-1.74,2.508,2.508,0,0,1,.989-1.986,4.363,4.363,0,0,1,5.181.053,2.518,2.518,0,0,1,.958,2.048l-.018.053h-1.652a1.5,1.5,0,0,0-.541-1.116,1.932,1.932,0,0,0-1.367-.5A1.97,1.97,0,0,0,133,9.09a1.289,1.289,0,0,0-.453.984,1.043,1.043,0,0,0,.391.87,4.329,4.329,0,0,0,1.613.563,6.815,6.815,0,0,1,2.654,1.046,2.106,2.106,0,0,1,.905,1.767,2.5,2.5,0,0,1-1.024,2.065,4.224,4.224,0,0,1-2.676.8,4.179,4.179,0,0,1-2.865-.923,2.633,2.633,0,0,1-.993-2.153l.018-.053h1.652a1.6,1.6,0,0,0,.686,1.349,2.652,2.652,0,0,0,1.5.426,2.368,2.368,0,0,0,1.446-.391A1.2,1.2,0,0,0,136.378,14.442ZM152.743,17H144.8V15.813l4.017-4.79a12.067,12.067,0,0,0,1.455-2.07,3.454,3.454,0,0,0,.382-1.551,2.071,2.071,0,0,0-.519-1.455,1.844,1.844,0,0,0-1.433-.567,2.146,2.146,0,0,0-1.727.694,2.572,2.572,0,0,0-.593,1.731h-1.67l-.018-.053a3.452,3.452,0,0,1,1.046-2.65A4.011,4.011,0,0,1,148.7,4.019a3.724,3.724,0,0,1,2.7.949,3.255,3.255,0,0,1,.984,2.452,3.911,3.911,0,0,1-.558,1.978,22.064,22.064,0,0,1-1.7,2.426L146.9,15.6l.018.044h5.827Z" transform="translate(-7777 -9408)" fill="#12263f"/>
  </g>
</svg>
