<svg xmlns="http://www.w3.org/2000/svg" xmlns:xlink="http://www.w3.org/1999/xlink" width="209.963" height="132.935" viewBox="0 0 209.963 132.935">
  <defs>
    <clipPath id="clip-path">
      <rect id="Rectángulo_304677" data-name="Rectángulo 304677" width="209.963" height="132.935" fill="none"/>
    </clipPath>
    <clipPath id="clip-path-3">
      <path id="Trazado_229563" data-name="Trazado 229563" d="M31.905,43.768,32.279,50h7.6l.248-6.233Z" fill="none"/>
    </clipPath>
    <linearGradient id="linear-gradient" x1="-3.761" y1="9.334" x2="-3.643" y2="9.334" gradientUnits="objectBoundingBox">
      <stop offset="0" stop-color="#ff6e27"/>
      <stop offset="0.998" stop-color="#e03347"/>
      <stop offset="1" stop-color="#e03347"/>
    </linearGradient>
    <clipPath id="clip-path-4">
      <path id="Trazado_229564" data-name="Trazado 229564" d="M15.933,21.951l3.458,81.757h165.78l7.241-86.361Z" fill="#fff"/>
    </clipPath>
    <clipPath id="clip-path-6">
      <rect id="Rectángulo_304692" data-name="Rectángulo 304692" width="159.784" height="12.236" transform="translate(29.74 27.584)" fill="none"/>
    </clipPath>
    <clipPath id="clip-path-7">
      <path id="Trazado_229566" data-name="Trazado 229566" d="M31.811,30.93l.373,6.965h7.6l.248-6.965Z" fill="none"/>
    </clipPath>
    <linearGradient id="linear-gradient-2" x1="-3.426" y1="10.388" x2="-3.317" y2="10.388" xlink:href="#linear-gradient"/>
    <clipPath id="clip-path-9">
      <rect id="Rectángulo_304695" data-name="Rectángulo 304695" width="2.976" height="5.49" transform="translate(22.17 32.489)" fill="none"/>
    </clipPath>
    <clipPath id="clip-path-10">
      <path id="Trazado_229568" data-name="Trazado 229568" d="M15.933,21.951l.323,7.633,175.3-2,.859-10.237Z" fill="none"/>
    </clipPath>
    <clipPath id="clip-path-12">
      <rect id="Rectángulo_304699" data-name="Rectángulo 304699" width="0.472" height="8.69" transform="translate(87.407 20.08)" fill="none"/>
    </clipPath>
    <clipPath id="clip-path-13">
      <rect id="Rectángulo_304701" data-name="Rectángulo 304701" width="0.471" height="9.199" transform="translate(123.351 19.142)" fill="none"/>
    </clipPath>
    <clipPath id="clip-path-14">
      <rect id="Rectángulo_304703" data-name="Rectángulo 304703" width="0.472" height="9.891" transform="translate(160.464 18.174)" fill="none"/>
    </clipPath>
    <clipPath id="clip-path-15">
      <rect id="Rectángulo_304704" data-name="Rectángulo 304704" width="17.588" height="2.158" transform="translate(63.197 23.558)" fill="none"/>
    </clipPath>
    <clipPath id="clip-path-16">
      <rect id="Rectángulo_304705" data-name="Rectángulo 304705" width="17.588" height="2.148" transform="translate(99.299 22.889)" fill="none"/>
    </clipPath>
    <clipPath id="clip-path-17">
      <rect id="Rectángulo_304706" data-name="Rectángulo 304706" width="17.589" height="2.138" transform="translate(135.731 22.214)" fill="none"/>
    </clipPath>
    <clipPath id="clip-path-18">
      <rect id="Rectángulo_304707" data-name="Rectángulo 304707" width="17.589" height="2.13" transform="translate(170.405 21.571)" fill="none"/>
    </clipPath>
    <clipPath id="clip-path-19">
      <rect id="Rectángulo_304708" data-name="Rectángulo 304708" width="32.458" height="16.376" transform="translate(27.431 42.011)" fill="none"/>
    </clipPath>
    <clipPath id="clip-path-20">
      <rect id="Rectángulo_304709" data-name="Rectángulo 304709" width="66.047" height="16.49" transform="translate(28.254 61.215)" fill="#0f2771"/>
    </clipPath>
    <clipPath id="clip-path-21">
      <rect id="Rectángulo_304710" data-name="Rectángulo 304710" width="37.763" height="16.18" transform="translate(29.056 80.342)" fill="#0f2771"/>
    </clipPath>
    <clipPath id="clip-path-22">
      <rect id="Rectángulo_304711" data-name="Rectángulo 304711" width="37.492" height="16.296" transform="translate(68.987 80.215)" fill="#0f2771"/>
    </clipPath>
    <clipPath id="clip-path-23">
      <rect id="Rectángulo_304712" data-name="Rectángulo 304712" width="37.687" height="16.412" transform="translate(108.723 80.087)" fill="#0f2771"/>
    </clipPath>
    <clipPath id="clip-path-24">
      <rect id="Rectángulo_304713" data-name="Rectángulo 304713" width="33.502" height="16.513" transform="translate(148.214 79.975)" fill="#0f2771"/>
    </clipPath>
    <clipPath id="clip-path-25">
      <rect id="Rectángulo_304714" data-name="Rectángulo 304714" width="85.521" height="16.815" transform="translate(97.363 60.639)" fill="#0f2771"/>
    </clipPath>
    <clipPath id="clip-path-26">
      <rect id="Rectángulo_304715" data-name="Rectángulo 304715" width="121.103" height="17.352" transform="translate(62.981 40.787)" fill="#0f2771"/>
    </clipPath>
    <clipPath id="clip-path-27">
      <rect id="Rectángulo_304716" data-name="Rectángulo 304716" width="57.72" height="98.016" transform="translate(23.902 18.91)" fill="#0f2771"/>
    </clipPath>
    <clipPath id="clip-path-28">
      <path id="Trazado_229596" data-name="Trazado 229596" d="M17.453,14.55a30.843,30.843,0,0,0-5.695,12.616,31.333,31.333,0,0,0-.613,5.77v.378a31.326,31.326,0,0,0,.811,7.092A30.676,30.676,0,0,0,16.1,50.133,31.031,31.031,0,0,0,73.225,33.314a31.33,31.33,0,0,0-.755-6.836v-.019a30.622,30.622,0,0,0-3.948-9.576,30.727,30.727,0,0,0-2.615-3.6Z" fill="#fff"/>
    </clipPath>
    <clipPath id="clip-path-30">
      <rect id="Rectángulo_304719" data-name="Rectángulo 304719" width="53.515" height="17.3" transform="translate(19.71 26.458)" fill="none"/>
    </clipPath>
    <clipPath id="clip-path-31">
      <path id="Trazado_229598" data-name="Trazado 229598" d="M23.031,29.488l.6,11.179h12.2l.4-11.179Z" fill="#feca2e"/>
    </clipPath>
    <clipPath id="clip-path-33">
      <rect id="Rectángulo_304723" data-name="Rectángulo 304723" width="1.255" height="1.232" transform="translate(10.767 31.99)" fill="none"/>
    </clipPath>
    <clipPath id="clip-path-34">
      <rect id="Rectángulo_304724" data-name="Rectángulo 304724" width="0.607" height="0.774" transform="translate(11.653 40.043)" fill="none"/>
    </clipPath>
    <clipPath id="clip-path-35">
      <path id="Trazado_229600" data-name="Trazado 229600" d="M17.453,14.55a30.843,30.843,0,0,0-5.695,12.616l7.952-.085,52.76-.6v-.019a30.622,30.622,0,0,0-3.948-9.576,30.727,30.727,0,0,0-2.615-3.6Z" fill="none"/>
    </clipPath>
    <clipPath id="clip-path-37">
      <rect id="Rectángulo_304727" data-name="Rectángulo 304727" width="51.636" height="17.083" transform="translate(15.998 47.271)" fill="#0f2771"/>
    </clipPath>
    <clipPath id="clip-path-38">
      <path id="Trazado_229612" data-name="Trazado 229612" d="M29.65,70.292,15.74,111.053a7.818,7.818,0,0,0,4.031,2.479L34.087,64.1s-8.171-2.042-12.5-5.784c0,0,5.923,6.712,8.061,11.976" fill="#0f2771"/>
    </clipPath>
    <clipPath id="clip-path-39">
      <path id="Trazado_229613" data-name="Trazado 229613" d="M19.771,113.532c3.038.88,4.732.059,4.732.059L34.529,71.705c4.62-3.306,13.213-5.815,13.213-5.815A34.751,34.751,0,0,1,34.087,64.1Z" fill="#0f2771"/>
    </clipPath>
    <clipPath id="clip-path-41">
      <rect id="Rectángulo_304762" data-name="Rectángulo 304762" width="62.1" height="62.097" transform="translate(11.661 3.261)" fill="none"/>
    </clipPath>
    <clipPath id="clip-path-42">
      <path id="Trazado_229615" data-name="Trazado 229615" d="M34.343,63.216A30.08,30.08,0,1,1,42.7,64.408a30.129,30.129,0,0,1-8.361-1.192M11.993,25.411A31.97,31.97,0,1,0,42.728,2.32,32.021,32.021,0,0,0,11.993,25.411" fill="#0f2771"/>
    </clipPath>
    <clipPath id="clip-path-44">
      <rect id="Rectángulo_304764" data-name="Rectángulo 304764" width="16.474" height="8.382" transform="translate(25.917 62.058)" fill="#bddcf6"/>
    </clipPath>
    <clipPath id="clip-path-45">
      <rect id="Rectángulo_304765" data-name="Rectángulo 304765" width="8.762" height="2.873" transform="translate(15.74 111.054)" fill="none"/>
    </clipPath>
    <clipPath id="clip-path-46">
      <rect id="Rectángulo_304767" data-name="Rectángulo 304767" width="10.403" height="40.399" transform="translate(23.674 72.041)" fill="#0f2771"/>
    </clipPath>
    <clipPath id="clip-path-47">
      <path id="Trazado_229676" data-name="Trazado 229676" d="M23.674,112.2l9.749-39.54.654-.623-9.591,40.4Z" fill="#0f2771"/>
    </clipPath>
    <clipPath id="clip-path-48">
      <rect id="Rectángulo_304768" data-name="Rectángulo 304768" width="10.109" height="25.006" transform="translate(17.685 83.411)" fill="none"/>
    </clipPath>
  </defs>
  <g id="Grupo_219899" data-name="Grupo 219899" transform="translate(-1210.037 -313.977)">
    <g id="Grupo_219677" data-name="Grupo 219677" transform="translate(1210.037 313.977)">
      <g id="Grupo_219834" data-name="Grupo 219834">
        <g id="Grupo_219714" data-name="Grupo 219714">
          <g id="Grupo_219713" data-name="Grupo 219713" clip-path="url(#clip-path-3)">
            <rect id="Rectángulo_304690" data-name="Rectángulo 304690" width="8.453" height="9.739" transform="translate(30.088 49.417) rotate(-72.169)" fill="url(#linear-gradient)"/>
          </g>
        </g>
        <g id="Grupo_219716" data-name="Grupo 219716">
          <g id="Grupo_219715" data-name="Grupo 219715" clip-path="url(#clip-path-4)">
            <rect id="Rectángulo_304691" data-name="Rectángulo 304691" width="176.479" height="86.361" transform="translate(15.933 17.347)" fill="#fff"/>
          </g>
        </g>
        <g id="Grupo_219721" data-name="Grupo 219721">
          <g id="Grupo_219720" data-name="Grupo 219720" clip-path="url(#clip-path)">
            <g id="Grupo_219719" data-name="Grupo 219719" opacity="0.3" style="mix-blend-mode: multiply;isolation: isolate">
              <g id="Grupo_219718" data-name="Grupo 219718">
                <g id="Grupo_219717" data-name="Grupo 219717" clip-path="url(#clip-path-6)">
                  <path id="Trazado_229565" data-name="Trazado 229565" d="M189.269,27.823l-.8,10.518-158.1,1.242-.383-9.932Zm.255-.239L29.74,29.418l.4,10.4,158.543-1.245Z" fill="#540041"/>
                </g>
              </g>
            </g>
          </g>
        </g>
        <g id="Grupo_219723" data-name="Grupo 219723">
          <g id="Grupo_219722" data-name="Grupo 219722" clip-path="url(#clip-path-7)">
            <rect id="Rectángulo_304694" data-name="Rectángulo 304694" width="9.149" height="9.963" transform="translate(29.781 37.242) rotate(-72.169)" fill="url(#linear-gradient-2)"/>
          </g>
        </g>
        <g id="Grupo_219728" data-name="Grupo 219728">
          <g id="Grupo_219727" data-name="Grupo 219727" clip-path="url(#clip-path)">
            <g id="Grupo_219726" data-name="Grupo 219726" opacity="0.3" style="mix-blend-mode: multiply;isolation: isolate">
              <g id="Grupo_219725" data-name="Grupo 219725">
                <g id="Grupo_219724" data-name="Grupo 219724" clip-path="url(#clip-path-9)">
                  <path id="Trazado_229567" data-name="Trazado 229567" d="M24.743,37.979,22.17,35.572l2.308-3.083.473.354L22.959,35.5l2.187,2.045Z" fill="#540041"/>
                </g>
              </g>
            </g>
          </g>
        </g>
        <g id="Grupo_219730" data-name="Grupo 219730">
          <g id="Grupo_219729" data-name="Grupo 219729" clip-path="url(#clip-path-10)">
            <rect id="Rectángulo_304697" data-name="Rectángulo 304697" width="176.479" height="12.237" transform="translate(15.933 17.347)" fill="#0f2771"/>
          </g>
        </g>
        <g id="Grupo_219780" data-name="Grupo 219780">
          <g id="Grupo_219779" data-name="Grupo 219779" clip-path="url(#clip-path)">
            <path id="Trazado_229569" data-name="Trazado 229569" d="M34.159,36.552h3.6V33.735h-3.6Zm1.794-.849a.559.559,0,1,1,.555-.555.553.553,0,0,1-.555.555" fill="#fff" fill-rule="evenodd"/>
            <path id="Trazado_229570" data-name="Trazado 229570" d="M37.424,34.5H34.6V33.114a1.411,1.411,0,1,1,2.822,0Zm-2.43-.393h2.039v-1a1.02,1.02,0,1,0-2.039,0Z" fill="#fff"/>
            <path id="Trazado_229571" data-name="Trazado 229571" d="M44.519,35.23v1.322H44.1V35.278c0-.451-.226-.672-.62-.672a.682.682,0,0,0-.728.763v1.183h-.416V33.337h.416V34.58a1,1,0,0,1,.81-.346.89.89,0,0,1,.954,1" fill="#744273"/>
            <path id="Trazado_229572" data-name="Trazado 229572" d="M46.579,36.418a.786.786,0,0,1-.5.16.655.655,0,0,1-.728-.719V34.6h-.391v-.343h.391v-.5h.416v.5h.658V34.6h-.658v1.243a.338.338,0,0,0,.359.386.523.523,0,0,0,.325-.108Z" fill="#744273"/>
            <path id="Trazado_229573" data-name="Trazado 229573" d="M48.315,36.418a.784.784,0,0,1-.5.16.655.655,0,0,1-.728-.719V34.6h-.391v-.343h.391v-.5H47.5v.5h.658V34.6H47.5v1.243a.338.338,0,0,0,.359.386.523.523,0,0,0,.325-.108Z" fill="#744273"/>
            <path id="Trazado_229574" data-name="Trazado 229574" d="M51.195,35.4a1.114,1.114,0,0,1-1.16,1.174.98.98,0,0,1-.8-.372v1.188h-.415V34.256h.4v.363a.982.982,0,0,1,.82-.386,1.113,1.113,0,0,1,1.16,1.17m-.419,0a.774.774,0,1,0-.776.812.76.76,0,0,0,.776-.812" fill="#744273"/>
            <path id="Trazado_229575" data-name="Trazado 229575" d="M51.48,36.309l.173-.33a1.474,1.474,0,0,0,.807.239c.385,0,.545-.117.545-.312,0-.515-1.451-.069-1.451-.984,0-.411.368-.689.957-.689a1.683,1.683,0,0,1,.837.208l-.178.33a1.2,1.2,0,0,0-.663-.182c-.364,0-.542.134-.542.316,0,.542,1.456.1,1.456.992,0,.416-.381.681-.992.681a1.657,1.657,0,0,1-.949-.269" fill="#744273"/>
            <path id="Trazado_229576" data-name="Trazado 229576" d="M52.762,29.153V25.176A4.079,4.079,0,0,0,48.576,21.1l-32.643.851.323,7.634Z" fill="#e3dcf3" fill-rule="evenodd"/>
            <g id="Grupo_219733" data-name="Grupo 219733" style="mix-blend-mode: soft-light;isolation: isolate">
              <g id="Grupo_219732" data-name="Grupo 219732">
                <g id="Grupo_219731" data-name="Grupo 219731" clip-path="url(#clip-path-12)">
                  <rect id="Rectángulo_304698" data-name="Rectángulo 304698" width="0.472" height="8.69" transform="translate(87.407 20.08)" fill="#fff"/>
                </g>
              </g>
            </g>
            <g id="Grupo_219736" data-name="Grupo 219736" style="mix-blend-mode: soft-light;isolation: isolate">
              <g id="Grupo_219735" data-name="Grupo 219735">
                <g id="Grupo_219734" data-name="Grupo 219734" clip-path="url(#clip-path-13)">
                  <rect id="Rectángulo_304700" data-name="Rectángulo 304700" width="0.472" height="9.198" transform="translate(123.35 19.143)" fill="#fff"/>
                </g>
              </g>
            </g>
            <g id="Grupo_219739" data-name="Grupo 219739" style="mix-blend-mode: soft-light;isolation: isolate">
              <g id="Grupo_219738" data-name="Grupo 219738">
                <g id="Grupo_219737" data-name="Grupo 219737" clip-path="url(#clip-path-14)">
                  <rect id="Rectángulo_304702" data-name="Rectángulo 304702" width="0.472" height="9.891" transform="translate(160.464 18.174)" fill="#fff"/>
                </g>
              </g>
            </g>
            <path id="Trazado_229577" data-name="Trazado 229577" d="M46.549,26.029l-17.588.331V24.519l17.588-.326Z" fill="#744273" fill-rule="evenodd"/>
            <g id="Grupo_219742" data-name="Grupo 219742" style="mix-blend-mode: soft-light;isolation: isolate">
              <g id="Grupo_219741" data-name="Grupo 219741">
                <g id="Grupo_219740" data-name="Grupo 219740" clip-path="url(#clip-path-15)">
                  <path id="Trazado_229578" data-name="Trazado 229578" d="M80.785,25.385,63.2,25.716V23.884l17.588-.326Z" fill="#fff" fill-rule="evenodd"/>
                </g>
              </g>
            </g>
            <g id="Grupo_219745" data-name="Grupo 219745" style="mix-blend-mode: soft-light;isolation: isolate">
              <g id="Grupo_219744" data-name="Grupo 219744">
                <g id="Grupo_219743" data-name="Grupo 219743" clip-path="url(#clip-path-16)">
                  <path id="Trazado_229579" data-name="Trazado 229579" d="M116.887,24.707,99.3,25.038V23.215l17.588-.326Z" fill="#fff" fill-rule="evenodd"/>
                </g>
              </g>
            </g>
            <g id="Grupo_219748" data-name="Grupo 219748" style="mix-blend-mode: soft-light;isolation: isolate">
              <g id="Grupo_219747" data-name="Grupo 219747">
                <g id="Grupo_219746" data-name="Grupo 219746" clip-path="url(#clip-path-17)">
                  <path id="Trazado_229580" data-name="Trazado 229580" d="M153.32,24.022l-17.588.331V22.54l17.588-.326Z" fill="#fff" fill-rule="evenodd"/>
                </g>
              </g>
            </g>
            <g id="Grupo_219751" data-name="Grupo 219751" style="mix-blend-mode: soft-light;isolation: isolate">
              <g id="Grupo_219750" data-name="Grupo 219750">
                <g id="Grupo_219749" data-name="Grupo 219749" clip-path="url(#clip-path-18)">
                  <path id="Trazado_229581" data-name="Trazado 229581" d="M187.994,23.37l-17.588.331V21.9l17.588-.326Z" fill="#fff" fill-rule="evenodd"/>
                </g>
              </g>
            </g>
            <path id="Trazado_229582" data-name="Trazado 229582" d="M24.777,27.309l-3.587.068V23.789l3.587-.065Z" fill="#f94273" fill-rule="evenodd"/>
            <path id="Trazado_229583" data-name="Trazado 229583" d="M61.343,26.618l-3.587.068V23.117l3.587-.066Z" fill="#f94273" fill-rule="evenodd"/>
            <path id="Trazado_229584" data-name="Trazado 229584" d="M97.929,25.925l-3.587.068v-3.55l3.587-.066Z" fill="#f9b300" fill-rule="evenodd"/>
            <path id="Trazado_229585" data-name="Trazado 229585" d="M134.555,25.233l-3.587.068V21.77l3.587-.066Z" fill="#478bff" fill-rule="evenodd"/>
            <path id="Trazado_229586" data-name="Trazado 229586" d="M169.15,24.578l-3.587.068V21.133l3.587-.066Z" fill="#a48bff" fill-rule="evenodd"/>
            <g id="Grupo_219754" data-name="Grupo 219754" opacity="0.2" style="mix-blend-mode: multiply;isolation: isolate">
              <g id="Grupo_219753" data-name="Grupo 219753">
                <g id="Grupo_219752" data-name="Grupo 219752" clip-path="url(#clip-path-19)">
                  <path id="Trazado_229587" data-name="Trazado 229587" d="M59.889,58.162l-31.773.225-.685-16.061,32.118-.316Z" fill="#8868a1" fill-rule="evenodd"/>
                </g>
              </g>
            </g>
            <g id="Grupo_219757" data-name="Grupo 219757" transform="translate(1.923)" opacity="0.2" style="mix-blend-mode: multiply;isolation: isolate">
              <g id="Grupo_219756" data-name="Grupo 219756">
                <g id="Grupo_219755" data-name="Grupo 219755" clip-path="url(#clip-path-20)">
                  <path id="Trazado_229588" data-name="Trazado 229588" d="M94.267,77.465l-65.329.24-.684-16.06,66.047-.43Z" fill="#0f2771" fill-rule="evenodd"/>
                </g>
              </g>
            </g>
            <g id="Grupo_219760" data-name="Grupo 219760" opacity="0.2" style="mix-blend-mode: multiply;isolation: isolate">
              <g id="Grupo_219759" data-name="Grupo 219759">
                <g id="Grupo_219758" data-name="Grupo 219758" clip-path="url(#clip-path-21)">
                  <path id="Trazado_229589" data-name="Trazado 229589" d="M66.819,96.511l-37.079.011-.684-16.061,37.492-.12Z" fill="#0f2771" fill-rule="evenodd"/>
                </g>
              </g>
            </g>
            <g id="Grupo_219763" data-name="Grupo 219763" opacity="0.2" style="mix-blend-mode: multiply;isolation: isolate">
              <g id="Grupo_219762" data-name="Grupo 219762">
                <g id="Grupo_219761" data-name="Grupo 219761" clip-path="url(#clip-path-22)">
                  <path id="Trazado_229590" data-name="Trazado 229590" d="M106.311,96.5l-37.079.011-.244-16.177,37.491-.119Z" fill="#0f2771" fill-rule="evenodd"/>
                </g>
              </g>
            </g>
            <g id="Grupo_219766" data-name="Grupo 219766" opacity="0.2" style="mix-blend-mode: multiply;isolation: isolate">
              <g id="Grupo_219765" data-name="Grupo 219765">
                <g id="Grupo_219764" data-name="Grupo 219764" clip-path="url(#clip-path-23)">
                  <path id="Trazado_229591" data-name="Trazado 229591" d="M145.8,96.489l-37.079.011.195-16.293,37.492-.12Z" fill="#0f2771" fill-rule="evenodd"/>
                </g>
              </g>
            </g>
            <g id="Grupo_219769" data-name="Grupo 219769" opacity="0.2" style="mix-blend-mode: multiply;isolation: isolate">
              <g id="Grupo_219768" data-name="Grupo 219768">
                <g id="Grupo_219767" data-name="Grupo 219767" clip-path="url(#clip-path-24)">
                  <path id="Trazado_229592" data-name="Trazado 229592" d="M180.719,96.479l-32.505.009.635-16.408,32.867-.1Z" fill="#0f2771" fill-rule="evenodd"/>
                </g>
              </g>
            </g>
            <g id="Grupo_219772" data-name="Grupo 219772" opacity="0.2" style="mix-blend-mode: multiply;isolation: isolate">
              <g id="Grupo_219771" data-name="Grupo 219771">
                <g id="Grupo_219770" data-name="Grupo 219770" clip-path="url(#clip-path-25)">
                  <path id="Trazado_229593" data-name="Trazado 229593" d="M181.887,77.143l-84.525.311.068-16.259,85.454-.556Z" fill="#0f2771" fill-rule="evenodd"/>
                </g>
              </g>
            </g>
            <g id="Grupo_219775" data-name="Grupo 219775" transform="translate(1.923)" opacity="0.2" style="mix-blend-mode: multiply;isolation: isolate">
              <g id="Grupo_219774" data-name="Grupo 219774">
                <g id="Grupo_219773" data-name="Grupo 219773" clip-path="url(#clip-path-26)">
                  <path id="Trazado_229594" data-name="Trazado 229594" d="M183.087,57.291l-119.8.848-.3-16.162,121.1-1.19Z" fill="#0f2771" fill-rule="evenodd"/>
                </g>
              </g>
            </g>
            <g id="Grupo_219778" data-name="Grupo 219778" opacity="0.5" style="mix-blend-mode: multiply;isolation: isolate">
              <g id="Grupo_219777" data-name="Grupo 219777">
                <g id="Grupo_219776" data-name="Grupo 219776" clip-path="url(#clip-path-27)">
                  <path id="Trazado_229595" data-name="Trazado 229595" d="M60.788,20.051a28.858,28.858,0,0,0-27.069,49.4c.315.357,5.385,6.185,7.251,10.786l-10.08,29.54-2.445,7.148H36.9l1.721-7.2,6.757-28.211c4.166-2.982,11.919-5.248,11.919-5.248a28.857,28.857,0,0,0,3.494-56.217M78.842,55.325A27.152,27.152,0,1,1,60.319,21.687,27.188,27.188,0,0,1,78.842,55.325" fill="#0f2771"/>
                </g>
              </g>
            </g>
          </g>
        </g>
        <g id="Grupo_219782" data-name="Grupo 219782">
          <g id="Grupo_219781" data-name="Grupo 219781" clip-path="url(#clip-path-28)">
            <path id="Trazado_229612-2" data-name="Trazado 229612" d="M0,0H62.08V51.069H0Z" transform="translate(11.145 13.285)" fill="#fff"/>
          </g>
        </g>
        <g id="Grupo_219787" data-name="Grupo 219787">
          <g id="Grupo_219786" data-name="Grupo 219786" clip-path="url(#clip-path)">
            <g id="Grupo_219785" data-name="Grupo 219785" opacity="0.3" style="mix-blend-mode: multiply;isolation: isolate">
              <g id="Grupo_219784" data-name="Grupo 219784">
                <g id="Grupo_219783" data-name="Grupo 219783" clip-path="url(#clip-path-30)">
                  <path id="Trazado_229597" data-name="Trazado 229597" d="M72.161,26.84a31.036,31.036,0,0,1,.686,6.474,30.567,30.567,0,0,1-1.556,9.661l-50.574.4L20.1,27.437l34.93-.4,1.633-.019Zm.309-.382-15.808.179-1.634.019-35.318.406v.019l.642,16.677,51.211-.406a30.943,30.943,0,0,0,1.662-10.038,31.346,31.346,0,0,0-.755-6.837Z" fill="#540041"/>
                </g>
              </g>
            </g>
          </g>
        </g>
        <g id="Grupo_219789" data-name="Grupo 219789">
          <g id="Grupo_219788" data-name="Grupo 219788" clip-path="url(#clip-path-31)">
            <rect id="Rectángulo_304721" data-name="Rectángulo 304721" width="14.685" height="15.992" transform="translate(19.772 39.619) rotate(-72.169)" fill="#feca2e"/>
          </g>
        </g>
        <g id="Grupo_219797" data-name="Grupo 219797">
          <g id="Grupo_219796" data-name="Grupo 219796" clip-path="url(#clip-path)">
            <g id="Grupo_219792" data-name="Grupo 219792" opacity="0.3" style="mix-blend-mode: multiply;isolation: isolate">
              <g id="Grupo_219791" data-name="Grupo 219791">
                <g id="Grupo_219790" data-name="Grupo 219790" clip-path="url(#clip-path-33)">
                  <rect id="Rectángulo_304722" data-name="Rectángulo 304722" width="0.829" height="0.946" transform="matrix(0.603, -0.798, 0.798, 0.603, 10.767, 32.652)" fill="#540041"/>
                </g>
              </g>
            </g>
            <g id="Grupo_219795" data-name="Grupo 219795" opacity="0.3" style="mix-blend-mode: multiply;isolation: isolate">
              <g id="Grupo_219794" data-name="Grupo 219794">
                <g id="Grupo_219793" data-name="Grupo 219793" clip-path="url(#clip-path-34)">
                  <path id="Trazado_229599" data-name="Trazado 229599" d="M11.71,40.817l-.057-.047.608-.727Z" fill="#540041"/>
                </g>
              </g>
            </g>
          </g>
        </g>
        <g id="Grupo_219799" data-name="Grupo 219799">
          <g id="Grupo_219798" data-name="Grupo 219798" clip-path="url(#clip-path-35)">
            <rect id="Rectángulo_304726" data-name="Rectángulo 304726" width="60.712" height="13.881" transform="translate(11.758 13.285)" fill="#0f2771"/>
          </g>
        </g>
        <g id="Grupo_219804" data-name="Grupo 219804">
          <g id="Grupo_219803" data-name="Grupo 219803" clip-path="url(#clip-path)">
            <path id="Trazado_229601" data-name="Trazado 229601" d="M26.8,38.508h5.77V33.994H26.8Zm2.88-1.36a.9.9,0,1,1,.888-.888.893.893,0,0,1-.888.888" fill="#fff" fill-rule="evenodd"/>
            <path id="Trazado_229602" data-name="Trazado 229602" d="M32.041,35.22H27.512V32.993a2.265,2.265,0,0,1,4.529,0Zm-3.9-.629h3.273v-1.6a1.637,1.637,0,0,0-3.273,0Z" fill="#fff"/>
            <path id="Trazado_229603" data-name="Trazado 229603" d="M43.423,36.394v2.118h-.667V36.471c0-.722-.36-1.076-.992-1.076A1.092,1.092,0,0,0,40.6,36.616v1.9h-.666V33.36H40.6v1.992a1.6,1.6,0,0,1,1.3-.555,1.426,1.426,0,0,1,1.527,1.6" fill="#0f2771"/>
            <path id="Trazado_229604" data-name="Trazado 229604" d="M46.732,38.3a1.254,1.254,0,0,1-.805.257A1.051,1.051,0,0,1,44.76,37.4V35.38h-.625v-.548h.625v-.806h.667v.806h1.055v.548H45.427v1.993a.542.542,0,0,0,.576.618.842.842,0,0,0,.521-.174Z" fill="#0f2771"/>
            <path id="Trazado_229605" data-name="Trazado 229605" d="M49.52,38.3a1.254,1.254,0,0,1-.805.257A1.051,1.051,0,0,1,47.548,37.4V35.38h-.625v-.548h.625v-.806h.667v.806H49.27v.548H48.215v1.993a.542.542,0,0,0,.576.618.842.842,0,0,0,.521-.174Z" fill="#0f2771"/>
            <path id="Trazado_229606" data-name="Trazado 229606" d="M54.139,36.672a1.787,1.787,0,0,1-1.86,1.881,1.574,1.574,0,0,1-1.285-.6v1.9h-.666V34.832h.639v.583a1.566,1.566,0,0,1,1.312-.617,1.785,1.785,0,0,1,1.86,1.874m-.673,0a1.241,1.241,0,1,0-1.243,1.3,1.218,1.218,0,0,0,1.243-1.3" fill="#0f2771"/>
            <path id="Trazado_229607" data-name="Trazado 229607" d="M54.6,38.123l.278-.528a2.364,2.364,0,0,0,1.291.382c.618,0,.875-.187.875-.5,0-.826-2.326-.111-2.326-1.576,0-.659.591-1.1,1.534-1.1a2.686,2.686,0,0,1,1.341.333l-.285.528a1.924,1.924,0,0,0-1.062-.291c-.584,0-.868.215-.868.507,0,.867,2.332.159,2.332,1.589,0,.667-.61,1.09-1.589,1.09a2.659,2.659,0,0,1-1.521-.43" fill="#0f2771"/>
            <path id="Trazado_229608" data-name="Trazado 229608" d="M56.662,20.254v6.384l-1.634.019-35.318.415-7.951.094A30.842,30.842,0,0,1,17.453,14.55l32.485-.84a6.551,6.551,0,0,1,6.724,6.544" fill="#fff" fill-rule="evenodd"/>
            <path id="Trazado_229609" data-name="Trazado 229609" d="M46.689,21.62l-28.231.531V19.2l28.231-.523Z" fill="#0f2771" fill-rule="evenodd"/>
            <path id="Trazado_229610" data-name="Trazado 229610" d="M70.43,20.414v2.154l-5.751.1V16.949l3.843-.067a31.051,31.051,0,0,1,1.908,3.532" fill="#f94273" fill-rule="evenodd"/>
            <g id="Grupo_219802" data-name="Grupo 219802" opacity="0.2" style="mix-blend-mode: multiply;isolation: isolate">
              <g id="Grupo_219801" data-name="Grupo 219801">
                <g id="Grupo_219800" data-name="Grupo 219800" clip-path="url(#clip-path-37)">
                  <path id="Trazado_229611" data-name="Trazado 229611" d="M67.635,51.087A31.036,31.036,0,0,1,16.1,50.133L16,47.782l51.56-.51Z" fill="#0f2771" fill-rule="evenodd"/>
                </g>
              </g>
            </g>
          </g>
        </g>
        <g id="Grupo_219910" data-name="Grupo 219910">
          <g id="Grupo_219805" data-name="Grupo 219805" clip-path="url(#clip-path-38)">
            <rect id="Rectángulo_304729" data-name="Rectángulo 304729" width="58.14" height="32.984" transform="translate(0.985 109.258) rotate(-73.847)" fill="#0f2771"/>
          </g>
        </g>
        <g id="Grupo_219911" data-name="Grupo 219911">
          <g id="Grupo_219807" data-name="Grupo 219807" clip-path="url(#clip-path-39)">
            <rect id="Rectángulo_304730" data-name="Rectángulo 304730" width="56.107" height="40.864" transform="translate(6.326 110.518) rotate(-73.847)" fill="#0f2771"/>
          </g>
        </g>
        <g id="Grupo_219915" data-name="Grupo 219915" clip-path="url(#clip-path)">
          <g id="Grupo_219914" data-name="Grupo 219914" opacity="0.8" style="mix-blend-mode: soft-light;isolation: isolate">
            <g id="Grupo_219913" data-name="Grupo 219913">
              <g id="Grupo_219912" data-name="Grupo 219912" clip-path="url(#clip-path-41)">
                <path id="Trazado_229673" data-name="Trazado 229673" d="M72.526,42.945a31.036,31.036,0,0,1-59.547.264,30.661,30.661,0,0,1-1.276-10.5A31.236,31.236,0,0,1,12.9,25.675L13,25.312A31.349,31.349,0,0,1,15.2,19.941,31.047,31.047,0,0,1,71.068,21.67a30.686,30.686,0,0,1,1.512,4.184,30.65,30.65,0,0,1,1.128,10.3l-.006.018a31.316,31.316,0,0,1-1.176,6.777" fill="#fbf9fa" fill-rule="evenodd"/>
              </g>
            </g>
          </g>
        </g>
        <g id="Grupo_219916" data-name="Grupo 219916">
          <g id="Grupo_219814" data-name="Grupo 219814" clip-path="url(#clip-path-42)">
            <rect id="Rectángulo_304733" data-name="Rectángulo 304733" width="86.248" height="87.683" transform="translate(-11.393 64.586) rotate(-73.847)" fill="#0f2771"/>
          </g>
        </g>
        <g id="Grupo_219931" data-name="Grupo 219931" clip-path="url(#clip-path)">
          <g id="Grupo_219919" data-name="Grupo 219919" opacity="0.8" style="mix-blend-mode: soft-light;isolation: isolate">
            <g id="Grupo_219918" data-name="Grupo 219918">
              <g id="Grupo_219917" data-name="Grupo 219917" clip-path="url(#clip-path-44)">
                <path id="Trazado_229674" data-name="Trazado 229674" d="M25.917,62.058l4.525,7.331L34.07,70.44l8.321-3.909s-7.156,1.087-16.474-4.473" fill="#bddcf6"/>
              </g>
            </g>
          </g>
          <g id="Grupo_219922" data-name="Grupo 219922" opacity="0.5" style="mix-blend-mode: multiply;isolation: isolate">
            <g id="Grupo_219921" data-name="Grupo 219921">
              <g id="Grupo_219920" data-name="Grupo 219920" clip-path="url(#clip-path-45)">
                <path id="Trazado_229675" data-name="Trazado 229675" d="M15.74,111.054a22.508,22.508,0,0,1,8.762,2.538,8.578,8.578,0,0,1-8.762-2.538" fill="#401734"/>
              </g>
            </g>
          </g>
          <g id="Grupo_219927" data-name="Grupo 219927" style="mix-blend-mode: screen;isolation: isolate">
            <g id="Grupo_219926" data-name="Grupo 219926">
              <g id="Grupo_219925" data-name="Grupo 219925" clip-path="url(#clip-path-46)">
                <g id="Grupo_219924" data-name="Grupo 219924">
                  <g id="Grupo_219923" data-name="Grupo 219923" clip-path="url(#clip-path-47)">
                    <rect id="Rectángulo_304766" data-name="Rectángulo 304766" width="41.698" height="21.232" transform="matrix(0.278, -0.961, 0.961, 0.278, 12.878, 109.313)" fill="#0f2771"/>
                  </g>
                </g>
              </g>
            </g>
          </g>
          <g id="Grupo_219930" data-name="Grupo 219930" opacity="0.8" style="mix-blend-mode: soft-light;isolation: isolate">
            <g id="Grupo_219929" data-name="Grupo 219929">
              <g id="Grupo_219928" data-name="Grupo 219928" clip-path="url(#clip-path-48)">
                <path id="Trazado_229677" data-name="Trazado 229677" d="M17.685,107.848l8.281-24.065,1.828-.371-8.144,25Z" fill="#fbf9fa"/>
              </g>
            </g>
          </g>
        </g>
      </g>
    </g>
  </g>
</svg>
