<svg xmlns="http://www.w3.org/2000/svg" xmlns:xlink="http://www.w3.org/1999/xlink" width="1048" height="598" viewBox="0 0 1048 598">
  <defs>
    <filter id="Rectángulo_304502" x="210" y="0" width="309" height="598" filterUnits="userSpaceOnUse">
      <feOffset dy="3" input="SourceAlpha"/>
      <feGaussianBlur stdDeviation="3" result="blur"/>
      <feFlood flood-opacity="0.161"/>
      <feComposite operator="in" in2="blur"/>
      <feComposite in="SourceGraphic"/>
    </filter>
    <filter id="Rectángulo_304511" x="0" y="245" width="260.153" height="122" filterUnits="userSpaceOnUse">
      <feOffset dy="3" input="SourceAlpha"/>
      <feGaussianBlur stdDeviation="3" result="blur-2"/>
      <feFlood flood-opacity="0.161"/>
      <feComposite operator="in" in2="blur-2"/>
      <feComposite in="SourceGraphic"/>
    </filter>
    <clipPath id="clip-path">
      <rect id="Rectángulo_304432" data-name="Rectángulo 304432" width="206.31" height="181.888" fill="none"/>
    </clipPath>
    <clipPath id="clip-path-2">
      <rect id="Rectángulo_304501" data-name="Rectángulo 304501" width="143.884" height="62.864" fill="none"/>
    </clipPath>
    <filter id="Rectángulo_304503" x="529" y="0" width="309" height="598" filterUnits="userSpaceOnUse">
      <feOffset dy="3" input="SourceAlpha"/>
      <feGaussianBlur stdDeviation="3" result="blur-3"/>
      <feFlood flood-opacity="0.161"/>
      <feComposite operator="in" in2="blur-3"/>
      <feComposite in="SourceGraphic"/>
    </filter>
    <filter id="Rectángulo_304507" x="787.847" y="245" width="260.153" height="122" filterUnits="userSpaceOnUse">
      <feOffset dy="3" input="SourceAlpha"/>
      <feGaussianBlur stdDeviation="3" result="blur-4"/>
      <feFlood flood-opacity="0.161"/>
      <feComposite operator="in" in2="blur-4"/>
      <feComposite in="SourceGraphic"/>
    </filter>
    <clipPath id="clip-path-3">
      <rect id="Rectángulo_304474" data-name="Rectángulo 304474" width="145.082" height="114.785" fill="none"/>
    </clipPath>
  </defs>
  <g id="Grupo_219987" data-name="Grupo 219987" transform="translate(-276 -2327.999)">
    <g transform="matrix(1, 0, 0, 1, 276, 2328)" filter="url(#Rectángulo_304502)">
      <rect id="Rectángulo_304502-2" data-name="Rectángulo 304502" width="291" height="580" rx="20" transform="translate(219 6)" fill="#fff"/>
    </g>
    <g transform="matrix(1, 0, 0, 1, 276, 2328)" filter="url(#Rectángulo_304511)">
      <rect id="Rectángulo_304511-2" data-name="Rectángulo 304511" width="242.153" height="104" rx="20" transform="translate(9 251)" fill="#fff"/>
    </g>
    <g id="Grupo_218374" data-name="Grupo 218374" transform="translate(537.545 2606.91)" clip-path="url(#clip-path)">
      <path id="Trazado_228899" data-name="Trazado 228899" d="M103.155,0C46.184,0,0,12.307,0,27.49S46.184,54.98,103.155,54.98,206.31,42.673,206.31,27.49,160.125,0,103.155,0m0,48.159c-51.735,0-93.674-8.811-93.674-19.68S51.42,8.8,103.155,8.8s93.674,8.811,93.674,19.68-41.939,19.68-93.674,19.68" transform="translate(0 0)" fill="#4dd0e1"/>
      <path id="Trazado_228900" data-name="Trazado 228900" d="M1.2,22.524,77.658,126.076v45.807h49.28V122.935L201.793,22.524l-15.574,9.649-22.446,5.982-25.757,4.191H98.633L62.541,38.154h-15.8l-22.679-6.9L8.948,24.843Z" transform="translate(0.534 10.005)" fill="#4dd0e1"/>
      <path id="Trazado_228901" data-name="Trazado 228901" d="M42.319,43.578a7.329,7.329,0,1,1-7.329-7.329,7.329,7.329,0,0,1,7.329,7.329" transform="translate(12.287 16.101)" fill="#008a87"/>
      <path id="Trazado_228902" data-name="Trazado 228902" d="M71.233,73.376a10.8,10.8,0,1,1-10.8-10.8,10.8,10.8,0,0,1,10.8,10.8" transform="translate(22.044 27.795)" fill="#008a87"/>
      <path id="Trazado_228903" data-name="Trazado 228903" d="M54.861,49.52a6.6,6.6,0,1,1-9.338,0,6.6,6.6,0,0,1,9.338,0" transform="translate(19.362 21.137)" fill="#306bb3"/>
      <path id="Trazado_228904" data-name="Trazado 228904" d="M65.962,55.092a6.6,6.6,0,1,1-9.338,0,6.6,6.6,0,0,1,9.338,0" transform="translate(24.293 23.612)" fill="#306bb3"/>
      <path id="Trazado_228905" data-name="Trazado 228905" d="M57.618,59.231a8.334,8.334,0,1,1-11.786,0,8.333,8.333,0,0,1,11.786,0" transform="translate(19.273 25.225)" fill="#b9333a"/>
      <path id="Trazado_228906" data-name="Trazado 228906" d="M59.175,83.128a2.857,2.857,0,1,1,.95-3.928,2.858,2.858,0,0,1-.95,3.928" transform="translate(24.354 34.571)" fill="#b9333a"/>
      <path id="Trazado_228907" data-name="Trazado 228907" d="M87.529,53.106a10.989,10.989,0,1,1-15.541,0,10.988,10.988,0,0,1,15.541,0" transform="translate(30.546 22.159)" fill="#b9333a"/>
      <path id="Trazado_228908" data-name="Trazado 228908" d="M46.408,49.752a6.022,6.022,0,1,1-8.516,0,6.02,6.02,0,0,1,8.516,0" transform="translate(16.047 21.315)" fill="#eca146"/>
      <path id="Trazado_228909" data-name="Trazado 228909" d="M73.9,60.789a7.092,7.092,0,1,1-10.03,0,7.092,7.092,0,0,1,10.03,0" transform="translate(27.45 26.079)" fill="#eca146"/>
      <path id="Trazado_228910" data-name="Trazado 228910" d="M87.9,42.234a7.092,7.092,0,1,1-10.03,0,7.092,7.092,0,0,1,10.03,0" transform="translate(33.665 17.837)" fill="#eca146"/>
      <path id="Trazado_228911" data-name="Trazado 228911" d="M102,55.715a11.263,11.263,0,1,1-15.928,0,11.264,11.264,0,0,1,15.928,0" transform="translate(36.766 23.283)" fill="#eca146"/>
      <path id="Trazado_228912" data-name="Trazado 228912" d="M64.495,83.247a3.748,3.748,0,1,1-5.3,0,3.749,3.749,0,0,1,5.3,0" transform="translate(25.806 36.49)" fill="#eca146"/>
      <path id="Trazado_228913" data-name="Trazado 228913" d="M90.372,77.026a8.354,8.354,0,1,1-11.815,0,8.355,8.355,0,0,1,11.815,0" transform="translate(33.807 33.127)" fill="#eca146"/>
      <path id="Trazado_228914" data-name="Trazado 228914" d="M104.143,66.678a4.1,4.1,0,1,1-4.1-4.1,4.1,4.1,0,0,1,4.1,4.1" transform="translate(42.614 27.795)" fill="#008a87"/>
      <path id="Trazado_228915" data-name="Trazado 228915" d="M112.611,49.547A10.317,10.317,0,1,1,102.293,39.23a10.317,10.317,0,0,1,10.317,10.317" transform="translate(40.854 17.425)" fill="#51e4e2"/>
      <path id="Trazado_228916" data-name="Trazado 228916" d="M83.088,89.277a7.211,7.211,0,1,1-7.211-7.211,7.211,7.211,0,0,1,7.211,7.211" transform="translate(30.5 36.452)" fill="#51e4e2"/>
      <path id="Trazado_228917" data-name="Trazado 228917" d="M91.849,73.376a10.8,10.8,0,1,1-10.8-10.8,10.8,10.8,0,0,1,10.8,10.8" transform="translate(31.202 27.795)" fill="#008a87"/>
      <path id="Trazado_228918" data-name="Trazado 228918" d="M74.732,76.232a8.893,8.893,0,1,1-12.576,0,8.892,8.892,0,0,1,12.576,0" transform="translate(26.452 32.704)" fill="#306bb3"/>
      <path id="Trazado_228919" data-name="Trazado 228919" d="M97.412,68.994a6.742,6.742,0,1,1-9.535,0,6.742,6.742,0,0,1,9.535,0" transform="translate(38.157 29.769)" fill="#306bb3"/>
      <path id="Trazado_228920" data-name="Trazado 228920" d="M81.6,52.2a9.446,9.446,0,1,1-9.445-9.445A9.445,9.445,0,0,1,81.6,52.2" transform="translate(27.855 18.99)" fill="#008a87"/>
      <path id="Trazado_228921" data-name="Trazado 228921" d="M66.481,42.967a9.91,9.91,0,1,1-14.014,0,9.909,9.909,0,0,1,14.014,0" transform="translate(22.016 17.796)" fill="#b9333a"/>
      <path id="Trazado_228922" data-name="Trazado 228922" d="M97.373,58.246a5.715,5.715,0,1,1,6.287,5.079,5.715,5.715,0,0,1-6.287-5.079" transform="translate(43.237 23.065)" fill="#b9333a"/>
      <path id="Trazado_228923" data-name="Trazado 228923" d="M99,51.738a8.207,8.207,0,1,1-8.206-8.206A8.206,8.206,0,0,1,99,51.738" transform="translate(36.682 19.336)" fill="#008a87"/>
      <path id="Trazado_228924" data-name="Trazado 228924" d="M120.07,46.439a7.209,7.209,0,1,1-7.209-7.209,7.209,7.209,0,0,1,7.209,7.209" transform="translate(46.929 17.425)" fill="#008a87"/>
    </g>
    <path id="Trazado_228925" data-name="Trazado 228925" d="M14.941,10.977a3.964,3.964,0,1,1-3.963,3.963,3.963,3.963,0,0,1,3.963-3.963" transform="translate(578.526 2379.272)" fill="#0f2771"/>
    <path id="Trazado_228926" data-name="Trazado 228926" d="M25.919,10.977a3.964,3.964,0,1,1-3.963,3.963,3.963,3.963,0,0,1,3.963-3.963" transform="translate(583.402 2379.272)" fill="#0f2771"/>
    <path id="Trazado_228927" data-name="Trazado 228927" d="M37.08,10.977a3.964,3.964,0,1,1-3.963,3.963,3.963,3.963,0,0,1,3.963-3.963" transform="translate(588.359 2379.272)" fill="#0f2771"/>
    <path id="Trazado_228928" data-name="Trazado 228928" d="M135.285,27.744V11.89A11.9,11.9,0,0,0,123.4,0H11.89A11.9,11.9,0,0,0,0,11.89V27.744A11.909,11.909,0,0,0,7.926,38.953v9.555A11.908,11.908,0,0,0,0,59.716V75.57A11.908,11.908,0,0,0,7.926,86.778v4.646a11.905,11.905,0,0,0,11.891,11.89H63.68v8.873a11.941,11.941,0,0,0-7.245,7.245H23.1a11.89,11.89,0,1,0,0,7.926H56.434a11.887,11.887,0,0,0,22.417,0h33.336a11.889,11.889,0,1,0,0-7.927H78.851a11.942,11.942,0,0,0-7.245-7.244v-8.873h43.863a11.9,11.9,0,0,0,11.89-11.89V86.778a11.907,11.907,0,0,0,7.927-11.208V59.716a11.907,11.907,0,0,0-7.927-11.208V38.953a11.909,11.909,0,0,0,7.927-11.208M11.89,127.358a3.964,3.964,0,1,1,3.963-3.963,3.969,3.969,0,0,1-3.963,3.963M123.4,119.431a3.964,3.964,0,1,1-3.963,3.964,3.969,3.969,0,0,1,3.963-3.964m-55.753,7.927a3.964,3.964,0,1,1,3.963-3.963,3.967,3.967,0,0,1-3.963,3.963m51.79-35.934a3.969,3.969,0,0,1-3.964,3.963H19.817a3.968,3.968,0,0,1-3.964-3.963V87.46h103.58Zm7.926-15.854a3.967,3.967,0,0,1-3.963,3.963H11.89A3.969,3.969,0,0,1,7.926,75.57V59.716a3.969,3.969,0,0,1,3.964-3.963H123.4a3.967,3.967,0,0,1,3.963,3.963ZM15.853,39.634H119.431v8.191H15.853ZM123.4,31.707H11.89a3.969,3.969,0,0,1-3.964-3.963V11.89A3.97,3.97,0,0,1,11.89,7.926H123.4a3.969,3.969,0,0,1,3.963,3.964V27.744a3.967,3.967,0,0,1-3.963,3.963" transform="translate(573.649 2374.396)" fill="#0f2771"/>
    <path id="Trazado_228929" data-name="Trazado 228929" d="M93.445,10.977h-39.9a3.964,3.964,0,1,0,0,7.927h39.9a3.964,3.964,0,0,0,0-7.927" transform="translate(595.673 2379.272)" fill="#0f2771"/>
    <path id="Trazado_228930" data-name="Trazado 228930" d="M14.941,44.094a3.964,3.964,0,1,1-3.963,3.963,3.963,3.963,0,0,1,3.963-3.963" transform="translate(578.526 2393.982)" fill="#0f2771"/>
    <path id="Trazado_228931" data-name="Trazado 228931" d="M25.919,44.094a3.964,3.964,0,1,1-3.963,3.963,3.963,3.963,0,0,1,3.963-3.963" transform="translate(583.402 2393.982)" fill="#0f2771"/>
    <path id="Trazado_228932" data-name="Trazado 228932" d="M37.08,44.094a3.964,3.964,0,1,1-3.963,3.963,3.963,3.963,0,0,1,3.963-3.963" transform="translate(588.359 2393.982)" fill="#0f2771"/>
    <path id="Trazado_228933" data-name="Trazado 228933" d="M93.445,44.094h-39.9a3.964,3.964,0,1,0,0,7.927h39.9a3.964,3.964,0,0,0,0-7.927" transform="translate(595.673 2393.982)" fill="#0f2771"/>
    <path id="Trazado_228934" data-name="Trazado 228934" d="M6.425,100.006v13.941a1.586,1.586,0,0,1-3.171,0V100.006a1.586,1.586,0,1,1,3.171,0" transform="translate(575.095 2418.113)" fill="#0f2771"/>
    <path id="Trazado_228935" data-name="Trazado 228935" d="M12.57,106.542a1.583,1.583,0,0,1-.388,1.038l-4.6,5.306a1.584,1.584,0,0,1-2.361.036l-4.8-5.2a1.586,1.586,0,0,1,2.329-2.152l3.595,3.895L9.789,105.5a1.584,1.584,0,0,1,2.782,1.04" transform="translate(573.649 2421.016)" fill="#0f2771"/>
    <path id="Trazado_228936" data-name="Trazado 228936" d="M48.911,100.006v13.941a1.586,1.586,0,0,1-3.171,0V100.006a1.586,1.586,0,1,1,3.171,0" transform="translate(593.966 2418.113)" fill="#0f2771"/>
    <path id="Trazado_228937" data-name="Trazado 228937" d="M55.056,106.542a1.583,1.583,0,0,1-.388,1.038l-4.6,5.306a1.584,1.584,0,0,1-2.361.036l-4.8-5.2a1.586,1.586,0,0,1,2.329-2.152l3.595,3.895,3.444-3.967a1.584,1.584,0,0,1,2.782,1.04" transform="translate(592.521 2421.016)" fill="#0f2771"/>
    <path id="Trazado_228938" data-name="Trazado 228938" d="M20.572,100.006v13.941a1.586,1.586,0,0,1-3.171,0V100.006a1.586,1.586,0,1,1,3.171,0" transform="translate(581.379 2418.113)" fill="#0f2771"/>
    <path id="Trazado_228939" data-name="Trazado 228939" d="M26.717,106.542a1.583,1.583,0,0,1-.388,1.038l-4.6,5.306a1.584,1.584,0,0,1-2.361.036l-4.8-5.2a1.586,1.586,0,0,1,2.329-2.152l3.595,3.895,3.444-3.967a1.584,1.584,0,0,1,2.781,1.04" transform="translate(579.934 2421.016)" fill="#0f2771"/>
    <path id="Trazado_228940" data-name="Trazado 228940" d="M34.833,100.006v13.941a1.586,1.586,0,0,1-3.171,0V100.006a1.586,1.586,0,1,1,3.171,0" transform="translate(587.713 2418.113)" fill="#0f2771"/>
    <path id="Trazado_228941" data-name="Trazado 228941" d="M40.978,106.542a1.583,1.583,0,0,1-.388,1.038l-4.6,5.306a1.584,1.584,0,0,1-2.361.036l-4.8-5.2a1.586,1.586,0,0,1,2.329-2.152l3.595,3.895L38.2,105.5a1.584,1.584,0,0,1,2.781,1.04" transform="translate(586.268 2421.016)" fill="#0f2771"/>
    <path id="Trazado_228942" data-name="Trazado 228942" d="M62.99,100.006v13.941a1.586,1.586,0,0,1-3.171,0V100.006a1.586,1.586,0,1,1,3.171,0" transform="translate(600.22 2418.113)" fill="#0f2771"/>
    <path id="Trazado_228943" data-name="Trazado 228943" d="M69.135,106.542a1.583,1.583,0,0,1-.388,1.038l-4.6,5.306a1.584,1.584,0,0,1-2.361.036l-4.8-5.2a1.586,1.586,0,0,1,2.329-2.152l3.595,3.895,3.444-3.967a1.584,1.584,0,0,1,2.782,1.04" transform="translate(598.775 2421.016)" fill="#0f2771"/>
    <path id="Trazado_228944" data-name="Trazado 228944" d="M77.136,100.006v13.941a1.586,1.586,0,0,1-3.171,0V100.006a1.586,1.586,0,1,1,3.171,0" transform="translate(606.503 2418.113)" fill="#0f2771"/>
    <path id="Trazado_228945" data-name="Trazado 228945" d="M83.281,106.542a1.583,1.583,0,0,1-.388,1.038l-4.6,5.306a1.584,1.584,0,0,1-2.361.036l-4.8-5.2a1.586,1.586,0,0,1,2.329-2.152l3.595,3.895L80.5,105.5a1.584,1.584,0,0,1,2.782,1.04" transform="translate(605.058 2421.016)" fill="#0f2771"/>
    <path id="Trazado_228946" data-name="Trazado 228946" d="M91.4,100.006v13.941a1.586,1.586,0,0,1-3.171,0V100.006a1.586,1.586,0,1,1,3.171,0" transform="translate(612.838 2418.113)" fill="#0f2771"/>
    <path id="Trazado_228947" data-name="Trazado 228947" d="M97.543,106.542a1.583,1.583,0,0,1-.388,1.038l-4.6,5.306a1.584,1.584,0,0,1-2.361.036l-4.8-5.2a1.586,1.586,0,0,1,2.329-2.152l3.595,3.895,3.444-3.967a1.584,1.584,0,0,1,2.782,1.04" transform="translate(611.393 2421.016)" fill="#0f2771"/>
    <path id="Trazado_228997" data-name="Trazado 228997" d="M58.235,0l-24.475,4.3V34.952l24.475,4.3Z" transform="translate(584.313 2808.725)" fill="#006941"/>
    <rect id="Rectángulo_304475" data-name="Rectángulo 304475" width="15.37" height="30.659" transform="translate(643.739 2813.019)" fill="#006941"/>
    <rect id="Rectángulo_304476" data-name="Rectángulo 304476" width="3.865" height="4.208" transform="translate(643.739 2816.131)" fill="#fff"/>
    <rect id="Rectángulo_304477" data-name="Rectángulo 304477" width="3.865" height="4.208" transform="translate(643.739 2822.872)" fill="#fff"/>
    <rect id="Rectángulo_304478" data-name="Rectángulo 304478" width="3.865" height="4.208" transform="translate(643.739 2829.615)" fill="#fff"/>
    <rect id="Rectángulo_304479" data-name="Rectángulo 304479" width="3.865" height="4.208" transform="translate(643.739 2836.356)" fill="#fff"/>
    <rect id="Rectángulo_304480" data-name="Rectángulo 304480" width="6.741" height="4.208" transform="translate(649.579 2816.131)" fill="#fff"/>
    <rect id="Rectángulo_304481" data-name="Rectángulo 304481" width="6.741" height="4.208" transform="translate(649.579 2822.872)" fill="#fff"/>
    <rect id="Rectángulo_304482" data-name="Rectángulo 304482" width="6.741" height="4.208" transform="translate(649.579 2829.615)" fill="#fff"/>
    <rect id="Rectángulo_304483" data-name="Rectángulo 304483" width="6.741" height="4.208" transform="translate(649.579 2836.356)" fill="#fff"/>
    <path id="Trazado_228998" data-name="Trazado 228998" d="M48.4,9.242H45.6l-2.111,3.749L41.379,9.242H38.586l3.509,6.229-3.853,6.838h2.793l2.457-4.36,2.455,4.36H48.74L44.888,15.47Z" transform="translate(586.303 2812.83)" fill="#fff"/>
    <path id="Trazado_228999" data-name="Trazado 228999" d="M0,20.648V51.305l24.475,4.3V16.353Z" transform="translate(569.317 2815.988)" fill="#ff640a"/>
    <rect id="Rectángulo_304484" data-name="Rectángulo 304484" width="15.372" height="30.657" transform="translate(594.983 2836.637)" fill="#ff640a"/>
    <g id="Grupo_218387" data-name="Grupo 218387" transform="translate(569.317 2808.725)" clip-path="url(#clip-path-2)">
      <path id="Trazado_229000" data-name="Trazado 229000" d="M5.43,37V25.912h4.7a3.7,3.7,0,0,1,3.53,3.686,3.572,3.572,0,0,1-3.45,3.684H7.585V37Zm2.155-5.606h2.5c.9,0,1.389-.843,1.389-1.8a1.615,1.615,0,0,0-1.483-1.8h-2.4Z" transform="translate(2.412 11.509)" fill="#fff"/>
      <path id="Trazado_229001" data-name="Trazado 229001" d="M22.535,21.334a4.335,4.335,0,1,0,4.333,4.4H22.535Z" transform="translate(8.085 9.476)" fill="#fff"/>
      <path id="Trazado_229002" data-name="Trazado 229002" d="M21.826,21.049v3.895h3.657c0-.065,0-.129,0-.194a3.7,3.7,0,0,0-3.661-3.7" transform="translate(9.695 9.349)" fill="#fff"/>
      <rect id="Rectángulo_304485" data-name="Rectángulo 304485" width="10.498" height="1.758" transform="translate(25.666 41.484)" fill="#fff"/>
      <rect id="Rectángulo_304486" data-name="Rectángulo 304486" width="10.498" height="1.758" transform="translate(25.666 44.565)" fill="#fff"/>
      <rect id="Rectángulo_304487" data-name="Rectángulo 304487" width="10.498" height="1.758" transform="translate(25.666 47.645)" fill="#fff"/>
      <rect id="Rectángulo_304488" data-name="Rectángulo 304488" width="10.498" height="1.758" transform="translate(25.666 50.726)" fill="#fff"/>
      <rect id="Rectángulo_304489" data-name="Rectángulo 304489" width="5.687" height="1.607" transform="translate(126.098 44.724)" fill="#fff"/>
      <rect id="Rectángulo_304490" data-name="Rectángulo 304490" width="8.421" height="1.607" transform="translate(132.931 44.724)" fill="#fff"/>
      <rect id="Rectángulo_304491" data-name="Rectángulo 304491" width="5.687" height="1.607" transform="translate(126.098 49.202)" fill="#fff"/>
      <rect id="Rectángulo_304492" data-name="Rectángulo 304492" width="8.421" height="1.607" transform="translate(132.931 49.202)" fill="#fff"/>
      <rect id="Rectángulo_304493" data-name="Rectángulo 304493" width="5.687" height="1.607" transform="translate(126.098 53.679)" fill="#fff"/>
      <rect id="Rectángulo_304494" data-name="Rectángulo 304494" width="8.421" height="1.607" transform="translate(132.931 53.679)" fill="#fff"/>
      <path id="Trazado_229003" data-name="Trazado 229003" d="M96.857,20.846a1.282,1.282,0,1,1-1.282,1.282,1.282,1.282,0,0,1,1.282-1.282" transform="translate(42.453 9.259)" fill="#fff"/>
      <path id="Trazado_229004" data-name="Trazado 229004" d="M104.056,51.447H87.308V18.553h16.748A1.048,1.048,0,0,1,105.1,19.6V50.4a1.048,1.048,0,0,1-1.047,1.047" transform="translate(38.781 8.241)" fill="red"/>
      <rect id="Rectángulo_304495" data-name="Rectángulo 304495" width="5.687" height="1.607" transform="translate(126.098 44.724)" fill="#fff"/>
      <rect id="Rectángulo_304496" data-name="Rectángulo 304496" width="8.421" height="1.607" transform="translate(132.931 44.724)" fill="#fff"/>
      <rect id="Rectángulo_304497" data-name="Rectángulo 304497" width="5.687" height="1.607" transform="translate(126.098 49.202)" fill="#fff"/>
      <rect id="Rectángulo_304498" data-name="Rectángulo 304498" width="8.421" height="1.607" transform="translate(132.931 49.202)" fill="#fff"/>
      <rect id="Rectángulo_304499" data-name="Rectángulo 304499" width="5.687" height="1.607" transform="translate(126.098 53.679)" fill="#fff"/>
      <rect id="Rectángulo_304500" data-name="Rectángulo 304500" width="8.421" height="1.607" transform="translate(132.931 53.679)" fill="#fff"/>
      <path id="Trazado_229005" data-name="Trazado 229005" d="M97.848,22.923l-1.88,1.88,5.855,5.853h-1.462l-8.293-8.293L87.314,27.12v5.371H105.1V30.16Z" transform="translate(38.784 9.933)" fill="#fff"/>
      <path id="Trazado_229006" data-name="Trazado 229006" d="M96.857,20.846a1.282,1.282,0,1,1-1.282,1.282,1.282,1.282,0,0,1,1.282-1.282" transform="translate(42.453 9.259)" fill="#fff"/>
      <path id="Trazado_229007" data-name="Trazado 229007" d="M93.951,55.6,69.476,51.306V20.648l24.475-4.294Z" transform="translate(30.86 7.264)" fill="red"/>
      <path id="Trazado_229008" data-name="Trazado 229008" d="M84.12,37.311,80.044,26.1a1.059,1.059,0,0,0-1.914,0L74.055,37.311a1.019,1.019,0,1,0,1.915.7l.867-2.387h4.5l.868,2.387a1.016,1.016,0,0,0,.956.67,1.052,1.052,0,0,0,.348-.061,1.02,1.02,0,0,0,.609-1.307m-6.544-3.727,1.511-4.151L80.6,33.583Z" transform="translate(32.866 11.325)" fill="#fafafa"/>
    </g>
    <path id="Trazado_229925" data-name="Trazado 229925" d="M30.709,19H29.074V8.163L25.8,9.367V7.891l4.658-1.749h.255Zm10.107,0H39.182V8.163L35.9,9.367V7.891l4.658-1.749h.255Zm10.107,0H49.289V8.163l-3.278,1.2V7.891l4.658-1.749h.255Zm12.788-5.458a7.436,7.436,0,0,1-.976,4.245,4.054,4.054,0,0,1-6.082.031,7.058,7.058,0,0,1-1.02-4.056V11.591A7.271,7.271,0,0,1,56.61,7.4a4.127,4.127,0,0,1,6.1-.048,7.017,7.017,0,0,1,1,4.083Zm-1.626-2.224a5.958,5.958,0,0,0-.58-3.01,2,2,0,0,0-1.837-.945,1.97,1.97,0,0,0-1.819.94,5.817,5.817,0,0,0-.589,2.892v2.6a6.053,6.053,0,0,0,.6,3.063,1.993,1.993,0,0,0,1.824.989,1.966,1.966,0,0,0,1.789-.932,5.834,5.834,0,0,0,.611-2.936Zm11.733,2.224a7.436,7.436,0,0,1-.976,4.245,4.054,4.054,0,0,1-6.082.031,7.058,7.058,0,0,1-1.02-4.056V11.591A7.271,7.271,0,0,1,66.718,7.4a4.127,4.127,0,0,1,6.1-.048,7.017,7.017,0,0,1,1,4.083Zm-1.626-2.224a5.958,5.958,0,0,0-.58-3.01,2,2,0,0,0-1.837-.945,1.97,1.97,0,0,0-1.819.94,5.817,5.817,0,0,0-.589,2.892v2.6a6.053,6.053,0,0,0,.6,3.063,1.993,1.993,0,0,0,1.824.989,1.966,1.966,0,0,0,1.789-.932,5.834,5.834,0,0,0,.611-2.936Zm11.733,2.224a7.436,7.436,0,0,1-.976,4.245,4.054,4.054,0,0,1-6.082.031,7.058,7.058,0,0,1-1.02-4.056V11.591A7.271,7.271,0,0,1,76.825,7.4a4.127,4.127,0,0,1,6.1-.048,7.017,7.017,0,0,1,1,4.083ZM82.3,11.318a5.958,5.958,0,0,0-.58-3.01,2,2,0,0,0-1.837-.945,1.97,1.97,0,0,0-1.819.94,5.817,5.817,0,0,0-.589,2.892v2.6a6.053,6.053,0,0,0,.6,3.063,1.993,1.993,0,0,0,1.824.989,1.966,1.966,0,0,0,1.789-.932,5.834,5.834,0,0,0,.611-2.936ZM91.354,19H89.719V8.163l-3.278,1.2V7.891L91.1,6.142h.255Zm10.107,0H99.826V8.163l-3.278,1.2V7.891l4.658-1.749h.255Zm12.788-5.458a7.436,7.436,0,0,1-.976,4.245,4.054,4.054,0,0,1-6.082.031,7.058,7.058,0,0,1-1.02-4.056V11.591a7.271,7.271,0,0,1,.976-4.192,4.127,4.127,0,0,1,6.1-.048,7.017,7.017,0,0,1,1,4.083Zm-1.626-2.224a5.958,5.958,0,0,0-.58-3.01,2,2,0,0,0-1.837-.945,1.97,1.97,0,0,0-1.819.94A5.817,5.817,0,0,0,107.8,11.2v2.6a6.053,6.053,0,0,0,.6,3.063,1.993,1.993,0,0,0,1.824.989,1.966,1.966,0,0,0,1.789-.932,5.834,5.834,0,0,0,.611-2.936ZM121.676,19h-1.635V8.163l-3.278,1.2V7.891l4.658-1.749h.255Zm10.107,0h-1.635V8.163l-3.278,1.2V7.891l4.658-1.749h.255Zm10.107,0h-1.635V8.163l-3.278,1.2V7.891l4.658-1.749h.255Zm12.788-5.458a7.436,7.436,0,0,1-.976,4.245,4.054,4.054,0,0,1-6.082.031,7.058,7.058,0,0,1-1.02-4.056V11.591a7.271,7.271,0,0,1,.976-4.192,4.127,4.127,0,0,1,6.1-.048,7.017,7.017,0,0,1,1,4.083Zm-1.626-2.224a5.958,5.958,0,0,0-.58-3.01,2,2,0,0,0-1.837-.945,1.97,1.97,0,0,0-1.819.94,5.817,5.817,0,0,0-.589,2.892v2.6a6.053,6.053,0,0,0,.6,3.063,1.993,1.993,0,0,0,1.824.989,1.966,1.966,0,0,0,1.789-.932,5.834,5.834,0,0,0,.611-2.936ZM38.443,43.542a7.436,7.436,0,0,1-.976,4.245,3.47,3.47,0,0,1-3.05,1.389,3.5,3.5,0,0,1-3.032-1.358,7.058,7.058,0,0,1-1.02-4.056V41.591a7.271,7.271,0,0,1,.976-4.192A3.5,3.5,0,0,1,34.4,36.027a3.528,3.528,0,0,1,3.041,1.323,7.017,7.017,0,0,1,1,4.083Zm-1.626-2.224a5.958,5.958,0,0,0-.58-3.01,2,2,0,0,0-1.837-.945,1.97,1.97,0,0,0-1.819.94,5.817,5.817,0,0,0-.589,2.892v2.6a6.053,6.053,0,0,0,.6,3.063,1.993,1.993,0,0,0,1.824.989,1.966,1.966,0,0,0,1.789-.932,5.834,5.834,0,0,0,.611-2.936ZM45.87,49H44.235V38.163l-3.278,1.2V37.891l4.658-1.749h.255Zm10.107,0H54.343V38.163l-3.278,1.2V37.891l4.658-1.749h.255Zm12.788-5.458a7.436,7.436,0,0,1-.976,4.245,4.054,4.054,0,0,1-6.082.031,7.058,7.058,0,0,1-1.02-4.056V41.591a7.271,7.271,0,0,1,.976-4.192,4.127,4.127,0,0,1,6.1-.048,7.017,7.017,0,0,1,1,4.083ZM67.14,41.318a5.958,5.958,0,0,0-.58-3.01,2,2,0,0,0-1.837-.945,1.97,1.97,0,0,0-1.819.94,5.817,5.817,0,0,0-.589,2.892v2.6a6.053,6.053,0,0,0,.6,3.063,1.993,1.993,0,0,0,1.824.989,1.966,1.966,0,0,0,1.789-.932,5.834,5.834,0,0,0,.611-2.936ZM76.192,49H74.558V38.163l-3.278,1.2V37.891l4.658-1.749h.255ZM86.3,49H84.665V38.163l-3.278,1.2V37.891l4.658-1.749H86.3Zm12.788-5.458a7.436,7.436,0,0,1-.976,4.245,4.054,4.054,0,0,1-6.082.031,7.058,7.058,0,0,1-1.02-4.056V41.591a7.271,7.271,0,0,1,.976-4.192,4.127,4.127,0,0,1,6.1-.048,7.017,7.017,0,0,1,1,4.083Zm-1.626-2.224a5.958,5.958,0,0,0-.58-3.01,2,2,0,0,0-1.837-.945,1.97,1.97,0,0,0-1.819.94,5.817,5.817,0,0,0-.589,2.892v2.6a6.053,6.053,0,0,0,.6,3.063,1.993,1.993,0,0,0,1.824.989,1.966,1.966,0,0,0,1.789-.932,5.834,5.834,0,0,0,.611-2.936ZM109.2,43.542a7.436,7.436,0,0,1-.976,4.245,4.054,4.054,0,0,1-6.082.031,7.058,7.058,0,0,1-1.02-4.056V41.591a7.271,7.271,0,0,1,.976-4.192,4.127,4.127,0,0,1,6.1-.048,7.017,7.017,0,0,1,1,4.083Zm-1.626-2.224a5.958,5.958,0,0,0-.58-3.01,2,2,0,0,0-1.837-.945,1.97,1.97,0,0,0-1.819.94,5.817,5.817,0,0,0-.589,2.892v2.6a6.053,6.053,0,0,0,.6,3.063,1.993,1.993,0,0,0,1.824.989,1.966,1.966,0,0,0,1.789-.932,5.834,5.834,0,0,0,.611-2.936ZM119.3,43.542a7.436,7.436,0,0,1-.976,4.245,4.054,4.054,0,0,1-6.082.031,7.058,7.058,0,0,1-1.02-4.056V41.591A7.271,7.271,0,0,1,112.2,37.4a4.127,4.127,0,0,1,6.1-.048,7.017,7.017,0,0,1,1,4.083Zm-1.626-2.224a5.958,5.958,0,0,0-.58-3.01,2,2,0,0,0-1.837-.945,1.97,1.97,0,0,0-1.819.94,5.817,5.817,0,0,0-.589,2.892v2.6a6.053,6.053,0,0,0,.6,3.063,1.993,1.993,0,0,0,1.824.989,1.966,1.966,0,0,0,1.789-.932,5.834,5.834,0,0,0,.611-2.936ZM126.729,49h-1.635V38.163l-3.278,1.2V37.891l4.658-1.749h.255Zm10.107,0H135.2V38.163l-3.278,1.2V37.891l4.658-1.749h.255Zm12.788-5.458a7.436,7.436,0,0,1-.976,4.245,4.054,4.054,0,0,1-6.082.031,7.058,7.058,0,0,1-1.02-4.056V41.591a7.271,7.271,0,0,1,.976-4.192,4.127,4.127,0,0,1,6.1-.048,7.017,7.017,0,0,1,1,4.083ZM148,41.318a5.958,5.958,0,0,0-.58-3.01,2,2,0,0,0-1.837-.945,1.97,1.97,0,0,0-1.819.94,5.817,5.817,0,0,0-.589,2.892v2.6a6.053,6.053,0,0,0,.6,3.063,1.993,1.993,0,0,0,1.824.989,1.966,1.966,0,0,0,1.789-.932A5.834,5.834,0,0,0,148,43.981ZM40.816,79H39.182V68.163l-3.278,1.2V67.891l4.658-1.749h.255Zm10.107,0H49.289V68.163l-3.278,1.2V67.891l4.658-1.749h.255Zm10.107,0H59.4V68.163l-3.278,1.2V67.891l4.658-1.749h.255Zm10.107,0H69.5V68.163l-3.278,1.2V67.891l4.658-1.749h.255Zm10.107,0H79.611V68.163l-3.278,1.2V67.891l4.658-1.749h.255Zm12.788-5.458a7.436,7.436,0,0,1-.976,4.245,4.054,4.054,0,0,1-6.082.031,7.058,7.058,0,0,1-1.02-4.056V71.591a7.271,7.271,0,0,1,.976-4.192,4.127,4.127,0,0,1,6.1-.048,7.017,7.017,0,0,1,1,4.083Zm-1.626-2.224a5.958,5.958,0,0,0-.58-3.01,2,2,0,0,0-1.837-.945,1.97,1.97,0,0,0-1.819.94,5.817,5.817,0,0,0-.589,2.892v2.6a6.053,6.053,0,0,0,.6,3.063,1.993,1.993,0,0,0,1.824.989,1.966,1.966,0,0,0,1.789-.932,5.834,5.834,0,0,0,.611-2.936Zm11.733,2.224a7.436,7.436,0,0,1-.976,4.245,4.054,4.054,0,0,1-6.082.031,7.058,7.058,0,0,1-1.02-4.056V71.591A7.271,7.271,0,0,1,97.04,67.4a4.127,4.127,0,0,1,6.1-.048,7.017,7.017,0,0,1,1,4.083Zm-1.626-2.224a5.958,5.958,0,0,0-.58-3.01,2,2,0,0,0-1.837-.945,1.97,1.97,0,0,0-1.819.94A5.817,5.817,0,0,0,97.69,71.2v2.6a6.053,6.053,0,0,0,.6,3.063,1.993,1.993,0,0,0,1.824.989,1.966,1.966,0,0,0,1.789-.932,5.834,5.834,0,0,0,.611-2.936Zm11.733,2.224a7.436,7.436,0,0,1-.976,4.245,4.054,4.054,0,0,1-6.082.031,7.058,7.058,0,0,1-1.02-4.056V71.591a7.271,7.271,0,0,1,.976-4.192,4.127,4.127,0,0,1,6.1-.048,7.017,7.017,0,0,1,1,4.083Zm-1.626-2.224a5.958,5.958,0,0,0-.58-3.01,2,2,0,0,0-1.837-.945,1.97,1.97,0,0,0-1.819.94A5.817,5.817,0,0,0,107.8,71.2v2.6a6.053,6.053,0,0,0,.6,3.063,1.993,1.993,0,0,0,1.824.989,1.966,1.966,0,0,0,1.789-.932,5.834,5.834,0,0,0,.611-2.936ZM121.676,79h-1.635V68.163l-3.278,1.2V67.891l4.658-1.749h.255Zm10.107,0h-1.635V68.163l-3.278,1.2V67.891l4.658-1.749h.255Zm12.788-5.458a7.436,7.436,0,0,1-.976,4.245,4.054,4.054,0,0,1-6.082.031,7.058,7.058,0,0,1-1.02-4.056V71.591a7.271,7.271,0,0,1,.976-4.192,4.127,4.127,0,0,1,6.1-.048,7.017,7.017,0,0,1,1,4.083Zm-1.626-2.224a5.958,5.958,0,0,0-.58-3.01,2,2,0,0,0-1.837-.945,1.97,1.97,0,0,0-1.819.94,5.817,5.817,0,0,0-.589,2.892v2.6a6.053,6.053,0,0,0,.6,3.063,1.993,1.993,0,0,0,1.824.989,1.966,1.966,0,0,0,1.789-.932,5.834,5.834,0,0,0,.611-2.936Z" transform="translate(551 2555.998)" fill="#12263f"/>
    <g transform="matrix(1, 0, 0, 1, 276, 2328)" filter="url(#Rectángulo_304503)">
      <rect id="Rectángulo_304503-2" data-name="Rectángulo 304503" width="291" height="580" rx="20" transform="translate(538 6)" fill="#fff"/>
    </g>
    <g transform="matrix(1, 0, 0, 1, 276, 2328)" filter="url(#Rectángulo_304507)">
      <rect id="Rectángulo_304507-2" data-name="Rectángulo 304507" width="242.153" height="104" rx="20" transform="translate(1039 355) rotate(180)" fill="#fff"/>
    </g>
    <g id="Grupo_218378" data-name="Grupo 218378" transform="translate(892.036 2377.321)">
      <path id="Trazado_228925-2" data-name="Trazado 228925" d="M14.941,10.977a3.963,3.963,0,1,1-3.963,3.963,3.963,3.963,0,0,1,3.963-3.963" transform="translate(4.875 4.875)" fill="#0f2771"/>
      <path id="Trazado_228926-2" data-name="Trazado 228926" d="M25.919,10.977a3.963,3.963,0,1,1-3.963,3.963,3.963,3.963,0,0,1,3.963-3.963" transform="translate(9.75 4.875)" fill="#0f2771"/>
      <path id="Trazado_228927-2" data-name="Trazado 228927" d="M37.08,10.977a3.963,3.963,0,1,1-3.963,3.963,3.963,3.963,0,0,1,3.963-3.963" transform="translate(14.707 4.875)" fill="#0f2771"/>
      <path id="Trazado_228928-2" data-name="Trazado 228928" d="M135.276,27.742V11.889A11.9,11.9,0,0,0,123.387,0H11.889A11.9,11.9,0,0,0,0,11.889V27.742A11.909,11.909,0,0,0,7.925,38.95V48.5A11.907,11.907,0,0,0,0,59.711V75.565A11.907,11.907,0,0,0,7.925,86.772v4.646a11.9,11.9,0,0,0,11.891,11.889h43.86v8.872a11.94,11.94,0,0,0-7.245,7.245H23.1a11.889,11.889,0,1,0,0,7.925H56.431a11.887,11.887,0,0,0,22.415,0h33.334a11.888,11.888,0,1,0,0-7.927H78.846a11.941,11.941,0,0,0-7.245-7.244v-8.872h43.86A11.9,11.9,0,0,0,127.35,91.418V86.772a11.907,11.907,0,0,0,7.927-11.208V59.711A11.907,11.907,0,0,0,127.35,48.5V38.95a11.908,11.908,0,0,0,7.927-11.208M11.889,127.35a3.963,3.963,0,1,1,3.963-3.963,3.968,3.968,0,0,1-3.963,3.963m111.5-7.927a3.963,3.963,0,1,1-3.963,3.964,3.968,3.968,0,0,1,3.963-3.964M67.638,127.35a3.963,3.963,0,1,1,3.963-3.963,3.967,3.967,0,0,1-3.963,3.963m51.786-35.932a3.968,3.968,0,0,1-3.964,3.963H19.816a3.967,3.967,0,0,1-3.964-3.963V87.454H119.424Zm7.925-15.853a3.967,3.967,0,0,1-3.963,3.963H11.889a3.968,3.968,0,0,1-3.964-3.963V59.711a3.968,3.968,0,0,1,3.964-3.963h111.5a3.967,3.967,0,0,1,3.963,3.963ZM15.852,39.631H119.423v8.191H15.852ZM123.387,31.7H11.889a3.968,3.968,0,0,1-3.964-3.963V11.889a3.97,3.97,0,0,1,3.964-3.964h111.5a3.968,3.968,0,0,1,3.963,3.964V27.742a3.967,3.967,0,0,1-3.963,3.963" fill="#0f2771"/>
      <path id="Trazado_228929-2" data-name="Trazado 228929" d="M93.442,10.977h-39.9a3.963,3.963,0,1,0,0,7.927h39.9a3.963,3.963,0,0,0,0-7.927" transform="translate(22.019 4.875)" fill="#0f2771"/>
      <path id="Trazado_228930-2" data-name="Trazado 228930" d="M14.941,44.094a3.963,3.963,0,1,1-3.963,3.963,3.963,3.963,0,0,1,3.963-3.963" transform="translate(4.875 19.582)" fill="#0f2771"/>
      <path id="Trazado_228931-2" data-name="Trazado 228931" d="M25.919,44.094a3.963,3.963,0,1,1-3.963,3.963,3.963,3.963,0,0,1,3.963-3.963" transform="translate(9.75 19.582)" fill="#0f2771"/>
      <path id="Trazado_228932-2" data-name="Trazado 228932" d="M37.08,44.094a3.963,3.963,0,1,1-3.963,3.963,3.963,3.963,0,0,1,3.963-3.963" transform="translate(14.707 19.582)" fill="#0f2771"/>
      <path id="Trazado_228933-2" data-name="Trazado 228933" d="M93.442,44.094h-39.9a3.963,3.963,0,1,0,0,7.927h39.9a3.963,3.963,0,0,0,0-7.927" transform="translate(22.019 19.582)" fill="#0f2771"/>
      <path id="Trazado_228934-2" data-name="Trazado 228934" d="M6.425,100.006v13.94a1.586,1.586,0,0,1-3.171,0v-13.94a1.586,1.586,0,0,1,3.171,0" transform="translate(1.445 43.707)" fill="#0f2771"/>
      <path id="Trazado_228935-2" data-name="Trazado 228935" d="M12.569,106.542a1.583,1.583,0,0,1-.388,1.038l-4.6,5.306a1.584,1.584,0,0,1-2.361.036l-4.8-5.2a1.586,1.586,0,0,1,2.329-2.152l3.594,3.895L9.788,105.5a1.584,1.584,0,0,1,2.781,1.04" transform="translate(0 46.609)" fill="#0f2771"/>
      <path id="Trazado_228936-2" data-name="Trazado 228936" d="M48.911,100.006v13.94a1.586,1.586,0,0,1-3.171,0v-13.94a1.586,1.586,0,0,1,3.171,0" transform="translate(20.312 43.707)" fill="#0f2771"/>
      <path id="Trazado_228937-2" data-name="Trazado 228937" d="M55.055,106.542a1.583,1.583,0,0,1-.388,1.038l-4.6,5.306a1.584,1.584,0,0,1-2.361.036l-4.8-5.2a1.586,1.586,0,0,1,2.329-2.152l3.594,3.895,3.444-3.967a1.584,1.584,0,0,1,2.781,1.04" transform="translate(18.867 46.609)" fill="#0f2771"/>
      <path id="Trazado_228938-2" data-name="Trazado 228938" d="M20.572,100.006v13.94a1.586,1.586,0,0,1-3.171,0v-13.94a1.586,1.586,0,0,1,3.171,0" transform="translate(7.728 43.707)" fill="#0f2771"/>
      <path id="Trazado_228939-2" data-name="Trazado 228939" d="M26.716,106.542a1.583,1.583,0,0,1-.388,1.038l-4.6,5.306a1.584,1.584,0,0,1-2.361.036l-4.8-5.2a1.586,1.586,0,0,1,2.329-2.152l3.594,3.895,3.444-3.967a1.584,1.584,0,0,1,2.781,1.04" transform="translate(6.283 46.609)" fill="#0f2771"/>
      <path id="Trazado_228940-2" data-name="Trazado 228940" d="M34.833,100.006v13.94a1.586,1.586,0,0,1-3.171,0v-13.94a1.586,1.586,0,0,1,3.171,0" transform="translate(14.061 43.707)" fill="#0f2771"/>
      <path id="Trazado_228941-2" data-name="Trazado 228941" d="M40.977,106.542a1.583,1.583,0,0,1-.388,1.038l-4.6,5.306a1.584,1.584,0,0,1-2.361.036l-4.8-5.2a1.586,1.586,0,0,1,2.329-2.152l3.594,3.895L38.2,105.5a1.584,1.584,0,0,1,2.781,1.04" transform="translate(12.616 46.609)" fill="#0f2771"/>
      <path id="Trazado_228942-2" data-name="Trazado 228942" d="M62.99,100.006v13.94a1.586,1.586,0,0,1-3.171,0v-13.94a1.586,1.586,0,0,1,3.171,0" transform="translate(26.565 43.707)" fill="#0f2771"/>
      <path id="Trazado_228943-2" data-name="Trazado 228943" d="M69.134,106.542a1.583,1.583,0,0,1-.388,1.038l-4.6,5.306a1.584,1.584,0,0,1-2.361.036l-4.8-5.2a1.586,1.586,0,0,1,2.329-2.152l3.594,3.895,3.444-3.967a1.584,1.584,0,0,1,2.781,1.04" transform="translate(25.12 46.609)" fill="#0f2771"/>
      <path id="Trazado_228944-2" data-name="Trazado 228944" d="M77.136,100.006v13.94a1.586,1.586,0,0,1-3.171,0v-13.94a1.586,1.586,0,0,1,3.171,0" transform="translate(32.847 43.707)" fill="#0f2771"/>
      <path id="Trazado_228945-2" data-name="Trazado 228945" d="M83.28,106.542a1.583,1.583,0,0,1-.388,1.038l-4.6,5.306a1.584,1.584,0,0,1-2.361.036l-4.8-5.2a1.586,1.586,0,0,1,2.329-2.152l3.594,3.895L80.5,105.5a1.584,1.584,0,0,1,2.781,1.04" transform="translate(31.402 46.609)" fill="#0f2771"/>
      <path id="Trazado_228946-2" data-name="Trazado 228946" d="M91.4,100.006v13.94a1.586,1.586,0,0,1-3.171,0v-13.94a1.586,1.586,0,0,1,3.171,0" transform="translate(39.18 43.707)" fill="#0f2771"/>
      <path id="Trazado_228947-2" data-name="Trazado 228947" d="M97.542,106.542a1.583,1.583,0,0,1-.388,1.038l-4.6,5.306a1.584,1.584,0,0,1-2.361.036l-4.8-5.2a1.586,1.586,0,0,1,2.329-2.152l3.594,3.895,3.444-3.967a1.584,1.584,0,0,1,2.781,1.04" transform="translate(37.735 46.609)" fill="#0f2771"/>
    </g>
    <path id="Trazado_228948" data-name="Trazado 228948" d="M103.148,0C46.18,0,0,12.306,0,27.488S46.18,54.976,103.148,54.976,206.3,42.67,206.3,27.488,160.114,0,103.148,0m0,48.156c-51.731,0-93.668-8.81-93.668-19.679S51.417,8.8,103.148,8.8s93.668,8.81,93.668,19.679S154.88,48.156,103.148,48.156" transform="translate(855.934 2609.819)" fill="#4dd0e1"/>
    <path id="Trazado_228949" data-name="Trazado 228949" d="M1.2,22.524,77.652,122.675l49.277.253,74.85-100.4-15.573,9.648-22.444,5.981-25.755,4.191H98.626L62.537,38.153H46.74l-22.678-6.9L8.947,24.843Z" transform="translate(856.467 2619.822)" fill="#4dd0e1"/>
    <path id="Trazado_228950" data-name="Trazado 228950" d="M39.905,45.569a5.5,5.5,0,1,1-5.5-5.5,5.5,5.5,0,0,1,5.5,5.5" transform="translate(868.772 2627.614)" fill="#008a87"/>
    <path id="Trazado_228951" data-name="Trazado 228951" d="M49.267,45.569a5.5,5.5,0,1,1-5.5-5.5,5.5,5.5,0,0,1,5.5,5.5" transform="translate(872.93 2627.614)" fill="#008a87"/>
    <path id="Trazado_228952" data-name="Trazado 228952" d="M58.839,45.569a5.5,5.5,0,1,1-5.5-5.5,5.5,5.5,0,0,1,5.5,5.5" transform="translate(877.181 2627.614)" fill="#008a87"/>
    <path id="Trazado_228953" data-name="Trazado 228953" d="M68.2,45.569a5.5,5.5,0,1,1-5.5-5.5,5.5,5.5,0,0,1,5.5,5.5" transform="translate(881.338 2627.614)" fill="#008a87"/>
    <path id="Trazado_228954" data-name="Trazado 228954" d="M77.91,45.569a5.5,5.5,0,1,1-5.5-5.5,5.5,5.5,0,0,1,5.5,5.5" transform="translate(885.649 2627.614)" fill="#008a87"/>
    <path id="Trazado_228955" data-name="Trazado 228955" d="M87.273,45.569a5.5,5.5,0,1,1-5.5-5.5,5.5,5.5,0,0,1,5.5,5.5" transform="translate(889.808 2627.614)" fill="#008a87"/>
    <path id="Trazado_228956" data-name="Trazado 228956" d="M96.844,45.569a5.5,5.5,0,1,1-5.5-5.5,5.5,5.5,0,0,1,5.5,5.5" transform="translate(894.058 2627.614)" fill="#008a87"/>
    <path id="Trazado_228957" data-name="Trazado 228957" d="M106.208,45.569a5.5,5.5,0,1,1-5.5-5.5,5.5,5.5,0,0,1,5.5,5.5" transform="translate(898.215 2627.614)" fill="#008a87"/>
    <path id="Trazado_228958" data-name="Trazado 228958" d="M115.658,45.569a5.5,5.5,0,1,1-5.5-5.5,5.5,5.5,0,0,1,5.5,5.5" transform="translate(902.413 2627.614)" fill="#008a87"/>
    <path id="Trazado_228959" data-name="Trazado 228959" d="M49.267,56.141a5.5,5.5,0,1,1-5.5-5.5,5.5,5.5,0,0,1,5.5,5.5" transform="translate(872.93 2632.309)" fill="#eca146"/>
    <path id="Trazado_228960" data-name="Trazado 228960" d="M58.839,56.141a5.5,5.5,0,1,1-5.5-5.5,5.5,5.5,0,0,1,5.5,5.5" transform="translate(877.181 2632.309)" fill="#eca146"/>
    <path id="Trazado_228961" data-name="Trazado 228961" d="M68.2,56.141a5.5,5.5,0,1,1-5.5-5.5,5.5,5.5,0,0,1,5.5,5.5" transform="translate(881.338 2632.309)" fill="#eca146"/>
    <path id="Trazado_228962" data-name="Trazado 228962" d="M77.91,56.141a5.5,5.5,0,1,1-5.5-5.5,5.5,5.5,0,0,1,5.5,5.5" transform="translate(885.649 2632.309)" fill="#eca146"/>
    <path id="Trazado_228963" data-name="Trazado 228963" d="M87.273,56.141a5.5,5.5,0,1,1-5.5-5.5,5.5,5.5,0,0,1,5.5,5.5" transform="translate(889.808 2632.309)" fill="#eca146"/>
    <path id="Trazado_228964" data-name="Trazado 228964" d="M96.844,56.141a5.5,5.5,0,1,1-5.5-5.5,5.5,5.5,0,0,1,5.5,5.5" transform="translate(894.058 2632.309)" fill="#eca146"/>
    <path id="Trazado_228965" data-name="Trazado 228965" d="M106.208,56.141a5.5,5.5,0,1,1-5.5-5.5,5.5,5.5,0,0,1,5.5,5.5" transform="translate(898.215 2632.309)" fill="#eca146"/>
    <path id="Trazado_228966" data-name="Trazado 228966" d="M53.839,65.835a5.5,5.5,0,1,1-5.5-5.5,5.5,5.5,0,0,1,5.5,5.5" transform="translate(874.96 2636.614)" fill="#306bb3"/>
    <path id="Trazado_228967" data-name="Trazado 228967" d="M63.2,65.835a5.5,5.5,0,1,1-5.5-5.5,5.5,5.5,0,0,1,5.5,5.5" transform="translate(879.118 2636.614)" fill="#306bb3"/>
    <path id="Trazado_228968" data-name="Trazado 228968" d="M72.91,65.835a5.5,5.5,0,1,1-5.5-5.5,5.5,5.5,0,0,1,5.5,5.5" transform="translate(883.429 2636.614)" fill="#306bb3"/>
    <path id="Trazado_228969" data-name="Trazado 228969" d="M82.273,65.835a5.5,5.5,0,1,1-5.5-5.5,5.5,5.5,0,0,1,5.5,5.5" transform="translate(887.587 2636.614)" fill="#306bb3"/>
    <path id="Trazado_228970" data-name="Trazado 228970" d="M91.844,65.835a5.5,5.5,0,1,1-5.5-5.5,5.5,5.5,0,0,1,5.5,5.5" transform="translate(891.837 2636.614)" fill="#306bb3"/>
    <path id="Trazado_228971" data-name="Trazado 228971" d="M101.208,65.835a5.5,5.5,0,1,1-5.5-5.5,5.5,5.5,0,0,1,5.5,5.5" transform="translate(895.995 2636.614)" fill="#306bb3"/>
    <path id="Trazado_228972" data-name="Trazado 228972" d="M58.839,75.528a5.5,5.5,0,1,1-5.5-5.5,5.5,5.5,0,0,1,5.5,5.5" transform="translate(877.181 2640.919)" fill="#b9333a"/>
    <path id="Trazado_228973" data-name="Trazado 228973" d="M68.2,75.528a5.5,5.5,0,1,1-5.5-5.5,5.5,5.5,0,0,1,5.5,5.5" transform="translate(881.338 2640.919)" fill="#b9333a"/>
    <path id="Trazado_228974" data-name="Trazado 228974" d="M77.91,75.528a5.5,5.5,0,1,1-5.5-5.5,5.5,5.5,0,0,1,5.5,5.5" transform="translate(885.649 2640.919)" fill="#b9333a"/>
    <path id="Trazado_228975" data-name="Trazado 228975" d="M87.273,75.528a5.5,5.5,0,1,1-5.5-5.5,5.5,5.5,0,0,1,5.5,5.5" transform="translate(889.808 2640.919)" fill="#b9333a"/>
    <path id="Trazado_228976" data-name="Trazado 228976" d="M96.844,75.528a5.5,5.5,0,1,1-5.5-5.5,5.5,5.5,0,0,1,5.5,5.5" transform="translate(894.058 2640.919)" fill="#b9333a"/>
    <path id="Trazado_228977" data-name="Trazado 228977" d="M68.2,85.044a5.5,5.5,0,1,1-5.5-5.5,5.5,5.5,0,0,1,5.5,5.5" transform="translate(881.338 2645.145)" fill="#51e4e2"/>
    <path id="Trazado_228978" data-name="Trazado 228978" d="M77.91,85.044a5.5,5.5,0,1,1-5.5-5.5,5.5,5.5,0,0,1,5.5,5.5" transform="translate(885.649 2645.145)" fill="#51e4e2"/>
    <path id="Trazado_228979" data-name="Trazado 228979" d="M87.273,85.044a5.5,5.5,0,1,1-5.5-5.5,5.5,5.5,0,0,1,5.5,5.5" transform="translate(889.808 2645.145)" fill="#51e4e2"/>
    <rect id="Rectángulo_304433" data-name="Rectángulo 304433" width="206.296" height="132.931" transform="translate(855.934 2609.819)" fill="none"/>
    <path id="Trazado_228980" data-name="Trazado 228980" d="M32.424,61.751,56.9,66.044V26.8L32.424,31.094Z" transform="translate(900.658 2766.13)" fill="#1e2d64"/>
    <rect id="Rectángulo_304434" data-name="Rectángulo 304434" width="15.371" height="30.656" transform="translate(958.747 2797.225)" fill="#1e2d64"/>
    <path id="Trazado_228981" data-name="Trazado 228981" d="M46.152,44.133,44.27,36.6H42.055l-2.064,7.7-1.62-7.733h-2.3L39.35,47.6h1.8l1.912-7.837L44.975,47.6h1.8l3.648-11.031H48.094Z" transform="translate(902.278 2770.468)" fill="#fff"/>
    <rect id="Rectángulo_304435" data-name="Rectángulo 304435" width="13.27" height="2.982" transform="translate(958.747 2800.737)" fill="#fff"/>
    <rect id="Rectángulo_304436" data-name="Rectángulo 304436" width="13.27" height="2.982" transform="translate(958.747 2805.899)" fill="#fff"/>
    <rect id="Rectángulo_304437" data-name="Rectángulo 304437" width="13.27" height="2.982" transform="translate(958.747 2811.063)" fill="#fff"/>
    <rect id="Rectángulo_304438" data-name="Rectángulo 304438" width="13.27" height="2.982" transform="translate(958.747 2816.224)" fill="#fff"/>
    <rect id="Rectángulo_304439" data-name="Rectángulo 304439" width="13.27" height="2.982" transform="translate(958.747 2821.388)" fill="#fff"/>
    <path id="Trazado_228982" data-name="Trazado 228982" d="M24.473,0,0,4.293V34.95l24.473,4.295Z" transform="translate(886.259 2754.229)" fill="#ff640a"/>
    <rect id="Rectángulo_304440" data-name="Rectángulo 304440" width="15.371" height="30.655" transform="translate(911.924 2758.521)" fill="#ff640a"/>
    <g id="Grupo_218384" data-name="Grupo 218384" transform="translate(886.259 2754.229)" clip-path="url(#clip-path-3)">
      <path id="Trazado_228983" data-name="Trazado 228983" d="M5.43,20.645V9.559h4.7a3.7,3.7,0,0,1,3.529,3.685,3.572,3.572,0,0,1-3.45,3.684H7.585v3.717Zm2.155-5.606h2.5c.9,0,1.389-.843,1.389-1.795a1.615,1.615,0,0,0-1.483-1.8h-2.4Z" transform="translate(2.411 4.244)" fill="#fff"/>
      <path id="Trazado_228984" data-name="Trazado 228984" d="M22.535,4.98a4.334,4.334,0,1,0,4.332,4.4H22.535Z" transform="translate(8.083 2.211)" fill="#fff"/>
      <path id="Trazado_228985" data-name="Trazado 228985" d="M21.826,4.695V8.59h3.656c0-.065,0-.129,0-.194a3.7,3.7,0,0,0-3.661-3.7" transform="translate(9.693 2.084)" fill="#fff"/>
      <rect id="Rectángulo_304441" data-name="Rectángulo 304441" width="10.497" height="1.757" transform="translate(25.664 17.865)" fill="#fff"/>
      <rect id="Rectángulo_304442" data-name="Rectángulo 304442" width="10.497" height="1.757" transform="translate(25.664 20.945)" fill="#fff"/>
      <rect id="Rectángulo_304443" data-name="Rectángulo 304443" width="10.497" height="1.757" transform="translate(25.664 24.025)" fill="#fff"/>
      <rect id="Rectángulo_304444" data-name="Rectángulo 304444" width="10.497" height="1.757" transform="translate(25.664 27.105)" fill="#fff"/>
      <path id="Trazado_228986" data-name="Trazado 228986" d="M70.312,36.993l24.473,4.293V2.043L70.312,6.336Z" transform="translate(31.225 0.907)" fill="#006941"/>
      <rect id="Rectángulo_304445" data-name="Rectángulo 304445" width="15.369" height="30.656" transform="translate(127.201 7.244)" fill="#006941"/>
      <rect id="Rectángulo_304446" data-name="Rectángulo 304446" width="3.864" height="4.208" transform="translate(127.201 10.356)" fill="#fff"/>
      <rect id="Rectángulo_304447" data-name="Rectángulo 304447" width="3.864" height="4.208" transform="translate(127.201 17.097)" fill="#fff"/>
      <rect id="Rectángulo_304448" data-name="Rectángulo 304448" width="3.864" height="4.208" transform="translate(127.201 23.839)" fill="#fff"/>
      <rect id="Rectángulo_304449" data-name="Rectángulo 304449" width="3.864" height="4.208" transform="translate(127.201 30.58)" fill="#fff"/>
      <rect id="Rectángulo_304450" data-name="Rectángulo 304450" width="6.741" height="4.208" transform="translate(133.039 10.356)" fill="#fff"/>
      <rect id="Rectángulo_304451" data-name="Rectángulo 304451" width="6.741" height="4.208" transform="translate(133.039 17.097)" fill="#fff"/>
      <rect id="Rectángulo_304452" data-name="Rectángulo 304452" width="6.741" height="4.208" transform="translate(133.039 23.839)" fill="#fff"/>
      <rect id="Rectángulo_304453" data-name="Rectángulo 304453" width="6.741" height="4.208" transform="translate(133.039 30.58)" fill="#fff"/>
      <path id="Trazado_228987" data-name="Trazado 228987" d="M84.947,11.285H82.154l-2.113,3.749L77.93,11.285H75.137l3.509,6.228-3.853,6.838h2.793l2.455-4.36,2.456,4.36h2.793l-3.851-6.838Z" transform="translate(33.215 5.011)" fill="#fff"/>
      <rect id="Rectángulo_304454" data-name="Rectángulo 304454" width="5.687" height="1.607" transform="translate(127.296 96.645)" fill="#fff"/>
      <rect id="Rectángulo_304455" data-name="Rectángulo 304455" width="8.42" height="1.607" transform="translate(134.13 96.645)" fill="#fff"/>
      <rect id="Rectángulo_304456" data-name="Rectángulo 304456" width="5.687" height="1.607" transform="translate(127.296 101.124)" fill="#fff"/>
      <rect id="Rectángulo_304457" data-name="Rectángulo 304457" width="8.42" height="1.607" transform="translate(134.13 101.124)" fill="#fff"/>
      <rect id="Rectángulo_304458" data-name="Rectángulo 304458" width="5.687" height="1.607" transform="translate(127.296 105.6)" fill="#fff"/>
      <rect id="Rectángulo_304459" data-name="Rectángulo 304459" width="8.42" height="1.607" transform="translate(134.13 105.6)" fill="#fff"/>
      <path id="Trazado_228988" data-name="Trazado 228988" d="M97.693,56.8a1.282,1.282,0,1,1-1.282,1.282A1.282,1.282,0,0,1,97.693,56.8" transform="translate(42.815 25.225)" fill="#fff"/>
      <path id="Trazado_228989" data-name="Trazado 228989" d="M104.891,87.4H88.144V54.51h16.747a1.048,1.048,0,0,1,1.047,1.047v30.8a1.048,1.048,0,0,1-1.047,1.047" transform="translate(39.143 24.207)" fill="red"/>
      <rect id="Rectángulo_304460" data-name="Rectángulo 304460" width="5.687" height="1.607" transform="translate(127.296 96.645)" fill="#fff"/>
      <rect id="Rectángulo_304461" data-name="Rectángulo 304461" width="8.42" height="1.607" transform="translate(134.13 96.645)" fill="#fff"/>
      <rect id="Rectángulo_304462" data-name="Rectángulo 304462" width="5.687" height="1.607" transform="translate(127.296 101.124)" fill="#fff"/>
      <rect id="Rectángulo_304463" data-name="Rectángulo 304463" width="8.42" height="1.607" transform="translate(134.13 101.124)" fill="#fff"/>
      <rect id="Rectángulo_304464" data-name="Rectángulo 304464" width="5.687" height="1.607" transform="translate(127.296 105.6)" fill="#fff"/>
      <rect id="Rectángulo_304465" data-name="Rectángulo 304465" width="8.42" height="1.607" transform="translate(134.13 105.6)" fill="#fff"/>
      <path id="Trazado_228990" data-name="Trazado 228990" d="M98.684,58.88,96.8,60.76l5.854,5.853H101.2L92.9,58.321l-4.754,4.755v5.371h17.785V66.116Z" transform="translate(39.146 25.899)" fill="#fff"/>
      <path id="Trazado_228991" data-name="Trazado 228991" d="M97.693,56.8a1.282,1.282,0,1,1-1.282,1.282A1.282,1.282,0,0,1,97.693,56.8" transform="translate(42.815 25.225)" fill="#fff"/>
      <path id="Trazado_228992" data-name="Trazado 228992" d="M94.786,91.554,70.313,87.261V56.6l24.473-4.293Z" transform="translate(31.225 23.23)" fill="red"/>
      <path id="Trazado_228993" data-name="Trazado 228993" d="M84.955,73.268,80.88,62.06a1.059,1.059,0,0,0-1.913,0L74.891,73.268a1.019,1.019,0,1,0,1.915.7l.866-2.387h4.5l.868,2.387a1.016,1.016,0,0,0,.956.67,1.052,1.052,0,0,0,.348-.061,1.02,1.02,0,0,0,.609-1.307m-6.543-3.727,1.511-4.15,1.509,4.15Z" transform="translate(33.23 27.291)" fill="#fafafa"/>
      <path id="Trazado_228994" data-name="Trazado 228994" d="M0,87.261l24.473,4.293V52.311L0,56.6Z" transform="translate(0 23.23)" fill="#823264"/>
      <path id="Trazado_228995" data-name="Trazado 228995" d="M33.142,56.487v-1.2H17.771V85.941H33.142V64.978h2.286V56.487Z" transform="translate(7.892 24.55)" fill="#823264"/>
      <rect id="Rectángulo_304466" data-name="Rectángulo 304466" width="1.474" height="8.491" transform="translate(41.847 90.774)" fill="#823264"/>
      <rect id="Rectángulo_304467" data-name="Rectángulo 304467" width="1.474" height="8.491" transform="translate(41.847 100.797)" fill="#823264"/>
      <rect id="Rectángulo_304468" data-name="Rectángulo 304468" width="10.786" height="1.769" transform="translate(25.664 83.176)" fill="#fff"/>
      <rect id="Rectángulo_304469" data-name="Rectángulo 304469" width="10.786" height="1.769" transform="translate(25.664 87.618)" fill="#fff"/>
      <rect id="Rectángulo_304470" data-name="Rectángulo 304470" width="10.786" height="1.769" transform="translate(25.664 92.058)" fill="#fff"/>
      <rect id="Rectángulo_304471" data-name="Rectángulo 304471" width="10.786" height="1.769" transform="translate(25.664 96.498)" fill="#fff"/>
      <rect id="Rectángulo_304472" data-name="Rectángulo 304472" width="10.786" height="1.769" transform="translate(25.664 100.939)" fill="#fff"/>
      <rect id="Rectángulo_304473" data-name="Rectángulo 304473" width="10.786" height="1.769" transform="translate(25.664 105.379)" fill="#fff"/>
      <path id="Trazado_228996" data-name="Trazado 228996" d="M12.7,69.883,7.156,61.9H4.679V73.452H7.156V65.466L12.7,73.452h2.477V61.9H12.7Z" transform="translate(2.078 27.488)" fill="#fff"/>
    </g>
    <path id="Trazado_229926" data-name="Trazado 229926" d="M30.709,19H29.074V8.163L25.8,9.367V7.891l4.658-1.749h.255Zm10.107,0H39.182V8.163L35.9,9.367V7.891l4.658-1.749h.255Zm10.107,0H49.289V8.163l-3.278,1.2V7.891l4.658-1.749h.255Zm12.788-5.458a7.436,7.436,0,0,1-.976,4.245,4.054,4.054,0,0,1-6.082.031,7.058,7.058,0,0,1-1.02-4.056V11.591A7.271,7.271,0,0,1,56.61,7.4a4.127,4.127,0,0,1,6.1-.048,7.017,7.017,0,0,1,1,4.083Zm-1.626-2.224a5.958,5.958,0,0,0-.58-3.01,2,2,0,0,0-1.837-.945,1.97,1.97,0,0,0-1.819.94,5.817,5.817,0,0,0-.589,2.892v2.6a6.053,6.053,0,0,0,.6,3.063,1.993,1.993,0,0,0,1.824.989,1.966,1.966,0,0,0,1.789-.932,5.834,5.834,0,0,0,.611-2.936Zm11.733,2.224a7.436,7.436,0,0,1-.976,4.245,4.054,4.054,0,0,1-6.082.031,7.058,7.058,0,0,1-1.02-4.056V11.591A7.271,7.271,0,0,1,66.718,7.4a4.127,4.127,0,0,1,6.1-.048,7.017,7.017,0,0,1,1,4.083Zm-1.626-2.224a5.958,5.958,0,0,0-.58-3.01,2,2,0,0,0-1.837-.945,1.97,1.97,0,0,0-1.819.94,5.817,5.817,0,0,0-.589,2.892v2.6a6.053,6.053,0,0,0,.6,3.063,1.993,1.993,0,0,0,1.824.989,1.966,1.966,0,0,0,1.789-.932,5.834,5.834,0,0,0,.611-2.936Zm11.733,2.224a7.436,7.436,0,0,1-.976,4.245,4.054,4.054,0,0,1-6.082.031,7.058,7.058,0,0,1-1.02-4.056V11.591A7.271,7.271,0,0,1,76.825,7.4a4.127,4.127,0,0,1,6.1-.048,7.017,7.017,0,0,1,1,4.083ZM82.3,11.318a5.958,5.958,0,0,0-.58-3.01,2,2,0,0,0-1.837-.945,1.97,1.97,0,0,0-1.819.94,5.817,5.817,0,0,0-.589,2.892v2.6a6.053,6.053,0,0,0,.6,3.063,1.993,1.993,0,0,0,1.824.989,1.966,1.966,0,0,0,1.789-.932,5.834,5.834,0,0,0,.611-2.936ZM91.354,19H89.719V8.163l-3.278,1.2V7.891L91.1,6.142h.255Zm10.107,0H99.826V8.163l-3.278,1.2V7.891l4.658-1.749h.255Zm12.788-5.458a7.436,7.436,0,0,1-.976,4.245,4.054,4.054,0,0,1-6.082.031,7.058,7.058,0,0,1-1.02-4.056V11.591a7.271,7.271,0,0,1,.976-4.192,4.127,4.127,0,0,1,6.1-.048,7.017,7.017,0,0,1,1,4.083Zm-1.626-2.224a5.958,5.958,0,0,0-.58-3.01,2,2,0,0,0-1.837-.945,1.97,1.97,0,0,0-1.819.94A5.817,5.817,0,0,0,107.8,11.2v2.6a6.053,6.053,0,0,0,.6,3.063,1.993,1.993,0,0,0,1.824.989,1.966,1.966,0,0,0,1.789-.932,5.834,5.834,0,0,0,.611-2.936ZM121.676,19h-1.635V8.163l-3.278,1.2V7.891l4.658-1.749h.255Zm10.107,0h-1.635V8.163l-3.278,1.2V7.891l4.658-1.749h.255Zm10.107,0h-1.635V8.163l-3.278,1.2V7.891l4.658-1.749h.255Zm12.788-5.458a7.436,7.436,0,0,1-.976,4.245,4.054,4.054,0,0,1-6.082.031,7.058,7.058,0,0,1-1.02-4.056V11.591a7.271,7.271,0,0,1,.976-4.192,4.127,4.127,0,0,1,6.1-.048,7.017,7.017,0,0,1,1,4.083Zm-1.626-2.224a5.958,5.958,0,0,0-.58-3.01,2,2,0,0,0-1.837-.945,1.97,1.97,0,0,0-1.819.94,5.817,5.817,0,0,0-.589,2.892v2.6a6.053,6.053,0,0,0,.6,3.063,1.993,1.993,0,0,0,1.824.989,1.966,1.966,0,0,0,1.789-.932,5.834,5.834,0,0,0,.611-2.936ZM38.443,43.542a7.436,7.436,0,0,1-.976,4.245,3.47,3.47,0,0,1-3.05,1.389,3.5,3.5,0,0,1-3.032-1.358,7.058,7.058,0,0,1-1.02-4.056V41.591a7.271,7.271,0,0,1,.976-4.192A3.5,3.5,0,0,1,34.4,36.027a3.528,3.528,0,0,1,3.041,1.323,7.017,7.017,0,0,1,1,4.083Zm-1.626-2.224a5.958,5.958,0,0,0-.58-3.01,2,2,0,0,0-1.837-.945,1.97,1.97,0,0,0-1.819.94,5.817,5.817,0,0,0-.589,2.892v2.6a6.053,6.053,0,0,0,.6,3.063,1.993,1.993,0,0,0,1.824.989,1.966,1.966,0,0,0,1.789-.932,5.834,5.834,0,0,0,.611-2.936ZM45.87,49H44.235V38.163l-3.278,1.2V37.891l4.658-1.749h.255Zm10.107,0H54.343V38.163l-3.278,1.2V37.891l4.658-1.749h.255Zm12.788-5.458a7.436,7.436,0,0,1-.976,4.245,4.054,4.054,0,0,1-6.082.031,7.058,7.058,0,0,1-1.02-4.056V41.591a7.271,7.271,0,0,1,.976-4.192,4.127,4.127,0,0,1,6.1-.048,7.017,7.017,0,0,1,1,4.083ZM67.14,41.318a5.958,5.958,0,0,0-.58-3.01,2,2,0,0,0-1.837-.945,1.97,1.97,0,0,0-1.819.94,5.817,5.817,0,0,0-.589,2.892v2.6a6.053,6.053,0,0,0,.6,3.063,1.993,1.993,0,0,0,1.824.989,1.966,1.966,0,0,0,1.789-.932,5.834,5.834,0,0,0,.611-2.936ZM76.192,49H74.558V38.163l-3.278,1.2V37.891l4.658-1.749h.255ZM86.3,49H84.665V38.163l-3.278,1.2V37.891l4.658-1.749H86.3Zm12.788-5.458a7.436,7.436,0,0,1-.976,4.245,4.054,4.054,0,0,1-6.082.031,7.058,7.058,0,0,1-1.02-4.056V41.591a7.271,7.271,0,0,1,.976-4.192,4.127,4.127,0,0,1,6.1-.048,7.017,7.017,0,0,1,1,4.083Zm-1.626-2.224a5.958,5.958,0,0,0-.58-3.01,2,2,0,0,0-1.837-.945,1.97,1.97,0,0,0-1.819.94,5.817,5.817,0,0,0-.589,2.892v2.6a6.053,6.053,0,0,0,.6,3.063,1.993,1.993,0,0,0,1.824.989,1.966,1.966,0,0,0,1.789-.932,5.834,5.834,0,0,0,.611-2.936ZM109.2,43.542a7.436,7.436,0,0,1-.976,4.245,4.054,4.054,0,0,1-6.082.031,7.058,7.058,0,0,1-1.02-4.056V41.591a7.271,7.271,0,0,1,.976-4.192,4.127,4.127,0,0,1,6.1-.048,7.017,7.017,0,0,1,1,4.083Zm-1.626-2.224a5.958,5.958,0,0,0-.58-3.01,2,2,0,0,0-1.837-.945,1.97,1.97,0,0,0-1.819.94,5.817,5.817,0,0,0-.589,2.892v2.6a6.053,6.053,0,0,0,.6,3.063,1.993,1.993,0,0,0,1.824.989,1.966,1.966,0,0,0,1.789-.932,5.834,5.834,0,0,0,.611-2.936ZM119.3,43.542a7.436,7.436,0,0,1-.976,4.245,4.054,4.054,0,0,1-6.082.031,7.058,7.058,0,0,1-1.02-4.056V41.591A7.271,7.271,0,0,1,112.2,37.4a4.127,4.127,0,0,1,6.1-.048,7.017,7.017,0,0,1,1,4.083Zm-1.626-2.224a5.958,5.958,0,0,0-.58-3.01,2,2,0,0,0-1.837-.945,1.97,1.97,0,0,0-1.819.94,5.817,5.817,0,0,0-.589,2.892v2.6a6.053,6.053,0,0,0,.6,3.063,1.993,1.993,0,0,0,1.824.989,1.966,1.966,0,0,0,1.789-.932,5.834,5.834,0,0,0,.611-2.936ZM126.729,49h-1.635V38.163l-3.278,1.2V37.891l4.658-1.749h.255Zm10.107,0H135.2V38.163l-3.278,1.2V37.891l4.658-1.749h.255Zm12.788-5.458a7.436,7.436,0,0,1-.976,4.245,4.054,4.054,0,0,1-6.082.031,7.058,7.058,0,0,1-1.02-4.056V41.591a7.271,7.271,0,0,1,.976-4.192,4.127,4.127,0,0,1,6.1-.048,7.017,7.017,0,0,1,1,4.083ZM148,41.318a5.958,5.958,0,0,0-.58-3.01,2,2,0,0,0-1.837-.945,1.97,1.97,0,0,0-1.819.94,5.817,5.817,0,0,0-.589,2.892v2.6a6.053,6.053,0,0,0,.6,3.063,1.993,1.993,0,0,0,1.824.989,1.966,1.966,0,0,0,1.789-.932A5.834,5.834,0,0,0,148,43.981ZM40.816,79H39.182V68.163l-3.278,1.2V67.891l4.658-1.749h.255Zm10.107,0H49.289V68.163l-3.278,1.2V67.891l4.658-1.749h.255Zm10.107,0H59.4V68.163l-3.278,1.2V67.891l4.658-1.749h.255Zm10.107,0H69.5V68.163l-3.278,1.2V67.891l4.658-1.749h.255Zm10.107,0H79.611V68.163l-3.278,1.2V67.891l4.658-1.749h.255Zm12.788-5.458a7.436,7.436,0,0,1-.976,4.245,4.054,4.054,0,0,1-6.082.031,7.058,7.058,0,0,1-1.02-4.056V71.591a7.271,7.271,0,0,1,.976-4.192,4.127,4.127,0,0,1,6.1-.048,7.017,7.017,0,0,1,1,4.083Zm-1.626-2.224a5.958,5.958,0,0,0-.58-3.01,2,2,0,0,0-1.837-.945,1.97,1.97,0,0,0-1.819.94,5.817,5.817,0,0,0-.589,2.892v2.6a6.053,6.053,0,0,0,.6,3.063,1.993,1.993,0,0,0,1.824.989,1.966,1.966,0,0,0,1.789-.932,5.834,5.834,0,0,0,.611-2.936Zm11.733,2.224a7.436,7.436,0,0,1-.976,4.245,4.054,4.054,0,0,1-6.082.031,7.058,7.058,0,0,1-1.02-4.056V71.591A7.271,7.271,0,0,1,97.04,67.4a4.127,4.127,0,0,1,6.1-.048,7.017,7.017,0,0,1,1,4.083Zm-1.626-2.224a5.958,5.958,0,0,0-.58-3.01,2,2,0,0,0-1.837-.945,1.97,1.97,0,0,0-1.819.94A5.817,5.817,0,0,0,97.69,71.2v2.6a6.053,6.053,0,0,0,.6,3.063,1.993,1.993,0,0,0,1.824.989,1.966,1.966,0,0,0,1.789-.932,5.834,5.834,0,0,0,.611-2.936Zm11.733,2.224a7.436,7.436,0,0,1-.976,4.245,4.054,4.054,0,0,1-6.082.031,7.058,7.058,0,0,1-1.02-4.056V71.591a7.271,7.271,0,0,1,.976-4.192,4.127,4.127,0,0,1,6.1-.048,7.017,7.017,0,0,1,1,4.083Zm-1.626-2.224a5.958,5.958,0,0,0-.58-3.01,2,2,0,0,0-1.837-.945,1.97,1.97,0,0,0-1.819.94A5.817,5.817,0,0,0,107.8,71.2v2.6a6.053,6.053,0,0,0,.6,3.063,1.993,1.993,0,0,0,1.824.989,1.966,1.966,0,0,0,1.789-.932,5.834,5.834,0,0,0,.611-2.936ZM121.676,79h-1.635V68.163l-3.278,1.2V67.891l4.658-1.749h.255Zm10.107,0h-1.635V68.163l-3.278,1.2V67.891l4.658-1.749h.255Zm12.788-5.458a7.436,7.436,0,0,1-.976,4.245,4.054,4.054,0,0,1-6.082.031,7.058,7.058,0,0,1-1.02-4.056V71.591a7.271,7.271,0,0,1,.976-4.192,4.127,4.127,0,0,1,6.1-.048,7.017,7.017,0,0,1,1,4.083Zm-1.626-2.224a5.958,5.958,0,0,0-.58-3.01,2,2,0,0,0-1.837-.945,1.97,1.97,0,0,0-1.819.94,5.817,5.817,0,0,0-.589,2.892v2.6a6.053,6.053,0,0,0,.6,3.063,1.993,1.993,0,0,0,1.824.989,1.966,1.966,0,0,0,1.789-.932,5.834,5.834,0,0,0,.611-2.936Z" transform="translate(869 2555.999)" fill="#12263f"/>
    <path id="Trazado_229927" data-name="Trazado 229927" d="M14.233,21,16.694,6.781l4.18.01a5.446,5.446,0,0,1,3.223.972,5.225,5.225,0,0,1,1.953,2.651,7.262,7.262,0,0,1,.3,3.184l-.068.6a8.4,8.4,0,0,1-1.27,3.467A7.272,7.272,0,0,1,22.427,20.1a7.053,7.053,0,0,1-3.418.9ZM19.585,9.418l-1.553,8.936.977.01a3.33,3.33,0,0,0,2.759-1.328A7.439,7.439,0,0,0,23,12.973l.02-.322a3.88,3.88,0,0,0-.488-2.373,1.982,1.982,0,0,0-1.67-.85ZM32.681,21a2.865,2.865,0,0,1-.137-.957A3.259,3.259,0,0,1,29.956,21.2a3.184,3.184,0,0,1-2.285-.918,2.759,2.759,0,0,1-.85-2.178,3.1,3.1,0,0,1,1.436-2.642,6.768,6.768,0,0,1,3.789-.923l1.074.02.117-.6.039-.518a.839.839,0,0,0-.889-.918,1.235,1.235,0,0,0-1.3,1.162l-3.223.01a3.06,3.06,0,0,1,.693-1.851,4.109,4.109,0,0,1,1.753-1.211,6.125,6.125,0,0,1,2.358-.4,4.723,4.723,0,0,1,2.1.5,3.133,3.133,0,0,1,1.353,1.318,3.368,3.368,0,0,1,.342,1.948l-.791,4.971-.049.605a2.669,2.669,0,0,0,.186,1.23l-.01.186Zm-1.836-2.129A2.072,2.072,0,0,0,32.573,18l.322-1.7-.83-.01a2.188,2.188,0,0,0-1.328.454,1.722,1.722,0,0,0-.654,1.187.865.865,0,0,0,.151.659A.773.773,0,0,0,30.845,18.871ZM43.14,7.807l-.459,2.627H44.37l-.4,2.285H42.28l-.82,4.854a1.294,1.294,0,0,0,.063.752q.132.254.659.273a7.637,7.637,0,0,0,.84-.049l-.234,2.383a5.192,5.192,0,0,1-1.729.244,2.847,2.847,0,0,1-2.236-.879,3,3,0,0,1-.605-2.334l.859-5.244H37.769l.391-2.285h1.309l.459-2.627ZM49.829,21a2.865,2.865,0,0,1-.137-.957A3.259,3.259,0,0,1,47.1,21.2a3.184,3.184,0,0,1-2.285-.918,2.759,2.759,0,0,1-.85-2.178,3.1,3.1,0,0,1,1.436-2.642,6.768,6.768,0,0,1,3.789-.923l1.074.02.117-.6.039-.518a.839.839,0,0,0-.889-.918,1.235,1.235,0,0,0-1.3,1.162l-3.223.01a3.06,3.06,0,0,1,.693-1.851,4.109,4.109,0,0,1,1.753-1.211,6.125,6.125,0,0,1,2.358-.4,4.723,4.723,0,0,1,2.1.5,3.133,3.133,0,0,1,1.353,1.318,3.368,3.368,0,0,1,.342,1.948l-.791,4.971-.049.605a2.669,2.669,0,0,0,.186,1.23l-.01.186Zm-1.836-2.129A2.072,2.072,0,0,0,49.722,18l.322-1.7-.83-.01a2.188,2.188,0,0,0-1.328.454,1.722,1.722,0,0,0-.654,1.187.865.865,0,0,0,.151.659A.773.773,0,0,0,47.993,18.871Zm20.771-2.217,2.119-6.221h3.145L69.78,21H67.075l-.605-6.23L63.687,21H60.962l-.586-10.566h3.018l-.1,6.289L66,10.434h2.236ZM79.331,21a2.865,2.865,0,0,1-.137-.957A3.259,3.259,0,0,1,76.606,21.2a3.184,3.184,0,0,1-2.285-.918,2.759,2.759,0,0,1-.85-2.178,3.1,3.1,0,0,1,1.436-2.642,6.768,6.768,0,0,1,3.789-.923l1.074.02.117-.6.039-.518a.839.839,0,0,0-.889-.918,1.235,1.235,0,0,0-1.3,1.162l-3.223.01a3.061,3.061,0,0,1,.693-1.851,4.109,4.109,0,0,1,1.753-1.211,6.125,6.125,0,0,1,2.358-.4,4.723,4.723,0,0,1,2.1.5,3.133,3.133,0,0,1,1.353,1.318,3.368,3.368,0,0,1,.342,1.948l-.791,4.971-.049.605a2.669,2.669,0,0,0,.186,1.23l-.01.186ZM77.5,18.871A2.072,2.072,0,0,0,79.224,18l.322-1.7-.83-.01a2.188,2.188,0,0,0-1.328.454,1.722,1.722,0,0,0-.654,1.187.865.865,0,0,0,.151.659A.773.773,0,0,0,77.5,18.871Zm13.9-5.459a9.192,9.192,0,0,0-1-.1,2.481,2.481,0,0,0-2.207,1L87,21H83.784L85.62,10.434l3-.01-.244,1.387a2.933,2.933,0,0,1,2.441-1.6,4.6,4.6,0,0,1,1,.137ZM96.47,21.2a4.912,4.912,0,0,1-2.524-.669,4.215,4.215,0,0,1-1.675-1.836,4.933,4.933,0,0,1-.449-2.593l.029-.273A6.477,6.477,0,0,1,93.662,11.7a5.011,5.011,0,0,1,3.794-1.46,4.086,4.086,0,0,1,2.324.689,3.853,3.853,0,0,1,1.416,1.848,5.662,5.662,0,0,1,.293,2.646l-.186,1.34H95.015a2.06,2.06,0,0,0,.469,1.348,1.722,1.722,0,0,0,1.309.547,3.325,3.325,0,0,0,2.51-1.074l1.348,1.782a3.976,3.976,0,0,1-1.665,1.329,5.848,5.848,0,0,1-2.339.5Zm.781-8.418a1.653,1.653,0,0,0-1.187.427,3.588,3.588,0,0,0-.874,1.5H98.4l.059-.282a2.143,2.143,0,0,0,.02-.641A1.131,1.131,0,0,0,97.251,12.777Zm9.277-1.191a3.453,3.453,0,0,1,2.725-1.357,2.746,2.746,0,0,1,2.358,1.162,4.424,4.424,0,0,1,.552,3.047L111.069,21h-3.213l1.1-6.609a3.421,3.421,0,0,0,.02-.626.976.976,0,0,0-1.074-1,2.081,2.081,0,0,0-1.543.636L105.015,21H101.8l2.607-15h3.213Zm12.559-1.348a4.438,4.438,0,0,1,2.451.708,3.989,3.989,0,0,1,1.519,1.919A5.922,5.922,0,0,1,123.4,15.6l-.02.215a6.262,6.262,0,0,1-1.807,3.926,5.083,5.083,0,0,1-3.789,1.455,4.419,4.419,0,0,1-2.432-.7,4.014,4.014,0,0,1-1.519-1.9,5.755,5.755,0,0,1-.356-2.715,6.514,6.514,0,0,1,1.782-4.141A5.052,5.052,0,0,1,119.087,10.238Zm-2.393,5.649-.029.575q-.137,2.174,1.328,2.213,1.895.059,2.2-3.071l.039-.887a2.394,2.394,0,0,0-.327-1.4,1.192,1.192,0,0,0-1.021-.541,1.68,1.68,0,0,0-1.46.726A4.753,4.753,0,0,0,116.694,15.887Zm13.76,3.96a3.5,3.5,0,0,1-2.852,1.357,2.769,2.769,0,0,1-2.339-1.084,4,4,0,0,1-.61-2.852l1.143-6.836h3.213l-1.162,6.883a2.294,2.294,0,0,0,0,.518.851.851,0,0,0,.947.831,2.076,2.076,0,0,0,1.729-.8l1.309-7.431h3.232L133.228,21h-2.988Zm10.459-1.875q.127-.645-1-.967l-.693-.176a5.34,5.34,0,0,1-2.49-1.26,2.494,2.494,0,0,1-.742-1.924,3.065,3.065,0,0,1,1.353-2.476,5.148,5.148,0,0,1,3.179-.933,4.769,4.769,0,0,1,3.022.947,3.09,3.09,0,0,1,1.177,2.5l-3.2-.01q.039-1.25-1.1-1.25a1.574,1.574,0,0,0-.908.288,1.119,1.119,0,0,0-.5.767q-.166.791,1.4,1.084a8.116,8.116,0,0,1,2.1.747,3.135,3.135,0,0,1,1.133,1.05,2.611,2.611,0,0,1,.361,1.5,2.824,2.824,0,0,1-.625,1.709,4.047,4.047,0,0,1-1.724,1.2,6.174,6.174,0,0,1-2.446.42,4.965,4.965,0,0,1-2.124-.479,3.787,3.787,0,0,1-1.533-1.274,3.31,3.31,0,0,1-.571-1.851l2.988.02A1.234,1.234,0,0,0,139.37,19a1.846,1.846,0,0,0,1.016-.269A1.161,1.161,0,0,0,140.913,17.973Zm9.336,3.223a4.912,4.912,0,0,1-2.524-.669,4.215,4.215,0,0,1-1.675-1.836A4.933,4.933,0,0,1,145.6,16.1l.029-.273a6.477,6.477,0,0,1,1.812-4.126,5.011,5.011,0,0,1,3.794-1.46,4.086,4.086,0,0,1,2.324.689,3.853,3.853,0,0,1,1.416,1.848,5.661,5.661,0,0,1,.293,2.646l-.186,1.34h-6.289a2.06,2.06,0,0,0,.469,1.348,1.722,1.722,0,0,0,1.309.547,3.325,3.325,0,0,0,2.51-1.074l1.348,1.782a3.976,3.976,0,0,1-1.665,1.329,5.848,5.848,0,0,1-2.339.5Zm.781-8.418a1.653,1.653,0,0,0-1.187.427,3.588,3.588,0,0,0-.874,1.5h3.213l.059-.282a2.143,2.143,0,0,0,.02-.641A1.131,1.131,0,0,0,151.03,12.777Z" transform="translate(1125 2606.999)" fill="#12263f"/>
    <circle id="Elipse_4883" data-name="Elipse 4883" cx="10" cy="10" r="10" transform="translate(1200 2635.999)" fill="#feca2e"/>
    <path id="Trazado_190421" data-name="Trazado 190421" d="M6.767-8.118H10.05v2.783H6.767v3.765H3.733V-5.335H.439V-8.118H3.733v-3.659H6.767Z" transform="translate(1204.866 2652.563)" fill="#12263f"/>
    <path id="Trazado_229928" data-name="Trazado 229928" d="M14.279,21,16.74,6.781l4.18.01a5.446,5.446,0,0,1,3.223.972A5.225,5.225,0,0,1,26.1,10.414a7.262,7.262,0,0,1,.3,3.184l-.068.6a8.4,8.4,0,0,1-1.27,3.467A7.272,7.272,0,0,1,22.473,20.1a7.053,7.053,0,0,1-3.418.9ZM19.631,9.418l-1.553,8.936.977.01a3.33,3.33,0,0,0,2.759-1.328,7.439,7.439,0,0,0,1.235-4.062l.02-.322a3.88,3.88,0,0,0-.488-2.373,1.982,1.982,0,0,0-1.67-.85ZM32.727,21a2.865,2.865,0,0,1-.137-.957A3.259,3.259,0,0,1,30,21.2a3.184,3.184,0,0,1-2.285-.918,2.759,2.759,0,0,1-.85-2.178A3.1,3.1,0,0,1,28.3,15.458a6.768,6.768,0,0,1,3.789-.923l1.074.02.117-.6.039-.518a.839.839,0,0,0-.889-.918,1.235,1.235,0,0,0-1.3,1.162l-3.223.01a3.06,3.06,0,0,1,.693-1.851,4.109,4.109,0,0,1,1.753-1.211,6.125,6.125,0,0,1,2.358-.4,4.723,4.723,0,0,1,2.1.5,3.133,3.133,0,0,1,1.353,1.318,3.368,3.368,0,0,1,.342,1.948l-.791,4.971-.049.605a2.669,2.669,0,0,0,.186,1.23l-.01.186Zm-1.836-2.129A2.072,2.072,0,0,0,32.619,18l.322-1.7-.83-.01a2.188,2.188,0,0,0-1.328.454,1.722,1.722,0,0,0-.654,1.187.865.865,0,0,0,.151.659A.773.773,0,0,0,30.891,18.871ZM43.186,7.807l-.459,2.627h1.689l-.4,2.285H42.326l-.82,4.854a1.294,1.294,0,0,0,.063.752q.132.254.659.273a7.637,7.637,0,0,0,.84-.049l-.234,2.383a5.192,5.192,0,0,1-1.729.244,2.847,2.847,0,0,1-2.236-.879,3,3,0,0,1-.605-2.334l.859-5.244H37.814l.391-2.285h1.309l.459-2.627ZM49.875,21a2.865,2.865,0,0,1-.137-.957A3.259,3.259,0,0,1,47.15,21.2a3.184,3.184,0,0,1-2.285-.918,2.759,2.759,0,0,1-.85-2.178,3.1,3.1,0,0,1,1.436-2.642,6.768,6.768,0,0,1,3.789-.923l1.074.02.117-.6.039-.518a.839.839,0,0,0-.889-.918,1.235,1.235,0,0,0-1.3,1.162l-3.223.01a3.06,3.06,0,0,1,.693-1.851,4.109,4.109,0,0,1,1.753-1.211,6.125,6.125,0,0,1,2.358-.4,4.723,4.723,0,0,1,2.1.5,3.133,3.133,0,0,1,1.353,1.318,3.368,3.368,0,0,1,.342,1.948l-.791,4.971-.049.605a2.669,2.669,0,0,0,.186,1.23L53,21Zm-1.836-2.129A2.072,2.072,0,0,0,49.768,18l.322-1.7-.83-.01a2.188,2.188,0,0,0-1.328.454,1.722,1.722,0,0,0-.654,1.187.865.865,0,0,0,.151.659A.773.773,0,0,0,48.039,18.871Zm15.146-.508h5.791L68.518,21H59.387L61.848,6.781H65.2ZM75.813,21a2.865,2.865,0,0,1-.137-.957A3.259,3.259,0,0,1,73.088,21.2a3.184,3.184,0,0,1-2.285-.918,2.759,2.759,0,0,1-.85-2.178,3.1,3.1,0,0,1,1.436-2.642,6.768,6.768,0,0,1,3.789-.923l1.074.02.117-.6.039-.518a.839.839,0,0,0-.889-.918,1.235,1.235,0,0,0-1.3,1.162L71,13.7a3.061,3.061,0,0,1,.693-1.851,4.109,4.109,0,0,1,1.753-1.211,6.125,6.125,0,0,1,2.358-.4,4.723,4.723,0,0,1,2.1.5A3.133,3.133,0,0,1,79.26,12.06a3.368,3.368,0,0,1,.342,1.948l-.791,4.971-.049.605a2.669,2.669,0,0,0,.186,1.23l-.01.186Zm-1.836-2.129A2.072,2.072,0,0,0,75.705,18l.322-1.7-.83-.01a2.188,2.188,0,0,0-1.328.454,1.722,1.722,0,0,0-.654,1.187.865.865,0,0,0,.151.659A.773.773,0,0,0,73.977,18.871ZM85.148,17.1l-1.172,1.016L83.479,21H80.266L82.873,5.99h3.213L84.6,14l.391-.469,2.92-3.1h4.072l-4.492,4.492L90.217,21H86.691ZM96.2,21.2a4.912,4.912,0,0,1-2.524-.669A4.215,4.215,0,0,1,92,18.69a4.933,4.933,0,0,1-.449-2.593l.029-.273A6.477,6.477,0,0,1,93.4,11.7a5.011,5.011,0,0,1,3.794-1.46,4.086,4.086,0,0,1,2.324.689,3.853,3.853,0,0,1,1.416,1.848,5.662,5.662,0,0,1,.293,2.646l-.186,1.34H94.748a2.06,2.06,0,0,0,.469,1.348,1.722,1.722,0,0,0,1.309.547,3.325,3.325,0,0,0,2.51-1.074l1.348,1.782a3.976,3.976,0,0,1-1.665,1.329,5.848,5.848,0,0,1-2.339.5Zm.781-8.418A1.653,1.653,0,0,0,95.8,13.2a3.588,3.588,0,0,0-.874,1.5h3.213l.059-.282a2.143,2.143,0,0,0,.02-.641A1.131,1.131,0,0,0,96.984,12.777Z" transform="translate(332 2605.999)" fill="#12263f"/>
    <circle id="Elipse_4883-2" data-name="Elipse 4883" cx="10" cy="10" r="10" transform="translate(380 2635.999)" fill="#feca2e"/>
    <path id="Trazado_190421-2" data-name="Trazado 190421" d="M6.767-8.118H10.05v2.783H6.767v3.765H3.733V-5.335H.439V-8.118H3.733v-3.659H6.767Z" transform="translate(384.866 2652.563)" fill="#12263f"/>
  </g>
</svg>
