<svg xmlns="http://www.w3.org/2000/svg" xmlns:xlink="http://www.w3.org/1999/xlink" width="820" height="822.703" viewBox="0 0 820 822.703">
  <defs>
    <clipPath id="clip-path">
      <rect id="Rectángulo_304357" data-name="Rectángulo 304357" width="820" height="822.704" fill="none"/>
    </clipPath>
    <clipPath id="clip-path-3">
      <rect id="Rectángulo_304349" data-name="Rectángulo 304349" width="94.14" height="71.517" fill="none"/>
    </clipPath>
    <clipPath id="clip-path-4">
      <rect id="Rectángulo_304350" data-name="Rectángulo 304350" width="94.14" height="71.519" fill="none"/>
    </clipPath>
  </defs>
  <g id="Grupo_219988" data-name="Grupo 219988" transform="translate(-390 -8187)">
    <g id="Grupo_218279" data-name="Grupo 218279" transform="translate(390 8187)">
      <g id="Grupo_218278" data-name="Grupo 218278" clip-path="url(#clip-path)">
        <path id="Trazado_228693" data-name="Trazado 228693" d="M179.625,74.223h0Z" transform="translate(205.189 84.786)" fill="#fff"/>
        <line id="Línea_591" data-name="Línea 591" x2="45.205" transform="translate(384.813 159.009)" fill="none" stroke="#4dd0e1" stroke-miterlimit="10" stroke-width="1"/>
        <path id="Trazado_228694" data-name="Trazado 228694" d="M199.66,86.179l13.5-7.8-13.5-7.8Z" transform="translate(228.076 80.628)" fill="#4dd0e1"/>
        <path id="Trazado_228695" data-name="Trazado 228695" d="M179.625,87.967h0Z" transform="translate(205.189 100.486)" fill="#fff"/>
        <line id="Línea_592" data-name="Línea 592" x1="45.205" transform="translate(396.035 188.454)" fill="none" stroke="#4dd0e1" stroke-miterlimit="10" stroke-width="1"/>
        <path id="Trazado_228696" data-name="Trazado 228696" d="M193.128,84.327l-13.5,7.8,13.5,7.8Z" transform="translate(205.189 96.329)" fill="#4dd0e1"/>
        <path id="Trazado_228697" data-name="Trazado 228697" d="M284.037,221.356v0Z" transform="translate(324.461 188.401)" fill="#fff"/>
        <line id="Línea_593" data-name="Línea 593" y1="45.205" transform="translate(608.499 374.691)" fill="none" stroke="#4dd0e1" stroke-miterlimit="10" stroke-width="1"/>
        <path id="Trazado_228698" data-name="Trazado 228698" d="M295.994,178.433l-7.8-13.5-7.8,13.5Z" transform="translate(320.303 198.541)" fill="#4dd0e1" stroke="#4dd0e1" stroke-width="1"/>
        <path id="Trazado_228699" data-name="Trazado 228699" d="M311.129,221.356v0Z" transform="translate(355.408 188.401)" fill="#fff"/>
        <line id="Línea_594" data-name="Línea 594" y2="45.205" transform="translate(666.537 363.47)" fill="none" stroke="#4dd0e1" stroke-miterlimit="10" stroke-width="1"/>
        <path id="Trazado_228700" data-name="Trazado 228700" d="M307.489,184.965l7.8,13.5,7.8-13.5Z" transform="translate(351.25 221.428)" fill="#4dd0e1"/>
        <g id="Grupo_218277" data-name="Grupo 218277">
          <g id="Grupo_218276" data-name="Grupo 218276" clip-path="url(#clip-path)">
            <path id="Trazado_228701" data-name="Trazado 228701" d="M279.867,78.135h23.782c19.026,0,19.026,0,19.026,20.611v75.221" transform="translate(319.697 89.255)" fill="none" stroke="#4dd0e1" stroke-miterlimit="10" stroke-width="1"/>
            <path id="Trazado_228702" data-name="Trazado 228702" d="M296.109,121.773l8.01,13.874,8.012-13.874Z" transform="translate(338.251 139.104)" fill="#4dd0e1"/>
            <path id="Trazado_228703" data-name="Trazado 228703" d="M385.679,228.239v21.3c0,159.988,0,159.281-145.187,159.281h-15.78" transform="translate(256.693 260.721)" fill="none" stroke="#4dd0e1" stroke-miterlimit="10" stroke-width="1"/>
            <path id="Trazado_228704" data-name="Trazado 228704" d="M245.767,439.236H227.073c-149.249,0-149.249,0-149.249-226.537V201.612" transform="translate(88.9 230.305)" fill="none" stroke="#4dd0e1" stroke-miterlimit="10" stroke-width="1"/>
            <path id="Trazado_228705" data-name="Trazado 228705" d="M90.106,210.1,82.1,196.23,74.084,210.1Z" transform="translate(84.627 224.157)" fill="#4dd0e1"/>
            <path id="Trazado_228706" data-name="Trazado 228706" d="M191.219,515.543c83.118-16.1,243.993-263.422-5.6-415.233" transform="translate(212.031 114.586)" fill="none" stroke="#4dd0e1" stroke-miterlimit="10" stroke-width="1"/>
            <path id="Trazado_228707" data-name="Trazado 228707" d="M196.994,98.027l-16.014-.454,7.612,14.1Z" transform="translate(206.737 111.459)" fill="#4dd0e1"/>
            <path id="Trazado_228708" data-name="Trazado 228708" d="M390.026,17.563C183.622,17.563,16.3,184.887,16.3,391.288S183.622,765.013,390.026,765.013,763.751,597.692,763.751,391.288,596.43,17.563,390.026,17.563m0,736.739C189.54,754.3,27.013,591.775,27.013,391.288S189.54,28.275,390.026,28.275,753.04,190.8,753.04,391.288,590.513,754.3,390.026,754.3" transform="translate(18.621 20.063)" fill="#0f2771"/>
            <path id="Trazado_228709" data-name="Trazado 228709" d="M44.054,170.817,0,244.112H88.109Z" transform="translate(0 195.127)" fill="#0f2771"/>
            <path id="Trazado_228710" data-name="Trazado 228710" d="M385.69,240.9l44.055-73.3H341.635Z" transform="translate(390.256 191.454)" fill="#0f2771"/>
            <path id="Trazado_228711" data-name="Trazado 228711" d="M172.74,386.952l73.3,44.055V342.9Z" transform="translate(197.324 391.698)" fill="#0f2771"/>
            <path id="Trazado_228712" data-name="Trazado 228712" d="M246.036,44.054,172.74,0V88.109Z" transform="translate(197.324 -0.001)" fill="#0f2771"/>
            <path id="Trazado_228713" data-name="Trazado 228713" d="M340.052,399.917h0V161.449l-94.8-24.812-17.462-10.082c-4.008-2.314-11.007-2.025-15.637.647l-16.29,9.407-50.565-.028,14.973,230.207c-.114,1.566.758,3.076,2.684,4.188l94.607,71.386c4.008,2.314,11.007,2.022,15.635-.649l63.051-36.4c2.669-1.542,3.957-3.539,3.807-5.4" transform="translate(165.974 142.781)" fill="#396caa"/>
            <path id="Trazado_228714" data-name="Trazado 228714" d="M220.538,125a18.023,18.023,0,0,0-8.381,2.2L195.865,136.6l-50.565-.028V375.684c-.114,1.566.761,3.076,2.686,4.188l109.58,62.483a14.148,14.148,0,0,0,7.256,1.551l1.129-240.6Z" transform="translate(165.968 142.789)" fill="#d4ecff"/>
            <path id="Trazado_228715" data-name="Trazado 228715" d="M198.168,402.612c3.456,1.48,8.456,1.4,12.5-.144V160.222h-12.5Z" transform="translate(226.371 183.024)" fill="#5793ce"/>
            <path id="Trazado_228716" data-name="Trazado 228716" d="M257.571,220.282,147.992,157.8c-4.008-2.314-3.5-6.356,1.123-9.028l63.048-36.4c4.627-2.674,11.629-2.963,15.637-.649L337.379,174.2c4.006,2.314,3.5,6.356-1.123,9.028l-63.051,36.4c-4.627,2.674-11.626,2.963-15.635.649" transform="translate(165.963 125.837)" fill="#d4ecff"/>
            <path id="Trazado_228717" data-name="Trazado 228717" d="M336.255,156.706l-63.048,36.4c-4.627,2.671-11.628,2.961-15.637.647L147.99,131.273a6.044,6.044,0,0,1-2-1.774c-1.378,2.215-.752,4.619,2,6.208L257.57,198.19c4.008,2.314,11.009,2.022,15.637-.649l63.048-36.4c3.595-2.076,4.687-4.977,3.121-7.254a8.732,8.732,0,0,1-3.121,2.819" transform="translate(165.962 147.929)" fill="#fafdff"/>
            <path id="Trazado_228718" data-name="Trazado 228718" d="M238.722,184.178l-72.957-42.289c-1.875-1.084-1.639-2.976.527-4.225l29.5-17.034a8.131,8.131,0,0,1,7.316-.3l72.954,42.289c1.877,1.084,1.641,2.976-.525,4.225l-29.5,17.034a8.131,8.131,0,0,1-7.316.3" transform="translate(187.912 136.617)" fill="#173d7a"/>
            <path id="Trazado_228719" data-name="Trazado 228719" d="M183.108,133.834l-4.227-2.44c-.259-.15-.227-.411.073-.585l4.081-2.357a1.125,1.125,0,0,1,1.013-.043l4.227,2.442c.259.148.227.411-.073.583l-4.081,2.357a1.125,1.125,0,0,1-1.013.043" transform="translate(204.139 146.569)" fill="#d4ecff"/>
            <path id="Trazado_228720" data-name="Trazado 228720" d="M189.7,137.625l-4.227-2.44c-.259-.15-.227-.411.073-.585l4.081-2.357a1.121,1.121,0,0,1,1.011-.043l4.229,2.44c.259.15.227.413-.073.585l-4.083,2.357a1.121,1.121,0,0,1-1.011.043" transform="translate(211.67 150.9)" fill="#d4ecff"/>
            <path id="Trazado_228721" data-name="Trazado 228721" d="M196.293,141.416l-4.227-2.44c-.259-.15-.227-.411.073-.585l4.081-2.357a1.121,1.121,0,0,1,1.011-.043l4.229,2.44c.259.15.227.414-.073.585l-4.083,2.357a1.121,1.121,0,0,1-1.011.043" transform="translate(219.201 155.231)" fill="#d4ecff"/>
            <path id="Trazado_228722" data-name="Trazado 228722" d="M202.885,145.207l-4.227-2.44c-.259-.15-.227-.411.073-.585l4.081-2.357a1.125,1.125,0,0,1,1.013-.043l4.227,2.442c.259.148.227.411-.073.583l-4.081,2.357a1.125,1.125,0,0,1-1.013.043" transform="translate(226.731 159.561)" fill="#d4ecff"/>
            <path id="Trazado_228723" data-name="Trazado 228723" d="M165.766,141.889l.086.049c.144-.1.274-.206.439-.3l29.5-17.034a8.131,8.131,0,0,1,7.316-.3l72.871,42.24c1.727-1.238,1.819-2.922.086-3.923l-72.957-42.291a8.131,8.131,0,0,0-7.316.3l-29.5,17.034c-2.166,1.251-2.4,3.143-.525,4.225" transform="translate(187.911 136.617)" fill="#5793ce"/>
            <path id="Trazado_228724" data-name="Trazado 228724" d="M213,210.47l41.48-23.75c2.335-1.348,4.227-4.964,4.227-8.074V163.811c0-3.111-1.892-4.542-4.227-3.194L213,184.366c-2.335,1.348-4.227,4.964-4.227,8.074v14.833c0,3.113,1.892,4.544,4.227,3.2" transform="translate(238.482 182.896)" fill="#173d7a"/>
            <path id="Trazado_228725" data-name="Trazado 228725" d="M255.964,160.137a4.145,4.145,0,0,1,1.06,3.087v14.833c0,3.111-1.892,6.727-4.227,8.074l-41.48,23.75a3.05,3.05,0,0,1-2.052.448,2.52,2.52,0,0,0,3.164.109l41.482-23.75c2.333-1.348,4.227-4.964,4.227-8.077V163.779c0-2.112-.883-3.423-2.174-3.642" transform="translate(239.048 182.927)" fill="#fff"/>
            <path id="Trazado_228726" data-name="Trazado 228726" d="M217.058,180.8l3.8-2.2a2.2,2.2,0,0,0,.921-1.759v-4.064c0-.679-.411-.99-.921-.7l-3.8,2.2a2.209,2.209,0,0,0-.921,1.761v4.064c0,.679.414.99.921.7" transform="translate(246.897 196.449)" fill="#396caa"/>
            <path id="Trazado_228727" data-name="Trazado 228727" d="M223,177.373l3.8-2.2a2.207,2.207,0,0,0,.921-1.761v-4.064c0-.679-.411-.99-.921-.7l-3.8,2.2a2.209,2.209,0,0,0-.921,1.761v4.064c0,.679.413.99.921.7" transform="translate(253.681 192.532)" fill="#fff"/>
            <path id="Trazado_228728" data-name="Trazado 228728" d="M213,260.505l41.48-23.75c2.335-1.348,4.227-4.964,4.227-8.074V213.846c0-3.111-1.892-4.542-4.227-3.194L213,234.4c-2.335,1.348-4.227,4.964-4.227,8.074v14.836c0,3.111,1.892,4.542,4.227,3.194" transform="translate(238.482 240.052)" fill="#173d7a"/>
            <path id="Trazado_228729" data-name="Trazado 228729" d="M255.964,210.172a4.145,4.145,0,0,1,1.06,3.087v14.833c0,3.111-1.892,6.727-4.227,8.074l-41.48,23.75a3.05,3.05,0,0,1-2.052.448,2.52,2.52,0,0,0,3.164.109l41.482-23.75c2.333-1.348,4.227-4.964,4.227-8.077V213.814c0-2.112-.883-3.423-2.174-3.642" transform="translate(239.048 240.083)" fill="#fff"/>
            <path id="Trazado_228730" data-name="Trazado 228730" d="M217.058,230.837l3.8-2.2a2.207,2.207,0,0,0,.921-1.761v-4.064c0-.679-.411-.99-.921-.7l-3.8,2.2a2.209,2.209,0,0,0-.921,1.761v4.064c0,.679.414.99.921.7" transform="translate(246.897 253.605)" fill="#396caa"/>
            <path id="Trazado_228731" data-name="Trazado 228731" d="M223,227.408l3.8-2.2a2.2,2.2,0,0,0,.921-1.759v-4.064c0-.679-.411-.99-.921-.7l-3.8,2.2a2.209,2.209,0,0,0-.921,1.761v4.064c0,.679.413.99.921.7" transform="translate(253.681 249.688)" fill="#fff"/>
            <path id="Trazado_228732" data-name="Trazado 228732" d="M213,285.522l41.48-23.75c2.335-1.347,4.227-4.964,4.227-8.074V238.863c0-3.111-1.892-4.542-4.227-3.194L213,259.418c-2.335,1.348-4.227,4.964-4.227,8.074v14.836c0,3.111,1.892,4.542,4.227,3.194" transform="translate(238.482 268.629)" fill="#173d7a"/>
            <path id="Trazado_228733" data-name="Trazado 228733" d="M255.964,235.189a4.15,4.15,0,0,1,1.06,3.089v14.833c0,3.111-1.892,6.727-4.227,8.074l-41.48,23.75a3.035,3.035,0,0,1-2.052.446,2.52,2.52,0,0,0,3.164.111l41.482-23.75c2.333-1.348,4.227-4.964,4.227-8.077V238.833c0-2.112-.883-3.423-2.174-3.644" transform="translate(239.048 268.661)" fill="#fff"/>
            <path id="Trazado_228734" data-name="Trazado 228734" d="M217.058,255.855l3.8-2.2a2.2,2.2,0,0,0,.921-1.759v-4.064c0-.679-.411-.99-.921-.7l-3.8,2.2a2.209,2.209,0,0,0-.921,1.761v4.064c0,.679.414.99.921.7" transform="translate(246.897 282.184)" fill="#396caa"/>
            <path id="Trazado_228735" data-name="Trazado 228735" d="M223,252.426l3.8-2.2a2.206,2.206,0,0,0,.921-1.761v-4.064c0-.679-.411-.99-.921-.7l-3.8,2.2a2.209,2.209,0,0,0-.921,1.761v4.064c0,.679.413.99.921.7" transform="translate(253.681 278.267)" fill="#fff"/>
            <path id="Trazado_228736" data-name="Trazado 228736" d="M213,235.487l41.48-23.75c2.335-1.348,4.227-4.964,4.227-8.074V188.828c0-3.111-1.892-4.542-4.227-3.194L213,209.383c-2.335,1.348-4.227,4.964-4.227,8.074v14.833c0,3.113,1.892,4.544,4.227,3.2" transform="translate(238.482 211.473)" fill="#173d7a"/>
            <path id="Trazado_228737" data-name="Trazado 228737" d="M255.964,185.154a4.145,4.145,0,0,1,1.06,3.087v14.833c0,3.111-1.892,6.727-4.227,8.074l-41.48,23.75a3.05,3.05,0,0,1-2.052.448,2.52,2.52,0,0,0,3.164.109l41.482-23.75c2.333-1.348,4.227-4.964,4.227-8.077V188.8c0-2.112-.883-3.423-2.174-3.642" transform="translate(239.048 211.505)" fill="#fff"/>
            <path id="Trazado_228738" data-name="Trazado 228738" d="M217.058,205.819l3.8-2.2a2.206,2.206,0,0,0,.921-1.761V197.8c0-.679-.411-.99-.921-.7l-3.8,2.2a2.209,2.209,0,0,0-.921,1.761v4.064c0,.679.414.99.921.7" transform="translate(246.897 225.027)" fill="#396caa"/>
            <path id="Trazado_228739" data-name="Trazado 228739" d="M223,202.39l3.8-2.2a2.205,2.205,0,0,0,.921-1.759v-4.066c0-.679-.411-.99-.921-.694l-3.8,2.194a2.213,2.213,0,0,0-.921,1.763v4.062c0,.679.413.99.921.7" transform="translate(253.681 221.11)" fill="#fff"/>
            <path id="Trazado_228740" data-name="Trazado 228740" d="M247.069,221.482l-95.7-55.253c-2.142-1.236-3.878-4.555-3.878-7.41V140.571c0-2.856,1.735-4.167,3.878-2.931l95.7,55.25c2.142,1.238,3.878,4.557,3.878,7.41v18.25c0,2.854-1.735,4.167-3.878,2.931" transform="translate(168.483 156.697)" fill="#5793ce"/>
            <g id="Grupo_218257" data-name="Grupo 218257" transform="translate(320.632 300.501)" opacity="0.4">
              <g id="Grupo_218256" data-name="Grupo 218256">
                <g id="Grupo_218255" data-name="Grupo 218255" clip-path="url(#clip-path-3)">
                  <path id="Trazado_228741" data-name="Trazado 228741" d="M241.838,211.551l-90.2-52.08a4.712,4.712,0,0,1-1.967-3.76V141.992c0-1.448.88-2.114,1.967-1.487l90.2,52.08a4.715,4.715,0,0,1,1.967,3.76v13.719c0,1.448-.88,2.114-1.967,1.487" transform="translate(-149.665 -140.269)" fill="#d4ecff"/>
                </g>
              </g>
            </g>
            <path id="Trazado_228742" data-name="Trazado 228742" d="M167.556,158.044l-13.462-7.772a4.577,4.577,0,0,1-1.911-3.651c0-1.408.857-2.054,1.911-1.444l13.462,7.772a4.571,4.571,0,0,1,1.911,3.65c0,1.405-.855,2.052-1.911,1.444" transform="translate(173.841 165.576)" fill="#d4ecff"/>
            <path id="Trazado_228743" data-name="Trazado 228743" d="M167.067,155.161c0,1.407-.988,1.977-2.207,1.275a4.878,4.878,0,0,1-2.207-3.822c0-1.407.988-1.977,2.207-1.275a4.878,4.878,0,0,1,2.207,3.822" transform="translate(185.803 172.534)" fill="#173d7a"/>
            <path id="Trazado_228744" data-name="Trazado 228744" d="M170.7,157.259c0,1.407-.988,1.977-2.207,1.275a4.881,4.881,0,0,1-2.207-3.822c0-1.408.988-1.977,2.207-1.275a4.878,4.878,0,0,1,2.207,3.822" transform="translate(189.954 174.931)" fill="#173d7a"/>
            <path id="Trazado_228745" data-name="Trazado 228745" d="M174.334,159.357c0,1.407-.988,1.977-2.207,1.275a4.881,4.881,0,0,1-2.207-3.822c0-1.407.988-1.977,2.207-1.275a4.878,4.878,0,0,1,2.207,3.822" transform="translate(194.104 177.327)" fill="#d4ecff"/>
            <path id="Trazado_228746" data-name="Trazado 228746" d="M177.967,161.454c0,1.407-.988,1.977-2.207,1.275a4.878,4.878,0,0,1-2.207-3.822c0-1.407.988-1.977,2.207-1.275a4.878,4.878,0,0,1,2.207,3.822" transform="translate(198.254 179.723)" fill="#173d7a"/>
            <path id="Trazado_228747" data-name="Trazado 228747" d="M193.992,175.752l-4.535-2.618a2.935,2.935,0,0,1-1.225-2.344v-4.8c0-.9.548-1.318,1.225-.928l4.535,2.618a2.938,2.938,0,0,1,1.225,2.344v4.8c0,.9-.548,1.318-1.225.928" transform="translate(215.02 188.391)" fill="#173d7a"/>
            <path id="Trazado_228748" data-name="Trazado 228748" d="M247.069,236.5l-95.7-55.253c-2.142-1.236-3.878-4.555-3.878-7.41V155.592c0-2.856,1.735-4.167,3.878-2.931l95.7,55.25c2.142,1.238,3.878,4.555,3.878,7.41V233.57c0,2.856-1.735,4.169-3.878,2.933" transform="translate(168.483 173.856)" fill="#5793ce"/>
            <g id="Grupo_218260" data-name="Grupo 218260" transform="translate(320.632 332.678)" opacity="0.4">
              <g id="Grupo_218259" data-name="Grupo 218259">
                <g id="Grupo_218258" data-name="Grupo 218258" clip-path="url(#clip-path-4)">
                  <path id="Trazado_228749" data-name="Trazado 228749" d="M241.838,226.571l-90.2-52.08a4.715,4.715,0,0,1-1.967-3.76V157.012c0-1.448.88-2.114,1.967-1.487l90.2,52.08a4.715,4.715,0,0,1,1.967,3.76v13.719c0,1.448-.88,2.114-1.967,1.487" transform="translate(-149.665 -155.289)" fill="#d4ecff"/>
                </g>
              </g>
            </g>
            <path id="Trazado_228750" data-name="Trazado 228750" d="M167.556,173.064l-13.462-7.772a4.577,4.577,0,0,1-1.911-3.65c0-1.408.857-2.055,1.911-1.444l13.462,7.772a4.571,4.571,0,0,1,1.911,3.651c0,1.408-.855,2.052-1.911,1.444" transform="translate(173.841 182.734)" fill="#d4ecff"/>
            <path id="Trazado_228751" data-name="Trazado 228751" d="M167.067,170.182c0,1.408-.988,1.977-2.207,1.275a4.878,4.878,0,0,1-2.207-3.822c0-1.408.988-1.977,2.207-1.275a4.878,4.878,0,0,1,2.207,3.822" transform="translate(185.803 189.693)" fill="#fff"/>
            <path id="Trazado_228752" data-name="Trazado 228752" d="M170.7,172.279c0,1.41-.988,1.98-2.207,1.275a4.874,4.874,0,0,1-2.207-3.82c0-1.408.988-1.98,2.207-1.275a4.874,4.874,0,0,1,2.207,3.82" transform="translate(189.954 192.089)" fill="#173d7a"/>
            <path id="Trazado_228753" data-name="Trazado 228753" d="M174.334,174.377c0,1.408-.988,1.977-2.207,1.273a4.874,4.874,0,0,1-2.207-3.82c0-1.408.988-1.977,2.207-1.275a4.878,4.878,0,0,1,2.207,3.822" transform="translate(194.104 194.485)" fill="#d4ecff"/>
            <path id="Trazado_228754" data-name="Trazado 228754" d="M177.967,176.475c0,1.407-.988,1.977-2.207,1.275a4.878,4.878,0,0,1-2.207-3.822c0-1.408.988-1.977,2.207-1.275a4.878,4.878,0,0,1,2.207,3.822" transform="translate(198.254 196.881)" fill="#173d7a"/>
            <path id="Trazado_228755" data-name="Trazado 228755" d="M193.992,190.772l-4.535-2.618a2.938,2.938,0,0,1-1.225-2.344v-4.8c0-.9.548-1.317,1.225-.928l4.535,2.618a2.938,2.938,0,0,1,1.225,2.344v4.8c0,.9-.548,1.318-1.225.928" transform="translate(215.02 205.548)" fill="#173d7a"/>
            <path id="Trazado_228756" data-name="Trazado 228756" d="M247.069,251.524l-95.7-55.253c-2.142-1.236-3.878-4.555-3.878-7.41V170.613c0-2.856,1.735-4.167,3.878-2.931l95.7,55.25c2.142,1.238,3.878,4.555,3.878,7.41v18.248c0,2.858-1.735,4.169-3.878,2.933" transform="translate(168.483 191.015)" fill="#5793ce"/>
            <g id="Grupo_218263" data-name="Grupo 218263" transform="translate(320.632 364.858)" opacity="0.4">
              <g id="Grupo_218262" data-name="Grupo 218262">
                <g id="Grupo_218261" data-name="Grupo 218261" clip-path="url(#clip-path-3)">
                  <path id="Trazado_228757" data-name="Trazado 228757" d="M241.838,241.592l-90.2-52.08a4.715,4.715,0,0,1-1.967-3.76V172.033c0-1.448.88-2.115,1.967-1.487l90.2,52.08a4.715,4.715,0,0,1,1.967,3.76V240.1c0,1.448-.88,2.115-1.967,1.487" transform="translate(-149.665 -170.31)" fill="#d4ecff"/>
                </g>
              </g>
            </g>
            <path id="Trazado_228758" data-name="Trazado 228758" d="M167.556,188.085l-13.462-7.772a4.577,4.577,0,0,1-1.911-3.65c0-1.408.857-2.055,1.911-1.444l13.462,7.772a4.571,4.571,0,0,1,1.911,3.651c0,1.408-.855,2.052-1.911,1.444" transform="translate(173.841 199.893)" fill="#d4ecff"/>
            <path id="Trazado_228759" data-name="Trazado 228759" d="M167.067,185.2c0,1.408-.988,1.977-2.207,1.275a4.881,4.881,0,0,1-2.207-3.822c0-1.408.988-1.977,2.207-1.275a4.878,4.878,0,0,1,2.207,3.822" transform="translate(185.803 206.85)" fill="#fff"/>
            <path id="Trazado_228760" data-name="Trazado 228760" d="M170.7,187.3c0,1.407-.988,1.977-2.207,1.275a4.881,4.881,0,0,1-2.207-3.822c0-1.408.988-1.977,2.207-1.275A4.878,4.878,0,0,1,170.7,187.3" transform="translate(189.954 209.247)" fill="#173d7a"/>
            <path id="Trazado_228761" data-name="Trazado 228761" d="M174.334,189.4c0,1.408-.988,1.977-2.207,1.275a4.878,4.878,0,0,1-2.207-3.822c0-1.408.988-1.977,2.207-1.275a4.878,4.878,0,0,1,2.207,3.822" transform="translate(194.104 211.644)" fill="#d4ecff"/>
            <path id="Trazado_228762" data-name="Trazado 228762" d="M177.967,191.5c0,1.407-.988,1.977-2.207,1.275a4.878,4.878,0,0,1-2.207-3.822c0-1.408.988-1.977,2.207-1.275a4.878,4.878,0,0,1,2.207,3.822" transform="translate(198.254 214.04)" fill="#173d7a"/>
            <path id="Trazado_228763" data-name="Trazado 228763" d="M193.992,205.793l-4.535-2.618a2.938,2.938,0,0,1-1.225-2.344v-4.8c0-.9.548-1.318,1.225-.928l4.535,2.618a2.938,2.938,0,0,1,1.225,2.344v4.8c0,.9-.548,1.318-1.225.928" transform="translate(215.02 222.707)" fill="#173d7a"/>
            <path id="Trazado_228764" data-name="Trazado 228764" d="M247.069,266.544l-95.7-55.253c-2.142-1.236-3.878-4.555-3.878-7.41V185.633c0-2.856,1.735-4.167,3.878-2.931l95.7,55.25c2.142,1.238,3.878,4.555,3.878,7.41v18.248c0,2.858-1.735,4.169-3.878,2.933" transform="translate(168.483 208.172)" fill="#5793ce"/>
            <g id="Grupo_218266" data-name="Grupo 218266" transform="translate(320.632 397.036)" opacity="0.4">
              <g id="Grupo_218265" data-name="Grupo 218265">
                <g id="Grupo_218264" data-name="Grupo 218264" clip-path="url(#clip-path-4)">
                  <path id="Trazado_228765" data-name="Trazado 228765" d="M241.838,256.613l-90.2-52.08a4.715,4.715,0,0,1-1.967-3.76V187.054c0-1.448.88-2.115,1.967-1.487l90.2,52.08a4.715,4.715,0,0,1,1.967,3.76v13.719c0,1.448-.88,2.115-1.967,1.487" transform="translate(-149.665 -185.329)" fill="#d4ecff"/>
                </g>
              </g>
            </g>
            <path id="Trazado_228766" data-name="Trazado 228766" d="M167.556,203.106l-13.462-7.772a4.577,4.577,0,0,1-1.911-3.651c0-1.408.857-2.054,1.911-1.444l13.462,7.772a4.571,4.571,0,0,1,1.911,3.65c0,1.408-.855,2.052-1.911,1.444" transform="translate(173.841 217.051)" fill="#d4ecff"/>
            <path id="Trazado_228767" data-name="Trazado 228767" d="M167.067,200.223c0,1.408-.988,1.977-2.207,1.275a4.881,4.881,0,0,1-2.207-3.822c0-1.408.988-1.977,2.207-1.275a4.878,4.878,0,0,1,2.207,3.822" transform="translate(185.803 224.009)" fill="#173d7a"/>
            <path id="Trazado_228768" data-name="Trazado 228768" d="M170.7,202.321c0,1.407-.988,1.977-2.207,1.275a4.878,4.878,0,0,1-2.207-3.822c0-1.408.988-1.977,2.207-1.275a4.878,4.878,0,0,1,2.207,3.822" transform="translate(189.954 226.406)" fill="#173d7a"/>
            <path id="Trazado_228769" data-name="Trazado 228769" d="M174.334,204.418c0,1.407-.988,1.977-2.207,1.275a4.878,4.878,0,0,1-2.207-3.822c0-1.408.988-1.977,2.207-1.275a4.878,4.878,0,0,1,2.207,3.822" transform="translate(194.104 228.801)" fill="#d4ecff"/>
            <path id="Trazado_228770" data-name="Trazado 228770" d="M177.967,206.516c0,1.408-.988,1.977-2.207,1.275a4.881,4.881,0,0,1-2.207-3.822c0-1.408.988-1.977,2.207-1.275a4.878,4.878,0,0,1,2.207,3.822" transform="translate(198.254 231.198)" fill="#173d7a"/>
            <path id="Trazado_228771" data-name="Trazado 228771" d="M193.992,220.813l-4.535-2.616a2.942,2.942,0,0,1-1.225-2.346v-4.8c0-.9.548-1.318,1.225-.928l4.535,2.618a2.938,2.938,0,0,1,1.225,2.344v4.8c0,.906-.548,1.322-1.225.928" transform="translate(215.02 239.865)" fill="#d4ecff"/>
            <path id="Trazado_228772" data-name="Trazado 228772" d="M247.069,281.565l-95.7-55.252c-2.142-1.236-3.878-4.555-3.878-7.41V200.654c0-2.856,1.735-4.167,3.878-2.931l95.7,55.25c2.142,1.238,3.878,4.555,3.878,7.41v18.248c0,2.858-1.735,4.169-3.878,2.933" transform="translate(168.483 225.331)" fill="#5793ce"/>
            <g id="Grupo_218269" data-name="Grupo 218269" transform="translate(320.632 429.216)" opacity="0.4">
              <g id="Grupo_218268" data-name="Grupo 218268">
                <g id="Grupo_218267" data-name="Grupo 218267" clip-path="url(#clip-path-3)">
                  <path id="Trazado_228773" data-name="Trazado 228773" d="M241.838,271.633l-90.2-52.08a4.715,4.715,0,0,1-1.967-3.76V202.074c0-1.448.88-2.114,1.967-1.487l90.2,52.08a4.715,4.715,0,0,1,1.967,3.76v13.719c0,1.448-.88,2.115-1.967,1.487" transform="translate(-149.665 -200.351)" fill="#d4ecff"/>
                </g>
              </g>
            </g>
            <path id="Trazado_228774" data-name="Trazado 228774" d="M167.556,218.126l-13.462-7.772a4.577,4.577,0,0,1-1.911-3.651c0-1.407.857-2.054,1.911-1.444l13.462,7.772a4.571,4.571,0,0,1,1.911,3.651c0,1.408-.855,2.052-1.911,1.444" transform="translate(173.841 234.209)" fill="#d4ecff"/>
            <path id="Trazado_228775" data-name="Trazado 228775" d="M167.067,215.243c0,1.408-.988,1.977-2.207,1.275a4.878,4.878,0,0,1-2.207-3.822c0-1.407.988-1.977,2.207-1.275a4.878,4.878,0,0,1,2.207,3.822" transform="translate(185.803 241.167)" fill="#173d7a"/>
            <path id="Trazado_228776" data-name="Trazado 228776" d="M170.7,217.341c0,1.408-.988,1.977-2.207,1.275a4.878,4.878,0,0,1-2.207-3.822c0-1.408.988-1.977,2.207-1.275a4.878,4.878,0,0,1,2.207,3.822" transform="translate(189.954 243.563)" fill="#fff"/>
            <path id="Trazado_228777" data-name="Trazado 228777" d="M174.334,219.439c0,1.408-.988,1.977-2.207,1.275a4.881,4.881,0,0,1-2.207-3.822c0-1.408.988-1.977,2.207-1.275a4.878,4.878,0,0,1,2.207,3.822" transform="translate(194.104 245.96)" fill="#d4ecff"/>
            <path id="Trazado_228778" data-name="Trazado 228778" d="M177.967,221.537c0,1.407-.988,1.977-2.207,1.275a4.881,4.881,0,0,1-2.207-3.822c0-1.408.988-1.977,2.207-1.275a4.878,4.878,0,0,1,2.207,3.822" transform="translate(198.254 248.357)" fill="#fff"/>
            <path id="Trazado_228779" data-name="Trazado 228779" d="M193.992,235.834l-4.535-2.618a2.938,2.938,0,0,1-1.225-2.344v-4.8c0-.9.548-1.318,1.225-.928l4.535,2.618a2.938,2.938,0,0,1,1.225,2.344v4.8c0,.9-.548,1.32-1.225.928" transform="translate(215.02 257.023)" fill="#d4ecff"/>
            <path id="Trazado_228780" data-name="Trazado 228780" d="M247.069,296.586l-95.7-55.255c-2.142-1.234-3.878-4.552-3.878-7.408V215.675c0-2.856,1.735-4.167,3.878-2.933l95.7,55.253c2.142,1.238,3.878,4.555,3.878,7.41v18.248c0,2.856-1.735,4.169-3.878,2.933" transform="translate(168.483 242.489)" fill="#5793ce"/>
            <g id="Grupo_218272" data-name="Grupo 218272" transform="translate(320.632 461.395)" opacity="0.4">
              <g id="Grupo_218271" data-name="Grupo 218271">
                <g id="Grupo_218270" data-name="Grupo 218270" clip-path="url(#clip-path-3)">
                  <path id="Trazado_228781" data-name="Trazado 228781" d="M241.838,286.654l-90.2-52.08a4.712,4.712,0,0,1-1.967-3.76V217.1c0-1.45.88-2.117,1.967-1.489l90.2,52.08a4.715,4.715,0,0,1,1.967,3.76v13.719c0,1.448-.88,2.115-1.967,1.487" transform="translate(-149.665 -215.372)" fill="#d4ecff"/>
                </g>
              </g>
            </g>
            <path id="Trazado_228782" data-name="Trazado 228782" d="M167.556,233.147l-13.462-7.772a4.577,4.577,0,0,1-1.911-3.65c0-1.408.857-2.054,1.911-1.444l13.462,7.772a4.571,4.571,0,0,1,1.911,3.651c0,1.405-.855,2.052-1.911,1.444" transform="translate(173.841 251.368)" fill="#d4ecff"/>
            <path id="Trazado_228783" data-name="Trazado 228783" d="M167.067,230.264c0,1.408-.988,1.977-2.207,1.275a4.878,4.878,0,0,1-2.207-3.822c0-1.408.988-1.977,2.207-1.275a4.878,4.878,0,0,1,2.207,3.822" transform="translate(185.803 258.326)" fill="#173d7a"/>
            <path id="Trazado_228784" data-name="Trazado 228784" d="M170.7,232.362c0,1.408-.988,1.977-2.207,1.275a4.878,4.878,0,0,1-2.207-3.822c0-1.408.988-1.977,2.207-1.275a4.878,4.878,0,0,1,2.207,3.822" transform="translate(189.954 260.722)" fill="#173d7a"/>
            <path id="Trazado_228785" data-name="Trazado 228785" d="M174.334,234.46c0,1.408-.988,1.977-2.207,1.275a4.881,4.881,0,0,1-2.207-3.822c0-1.407.988-1.977,2.207-1.275a4.878,4.878,0,0,1,2.207,3.822" transform="translate(194.104 263.119)" fill="#d4ecff"/>
            <path id="Trazado_228786" data-name="Trazado 228786" d="M177.967,236.557c0,1.408-.988,1.977-2.207,1.273a4.874,4.874,0,0,1-2.207-3.82c0-1.408.988-1.977,2.207-1.275a4.878,4.878,0,0,1,2.207,3.822" transform="translate(198.254 265.514)" fill="#173d7a"/>
            <path id="Trazado_228787" data-name="Trazado 228787" d="M193.992,250.855l-4.535-2.618a2.935,2.935,0,0,1-1.225-2.344v-4.8c0-.9.548-1.318,1.225-.928l4.535,2.618a2.938,2.938,0,0,1,1.225,2.344v4.8c0,.9-.548,1.318-1.225.928" transform="translate(215.02 274.182)" fill="#173d7a"/>
            <path id="Trazado_228788" data-name="Trazado 228788" d="M247.069,311.606l-95.7-55.252c-2.142-1.236-3.878-4.555-3.878-7.41V230.695c0-2.856,1.735-4.167,3.878-2.931l95.7,55.25c2.142,1.238,3.878,4.554,3.878,7.41v18.248c0,2.856-1.735,4.169-3.878,2.933" transform="translate(168.483 259.647)" fill="#5793ce"/>
            <g id="Grupo_218275" data-name="Grupo 218275" transform="translate(320.632 493.573)" opacity="0.4">
              <g id="Grupo_218274" data-name="Grupo 218274">
                <g id="Grupo_218273" data-name="Grupo 218273" clip-path="url(#clip-path-4)">
                  <path id="Trazado_228789" data-name="Trazado 228789" d="M241.838,301.674l-90.2-52.08a4.715,4.715,0,0,1-1.967-3.76V232.115c0-1.448.88-2.115,1.967-1.487l90.2,52.08a4.715,4.715,0,0,1,1.967,3.76v13.719c0,1.448-.88,2.115-1.967,1.487" transform="translate(-149.665 -230.392)" fill="#d4ecff"/>
                </g>
              </g>
            </g>
            <path id="Trazado_228790" data-name="Trazado 228790" d="M167.556,248.167,154.094,240.4a4.577,4.577,0,0,1-1.911-3.65c0-1.407.857-2.054,1.911-1.444l13.462,7.772a4.571,4.571,0,0,1,1.911,3.65c0,1.408-.855,2.052-1.911,1.444" transform="translate(173.841 268.525)" fill="#d4ecff"/>
            <path id="Trazado_228791" data-name="Trazado 228791" d="M170.308,248.052c0,2.659-1.866,3.734-4.167,2.406a9.209,9.209,0,0,1-4.169-7.217c0-2.659,1.866-3.736,4.169-2.406a9.209,9.209,0,0,1,4.167,7.217" transform="translate(185.024 274.459)" fill="#fff"/>
            <path id="Trazado_228792" data-name="Trazado 228792" d="M175.741,250.5c0,1.408-.988,1.977-2.207,1.275a4.878,4.878,0,0,1-2.207-3.822c0-1.407.988-1.977,2.207-1.275a4.878,4.878,0,0,1,2.207,3.822" transform="translate(195.711 281.443)" fill="#173d7a"/>
            <path id="Trazado_228793" data-name="Trazado 228793" d="M179.374,252.6c0,1.408-.988,1.977-2.207,1.275a4.881,4.881,0,0,1-2.207-3.822c0-1.408.988-1.977,2.207-1.275a4.878,4.878,0,0,1,2.207,3.822" transform="translate(199.861 283.839)" fill="#d4ecff"/>
            <path id="Trazado_228794" data-name="Trazado 228794" d="M183.008,254.7c0,1.408-.988,1.977-2.207,1.275a4.881,4.881,0,0,1-2.207-3.822c0-1.408.988-1.977,2.207-1.275a4.878,4.878,0,0,1,2.207,3.822" transform="translate(204.012 286.236)" fill="#173d7a"/>
            <path id="Trazado_228795" data-name="Trazado 228795" d="M193.992,265.875l-4.535-2.618a2.938,2.938,0,0,1-1.225-2.344v-4.8c0-.9.548-1.318,1.225-.928l4.535,2.618a2.938,2.938,0,0,1,1.225,2.344v4.8c0,.9-.548,1.318-1.225.928" transform="translate(215.02 291.34)" fill="#d4ecff"/>
          </g>
        </g>
        <path id="Trazado_228796" data-name="Trazado 228796" d="M193.128,84.327l-13.5,7.8,13.5,7.8Z" transform="translate(291.67 576.091)" fill="#4dd0e1"/>
      </g>
    </g>
    <g id="Rectángulo_304358" data-name="Rectángulo 304358" transform="translate(613.681 8316.778)" fill="#bddcf6" stroke="#fff" stroke-width="2">
      <rect width="157.153" height="90.236" stroke="none"/>
      <rect x="1" y="1" width="155.153" height="88.236" fill="none"/>
    </g>
    <path id="Trazado_229932" data-name="Trazado 229932" d="M24.023,17,26,5.625l3.336.008a3.793,3.793,0,0,1,2.609.781,2.5,2.5,0,0,1,.758,2.18,2.957,2.957,0,0,1-2.055,2.461,2.117,2.117,0,0,1,1.145,1.016,2.839,2.839,0,0,1,.309,1.586A3.318,3.318,0,0,1,30.866,16.1a4.456,4.456,0,0,1-2.891.9Zm2.391-5.32L25.7,15.766l2.32.008A2.78,2.78,0,0,0,29.8,15.2a2.218,2.218,0,0,0,.836-1.536,1.821,1.821,0,0,0-.32-1.435,1.745,1.745,0,0,0-1.352-.546Zm.211-1.2,2.117.008a2.727,2.727,0,0,0,1.676-.509,2,2,0,0,0,.8-1.4,1.431,1.431,0,0,0-.324-1.253,2.075,2.075,0,0,0-1.41-.462l-2.234-.008Zm12.289,5.688a3.265,3.265,0,0,1-2.523.992,2.107,2.107,0,0,1-1.793-.867,3.317,3.317,0,0,1-.434-2.281l.906-5.461h1.414l-.914,5.484a3.642,3.642,0,0,0-.016.672,1.4,1.4,0,0,0,.336.883,1.146,1.146,0,0,0,.828.344A2.537,2.537,0,0,0,39.062,14.7l1.063-6.156h1.414L40.07,17H38.734Zm8.5-1.453q.117-.875-.961-1.234l-1.469-.43q-1.859-.641-1.8-2.125a2.341,2.341,0,0,1,1.02-1.832,3.631,3.631,0,0,1,2.27-.7,3.027,3.027,0,0,1,2.082.746,2.363,2.363,0,0,1,.77,1.9l-1.406-.008a1.319,1.319,0,0,0-.4-1.031,1.576,1.576,0,0,0-1.1-.414,2.059,2.059,0,0,0-1.266.359,1.316,1.316,0,0,0-.57.922q-.1.734.9,1.07l.711.2a4.577,4.577,0,0,1,2.063.977A1.865,1.865,0,0,1,48.82,14.6a2.37,2.37,0,0,1-.516,1.375,2.948,2.948,0,0,1-1.25.895,4.18,4.18,0,0,1-1.664.285,3.3,3.3,0,0,1-2.219-.785,2.427,2.427,0,0,1-.844-1.98l1.414.008a1.5,1.5,0,0,0,.453,1.141,1.732,1.732,0,0,0,1.242.43,2.436,2.436,0,0,0,1.336-.324A1.247,1.247,0,0,0,47.413,14.711ZM51.788,17H50.382l1.469-8.453h1.406ZM52.952,5.461a.774.774,0,0,1,.6.215.8.8,0,0,1,.238.605.834.834,0,0,1-.836.852.779.779,0,0,1-.6-.211.764.764,0,0,1-.227-.594.886.886,0,0,1,.234-.609A.826.826,0,0,1,52.952,5.461Zm3.953,3.078-.2,1.07A3.333,3.333,0,0,1,59.3,8.391a2.1,2.1,0,0,1,1.766.828,3.217,3.217,0,0,1,.422,2.242L60.562,17H59.148l.93-5.557a2.962,2.962,0,0,0,.008-.71A1.168,1.168,0,0,0,58.8,9.617a2.661,2.661,0,0,0-2.234,1.358L55.515,17H54.1L55.57,8.547ZM66.4,17.156a3.048,3.048,0,0,1-2.469-1.164,4.006,4.006,0,0,1-.75-2.9l.039-.336a5.624,5.624,0,0,1,.746-2.3,4.339,4.339,0,0,1,1.5-1.566,3.491,3.491,0,0,1,1.906-.5,2.688,2.688,0,0,1,2.047.867,3.566,3.566,0,0,1,.813,2.266,6.62,6.62,0,0,1-.031,1.016l-.086.648H64.585a2.855,2.855,0,0,0,.379,1.953,1.8,1.8,0,0,0,1.551.836,3.007,3.007,0,0,0,2.313-1.125l.813.688a3.718,3.718,0,0,1-1.371,1.2A3.886,3.886,0,0,1,66.4,17.156Zm.9-7.586a2.066,2.066,0,0,0-1.527.594A4.22,4.22,0,0,0,64.734,12l4.109.008.031-.125a2.313,2.313,0,0,0-.316-1.637A1.488,1.488,0,0,0,67.3,9.57Zm8.977,5.141q.117-.875-.961-1.234l-1.469-.43q-1.859-.641-1.8-2.125a2.341,2.341,0,0,1,1.02-1.832,3.631,3.631,0,0,1,2.27-.7,3.027,3.027,0,0,1,2.082.746,2.363,2.363,0,0,1,.77,1.9l-1.406-.008a1.319,1.319,0,0,0-.4-1.031,1.576,1.576,0,0,0-1.1-.414,2.059,2.059,0,0,0-1.266.359,1.316,1.316,0,0,0-.57.922q-.1.734.9,1.07l.711.2a4.577,4.577,0,0,1,2.063.977,1.865,1.865,0,0,1,.563,1.492,2.37,2.37,0,0,1-.516,1.375,2.948,2.948,0,0,1-1.25.895,4.18,4.18,0,0,1-1.664.285,3.3,3.3,0,0,1-2.219-.785,2.427,2.427,0,0,1-.844-1.98L72.6,14.4a1.5,1.5,0,0,0,.453,1.141,1.732,1.732,0,0,0,1.242.43,2.436,2.436,0,0,0,1.336-.324A1.247,1.247,0,0,0,76.273,14.711Zm8.078,0q.117-.875-.961-1.234l-1.469-.43q-1.859-.641-1.8-2.125a2.341,2.341,0,0,1,1.02-1.832,3.631,3.631,0,0,1,2.27-.7,3.027,3.027,0,0,1,2.082.746,2.363,2.363,0,0,1,.77,1.9l-1.406-.008A1.319,1.319,0,0,0,84.46,10a1.576,1.576,0,0,0-1.1-.414,2.059,2.059,0,0,0-1.266.359,1.316,1.316,0,0,0-.57.922q-.1.734.9,1.07l.711.2a4.577,4.577,0,0,1,2.063.977,1.865,1.865,0,0,1,.563,1.492,2.37,2.37,0,0,1-.516,1.375,2.948,2.948,0,0,1-1.25.895,4.18,4.18,0,0,1-1.664.285,3.3,3.3,0,0,1-2.219-.785,2.427,2.427,0,0,1-.844-1.98l1.414.008a1.5,1.5,0,0,0,.453,1.141,1.732,1.732,0,0,0,1.242.43,2.436,2.436,0,0,0,1.336-.324A1.247,1.247,0,0,0,84.351,14.711ZM10.757,34.164a3.265,3.265,0,0,1-2.523.992,2.107,2.107,0,0,1-1.793-.867,3.317,3.317,0,0,1-.434-2.281l.906-5.461H8.327l-.914,5.484A3.643,3.643,0,0,0,7.4,32.7a1.4,1.4,0,0,0,.336.883,1.146,1.146,0,0,0,.828.344A2.537,2.537,0,0,0,10.905,32.7l1.063-6.156h1.414L11.913,35H10.577Zm6.07-7.625-.2,1.07a3.333,3.333,0,0,1,2.594-1.219,2.1,2.1,0,0,1,1.766.828,3.217,3.217,0,0,1,.422,2.242L20.484,35H19.07L20,29.443a2.962,2.962,0,0,0,.008-.71,1.168,1.168,0,0,0-1.289-1.116,2.661,2.661,0,0,0-2.234,1.358L15.437,35H14.023l1.469-8.453Zm6.242,4.219a6.578,6.578,0,0,1,.711-2.328,4.03,4.03,0,0,1,1.367-1.555,3.127,3.127,0,0,1,1.789-.492,2.64,2.64,0,0,1,2.172,1.031L29.921,23h1.414L29.257,35H27.968l.148-.906a3.116,3.116,0,0,1-2.469,1.063,2.335,2.335,0,0,1-1.867-.918,4,4,0,0,1-.75-2.379A7.6,7.6,0,0,1,23.07,30.758Zm1.359.808a2.929,2.929,0,0,0,.4,1.732,1.437,1.437,0,0,0,1.234.632,2.554,2.554,0,0,0,2.18-1.233l.672-3.9a1.754,1.754,0,0,0-1.7-1.186,2.143,2.143,0,0,0-1.473.5,3.256,3.256,0,0,0-.969,1.475A6.082,6.082,0,0,0,24.429,31.565Zm10.719,3.591a3.048,3.048,0,0,1-2.469-1.164,4.006,4.006,0,0,1-.75-2.9l.039-.336a5.624,5.624,0,0,1,.746-2.3,4.339,4.339,0,0,1,1.5-1.566,3.491,3.491,0,0,1,1.906-.5,2.688,2.688,0,0,1,2.047.867,3.566,3.566,0,0,1,.813,2.266,6.621,6.621,0,0,1-.031,1.016l-.086.648H33.335a2.856,2.856,0,0,0,.379,1.953,1.8,1.8,0,0,0,1.551.836,3.007,3.007,0,0,0,2.313-1.125l.813.688a3.718,3.718,0,0,1-1.371,1.2A3.886,3.886,0,0,1,35.148,35.156Zm.9-7.586a2.066,2.066,0,0,0-1.527.594A4.22,4.22,0,0,0,33.484,30l4.109.008.031-.125a2.313,2.313,0,0,0-.316-1.637A1.488,1.488,0,0,0,36.046,27.57Zm9,.266-.664-.07a2.42,2.42,0,0,0-2.141,1.227L41.2,35H39.788l1.469-8.453,1.367-.008-.211.984a2.527,2.527,0,0,1,2.117-1.148,2.594,2.594,0,0,1,.672.117Zm5.3,4.875q.117-.875-.961-1.234l-1.469-.43q-1.859-.641-1.8-2.125a2.341,2.341,0,0,1,1.02-1.832,3.631,3.631,0,0,1,2.27-.7,3.027,3.027,0,0,1,2.082.746,2.363,2.363,0,0,1,.77,1.9l-1.406-.008A1.319,1.319,0,0,0,50.46,28a1.576,1.576,0,0,0-1.1-.414,2.059,2.059,0,0,0-1.266.359,1.316,1.316,0,0,0-.57.922q-.1.734.9,1.07l.711.2a4.578,4.578,0,0,1,2.063.977,1.865,1.865,0,0,1,.563,1.492,2.37,2.37,0,0,1-.516,1.375,2.948,2.948,0,0,1-1.25.895,4.18,4.18,0,0,1-1.664.285,3.3,3.3,0,0,1-2.219-.785,2.427,2.427,0,0,1-.844-1.98l1.414.008a1.5,1.5,0,0,0,.453,1.141,1.732,1.732,0,0,0,1.242.43,2.436,2.436,0,0,0,1.336-.324A1.247,1.247,0,0,0,50.351,32.711ZM56.929,24.5l-.359,2.047h1.539l-.2,1.117H56.382L55.5,32.922a1.833,1.833,0,0,0-.008.375.6.6,0,0,0,.664.609,4.05,4.05,0,0,0,.688-.078l-.109,1.18a3.847,3.847,0,0,1-1.031.141,1.476,1.476,0,0,1-1.266-.621,2.4,2.4,0,0,1-.328-1.629l.859-5.234H53.476l.2-1.117h1.492l.359-2.047ZM63.515,35a1.894,1.894,0,0,1-.055-.445l.023-.445a3.465,3.465,0,0,1-2.469,1.047,2.526,2.526,0,0,1-1.816-.707,2.14,2.14,0,0,1-.637-1.73,2.6,2.6,0,0,1,1.176-2.1,5.005,5.005,0,0,1,2.887-.754l1.477.008.094-.672A1.545,1.545,0,0,0,63.9,28a1.414,1.414,0,0,0-1.113-.457A2.181,2.181,0,0,0,61.5,27.9a1.513,1.513,0,0,0-.684.98l-1.422.008a2.266,2.266,0,0,1,.578-1.316,3.363,3.363,0,0,1,1.3-.891,4.215,4.215,0,0,1,1.648-.3,2.8,2.8,0,0,1,2.055.8,2.484,2.484,0,0,1,.617,2.043l-.687,4.188-.039.6a2.949,2.949,0,0,0,.094.852L64.952,35ZM61.3,33.906a2.466,2.466,0,0,0,1.285-.324,3.254,3.254,0,0,0,1.043-.941l.3-1.742-1.07-.008a4.054,4.054,0,0,0-2.047.422,1.554,1.554,0,0,0-.8,1.2,1.21,1.21,0,0,0,.277.988A1.321,1.321,0,0,0,61.3,33.906Zm8.375-7.367-.2,1.07a3.333,3.333,0,0,1,2.594-1.219,2.1,2.1,0,0,1,1.766.828,3.217,3.217,0,0,1,.422,2.242L73.327,35H71.913l.93-5.557a2.962,2.962,0,0,0,.008-.71,1.168,1.168,0,0,0-1.289-1.116,2.661,2.661,0,0,0-2.234,1.358L68.28,35H66.866l1.469-8.453Zm6.242,4.219a6.578,6.578,0,0,1,.711-2.328,4.03,4.03,0,0,1,1.367-1.555,3.127,3.127,0,0,1,1.789-.492,2.64,2.64,0,0,1,2.172,1.031L82.765,23h1.414L82.1,35H80.812l.148-.906a3.116,3.116,0,0,1-2.469,1.063,2.335,2.335,0,0,1-1.867-.918,4,4,0,0,1-.75-2.379A7.6,7.6,0,0,1,75.913,30.758Zm1.359.808a2.929,2.929,0,0,0,.4,1.732,1.437,1.437,0,0,0,1.234.632,2.554,2.554,0,0,0,2.18-1.233l.672-3.9a1.754,1.754,0,0,0-1.7-1.186,2.143,2.143,0,0,0-1.473.5,3.256,3.256,0,0,0-.969,1.475A6.082,6.082,0,0,0,77.273,31.565ZM85.866,35H84.46l1.469-8.453h1.406ZM87.03,23.461a.774.774,0,0,1,.6.215.8.8,0,0,1,.238.605.834.834,0,0,1-.836.852.779.779,0,0,1-.6-.211.764.764,0,0,1-.227-.594.886.886,0,0,1,.234-.609A.826.826,0,0,1,87.03,23.461Zm3.953,3.078-.2,1.07a3.333,3.333,0,0,1,2.594-1.219,2.1,2.1,0,0,1,1.766.828,3.217,3.217,0,0,1,.422,2.242L94.64,35H93.226l.93-5.557a2.962,2.962,0,0,0,.008-.71,1.168,1.168,0,0,0-1.289-1.116,2.661,2.661,0,0,0-2.234,1.358L89.593,35H88.179l1.469-8.453Zm6.25,4.219a6.889,6.889,0,0,1,.746-2.4,3.9,3.9,0,0,1,1.359-1.508,3.151,3.151,0,0,1,1.754-.465,2.6,2.6,0,0,1,2.219,1.109l.281-.945h1.3l-1.406,8.273a4.113,4.113,0,0,1-1.312,2.59,3.7,3.7,0,0,1-2.68.926,3.8,3.8,0,0,1-1.645-.406,3.127,3.127,0,0,1-1.238-1.07l.8-.867a2.536,2.536,0,0,0,3.73.6,2.9,2.9,0,0,0,.926-1.687l.156-.75a3.2,3.2,0,0,1-2.414,1,2.486,2.486,0,0,1-1.371-.426,2.589,2.589,0,0,1-.9-1.164,4.759,4.759,0,0,1-.352-1.7A8.734,8.734,0,0,1,97.234,30.758Zm1.367.8a2.974,2.974,0,0,0,.387,1.728,1.461,1.461,0,0,0,1.238.644,2.561,2.561,0,0,0,2.18-1.241l.664-3.878a1.776,1.776,0,0,0-1.7-1.2,2.194,2.194,0,0,0-1.887.936,4.878,4.878,0,0,0-.871,2.614Z" transform="translate(636.73 8343.14)" fill="#12263f"/>
    <g id="Rectángulo_304359" data-name="Rectángulo 304359" transform="translate(832.682 8316.778)" fill="#bddcf6" stroke="#fff" stroke-width="2">
      <rect width="157.153" height="90.236" stroke="none"/>
      <rect x="1" y="1" width="155.153" height="88.236" fill="none"/>
    </g>
    <path id="Trazado_229933" data-name="Trazado 229933" d="M39.491,17,41.468,5.625l2.953.008a4.1,4.1,0,0,1,2.395.7,3.835,3.835,0,0,1,1.441,1.918,5.962,5.962,0,0,1,.258,2.738l-.078.57a6.432,6.432,0,0,1-1.93,3.965A5.611,5.611,0,0,1,42.523,17ZM42.718,6.852l-1.547,8.914,1.445.008a4.061,4.061,0,0,0,2.809-1.031,4.9,4.9,0,0,0,1.5-2.828,9.2,9.2,0,0,0,.188-2.445,2.978,2.978,0,0,0-.8-1.895,2.605,2.605,0,0,0-1.844-.715ZM54.7,17a1.894,1.894,0,0,1-.055-.445l.023-.445A3.465,3.465,0,0,1,52.2,17.156a2.526,2.526,0,0,1-1.816-.707,2.14,2.14,0,0,1-.637-1.73,2.6,2.6,0,0,1,1.176-2.1,5.005,5.005,0,0,1,2.887-.754l1.477.008.094-.672a1.545,1.545,0,0,0-.293-1.2,1.414,1.414,0,0,0-1.113-.457,2.181,2.181,0,0,0-1.285.355,1.513,1.513,0,0,0-.684.98l-1.422.008a2.266,2.266,0,0,1,.578-1.316,3.363,3.363,0,0,1,1.3-.891,4.215,4.215,0,0,1,1.648-.3,2.8,2.8,0,0,1,2.055.8,2.484,2.484,0,0,1,.617,2.043L56.1,15.414l-.039.6a2.949,2.949,0,0,0,.094.852L56.14,17Zm-2.219-1.094a2.466,2.466,0,0,0,1.285-.324,3.254,3.254,0,0,0,1.043-.941l.3-1.742-1.07-.008A4.054,4.054,0,0,0,52,13.313a1.554,1.554,0,0,0-.8,1.2,1.21,1.21,0,0,0,.277.988A1.321,1.321,0,0,0,52.484,15.906Zm9.3-9.406-.359,2.047h1.539l-.2,1.117H61.241l-.883,5.258a1.833,1.833,0,0,0-.008.375.6.6,0,0,0,.664.609,4.05,4.05,0,0,0,.688-.078l-.109,1.18a3.847,3.847,0,0,1-1.031.141,1.476,1.476,0,0,1-1.266-.621,2.4,2.4,0,0,1-.328-1.629l.859-5.234H58.335l.2-1.117h1.492L60.382,6.5ZM68.374,17a1.893,1.893,0,0,1-.055-.445l.023-.445a3.465,3.465,0,0,1-2.469,1.047,2.526,2.526,0,0,1-1.816-.707,2.14,2.14,0,0,1-.637-1.73,2.6,2.6,0,0,1,1.176-2.1,5.005,5.005,0,0,1,2.887-.754l1.477.008.094-.672a1.545,1.545,0,0,0-.293-1.2,1.414,1.414,0,0,0-1.113-.457,2.181,2.181,0,0,0-1.285.355,1.513,1.513,0,0,0-.684.98l-1.422.008a2.266,2.266,0,0,1,.578-1.316,3.363,3.363,0,0,1,1.3-.891,4.215,4.215,0,0,1,1.648-.3,2.8,2.8,0,0,1,2.055.8,2.484,2.484,0,0,1,.617,2.043l-.687,4.188-.039.6a2.949,2.949,0,0,0,.094.852L69.812,17Zm-2.219-1.094a2.466,2.466,0,0,0,1.285-.324,3.254,3.254,0,0,0,1.043-.941l.3-1.742-1.07-.008a4.054,4.054,0,0,0-2.047.422,1.554,1.554,0,0,0-.8,1.2,1.21,1.21,0,0,0,.277.988A1.321,1.321,0,0,0,66.155,15.906Zm-55.4,18.258a3.265,3.265,0,0,1-2.523.992,2.107,2.107,0,0,1-1.793-.867,3.317,3.317,0,0,1-.434-2.281l.906-5.461H8.327l-.914,5.484A3.643,3.643,0,0,0,7.4,32.7a1.4,1.4,0,0,0,.336.883,1.146,1.146,0,0,0,.828.344A2.537,2.537,0,0,0,10.905,32.7l1.063-6.156h1.414L11.913,35H10.577Zm6.07-7.625-.2,1.07a3.333,3.333,0,0,1,2.594-1.219,2.1,2.1,0,0,1,1.766.828,3.217,3.217,0,0,1,.422,2.242L20.484,35H19.07L20,29.443a2.962,2.962,0,0,0,.008-.71,1.168,1.168,0,0,0-1.289-1.116,2.661,2.661,0,0,0-2.234,1.358L15.437,35H14.023l1.469-8.453Zm6.242,4.219a6.578,6.578,0,0,1,.711-2.328,4.03,4.03,0,0,1,1.367-1.555,3.127,3.127,0,0,1,1.789-.492,2.64,2.64,0,0,1,2.172,1.031L29.921,23h1.414L29.257,35H27.968l.148-.906a3.116,3.116,0,0,1-2.469,1.063,2.335,2.335,0,0,1-1.867-.918,4,4,0,0,1-.75-2.379A7.6,7.6,0,0,1,23.07,30.758Zm1.359.808a2.929,2.929,0,0,0,.4,1.732,1.437,1.437,0,0,0,1.234.632,2.554,2.554,0,0,0,2.18-1.233l.672-3.9a1.754,1.754,0,0,0-1.7-1.186,2.143,2.143,0,0,0-1.473.5,3.256,3.256,0,0,0-.969,1.475A6.082,6.082,0,0,0,24.429,31.565Zm10.719,3.591a3.048,3.048,0,0,1-2.469-1.164,4.006,4.006,0,0,1-.75-2.9l.039-.336a5.624,5.624,0,0,1,.746-2.3,4.339,4.339,0,0,1,1.5-1.566,3.491,3.491,0,0,1,1.906-.5,2.688,2.688,0,0,1,2.047.867,3.566,3.566,0,0,1,.813,2.266,6.621,6.621,0,0,1-.031,1.016l-.086.648H33.335a2.856,2.856,0,0,0,.379,1.953,1.8,1.8,0,0,0,1.551.836,3.007,3.007,0,0,0,2.313-1.125l.813.688a3.718,3.718,0,0,1-1.371,1.2A3.886,3.886,0,0,1,35.148,35.156Zm.9-7.586a2.066,2.066,0,0,0-1.527.594A4.22,4.22,0,0,0,33.484,30l4.109.008.031-.125a2.313,2.313,0,0,0-.316-1.637A1.488,1.488,0,0,0,36.046,27.57Zm9,.266-.664-.07a2.42,2.42,0,0,0-2.141,1.227L41.2,35H39.788l1.469-8.453,1.367-.008-.211.984a2.527,2.527,0,0,1,2.117-1.148,2.594,2.594,0,0,1,.672.117Zm5.3,4.875q.117-.875-.961-1.234l-1.469-.43q-1.859-.641-1.8-2.125a2.341,2.341,0,0,1,1.02-1.832,3.631,3.631,0,0,1,2.27-.7,3.027,3.027,0,0,1,2.082.746,2.363,2.363,0,0,1,.77,1.9l-1.406-.008A1.319,1.319,0,0,0,50.46,28a1.576,1.576,0,0,0-1.1-.414,2.059,2.059,0,0,0-1.266.359,1.316,1.316,0,0,0-.57.922q-.1.734.9,1.07l.711.2a4.578,4.578,0,0,1,2.063.977,1.865,1.865,0,0,1,.563,1.492,2.37,2.37,0,0,1-.516,1.375,2.948,2.948,0,0,1-1.25.895,4.18,4.18,0,0,1-1.664.285,3.3,3.3,0,0,1-2.219-.785,2.427,2.427,0,0,1-.844-1.98l1.414.008a1.5,1.5,0,0,0,.453,1.141,1.732,1.732,0,0,0,1.242.43,2.436,2.436,0,0,0,1.336-.324A1.247,1.247,0,0,0,50.351,32.711ZM56.929,24.5l-.359,2.047h1.539l-.2,1.117H56.382L55.5,32.922a1.833,1.833,0,0,0-.008.375.6.6,0,0,0,.664.609,4.05,4.05,0,0,0,.688-.078l-.109,1.18a3.847,3.847,0,0,1-1.031.141,1.476,1.476,0,0,1-1.266-.621,2.4,2.4,0,0,1-.328-1.629l.859-5.234H53.476l.2-1.117h1.492l.359-2.047ZM63.515,35a1.894,1.894,0,0,1-.055-.445l.023-.445a3.465,3.465,0,0,1-2.469,1.047,2.526,2.526,0,0,1-1.816-.707,2.14,2.14,0,0,1-.637-1.73,2.6,2.6,0,0,1,1.176-2.1,5.005,5.005,0,0,1,2.887-.754l1.477.008.094-.672A1.545,1.545,0,0,0,63.9,28a1.414,1.414,0,0,0-1.113-.457A2.181,2.181,0,0,0,61.5,27.9a1.513,1.513,0,0,0-.684.98l-1.422.008a2.266,2.266,0,0,1,.578-1.316,3.363,3.363,0,0,1,1.3-.891,4.215,4.215,0,0,1,1.648-.3,2.8,2.8,0,0,1,2.055.8,2.484,2.484,0,0,1,.617,2.043l-.687,4.188-.039.6a2.949,2.949,0,0,0,.094.852L64.952,35ZM61.3,33.906a2.466,2.466,0,0,0,1.285-.324,3.254,3.254,0,0,0,1.043-.941l.3-1.742-1.07-.008a4.054,4.054,0,0,0-2.047.422,1.554,1.554,0,0,0-.8,1.2,1.21,1.21,0,0,0,.277.988A1.321,1.321,0,0,0,61.3,33.906Zm8.375-7.367-.2,1.07a3.333,3.333,0,0,1,2.594-1.219,2.1,2.1,0,0,1,1.766.828,3.217,3.217,0,0,1,.422,2.242L73.327,35H71.913l.93-5.557a2.962,2.962,0,0,0,.008-.71,1.168,1.168,0,0,0-1.289-1.116,2.661,2.661,0,0,0-2.234,1.358L68.28,35H66.866l1.469-8.453Zm6.242,4.219a6.578,6.578,0,0,1,.711-2.328,4.03,4.03,0,0,1,1.367-1.555,3.127,3.127,0,0,1,1.789-.492,2.64,2.64,0,0,1,2.172,1.031L82.765,23h1.414L82.1,35H80.812l.148-.906a3.116,3.116,0,0,1-2.469,1.063,2.335,2.335,0,0,1-1.867-.918,4,4,0,0,1-.75-2.379A7.6,7.6,0,0,1,75.913,30.758Zm1.359.808a2.929,2.929,0,0,0,.4,1.732,1.437,1.437,0,0,0,1.234.632,2.554,2.554,0,0,0,2.18-1.233l.672-3.9a1.754,1.754,0,0,0-1.7-1.186,2.143,2.143,0,0,0-1.473.5,3.256,3.256,0,0,0-.969,1.475A6.082,6.082,0,0,0,77.273,31.565ZM85.866,35H84.46l1.469-8.453h1.406ZM87.03,23.461a.774.774,0,0,1,.6.215.8.8,0,0,1,.238.605.834.834,0,0,1-.836.852.779.779,0,0,1-.6-.211.764.764,0,0,1-.227-.594.886.886,0,0,1,.234-.609A.826.826,0,0,1,87.03,23.461Zm3.953,3.078-.2,1.07a3.333,3.333,0,0,1,2.594-1.219,2.1,2.1,0,0,1,1.766.828,3.217,3.217,0,0,1,.422,2.242L94.64,35H93.226l.93-5.557a2.962,2.962,0,0,0,.008-.71,1.168,1.168,0,0,0-1.289-1.116,2.661,2.661,0,0,0-2.234,1.358L89.593,35H88.179l1.469-8.453Zm6.25,4.219a6.889,6.889,0,0,1,.746-2.4,3.9,3.9,0,0,1,1.359-1.508,3.151,3.151,0,0,1,1.754-.465,2.6,2.6,0,0,1,2.219,1.109l.281-.945h1.3l-1.406,8.273a4.113,4.113,0,0,1-1.312,2.59,3.7,3.7,0,0,1-2.68.926,3.8,3.8,0,0,1-1.645-.406,3.127,3.127,0,0,1-1.238-1.07l.8-.867a2.536,2.536,0,0,0,3.73.6,2.9,2.9,0,0,0,.926-1.687l.156-.75a3.2,3.2,0,0,1-2.414,1,2.486,2.486,0,0,1-1.371-.426,2.589,2.589,0,0,1-.9-1.164,4.759,4.759,0,0,1-.352-1.7A8.734,8.734,0,0,1,97.234,30.758Zm1.367.8a2.974,2.974,0,0,0,.387,1.728,1.461,1.461,0,0,0,1.238.644,2.561,2.561,0,0,0,2.18-1.241l.664-3.878a1.776,1.776,0,0,0-1.7-1.2,2.194,2.194,0,0,0-1.887.936,4.878,4.878,0,0,0-.871,2.614Z" transform="translate(855.731 8343.14)" fill="#12263f"/>
    <g id="Rectángulo_304360" data-name="Rectángulo 304360" transform="translate(950.293 8459.736)" fill="#bddcf6" stroke="#fff" stroke-width="2">
      <rect width="157.153" height="90.236" stroke="none"/>
      <rect x="1" y="1" width="155.153" height="88.236" fill="none"/>
    </g>
    <path id="Trazado_229934" data-name="Trazado 229934" d="M39.491,17,41.468,5.625l2.953.008a4.1,4.1,0,0,1,2.395.7,3.835,3.835,0,0,1,1.441,1.918,5.962,5.962,0,0,1,.258,2.738l-.078.57a6.432,6.432,0,0,1-1.93,3.965A5.611,5.611,0,0,1,42.523,17ZM42.718,6.852l-1.547,8.914,1.445.008a4.061,4.061,0,0,0,2.809-1.031,4.9,4.9,0,0,0,1.5-2.828,9.2,9.2,0,0,0,.188-2.445,2.978,2.978,0,0,0-.8-1.895,2.605,2.605,0,0,0-1.844-.715ZM54.7,17a1.894,1.894,0,0,1-.055-.445l.023-.445A3.465,3.465,0,0,1,52.2,17.156a2.526,2.526,0,0,1-1.816-.707,2.14,2.14,0,0,1-.637-1.73,2.6,2.6,0,0,1,1.176-2.1,5.005,5.005,0,0,1,2.887-.754l1.477.008.094-.672a1.545,1.545,0,0,0-.293-1.2,1.414,1.414,0,0,0-1.113-.457,2.181,2.181,0,0,0-1.285.355,1.513,1.513,0,0,0-.684.98l-1.422.008a2.266,2.266,0,0,1,.578-1.316,3.363,3.363,0,0,1,1.3-.891,4.215,4.215,0,0,1,1.648-.3,2.8,2.8,0,0,1,2.055.8,2.484,2.484,0,0,1,.617,2.043L56.1,15.414l-.039.6a2.949,2.949,0,0,0,.094.852L56.14,17Zm-2.219-1.094a2.466,2.466,0,0,0,1.285-.324,3.254,3.254,0,0,0,1.043-.941l.3-1.742-1.07-.008A4.054,4.054,0,0,0,52,13.313a1.554,1.554,0,0,0-.8,1.2,1.21,1.21,0,0,0,.277.988A1.321,1.321,0,0,0,52.484,15.906Zm9.3-9.406-.359,2.047h1.539l-.2,1.117H61.241l-.883,5.258a1.833,1.833,0,0,0-.008.375.6.6,0,0,0,.664.609,4.05,4.05,0,0,0,.688-.078l-.109,1.18a3.847,3.847,0,0,1-1.031.141,1.476,1.476,0,0,1-1.266-.621,2.4,2.4,0,0,1-.328-1.629l.859-5.234H58.335l.2-1.117h1.492L60.382,6.5ZM68.374,17a1.893,1.893,0,0,1-.055-.445l.023-.445a3.465,3.465,0,0,1-2.469,1.047,2.526,2.526,0,0,1-1.816-.707,2.14,2.14,0,0,1-.637-1.73,2.6,2.6,0,0,1,1.176-2.1,5.005,5.005,0,0,1,2.887-.754l1.477.008.094-.672a1.545,1.545,0,0,0-.293-1.2,1.414,1.414,0,0,0-1.113-.457,2.181,2.181,0,0,0-1.285.355,1.513,1.513,0,0,0-.684.98l-1.422.008a2.266,2.266,0,0,1,.578-1.316,3.363,3.363,0,0,1,1.3-.891,4.215,4.215,0,0,1,1.648-.3,2.8,2.8,0,0,1,2.055.8,2.484,2.484,0,0,1,.617,2.043l-.687,4.188-.039.6a2.949,2.949,0,0,0,.094.852L69.812,17Zm-2.219-1.094a2.466,2.466,0,0,0,1.285-.324,3.254,3.254,0,0,0,1.043-.941l.3-1.742-1.07-.008a4.054,4.054,0,0,0-2.047.422,1.554,1.554,0,0,0-.8,1.2,1.21,1.21,0,0,0,.277.988A1.321,1.321,0,0,0,66.155,15.906ZM23.241,30.813a6.707,6.707,0,0,1-.7,2.32,3.949,3.949,0,0,1-1.336,1.543,3.058,3.058,0,0,1-1.766.488,2.815,2.815,0,0,1-2.25-.992l-.758,4.078H15.023l2.031-11.7,1.281-.008-.156.945a3.207,3.207,0,0,1,2.508-1.094,2.358,2.358,0,0,1,1.9.9A3.954,3.954,0,0,1,23.3,29.68a8.413,8.413,0,0,1-.039.969Zm-1.391-.16L21.89,30a2.969,2.969,0,0,0-.434-1.744,1.525,1.525,0,0,0-1.254-.636,2.508,2.508,0,0,0-2.117,1.163l-.711,4.05a1.769,1.769,0,0,0,1.711,1.155,2.224,2.224,0,0,0,1.793-.823A4.777,4.777,0,0,0,21.851,30.652Zm7.781-2.817-.664-.07a2.42,2.42,0,0,0-2.141,1.227L25.788,35H24.374l1.469-8.453,1.367-.008L27,27.523a2.527,2.527,0,0,1,2.117-1.148,2.594,2.594,0,0,1,.672.117Zm3.727,7.32a3.048,3.048,0,0,1-2.469-1.164,4.006,4.006,0,0,1-.75-2.9l.039-.336a5.624,5.624,0,0,1,.746-2.3,4.339,4.339,0,0,1,1.5-1.566,3.491,3.491,0,0,1,1.906-.5,2.688,2.688,0,0,1,2.047.867,3.566,3.566,0,0,1,.813,2.266,6.621,6.621,0,0,1-.031,1.016l-.086.648H31.546a2.856,2.856,0,0,0,.379,1.953,1.8,1.8,0,0,0,1.551.836,3.007,3.007,0,0,0,2.313-1.125l.813.688a3.718,3.718,0,0,1-1.371,1.2A3.886,3.886,0,0,1,33.359,35.156Zm.9-7.586a2.066,2.066,0,0,0-1.527.594A4.22,4.22,0,0,0,31.695,30l4.109.008.031-.125a2.313,2.313,0,0,0-.316-1.637A1.488,1.488,0,0,0,34.257,27.57Zm11.4,3.242a6.707,6.707,0,0,1-.7,2.32,3.949,3.949,0,0,1-1.336,1.543,3.058,3.058,0,0,1-1.766.488,2.815,2.815,0,0,1-2.25-.992l-.758,4.078H37.437l2.031-11.7,1.281-.008-.156.945A3.207,3.207,0,0,1,43.1,26.391a2.358,2.358,0,0,1,1.9.9,3.954,3.954,0,0,1,.719,2.391,8.413,8.413,0,0,1-.039.969Zm-1.391-.16L44.3,30a2.969,2.969,0,0,0-.434-1.744,1.525,1.525,0,0,0-1.254-.636A2.508,2.508,0,0,0,40.5,28.78l-.711,4.05A1.769,1.769,0,0,0,41.5,33.984a2.224,2.224,0,0,0,1.793-.823A4.777,4.777,0,0,0,44.265,30.652ZM51.96,35a1.894,1.894,0,0,1-.055-.445l.023-.445a3.465,3.465,0,0,1-2.469,1.047,2.526,2.526,0,0,1-1.816-.707,2.14,2.14,0,0,1-.637-1.73,2.6,2.6,0,0,1,1.176-2.1,5.005,5.005,0,0,1,2.887-.754l1.477.008.094-.672a1.545,1.545,0,0,0-.293-1.2,1.414,1.414,0,0,0-1.113-.457,2.181,2.181,0,0,0-1.285.355,1.513,1.513,0,0,0-.684.98l-1.422.008a2.266,2.266,0,0,1,.578-1.316,3.363,3.363,0,0,1,1.3-.891,4.215,4.215,0,0,1,1.648-.3,2.8,2.8,0,0,1,2.055.8,2.484,2.484,0,0,1,.617,2.043l-.687,4.188-.039.6a2.949,2.949,0,0,0,.094.852L53.4,35Zm-2.219-1.094a2.466,2.466,0,0,0,1.285-.324,3.254,3.254,0,0,0,1.043-.941l.3-1.742-1.07-.008a4.054,4.054,0,0,0-2.047.422,1.554,1.554,0,0,0-.8,1.2,1.21,1.21,0,0,0,.277.988A1.321,1.321,0,0,0,49.741,33.906Zm10.828-6.07-.664-.07a2.42,2.42,0,0,0-2.141,1.227L56.726,35H55.312l1.469-8.453,1.367-.008-.211.984a2.527,2.527,0,0,1,2.117-1.148,2.594,2.594,0,0,1,.672.117ZM65.5,35a1.893,1.893,0,0,1-.055-.445l.023-.445A3.465,3.465,0,0,1,63,35.156a2.526,2.526,0,0,1-1.816-.707,2.14,2.14,0,0,1-.637-1.73,2.6,2.6,0,0,1,1.176-2.1,5.005,5.005,0,0,1,2.887-.754l1.477.008.094-.672a1.545,1.545,0,0,0-.293-1.2,1.414,1.414,0,0,0-1.113-.457,2.181,2.181,0,0,0-1.285.355,1.513,1.513,0,0,0-.684.98l-1.422.008a2.266,2.266,0,0,1,.578-1.316,3.363,3.363,0,0,1,1.3-.891,4.215,4.215,0,0,1,1.648-.3,2.8,2.8,0,0,1,2.055.8,2.484,2.484,0,0,1,.617,2.043L66.9,33.414l-.039.6a2.949,2.949,0,0,0,.094.852L66.937,35ZM63.28,33.906a2.466,2.466,0,0,0,1.285-.324,3.254,3.254,0,0,0,1.043-.941l.3-1.742-1.07-.008a4.054,4.054,0,0,0-2.047.422,1.554,1.554,0,0,0-.8,1.2,1.21,1.21,0,0,0,.277.988A1.321,1.321,0,0,0,63.28,33.906Zm9.3-9.406-.359,2.047h1.539l-.2,1.117H72.038l-.883,5.258a1.833,1.833,0,0,0-.008.375.6.6,0,0,0,.664.609,4.05,4.05,0,0,0,.688-.078l-.109,1.18a3.847,3.847,0,0,1-1.031.141,1.476,1.476,0,0,1-1.266-.621,2.4,2.4,0,0,1-.328-1.629l.859-5.234H69.132l.2-1.117H70.82l.359-2.047ZM75.53,35H74.124l1.469-8.453H77Zm1.164-11.539a.774.774,0,0,1,.6.215.8.8,0,0,1,.238.605.834.834,0,0,1-.836.852.779.779,0,0,1-.6-.211.764.764,0,0,1-.227-.594.886.886,0,0,1,.234-.609A.826.826,0,0,1,76.695,23.461Zm5.844,2.93a3.047,3.047,0,0,1,1.82.578A3.285,3.285,0,0,1,85.48,28.52a4.8,4.8,0,0,1,.246,2.16l-.016.172a5.685,5.685,0,0,1-.734,2.23,4.309,4.309,0,0,1-1.516,1.551,3.7,3.7,0,0,1-2.039.523,3.052,3.052,0,0,1-1.816-.578,3.21,3.21,0,0,1-1.113-1.531,4.931,4.931,0,0,1-.25-2.133,5.76,5.76,0,0,1,.711-2.359,4.409,4.409,0,0,1,1.527-1.621A3.652,3.652,0,0,1,82.538,26.391Zm-2.875,4.531a4.8,4.8,0,0,0,0,1.023,2.507,2.507,0,0,0,.551,1.469,1.653,1.653,0,0,0,1.262.57,2.253,2.253,0,0,0,1.3-.348,2.919,2.919,0,0,0,1-1.121,4.721,4.721,0,0,0,.523-1.664,7.5,7.5,0,0,0,.023-1.211,2.6,2.6,0,0,0-.57-1.492,1.69,1.69,0,0,0-1.266-.578,2.3,2.3,0,0,0-1.859.859,4.245,4.245,0,0,0-.945,2.313Zm9.914-4.383-.2,1.07a3.333,3.333,0,0,1,2.594-1.219,2.1,2.1,0,0,1,1.766.828,3.217,3.217,0,0,1,.422,2.242L93.234,35H91.82l.93-5.557a2.962,2.962,0,0,0,.008-.71,1.168,1.168,0,0,0-1.289-1.116,2.661,2.661,0,0,0-2.234,1.358L88.187,35H86.773l1.469-8.453Z" transform="translate(973.342 8486.098)" fill="#12263f"/>
    <g id="Rectángulo_304361" data-name="Rectángulo 304361" transform="translate(950.293 8606.751)" fill="#bddcf6" stroke="#fff" stroke-width="2">
      <rect width="157.153" height="90.236" stroke="none"/>
      <rect x="1" y="1" width="155.153" height="88.236" fill="none"/>
    </g>
    <path id="Trazado_229936" data-name="Trazado 229936" d="M27.148,5.625l1.992,9.266,5.219-9.266h1.93L34.312,17H32.851l.781-4.5.93-4.578L29.405,17H28.28L26.249,7.742l-.7,4.906L24.788,17H23.32L25.3,5.625ZM41.421,8.391a3.047,3.047,0,0,1,1.82.578,3.285,3.285,0,0,1,1.121,1.551,4.8,4.8,0,0,1,.246,2.16l-.016.172a5.685,5.685,0,0,1-.734,2.23,4.309,4.309,0,0,1-1.516,1.551,3.7,3.7,0,0,1-2.039.523,3.052,3.052,0,0,1-1.816-.578,3.21,3.21,0,0,1-1.113-1.531,4.931,4.931,0,0,1-.25-2.133,5.76,5.76,0,0,1,.711-2.359,4.409,4.409,0,0,1,1.527-1.621A3.652,3.652,0,0,1,41.421,8.391Zm-2.875,4.531a4.8,4.8,0,0,0,0,1.023,2.507,2.507,0,0,0,.551,1.469,1.653,1.653,0,0,0,1.262.57,2.253,2.253,0,0,0,1.3-.348,2.919,2.919,0,0,0,1-1.121,4.721,4.721,0,0,0,.523-1.664,7.494,7.494,0,0,0,.023-1.211,2.6,2.6,0,0,0-.57-1.492,1.69,1.69,0,0,0-1.266-.578,2.3,2.3,0,0,0-1.859.859,4.245,4.245,0,0,0-.945,2.313Zm7.516-.164a6.578,6.578,0,0,1,.711-2.328A4.03,4.03,0,0,1,48.14,8.875a3.127,3.127,0,0,1,1.789-.492A2.64,2.64,0,0,1,52.1,9.414L52.913,5h1.414L52.249,17H50.96l.148-.906a3.116,3.116,0,0,1-2.469,1.063,2.335,2.335,0,0,1-1.867-.918,4,4,0,0,1-.75-2.379A7.6,7.6,0,0,1,46.062,12.758Zm1.359.808a2.929,2.929,0,0,0,.4,1.732,1.437,1.437,0,0,0,1.234.632,2.554,2.554,0,0,0,2.18-1.233l.672-3.9a1.754,1.754,0,0,0-1.7-1.186,2.143,2.143,0,0,0-1.473.5,3.256,3.256,0,0,0-.969,1.475A6.082,6.082,0,0,0,47.421,13.565ZM58.14,17.156a3.048,3.048,0,0,1-2.469-1.164,4.006,4.006,0,0,1-.75-2.9l.039-.336a5.624,5.624,0,0,1,.746-2.3,4.339,4.339,0,0,1,1.5-1.566,3.491,3.491,0,0,1,1.906-.5,2.688,2.688,0,0,1,2.047.867,3.566,3.566,0,0,1,.813,2.266,6.621,6.621,0,0,1-.031,1.016l-.086.648H56.327a2.856,2.856,0,0,0,.379,1.953,1.8,1.8,0,0,0,1.551.836,3.007,3.007,0,0,0,2.313-1.125l.813.688a3.718,3.718,0,0,1-1.371,1.2A3.886,3.886,0,0,1,58.14,17.156Zm.9-7.586a2.066,2.066,0,0,0-1.527.594A4.22,4.22,0,0,0,56.476,12l4.109.008.031-.125a2.313,2.313,0,0,0-.316-1.637A1.488,1.488,0,0,0,59.038,9.57ZM64.312,17H62.905L64.984,5H66.4Zm3.844,0H66.749l1.469-8.453h1.406ZM69.32,5.461a.774.774,0,0,1,.6.215.8.8,0,0,1,.238.605.834.834,0,0,1-.836.852.779.779,0,0,1-.6-.211.764.764,0,0,1-.227-.594.886.886,0,0,1,.234-.609A.826.826,0,0,1,69.32,5.461Zm3.953,3.078-.2,1.07a3.333,3.333,0,0,1,2.594-1.219,2.1,2.1,0,0,1,1.766.828,3.217,3.217,0,0,1,.422,2.242L76.929,17H75.515l.93-5.557a2.962,2.962,0,0,0,.008-.71,1.168,1.168,0,0,0-1.289-1.116,2.661,2.661,0,0,0-2.234,1.358L71.882,17H70.468l1.469-8.453Zm6.25,4.219a6.889,6.889,0,0,1,.746-2.4,3.9,3.9,0,0,1,1.359-1.508,3.151,3.151,0,0,1,1.754-.465A2.6,2.6,0,0,1,85.6,9.492l.281-.945h1.3L85.773,16.82a4.113,4.113,0,0,1-1.312,2.59,3.7,3.7,0,0,1-2.68.926,3.8,3.8,0,0,1-1.645-.406,3.127,3.127,0,0,1-1.238-1.07l.8-.867a2.536,2.536,0,0,0,3.73.6,2.9,2.9,0,0,0,.926-1.687l.156-.75a3.2,3.2,0,0,1-2.414,1,2.486,2.486,0,0,1-1.371-.426,2.589,2.589,0,0,1-.9-1.164,4.759,4.759,0,0,1-.352-1.7A8.734,8.734,0,0,1,79.523,12.758Zm1.367.8a2.974,2.974,0,0,0,.387,1.728,1.461,1.461,0,0,0,1.238.644,2.561,2.561,0,0,0,2.18-1.241l.664-3.878a1.776,1.776,0,0,0-1.7-1.2,2.194,2.194,0,0,0-1.887.936,4.878,4.878,0,0,0-.871,2.614Z" transform="translate(973.342 8642.237)" fill="#12263f"/>
    <g id="Rectángulo_304362" data-name="Rectángulo 304362" transform="translate(702.904 8807.501)" fill="#bddcf6" stroke="#fff" stroke-width="2">
      <rect width="157.153" height="90.236" stroke="none"/>
      <rect x="1" y="1" width="155.153" height="88.236" fill="none"/>
    </g>
    <path id="Trazado_229938" data-name="Trazado 229938" d="M26.753,11.742H21.972l-.7,4.031h5.563L26.613,17H19.589L21.566,5.625h6.945l-.219,1.227H22.816l-.633,3.664h4.781Zm4.383,3.281,3.047-6.477h1.492L31.417,17H30.339L28.683,8.547h1.391ZM40.714,17a1.894,1.894,0,0,1-.055-.445l.023-.445a3.465,3.465,0,0,1-2.469,1.047,2.526,2.526,0,0,1-1.816-.707,2.14,2.14,0,0,1-.637-1.73,2.6,2.6,0,0,1,1.176-2.1,5.005,5.005,0,0,1,2.887-.754l1.477.008.094-.672A1.545,1.545,0,0,0,41.1,10a1.414,1.414,0,0,0-1.113-.457A2.181,2.181,0,0,0,38.7,9.9a1.513,1.513,0,0,0-.684.98l-1.422.008a2.266,2.266,0,0,1,.578-1.316,3.363,3.363,0,0,1,1.3-.891,4.215,4.215,0,0,1,1.648-.3,2.8,2.8,0,0,1,2.055.8,2.484,2.484,0,0,1,.617,2.043l-.687,4.188-.039.6a2.949,2.949,0,0,0,.094.852L42.152,17ZM38.5,15.906a2.466,2.466,0,0,0,1.285-.324,3.254,3.254,0,0,0,1.043-.941l.3-1.742-1.07-.008a4.054,4.054,0,0,0-2.047.422,1.554,1.554,0,0,0-.8,1.2,1.21,1.21,0,0,0,.277.988A1.321,1.321,0,0,0,38.5,15.906ZM45.6,17H44.191L46.269,5h1.414Zm7.68-.836a3.265,3.265,0,0,1-2.523.992,2.107,2.107,0,0,1-1.793-.867,3.317,3.317,0,0,1-.434-2.281l.906-5.461h1.414l-.914,5.484a3.642,3.642,0,0,0-.016.672,1.4,1.4,0,0,0,.336.883,1.146,1.146,0,0,0,.828.344A2.537,2.537,0,0,0,53.425,14.7l1.063-6.156H55.9L54.433,17H53.1ZM61.714,17a1.894,1.894,0,0,1-.055-.445l.023-.445a3.465,3.465,0,0,1-2.469,1.047,2.526,2.526,0,0,1-1.816-.707,2.14,2.14,0,0,1-.637-1.73,2.6,2.6,0,0,1,1.176-2.1,5.005,5.005,0,0,1,2.887-.754l1.477.008.094-.672A1.545,1.545,0,0,0,62.1,10a1.414,1.414,0,0,0-1.113-.457A2.181,2.181,0,0,0,59.7,9.9a1.513,1.513,0,0,0-.684.98l-1.422.008a2.266,2.266,0,0,1,.578-1.316,3.363,3.363,0,0,1,1.3-.891,4.215,4.215,0,0,1,1.648-.3,2.8,2.8,0,0,1,2.055.8,2.484,2.484,0,0,1,.617,2.043l-.687,4.188-.039.6a2.949,2.949,0,0,0,.094.852L63.152,17ZM59.5,15.906a2.466,2.466,0,0,0,1.285-.324,3.254,3.254,0,0,0,1.043-.941l.3-1.742-1.07-.008a4.054,4.054,0,0,0-2.047.422,1.554,1.554,0,0,0-.8,1.2,1.21,1.21,0,0,0,.277.988A1.321,1.321,0,0,0,59.5,15.906ZM68.8,6.5l-.359,2.047H69.98l-.2,1.117H68.253l-.883,5.258a1.833,1.833,0,0,0-.008.375.6.6,0,0,0,.664.609,4.05,4.05,0,0,0,.688-.078l-.109,1.18a3.847,3.847,0,0,1-1.031.141,1.476,1.476,0,0,1-1.266-.621A2.4,2.4,0,0,1,65.98,14.9l.859-5.234H65.347l.2-1.117h1.492L67.394,6.5ZM71.745,17H70.339l1.469-8.453h1.406ZM72.909,5.461a.774.774,0,0,1,.6.215.8.8,0,0,1,.238.605.834.834,0,0,1-.836.852.779.779,0,0,1-.6-.211.764.764,0,0,1-.227-.594.886.886,0,0,1,.234-.609A.826.826,0,0,1,72.909,5.461Zm5.844,2.93a3.047,3.047,0,0,1,1.82.578,3.285,3.285,0,0,1,1.121,1.551,4.8,4.8,0,0,1,.246,2.16l-.016.172a5.685,5.685,0,0,1-.734,2.23,4.309,4.309,0,0,1-1.516,1.551,3.7,3.7,0,0,1-2.039.523,3.052,3.052,0,0,1-1.816-.578,3.21,3.21,0,0,1-1.113-1.531,4.931,4.931,0,0,1-.25-2.133,5.76,5.76,0,0,1,.711-2.359,4.409,4.409,0,0,1,1.527-1.621A3.652,3.652,0,0,1,78.753,8.391Zm-2.875,4.531a4.8,4.8,0,0,0,0,1.023,2.507,2.507,0,0,0,.551,1.469,1.653,1.653,0,0,0,1.262.57,2.253,2.253,0,0,0,1.3-.348,2.919,2.919,0,0,0,1-1.121,4.721,4.721,0,0,0,.523-1.664,7.5,7.5,0,0,0,.023-1.211,2.6,2.6,0,0,0-.57-1.492A1.69,1.69,0,0,0,78.7,9.57a2.3,2.3,0,0,0-1.859.859,4.245,4.245,0,0,0-.945,2.313Zm9.914-4.383-.2,1.07a3.333,3.333,0,0,1,2.594-1.219,2.1,2.1,0,0,1,1.766.828,3.217,3.217,0,0,1,.422,2.242L89.448,17H88.034l.93-5.557a2.962,2.962,0,0,0,.008-.71,1.168,1.168,0,0,0-1.289-1.116,2.661,2.661,0,0,0-2.234,1.358L84.4,17H82.988l1.469-8.453Z" transform="translate(725.953 8842.987)" fill="#12263f"/>
    <g id="Rectángulo_304363" data-name="Rectángulo 304363" transform="translate(477.82 8516.515)" fill="#bddcf6" stroke="#fff" stroke-width="2">
      <rect width="157.153" height="90.236" stroke="none"/>
      <rect x="1" y="1" width="155.153" height="88.236" fill="none"/>
    </g>
    <path id="Trazado_229935" data-name="Trazado 229935" d="M14.066,17,16.042,5.625,19,5.633a4.1,4.1,0,0,1,2.395.7,3.835,3.835,0,0,1,1.441,1.918,5.962,5.962,0,0,1,.258,2.738l-.078.57a6.432,6.432,0,0,1-1.93,3.965A5.611,5.611,0,0,1,17.1,17ZM17.292,6.852l-1.547,8.914,1.445.008A4.061,4.061,0,0,0,20,14.742a4.9,4.9,0,0,0,1.5-2.828,9.2,9.2,0,0,0,.188-2.445,2.978,2.978,0,0,0-.8-1.895,2.605,2.605,0,0,0-1.844-.715Zm10.469,10.3a3.048,3.048,0,0,1-2.469-1.164,4.006,4.006,0,0,1-.75-2.9l.039-.336a5.624,5.624,0,0,1,.746-2.3,4.339,4.339,0,0,1,1.5-1.566,3.491,3.491,0,0,1,1.906-.5,2.688,2.688,0,0,1,2.047.867,3.566,3.566,0,0,1,.813,2.266,6.621,6.621,0,0,1-.031,1.016l-.086.648H25.948a2.856,2.856,0,0,0,.379,1.953,1.8,1.8,0,0,0,1.551.836,3.007,3.007,0,0,0,2.313-1.125l.813.688a3.718,3.718,0,0,1-1.371,1.2A3.886,3.886,0,0,1,27.761,17.156Zm.9-7.586a2.066,2.066,0,0,0-1.527.594A4.22,4.22,0,0,0,26.1,12l4.109.008.031-.125a2.313,2.313,0,0,0-.316-1.637A1.488,1.488,0,0,0,28.659,9.57Zm11.4,3.242a6.707,6.707,0,0,1-.7,2.32,3.949,3.949,0,0,1-1.336,1.543,3.058,3.058,0,0,1-1.766.488,2.815,2.815,0,0,1-2.25-.992l-.758,4.078H31.839l2.031-11.7,1.281-.008L35,9.484A3.207,3.207,0,0,1,37.5,8.391a2.358,2.358,0,0,1,1.9.9,3.954,3.954,0,0,1,.719,2.391,8.413,8.413,0,0,1-.039.969Zm-1.391-.16L38.706,12a2.969,2.969,0,0,0-.434-1.744,1.525,1.525,0,0,0-1.254-.636A2.508,2.508,0,0,0,34.9,10.78l-.711,4.05A1.769,1.769,0,0,0,35.9,15.984a2.224,2.224,0,0,0,1.793-.823A4.777,4.777,0,0,0,38.667,12.652ZM42.722,17H41.316L43.394,5h1.414ZM49.73,8.391a3.047,3.047,0,0,1,1.82.578,3.285,3.285,0,0,1,1.121,1.551,4.8,4.8,0,0,1,.246,2.16l-.016.172a5.685,5.685,0,0,1-.734,2.23,4.309,4.309,0,0,1-1.516,1.551,3.7,3.7,0,0,1-2.039.523,3.052,3.052,0,0,1-1.816-.578,3.21,3.21,0,0,1-1.113-1.531,4.931,4.931,0,0,1-.25-2.133,5.76,5.76,0,0,1,.711-2.359,4.409,4.409,0,0,1,1.527-1.621A3.652,3.652,0,0,1,49.73,8.391Zm-2.875,4.531a4.8,4.8,0,0,0,0,1.023,2.507,2.507,0,0,0,.551,1.469,1.653,1.653,0,0,0,1.262.57,2.253,2.253,0,0,0,1.3-.348,2.919,2.919,0,0,0,1-1.121,4.721,4.721,0,0,0,.523-1.664,7.494,7.494,0,0,0,.023-1.211,2.6,2.6,0,0,0-.57-1.492,1.69,1.69,0,0,0-1.266-.578,2.3,2.3,0,0,0-1.859.859,4.245,4.245,0,0,0-.945,2.313ZM57,14.867,60,8.547h1.563L56.55,18.406q-1.047,2.055-2.687,2.031a4.605,4.605,0,0,1-.852-.141l.125-1.172.367.039a1.853,1.853,0,0,0,1.16-.3,2.772,2.772,0,0,0,.863-1.074l.508-.969L54.573,8.547H56.05Zm7.18-6.328L64,9.484a3.305,3.305,0,0,1,2.57-1.094,2.608,2.608,0,0,1,1.363.367,1.8,1.8,0,0,1,.77.992,3.49,3.49,0,0,1,2.8-1.359,2.235,2.235,0,0,1,1.867.852,3.042,3.042,0,0,1,.445,2.2L72.886,17H71.48l.922-5.57a2.943,2.943,0,0,0,0-.742Q72.253,9.625,71.011,9.6a2.136,2.136,0,0,0-1.4.48,2.222,2.222,0,0,0-.809,1.3L67.839,17H66.417l.938-5.562a1.786,1.786,0,0,0-.262-1.336,1.377,1.377,0,0,0-1.129-.484,2.315,2.315,0,0,0-2.1,1.2L62.792,17H61.378l1.469-8.453Zm14.547,8.617a3.048,3.048,0,0,1-2.469-1.164,4.006,4.006,0,0,1-.75-2.9l.039-.336a5.624,5.624,0,0,1,.746-2.3,4.339,4.339,0,0,1,1.5-1.566,3.491,3.491,0,0,1,1.906-.5,2.688,2.688,0,0,1,2.047.867,3.566,3.566,0,0,1,.813,2.266,6.62,6.62,0,0,1-.031,1.016l-.086.648H76.909a2.856,2.856,0,0,0,.379,1.953,1.8,1.8,0,0,0,1.551.836,3.007,3.007,0,0,0,2.313-1.125l.813.688a3.718,3.718,0,0,1-1.371,1.2A3.886,3.886,0,0,1,78.722,17.156Zm.9-7.586a2.066,2.066,0,0,0-1.527.594A4.22,4.22,0,0,0,77.058,12l4.109.008.031-.125a2.313,2.313,0,0,0-.316-1.637A1.488,1.488,0,0,0,79.62,9.57Zm6.547-1.031-.2,1.07a3.333,3.333,0,0,1,2.594-1.219,2.1,2.1,0,0,1,1.766.828,3.217,3.217,0,0,1,.422,2.242L89.823,17H88.409l.93-5.557a2.962,2.962,0,0,0,.008-.71,1.168,1.168,0,0,0-1.289-1.116,2.661,2.661,0,0,0-2.234,1.358L84.777,17H83.363l1.469-8.453ZM95.738,6.5l-.359,2.047h1.539l-.2,1.117H95.191l-.883,5.258a1.833,1.833,0,0,0-.008.375.6.6,0,0,0,.664.609,4.05,4.05,0,0,0,.688-.078l-.109,1.18a3.847,3.847,0,0,1-1.031.141,1.476,1.476,0,0,1-1.266-.621,2.4,2.4,0,0,1-.328-1.629l.859-5.234H92.284l.2-1.117h1.492L94.331,6.5Z" transform="translate(500.869 8552.001)" fill="#12263f"/>
    <path id="Trazado_229937" data-name="Trazado 229937" d="M76.251,21,78.712,6.781l4.18.01a5.446,5.446,0,0,1,3.223.972,5.225,5.225,0,0,1,1.953,2.651,7.262,7.262,0,0,1,.3,3.184l-.068.6a8.4,8.4,0,0,1-1.27,3.467A7.272,7.272,0,0,1,84.445,20.1a7.053,7.053,0,0,1-3.418.9ZM81.6,9.418,80.05,18.354l.977.01a3.33,3.33,0,0,0,2.759-1.328,7.439,7.439,0,0,0,1.235-4.062l.02-.322a3.88,3.88,0,0,0-.488-2.373,1.982,1.982,0,0,0-1.67-.85ZM94.7,21a2.865,2.865,0,0,1-.137-.957A3.259,3.259,0,0,1,91.974,21.2a3.184,3.184,0,0,1-2.285-.918,2.759,2.759,0,0,1-.85-2.178,3.1,3.1,0,0,1,1.436-2.642,6.768,6.768,0,0,1,3.789-.923l1.074.02.117-.6.039-.518a.839.839,0,0,0-.889-.918,1.235,1.235,0,0,0-1.3,1.162l-3.223.01a3.061,3.061,0,0,1,.693-1.851,4.109,4.109,0,0,1,1.753-1.211,6.125,6.125,0,0,1,2.358-.4,4.723,4.723,0,0,1,2.1.5,3.133,3.133,0,0,1,1.353,1.318,3.368,3.368,0,0,1,.342,1.948L97.7,18.979l-.049.605a2.669,2.669,0,0,0,.186,1.23l-.01.186Zm-1.836-2.129A2.072,2.072,0,0,0,94.591,18l.322-1.7-.83-.01a2.188,2.188,0,0,0-1.328.454,1.722,1.722,0,0,0-.654,1.187.865.865,0,0,0,.151.659A.773.773,0,0,0,92.863,18.871ZM105.158,7.807l-.459,2.627h1.689l-.4,2.285H104.3l-.82,4.854a1.294,1.294,0,0,0,.063.752q.132.254.659.273a7.637,7.637,0,0,0,.84-.049l-.234,2.383a5.192,5.192,0,0,1-1.729.244,2.847,2.847,0,0,1-2.236-.879,3,3,0,0,1-.605-2.334l.859-5.244H99.786l.391-2.285h1.309l.459-2.627ZM111.847,21a2.865,2.865,0,0,1-.137-.957,3.259,3.259,0,0,1-2.588,1.152,3.184,3.184,0,0,1-2.285-.918,2.759,2.759,0,0,1-.85-2.178,3.1,3.1,0,0,1,1.436-2.642,6.768,6.768,0,0,1,3.789-.923l1.074.02.117-.6.039-.518a.839.839,0,0,0-.889-.918,1.235,1.235,0,0,0-1.3,1.162l-3.223.01a3.061,3.061,0,0,1,.693-1.851,4.109,4.109,0,0,1,1.753-1.211,6.125,6.125,0,0,1,2.358-.4,4.723,4.723,0,0,1,2.1.5,3.133,3.133,0,0,1,1.353,1.318,3.368,3.368,0,0,1,.342,1.948l-.791,4.971-.049.605a2.669,2.669,0,0,0,.186,1.23l-.01.186Zm-1.836-2.129A2.072,2.072,0,0,0,111.74,18l.322-1.7-.83-.01a2.188,2.188,0,0,0-1.328.454,1.722,1.722,0,0,0-.654,1.187.865.865,0,0,0,.151.659A.773.773,0,0,0,110.011,18.871Z" transform="translate(701.89 8772.015)" fill="#12263f"/>
  </g>
</svg>
