<svg xmlns="http://www.w3.org/2000/svg" width="820" height="316" viewBox="0 0 820 316">
  <g id="Grupo_219987" data-name="Grupo 219987" transform="translate(-390 -676)">
    <rect id="Rectángulo_304278" data-name="Rectángulo 304278" width="820" height="316" transform="translate(390 676)" fill="none"/>
    <g id="Grupo_217324" data-name="Grupo 217324" transform="translate(642.721 782.196)">
      <path id="Trazado_228319" data-name="Trazado 228319" d="M286.138,129.506c-.569-.145-.862-.415-.773-.875a.659.659,0,0,1,.708-.569c.425.035.78.241.766.729-.013.509-.477.544-.7.715" transform="translate(-93.994 -24.815)" fill="#868686"/>
      <g id="Grupo_217322" data-name="Grupo 217322" transform="translate(100.472 0)">
        <path id="Trazado_228317" data-name="Trazado 228317" d="M261.622,75.864c2.764.661,5.206,2.109,7.7,3.362a6.092,6.092,0,0,0,5.271.184c2.547-.881,4-2.265,4.527-4.92.391-1.959,1.288-3.81,1.8-5.751a1.553,1.553,0,0,1,1.836-1.352c1.879.062,3.765.091,5.639-.009a1.836,1.836,0,0,1,2.172,1.5c.762,2.43,1.719,4.8,2.491,7.224a4.171,4.171,0,0,0,2.262,2.561c2.975,1.62,5.686,1.78,8.539-.294a46.857,46.857,0,0,1,4.63-2.421,1.372,1.372,0,0,1,2.065.368,1.776,1.776,0,0,0,.143.142c1.628,1.687,4.111,3.143,4.648,5.126.547,2.016-1.352,4.424-2.636,6.279-2.342,3.378-.847,6.174.518,9.156.34.742,1.035.8,1.643,1,2.477.836,4.951,1.691,7.458,2.428a1.967,1.967,0,0,1,1.706,2.266c-.1,1.807-.063,3.625-.009,5.436a1.808,1.808,0,0,1-1.481,2.042,39.938,39.938,0,0,1-4.745,1.635c-3.925.655-5.45,3.371-6.448,6.748a2.849,2.849,0,0,0,.332,2.287c1.226,2.387,2.393,4.807,3.67,7.165a1.556,1.556,0,0,1-.311,2.249c-1.487,1.356-2.9,2.8-4.276,4.269a1.5,1.5,0,0,1-2.084.354c-2.457-1.234-5-2.305-7.446-3.554a3.719,3.719,0,0,0-3.012-.116c-3.351.942-5.446,2.863-5.926,6.4a11.691,11.691,0,0,1-.591,1.92c-1.294,4.056-1.294,4.056-5.659,4.056-4.381,0-4.382,0-5.819-4.049a11.941,11.941,0,0,1-.573-1.715,7.891,7.891,0,0,0-6.466-6.7,2.962,2.962,0,0,0-2.432.113c-2.4,1.332-4.911,2.482-7.324,3.8a1.622,1.622,0,0,1-2.422-.4c-.281-.372-.675-.656-.987-1.007-1.282-1.445-3.595-2.492-3.757-4.259-.149-1.62,1.35-3.393,2.125-5.1a4.036,4.036,0,0,1,.366-.716c2.067-2.8,1.914-5.554.171-8.512a4.088,4.088,0,0,0-2.554-2.217c-2.383-.679-4.7-1.581-7.079-2.287-1.207-.359-1.809-.933-1.706-2.265.171-2.2-.751-4.765.35-6.524,1.122-1.791,3.923-1.714,5.936-2.58a1.453,1.453,0,0,1,.375-.142c4.131-.44,5.026-3.8,6.263-6.881.286-.714-.121-1.133-.387-1.656-1.218-2.391-2.37-4.819-3.664-7.168a1.928,1.928,0,0,1,.378-2.8c1.411-1.233,2.729-2.572,4.087-3.865a.9.9,0,0,1,.692-.817" transform="translate(-207.534 -45.708)" fill="#bddcf6"/>
        <path id="Trazado_228318" data-name="Trazado 228318" d="M271.83,81.412l-.694.817c-1.558-.842-2.715.462-4.038.8a4.874,4.874,0,0,0-3.5,2.607c-1.239,2.381-.212,4.065.764,5.958,1.86,3.609,1.784,3.553-.909,6.428-1.148,1.225-2.124,1.566-3.565.617a21.963,21.963,0,0,0-2.707-1.328c-3.652-1.735-6.275-.616-7.535,3.213-.042.128-.071.259-.113.387-1.528,4.612-1.527,4.583-6.334,4.359a1.66,1.66,0,0,1-1.764-1.265c-.485-1.463-1.113-2.879-1.555-4.354a3.993,3.993,0,0,0-2.342-2.511,4.375,4.375,0,0,0-5.04.305,4.851,4.851,0,0,1-.717.366c-4.132,2.085-4.626,1.955-7.485-1.745a1.34,1.34,0,0,1-.175-1.635,40.073,40.073,0,0,1,1.739-3.621,4.737,4.737,0,0,0,.14-5.229,3.583,3.583,0,0,0-2.584-2.222,11.328,11.328,0,0,1-1.342-.426c-4.471-1.473-4.439-1.473-4.283-6.19A1.6,1.6,0,0,1,219.029,75c1.53-.5,3.011-1.147,4.548-1.614a4.088,4.088,0,0,0,2.413-2.159c1.209-2.042.691-3.689-.337-5.576-2.375-4.357-2.281-4.373,1.327-7.669a1.452,1.452,0,0,1,1.932-.289c1.25.648,2.609,1.1,3.8,1.834a4.509,4.509,0,0,0,4.7.12,3.766,3.766,0,0,0,2.516-2.805,11.448,11.448,0,0,1,.528-1.73c1.652-4.479.315-3.694,5.339-3.847,1.422-.043,2.273.325,2.62,1.787.245,1.038.876,2,1.026,3.041.4,2.8,2.561,3.5,4.733,4.257a1.577,1.577,0,0,0,1.34-.19c.651-.347,1.32-.659,1.979-.995,4.537-2.313,4.519-2.3,7.856,1.468a1.32,1.32,0,0,1,.273,1.756,22.989,22.989,0,0,1-1.717,3.405c-1.7,2.163-.743,4.084.144,6.131.4.913,1.165,1.023,1.893,1.307,1.916.749,4.635.647,5.6,2.266.891,1.5.253,3.91.288,5.92" transform="translate(-217.742 -51.256)" fill="#bddcf6"/>
        <path id="Trazado_228322" data-name="Trazado 228322" d="M279.113,86.813a11.857,11.857,0,0,1,12.074,11.921,11.991,11.991,0,0,1-12.028,12.277,12.259,12.259,0,0,1-12.166-12.242,12.051,12.051,0,0,1,12.12-11.956" transform="translate(-200.786 -39.014)" fill="#fff"/>
        <path id="Trazado_228323" data-name="Trazado 228323" d="M248.581,73.6a8.571,8.571,0,0,1-8.443,8.679,8.634,8.634,0,1,1,.126-17.268,8.525,8.525,0,0,1,8.317,8.59" transform="translate(-212.984 -46.521)" fill="#fff"/>
      </g>
      <g id="Grupo_217321" data-name="Grupo 217321" transform="translate(0 38.64)">
        <rect id="Rectángulo_304279" data-name="Rectángulo 304279" width="32.262" height="8.066" transform="translate(0 6.721)" fill="#0f2771"/>
        <path id="Trazado_228340" data-name="Trazado 228340" d="M163,101.508V80l21.508,10.754Z" transform="translate(-136.115 -80)" fill="#0f2771"/>
      </g>
      <g id="Grupo_217323" data-name="Grupo 217323" transform="translate(266.164 38.64)">
        <rect id="Rectángulo_304280" data-name="Rectángulo 304280" width="32.262" height="8.066" transform="translate(0 6.721)" fill="#0f2771"/>
        <path id="Trazado_228341" data-name="Trazado 228341" d="M361,101.508V80l21.508,10.754Z" transform="translate(-334.115 -80)" fill="#0f2771"/>
      </g>
    </g>
    <path id="Trazado_228315" data-name="Trazado 228315" d="M167.671,129.43V156.66c0,12.429-.059,24.858.044,37.286a7.611,7.611,0,0,1-3.246,6.533c-4.725,3.634-10.242,5.563-15.865,7.172-11.906,3.409-24.108,5.116-36.424,6.206A301.4,301.4,0,0,1,74.356,214.9c-19-.707-37.9-2.346-56.2-8a42.9,42.9,0,0,1-13.218-6.259A7.889,7.889,0,0,1,1.473,193.8c.082-20.692.043-41.384.043-62.077v-2.361a41,41,0,0,0,10.1,5.881c9.019,3.643,18.467,5.606,28.014,7.11a288.814,288.814,0,0,0,49.555,3.211c18.476-.286,36.856-1.721,54.886-6.061,7.051-1.7,14.007-3.764,20.227-7.688,1.058-.667,2.046-1.442,3.371-2.385" transform="translate(450.363 742.043)" fill="#4dd0e1"/>
    <path id="Trazado_228316" data-name="Trazado 228316" d="M85.677,149.163a275.8,275.8,0,0,1-49.063-3.7c-9.322-1.609-18.572-3.6-27.153-7.832a23.6,23.6,0,0,1-5.389-3.5c-3.422-3.062-3.385-6.184.125-9.176a31.938,31.938,0,0,1,9.461-5.253c9.128-3.51,18.658-5.42,28.286-6.829a296.922,296.922,0,0,1,52.194-2.784c16.775.516,33.473,1.981,49.826,6.022,6.446,1.594,12.836,3.455,18.543,7.053a15.233,15.233,0,0,1,3.585,2.9c2.158,2.535,2.1,4.955-.269,7.32-3.467,3.457-7.875,5.294-12.383,6.887-10.171,3.593-20.737,5.443-31.393,6.755a267.39,267.39,0,0,1-36.37,2.131" transform="translate(451.02 735.354)" fill="#4dd0e1"/>
    <g id="Grupo_217320" data-name="Grupo 217320" transform="translate(450.491 714.984)">
      <path id="Trazado_228324" data-name="Trazado 228324" d="M69.58,20.164H33.4a1.4,1.4,0,0,1-1.4-1.4V1.4A1.4,1.4,0,0,1,33.4,0H69.58a1.4,1.4,0,0,1,1.4,1.4V18.761a1.4,1.4,0,0,1-1.4,1.4" transform="translate(11.016)" fill="#4dd0e1"/>
      <path id="Trazado_228325" data-name="Trazado 228325" d="M101.58,20.164H65.4a1.4,1.4,0,0,1-1.4-1.4V1.4A1.4,1.4,0,0,1,65.4,0H101.58a1.4,1.4,0,0,1,1.4,1.4V18.761a1.4,1.4,0,0,1-1.4,1.4" transform="translate(22.033)" fill="#4dd0e1"/>
      <path id="Trazado_228326" data-name="Trazado 228326" d="M133.58,20.164H97.4a1.4,1.4,0,0,1-1.4-1.4V1.4A1.4,1.4,0,0,1,97.4,0H133.58a1.4,1.4,0,0,1,1.4,1.4V18.761a1.4,1.4,0,0,1-1.4,1.4" transform="translate(33.049)" fill="#4dd0e1"/>
      <path id="Trazado_228327" data-name="Trazado 228327" d="M37.58,20.164H1.4a1.4,1.4,0,0,1-1.4-1.4V1.4A1.4,1.4,0,0,1,1.4,0H37.58a1.4,1.4,0,0,1,1.4,1.4V18.761a1.4,1.4,0,0,1-1.4,1.4" fill="#4dd0e1"/>
      <path id="Trazado_228328" data-name="Trazado 228328" d="M69.58,38.164H33.4a1.4,1.4,0,0,1-1.4-1.4V19.4A1.4,1.4,0,0,1,33.4,18H69.58a1.4,1.4,0,0,1,1.4,1.4V36.761a1.4,1.4,0,0,1-1.4,1.4" transform="translate(11.016 6.197)" fill="#4dd0e1"/>
      <path id="Trazado_228329" data-name="Trazado 228329" d="M101.58,38.164H65.4a1.4,1.4,0,0,1-1.4-1.4V19.4A1.4,1.4,0,0,1,65.4,18H101.58a1.4,1.4,0,0,1,1.4,1.4V36.761a1.4,1.4,0,0,1-1.4,1.4" transform="translate(22.033 6.197)" fill="#4dd0e1"/>
      <path id="Trazado_228330" data-name="Trazado 228330" d="M133.58,38.164H97.4a1.4,1.4,0,0,1-1.4-1.4V19.4A1.4,1.4,0,0,1,97.4,18H133.58a1.4,1.4,0,0,1,1.4,1.4V36.761a1.4,1.4,0,0,1-1.4,1.4" transform="translate(33.049 6.197)" fill="#4dd0e1"/>
      <path id="Trazado_228331" data-name="Trazado 228331" d="M37.58,38.164H1.4a1.4,1.4,0,0,1-1.4-1.4V19.4A1.4,1.4,0,0,1,1.4,18H37.58a1.4,1.4,0,0,1,1.4,1.4V36.761a1.4,1.4,0,0,1-1.4,1.4" transform="translate(0 6.197)" fill="#4dd0e1"/>
      <path id="Trazado_228332" data-name="Trazado 228332" d="M69.58,56.164H33.4a1.4,1.4,0,0,1-1.4-1.4V37.4A1.4,1.4,0,0,1,33.4,36H69.58a1.4,1.4,0,0,1,1.4,1.4V54.761a1.4,1.4,0,0,1-1.4,1.4" transform="translate(11.016 12.393)" fill="#4dd0e1"/>
      <path id="Trazado_228333" data-name="Trazado 228333" d="M101.58,56.164H65.4a1.4,1.4,0,0,1-1.4-1.4V37.4A1.4,1.4,0,0,1,65.4,36H101.58a1.4,1.4,0,0,1,1.4,1.4V54.761a1.4,1.4,0,0,1-1.4,1.4" transform="translate(22.033 12.393)" fill="#4dd0e1"/>
      <path id="Trazado_228334" data-name="Trazado 228334" d="M133.58,56.164H97.4a1.4,1.4,0,0,1-1.4-1.4V37.4A1.4,1.4,0,0,1,97.4,36H133.58a1.4,1.4,0,0,1,1.4,1.4V54.761a1.4,1.4,0,0,1-1.4,1.4" transform="translate(33.049 12.393)" fill="#4dd0e1"/>
      <path id="Trazado_228335" data-name="Trazado 228335" d="M37.58,56.164H1.4a1.4,1.4,0,0,1-1.4-1.4V37.4A1.4,1.4,0,0,1,1.4,36H37.58a1.4,1.4,0,0,1,1.4,1.4V54.761a1.4,1.4,0,0,1-1.4,1.4" transform="translate(0 12.393)" fill="#4dd0e1"/>
      <path id="Trazado_228336" data-name="Trazado 228336" d="M69.58,74.164H33.4a1.4,1.4,0,0,1-1.4-1.4V55.4A1.4,1.4,0,0,1,33.4,54H69.58a1.4,1.4,0,0,1,1.4,1.4V72.761a1.4,1.4,0,0,1-1.4,1.4" transform="translate(11.016 18.59)" fill="#4dd0e1"/>
      <path id="Trazado_228337" data-name="Trazado 228337" d="M101.58,74.164H65.4a1.4,1.4,0,0,1-1.4-1.4V55.4A1.4,1.4,0,0,1,65.4,54H101.58a1.4,1.4,0,0,1,1.4,1.4V72.761a1.4,1.4,0,0,1-1.4,1.4" transform="translate(22.033 18.59)" fill="#4dd0e1"/>
      <path id="Trazado_228338" data-name="Trazado 228338" d="M133.58,74.164H97.4a1.4,1.4,0,0,1-1.4-1.4V55.4A1.4,1.4,0,0,1,97.4,54H133.58a1.4,1.4,0,0,1,1.4,1.4V72.761a1.4,1.4,0,0,1-1.4,1.4" transform="translate(33.049 18.59)" fill="#4dd0e1"/>
      <path id="Trazado_228339" data-name="Trazado 228339" d="M37.58,74.164H1.4a1.4,1.4,0,0,1-1.4-1.4V55.4A1.4,1.4,0,0,1,1.4,54H37.58a1.4,1.4,0,0,1,1.4,1.4V72.761a1.4,1.4,0,0,1-1.4,1.4" transform="translate(0 18.59)" fill="#4dd0e1"/>
    </g>
    <path id="Trazado_229925" data-name="Trazado 229925" d="M22.652,14.838H17.2l-.664,3.809h6.406L22.535,21H13.268L15.738,6.781h9.248l-.42,2.373H18.189l-.6,3.389h5.469Zm6.533-1.27L31.4,10.434h3.1L30.67,15.746,32.809,21H30.016l-1.3-3.3L26.383,21H23.268l3.984-5.527-2.041-5.039H28ZM39.654,7.836l-.459,2.6h1.758l-.361,2.07H38.834l-.9,5.293a1.346,1.346,0,0,0,.078.762q.137.264.664.283.156.01.84-.049l-.2,2.158a4.632,4.632,0,0,1-1.582.225,2.482,2.482,0,0,1-2.021-.85,3.07,3.07,0,0,1-.547-2.246L36.08,12.5H34.586l.361-2.07h1.494l.449-2.6Zm8.3,5.244a5.686,5.686,0,0,0-.928-.1,2.67,2.67,0,0,0-2.334,1.1L43.473,21H40.719l1.836-10.566,2.588-.01-.254,1.289a2.906,2.906,0,0,1,2.461-1.494,4.017,4.017,0,0,1,.957.137ZM53.717,21a2.851,2.851,0,0,1-.107-.957,3.579,3.579,0,0,1-2.7,1.152,3.243,3.243,0,0,1-2.3-.9,2.733,2.733,0,0,1-.854-2.183,3.159,3.159,0,0,1,1.45-2.651,6.583,6.583,0,0,1,3.706-.923l1.289.02.137-.635a2.2,2.2,0,0,0,.029-.615,1.058,1.058,0,0,0-.347-.718,1.194,1.194,0,0,0-.786-.269,1.682,1.682,0,0,0-1.094.317,1.538,1.538,0,0,0-.576.972l-2.764.01A3.072,3.072,0,0,1,50.2,11.161a5.389,5.389,0,0,1,3.267-.923,3.9,3.9,0,0,1,2.813,1.069,3.128,3.128,0,0,1,.85,2.651l-.811,5.059-.049.625a3.015,3.015,0,0,0,.166,1.172l-.01.186ZM51.6,19.057a2.522,2.522,0,0,0,2.08-1.035L54.02,16.2l-.957-.01a2.674,2.674,0,0,0-2.2.928,1.615,1.615,0,0,0-.3.791.937.937,0,0,0,.22.835A1.113,1.113,0,0,0,51.6,19.057ZM62.73,18.93A1.809,1.809,0,0,0,64,18.515a2.04,2.04,0,0,0,.664-1.157l2.588-.01a3.8,3.8,0,0,1-.7,2,4.242,4.242,0,0,1-1.68,1.387,4.808,4.808,0,0,1-2.212.469,3.9,3.9,0,0,1-3.047-1.328,4.956,4.956,0,0,1-1.084-3.457l.029-.537.01-.107a6.605,6.605,0,0,1,1.738-4.087,4.7,4.7,0,0,1,3.643-1.45,3.809,3.809,0,0,1,2.837,1.167,4.122,4.122,0,0,1,1.03,2.974H65.25a2.163,2.163,0,0,0-.371-1.338,1.41,1.41,0,0,0-1.113-.527q-1.973-.059-2.393,2.881a9.728,9.728,0,0,0-.107,1.8Q61.363,18.9,62.73,18.93ZM73.9,7.836l-.459,2.6H75.2L74.84,12.5H73.082l-.9,5.293a1.346,1.346,0,0,0,.078.762q.137.264.664.283.156.01.84-.049l-.2,2.158a4.632,4.632,0,0,1-1.582.225,2.482,2.482,0,0,1-2.021-.85,3.07,3.07,0,0,1-.547-2.246l.908-5.576H68.834l.361-2.07h1.494l.449-2.6Z" transform="translate(491 682)" fill="#12263f"/>
    <path id="Trazado_229926" data-name="Trazado 229926" d="M17.121,9.154H12.9L10.852,21H7.99L10.041,9.154H5.871l.42-2.373h11.25ZM23.2,13.08a5.686,5.686,0,0,0-.928-.1,2.67,2.67,0,0,0-2.334,1.1L18.713,21H15.959l1.836-10.566,2.588-.01-.254,1.289a2.906,2.906,0,0,1,2.461-1.494,4.017,4.017,0,0,1,.957.137ZM28.957,21a2.851,2.851,0,0,1-.107-.957,3.579,3.579,0,0,1-2.7,1.152,3.243,3.243,0,0,1-2.3-.9A2.733,2.733,0,0,1,23,18.109a3.159,3.159,0,0,1,1.45-2.651,6.583,6.583,0,0,1,3.706-.923l1.289.02.137-.635a2.2,2.2,0,0,0,.029-.615,1.058,1.058,0,0,0-.347-.718,1.194,1.194,0,0,0-.786-.269,1.682,1.682,0,0,0-1.094.317,1.538,1.538,0,0,0-.576.972l-2.764.01a3.072,3.072,0,0,1,1.392-2.456,5.389,5.389,0,0,1,3.267-.923,3.9,3.9,0,0,1,2.813,1.069,3.128,3.128,0,0,1,.85,2.651l-.811,5.059-.049.625a3.015,3.015,0,0,0,.166,1.172l-.01.186Zm-2.119-1.943a2.522,2.522,0,0,0,2.08-1.035L29.26,16.2l-.957-.01a2.674,2.674,0,0,0-2.2.928,1.615,1.615,0,0,0-.3.791.937.937,0,0,0,.22.835A1.113,1.113,0,0,0,26.838,19.057ZM37.7,10.424l-.234,1.25a3.8,3.8,0,0,1,3.076-1.436,2.535,2.535,0,0,1,2.207,1.094,4.407,4.407,0,0,1,.518,2.949L42.15,21H39.4l1.133-6.748a3.16,3.16,0,0,0,.02-.693,1.118,1.118,0,0,0-1.25-1.025,2.37,2.37,0,0,0-1.943,1.006L36.037,21H33.283l1.836-10.566Zm12.734,7.6q.156-.781-1.084-1.133l-.889-.225Q45.3,15.795,45.393,13.6a3.035,3.035,0,0,1,1.323-2.437,4.927,4.927,0,0,1,3.071-.923,4.42,4.42,0,0,1,2.891.947A3.121,3.121,0,0,1,53.8,13.656l-2.734-.01a1.2,1.2,0,0,0-1.348-1.377,1.939,1.939,0,0,0-1.118.322,1.327,1.327,0,0,0-.581.869q-.146.781,1.182,1.1l.391.088a7.856,7.856,0,0,1,2.061.737,3.11,3.11,0,0,1,1.1,1.03,2.55,2.55,0,0,1,.356,1.475,2.814,2.814,0,0,1-.649,1.758,3.975,3.975,0,0,1-1.7,1.162,5.92,5.92,0,0,1-2.271.381,4.461,4.461,0,0,1-2.93-1.011,3.259,3.259,0,0,1-1.191-2.563l2.6.02a1.428,1.428,0,0,0,1.621,1.533,2.306,2.306,0,0,0,1.255-.312A1.234,1.234,0,0,0,50.432,18.021ZM55.119,21l1.475-8.506H55.07l.361-2.061,1.523-.01.137-1.055a4.165,4.165,0,0,1,1.377-2.651,4.167,4.167,0,0,1,2.861-.942,9.162,9.162,0,0,1,1.494.2L62.58,8.168a3.415,3.415,0,0,0-.811-.117,2.019,2.019,0,0,0-1.255.373,1.694,1.694,0,0,0-.649,1.147l-.146.863H61.76L61.4,12.494H59.367L57.893,21ZM67.473,10.238a4.238,4.238,0,0,1,2.407.718,4.042,4.042,0,0,1,1.484,1.924A5.952,5.952,0,0,1,71.7,15.6a6.429,6.429,0,0,1-1.753,4.077A4.95,4.95,0,0,1,66.174,21.2a4.225,4.225,0,0,1-2.383-.708,4.027,4.027,0,0,1-1.484-1.909,5.821,5.821,0,0,1-.342-2.7,6.619,6.619,0,0,1,1.777-4.16A4.847,4.847,0,0,1,67.473,10.238Zm-2.783,6.644a2.438,2.438,0,0,0,.439,1.477,1.46,1.46,0,0,0,1.182.561A2.141,2.141,0,0,0,68.3,17.755a5.808,5.808,0,0,0,.674-3.164,2.652,2.652,0,0,0-.454-1.5,1.436,1.436,0,0,0-1.187-.58,2.143,2.143,0,0,0-1.968,1.155A5.748,5.748,0,0,0,64.689,16.882Zm15.039-3.8a5.686,5.686,0,0,0-.928-.1,2.67,2.67,0,0,0-2.334,1.1L75.246,21H72.492l1.836-10.566,2.588-.01-.254,1.289a2.906,2.906,0,0,1,2.461-1.494,4.017,4.017,0,0,1,.957.137Zm4.336-2.656-.225,1.2a3.89,3.89,0,0,1,3.1-1.387,2.973,2.973,0,0,1,1.621.449,2.1,2.1,0,0,1,.869,1.162,4.069,4.069,0,0,1,3.281-1.611,2.657,2.657,0,0,1,2.192,1,4.089,4.089,0,0,1,.62,2.793l-.02.244L94.377,21H91.613l1.123-6.756a4.886,4.886,0,0,0,.029-.675,1.046,1.046,0,0,0-1.172-1.056,2.325,2.325,0,0,0-1.943,1.212l-.029.225L88.391,21H85.637l1.123-6.729a4.874,4.874,0,0,0,.029-.674,1.045,1.045,0,0,0-1.162-1.064,2.334,2.334,0,0,0-1.885.986L82.424,21H79.67L81.5,10.434Z" transform="translate(749 682)" fill="#12263f"/>
    <path id="Trazado_229929" data-name="Trazado 229929" d="M17.286,19,19.509,6.2l3.322.009a4.613,4.613,0,0,1,2.694.782,4.314,4.314,0,0,1,1.622,2.158,6.707,6.707,0,0,1,.29,3.081l-.088.642a7.236,7.236,0,0,1-2.171,4.46A6.313,6.313,0,0,1,20.7,19Zm3.63-11.417-1.74,10.028,1.626.009a4.569,4.569,0,0,0,3.16-1.16,5.507,5.507,0,0,0,1.683-3.182,10.352,10.352,0,0,0,.211-2.751A3.35,3.35,0,0,0,24.95,8.4a2.931,2.931,0,0,0-2.074-.8ZM34.4,19a2.13,2.13,0,0,1-.062-.5l.026-.5a3.9,3.9,0,0,1-2.777,1.178,2.841,2.841,0,0,1-2.043-.8,2.407,2.407,0,0,1-.716-1.947,2.927,2.927,0,0,1,1.323-2.36,5.631,5.631,0,0,1,3.248-.848l1.661.009.105-.756a1.738,1.738,0,0,0-.33-1.349,1.591,1.591,0,0,0-1.252-.514,2.453,2.453,0,0,0-1.446.4,1.7,1.7,0,0,0-.769,1.1l-1.6.009a2.55,2.55,0,0,1,.65-1.481,3.784,3.784,0,0,1,1.468-1,4.742,4.742,0,0,1,1.854-.338,3.153,3.153,0,0,1,2.312.9,2.794,2.794,0,0,1,.694,2.3l-.773,4.711-.044.677a3.318,3.318,0,0,0,.105.958L36.015,19Zm-2.5-1.23a2.774,2.774,0,0,0,1.446-.365,3.661,3.661,0,0,0,1.173-1.059l.343-1.96-1.2-.009a4.561,4.561,0,0,0-2.3.475,1.748,1.748,0,0,0-.905,1.345,1.361,1.361,0,0,0,.312,1.112A1.486,1.486,0,0,0,31.9,17.77ZM42.37,7.188l-.4,2.3H43.7l-.22,1.257H41.754l-.993,5.915a2.062,2.062,0,0,0-.009.422.67.67,0,0,0,.747.686,4.556,4.556,0,0,0,.773-.088l-.123,1.327a4.328,4.328,0,0,1-1.16.158,1.661,1.661,0,0,1-1.424-.7,2.7,2.7,0,0,1-.369-1.833l.967-5.889H38.485L38.7,9.49h1.679l.4-2.3ZM49.779,19a2.13,2.13,0,0,1-.062-.5l.026-.5a3.9,3.9,0,0,1-2.777,1.178,2.841,2.841,0,0,1-2.043-.8,2.407,2.407,0,0,1-.716-1.947,2.927,2.927,0,0,1,1.323-2.36,5.631,5.631,0,0,1,3.248-.848l1.661.009.105-.756a1.738,1.738,0,0,0-.33-1.349,1.591,1.591,0,0,0-1.252-.514,2.453,2.453,0,0,0-1.446.4,1.7,1.7,0,0,0-.769,1.1l-1.6.009a2.55,2.55,0,0,1,.65-1.481,3.784,3.784,0,0,1,1.468-1,4.742,4.742,0,0,1,1.854-.338,3.153,3.153,0,0,1,2.312.9,2.794,2.794,0,0,1,.694,2.3l-.773,4.711-.044.677a3.318,3.318,0,0,0,.105.958L51.4,19Zm-2.5-1.23a2.774,2.774,0,0,0,1.446-.365A3.661,3.661,0,0,0,49.9,16.346l.343-1.96-1.2-.009a4.561,4.561,0,0,0-2.3.475,1.748,1.748,0,0,0-.905,1.345,1.361,1.361,0,0,0,.312,1.112A1.486,1.486,0,0,0,47.283,17.77ZM63.85,16.425q.132-.984-1.081-1.389l-1.652-.483q-2.092-.721-2.021-2.391A2.634,2.634,0,0,1,60.242,10.1,4.085,4.085,0,0,1,62.8,9.314a3.406,3.406,0,0,1,2.342.839A2.659,2.659,0,0,1,66,12.294l-1.582-.009a1.484,1.484,0,0,0-.448-1.16,1.774,1.774,0,0,0-1.239-.466,2.316,2.316,0,0,0-1.424.4,1.48,1.48,0,0,0-.642,1.037q-.114.826,1.011,1.2l.8.22a5.15,5.15,0,0,1,2.32,1.1,2.1,2.1,0,0,1,.633,1.679,2.666,2.666,0,0,1-.58,1.547,3.317,3.317,0,0,1-1.406,1.006,4.7,4.7,0,0,1-1.872.321,3.71,3.71,0,0,1-2.5-.883,2.731,2.731,0,0,1-.949-2.228l1.591.009a1.686,1.686,0,0,0,.51,1.283,1.948,1.948,0,0,0,1.4.483,2.741,2.741,0,0,0,1.5-.365A1.4,1.4,0,0,0,63.85,16.425Zm8.481-7.11a3.428,3.428,0,0,1,2.048.65,3.7,3.7,0,0,1,1.261,1.745,5.4,5.4,0,0,1,.277,2.43l-.018.193a6.4,6.4,0,0,1-.826,2.509,4.848,4.848,0,0,1-1.705,1.745,4.158,4.158,0,0,1-2.294.589,3.434,3.434,0,0,1-2.043-.65A3.611,3.611,0,0,1,67.779,16.8a5.547,5.547,0,0,1-.281-2.4,6.48,6.48,0,0,1,.8-2.654,4.96,4.96,0,0,1,1.718-1.824A4.109,4.109,0,0,1,72.332,9.314Zm-3.234,5.1a5.4,5.4,0,0,0,0,1.151,2.821,2.821,0,0,0,.62,1.652,1.86,1.86,0,0,0,1.419.642,2.534,2.534,0,0,0,1.459-.391,3.284,3.284,0,0,0,1.125-1.261,5.311,5.311,0,0,0,.589-1.872,8.431,8.431,0,0,0,.026-1.362,2.927,2.927,0,0,0-.642-1.679,1.9,1.9,0,0,0-1.424-.65,2.592,2.592,0,0,0-2.092.967,4.776,4.776,0,0,0-1.063,2.6ZM83.133,18.06a3.673,3.673,0,0,1-2.839,1.116,2.37,2.37,0,0,1-2.017-.976,3.731,3.731,0,0,1-.488-2.566l1.02-6.144H80.4l-1.028,6.17a4.1,4.1,0,0,0-.018.756,1.573,1.573,0,0,0,.378.993,1.29,1.29,0,0,0,.932.387,2.854,2.854,0,0,0,2.637-1.38L84.5,9.49h1.591L84.434,19h-1.5Zm9.589-7.119-.747-.079a2.722,2.722,0,0,0-2.408,1.38L88.4,19H86.807l1.652-9.51L90,9.481l-.237,1.107A2.843,2.843,0,0,1,92.142,9.3a2.918,2.918,0,0,1,.756.132Zm3.929,6.917a2.413,2.413,0,0,0,1.538-.5,2.362,2.362,0,0,0,.9-1.349l1.5-.009a3.391,3.391,0,0,1-.716,1.635,4.14,4.14,0,0,1-3.292,1.538,3.394,3.394,0,0,1-2.008-.62,3.469,3.469,0,0,1-1.208-1.679,5.593,5.593,0,0,1-.264-2.421l.044-.439a6.306,6.306,0,0,1,.8-2.452A4.624,4.624,0,0,1,95.6,9.881a4.1,4.1,0,0,1,2.25-.567,3.214,3.214,0,0,1,2.391,1,3.465,3.465,0,0,1,.9,2.452l-1.485-.009a2.283,2.283,0,0,0-.519-1.507,1.808,1.808,0,0,0-1.354-.611,2.536,2.536,0,0,0-2.061.923,4.834,4.834,0,0,0-1.024,2.654l-.026.229a7.623,7.623,0,0,0-.018,1.16,2.65,2.65,0,0,0,.58,1.626A1.863,1.863,0,0,0,96.651,17.857Zm9.325,1.318a3.429,3.429,0,0,1-2.777-1.31,4.507,4.507,0,0,1-.844-3.261l.044-.378a6.327,6.327,0,0,1,.839-2.584,4.882,4.882,0,0,1,1.683-1.762,3.927,3.927,0,0,1,2.145-.567,3.024,3.024,0,0,1,2.3.976,4.012,4.012,0,0,1,.914,2.549,7.448,7.448,0,0,1-.035,1.143l-.1.729h-6.214a3.212,3.212,0,0,0,.426,2.2,2.019,2.019,0,0,0,1.745.94,3.383,3.383,0,0,0,2.6-1.266l.914.773a4.183,4.183,0,0,1-1.542,1.349A4.371,4.371,0,0,1,105.976,19.176Zm1.011-8.534a2.324,2.324,0,0,0-1.718.668,4.748,4.748,0,0,0-1.165,2.065l4.623.009.035-.141a2.6,2.6,0,0,0-.356-1.841A1.674,1.674,0,0,0,106.987,10.642ZM120.645,19h-1.6l1.881-10.793-3.4,1.2.272-1.547,4.746-1.714h.281Z" transform="translate(464 812)" fill="#12263f"/>
    <path id="Trazado_229931" data-name="Trazado 229931" d="M21.614,7.583H17.633L15.655,19H14.012L15.989,7.583H12.008l.246-1.38H21.86Zm4.948,3.357-.747-.079a2.722,2.722,0,0,0-2.408,1.38L22.238,19H20.647L22.3,9.49l1.538-.009L23.6,10.589A2.843,2.843,0,0,1,25.982,9.3a2.918,2.918,0,0,1,.756.132ZM32.108,19a2.13,2.13,0,0,1-.062-.5l.026-.5A3.9,3.9,0,0,1,29.3,19.176a2.841,2.841,0,0,1-2.043-.8,2.407,2.407,0,0,1-.716-1.947,2.927,2.927,0,0,1,1.323-2.36,5.631,5.631,0,0,1,3.248-.848l1.661.009.105-.756a1.738,1.738,0,0,0-.33-1.349,1.591,1.591,0,0,0-1.252-.514,2.453,2.453,0,0,0-1.446.4,1.7,1.7,0,0,0-.769,1.1l-1.6.009a2.55,2.55,0,0,1,.65-1.481,3.784,3.784,0,0,1,1.468-1,4.742,4.742,0,0,1,1.854-.338,3.153,3.153,0,0,1,2.312.9,2.794,2.794,0,0,1,.694,2.3l-.773,4.711-.044.677a3.318,3.318,0,0,0,.105.958L33.726,19Zm-2.5-1.23a2.774,2.774,0,0,0,1.446-.365,3.661,3.661,0,0,0,1.173-1.059l.343-1.96-1.2-.009a4.561,4.561,0,0,0-2.3.475,1.748,1.748,0,0,0-.905,1.345,1.361,1.361,0,0,0,.312,1.112A1.486,1.486,0,0,0,29.612,17.77Zm9.422-8.288-.229,1.2a3.749,3.749,0,0,1,2.918-1.371,2.359,2.359,0,0,1,1.986.932,3.619,3.619,0,0,1,.475,2.522L43.147,19H41.557L42.6,12.749a3.332,3.332,0,0,0,.009-.8,1.314,1.314,0,0,0-1.45-1.255,2.994,2.994,0,0,0-2.514,1.528L37.47,19H35.879l1.652-9.51Zm12.454,6.943q.132-.984-1.081-1.389l-1.652-.483q-2.092-.721-2.021-2.391A2.634,2.634,0,0,1,47.88,10.1a4.085,4.085,0,0,1,2.553-.787,3.406,3.406,0,0,1,2.342.839,2.659,2.659,0,0,1,.866,2.14l-1.582-.009a1.484,1.484,0,0,0-.448-1.16,1.774,1.774,0,0,0-1.239-.466,2.316,2.316,0,0,0-1.424.4,1.48,1.48,0,0,0-.642,1.037q-.114.826,1.011,1.2l.8.22a5.15,5.15,0,0,1,2.32,1.1A2.1,2.1,0,0,1,53.07,16.3a2.666,2.666,0,0,1-.58,1.547,3.317,3.317,0,0,1-1.406,1.006,4.7,4.7,0,0,1-1.872.321,3.71,3.71,0,0,1-2.5-.883,2.731,2.731,0,0,1-.949-2.228l1.591.009a1.686,1.686,0,0,0,.51,1.283,1.948,1.948,0,0,0,1.4.483,2.741,2.741,0,0,0,1.5-.365A1.4,1.4,0,0,0,51.488,16.425ZM55.461,19,56.9,10.747H55.435l.22-1.257h1.459l.158-1.125a3.733,3.733,0,0,1,1.107-2.241A3.292,3.292,0,0,1,60.734,5.3a5.5,5.5,0,0,1,1.134.15l-.193,1.335a5.216,5.216,0,0,0-.853-.105,1.816,1.816,0,0,0-1.34.513,2.333,2.333,0,0,0-.637,1.362L58.7,9.49h1.969l-.22,1.257H58.484L57.052,19ZM66.122,9.314a3.428,3.428,0,0,1,2.048.65,3.7,3.7,0,0,1,1.261,1.745,5.4,5.4,0,0,1,.277,2.43l-.018.193a6.4,6.4,0,0,1-.826,2.509,4.848,4.848,0,0,1-1.705,1.745,4.158,4.158,0,0,1-2.294.589,3.434,3.434,0,0,1-2.043-.65A3.611,3.611,0,0,1,61.569,16.8a5.547,5.547,0,0,1-.281-2.4,6.48,6.48,0,0,1,.8-2.654,4.96,4.96,0,0,1,1.718-1.824A4.109,4.109,0,0,1,66.122,9.314Zm-3.234,5.1a5.4,5.4,0,0,0,0,1.151,2.821,2.821,0,0,0,.62,1.652,1.86,1.86,0,0,0,1.419.642,2.534,2.534,0,0,0,1.459-.391,3.284,3.284,0,0,0,1.125-1.261,5.311,5.311,0,0,0,.589-1.872,8.431,8.431,0,0,0,.026-1.362,2.927,2.927,0,0,0-.642-1.679,1.9,1.9,0,0,0-1.424-.65,2.592,2.592,0,0,0-2.092.967,4.776,4.776,0,0,0-1.063,2.6ZM76.8,10.94l-.747-.079a2.722,2.722,0,0,0-2.408,1.38L72.477,19H70.886l1.652-9.51,1.538-.009-.237,1.107A2.843,2.843,0,0,1,76.221,9.3a2.918,2.918,0,0,1,.756.132Zm3.217-1.459-.2,1.063a3.718,3.718,0,0,1,2.892-1.23,2.934,2.934,0,0,1,1.534.413,2.026,2.026,0,0,1,.866,1.116,3.927,3.927,0,0,1,3.155-1.529,2.515,2.515,0,0,1,2.1.958,3.422,3.422,0,0,1,.5,2.479L89.817,19H88.235l1.037-6.267a3.311,3.311,0,0,0,0-.835q-.167-1.2-1.564-1.222a2.4,2.4,0,0,0-1.578.541,2.5,2.5,0,0,0-.91,1.463L84.14,19h-1.6l1.055-6.258a2.009,2.009,0,0,0-.294-1.5,1.549,1.549,0,0,0-1.27-.545,2.6,2.6,0,0,0-2.364,1.354L78.462,19H76.871l1.652-9.51ZM98.088,19a2.13,2.13,0,0,1-.062-.5l.026-.5a3.9,3.9,0,0,1-2.777,1.178,2.841,2.841,0,0,1-2.043-.8,2.407,2.407,0,0,1-.716-1.947,2.927,2.927,0,0,1,1.323-2.36,5.631,5.631,0,0,1,3.248-.848l1.661.009.105-.756a1.738,1.738,0,0,0-.33-1.349,1.591,1.591,0,0,0-1.252-.514,2.453,2.453,0,0,0-1.446.4,1.7,1.7,0,0,0-.769,1.1l-1.6.009a2.55,2.55,0,0,1,.65-1.481,3.784,3.784,0,0,1,1.468-1,4.742,4.742,0,0,1,1.854-.338,3.153,3.153,0,0,1,2.312.9,2.794,2.794,0,0,1,.694,2.3l-.773,4.711-.044.677a3.318,3.318,0,0,0,.105.958L99.705,19Zm-2.5-1.23a2.774,2.774,0,0,0,1.446-.365,3.661,3.661,0,0,0,1.173-1.059l.343-1.96-1.2-.009a4.561,4.561,0,0,0-2.3.475,1.748,1.748,0,0,0-.905,1.345,1.361,1.361,0,0,0,.312,1.112A1.486,1.486,0,0,0,95.592,17.77ZM106.06,7.188l-.4,2.3h1.731l-.22,1.257h-1.723l-.993,5.915a2.062,2.062,0,0,0-.009.422.67.67,0,0,0,.747.686,4.556,4.556,0,0,0,.773-.088l-.123,1.327a4.328,4.328,0,0,1-1.16.158,1.661,1.661,0,0,1-1.424-.7,2.7,2.7,0,0,1-.369-1.833l.967-5.889h-1.679l.22-1.257h1.679l.4-2.3ZM109.373,19h-1.582l1.652-9.51h1.582Zm1.31-12.981a.87.87,0,0,1,.672.242.9.9,0,0,1,.268.681.938.938,0,0,1-.94.958.876.876,0,0,1-.677-.237.86.86,0,0,1-.255-.668,1,1,0,0,1,.264-.686A.93.93,0,0,1,110.683,6.019Zm6.574,3.3a3.428,3.428,0,0,1,2.048.65,3.7,3.7,0,0,1,1.261,1.745,5.4,5.4,0,0,1,.277,2.43l-.018.193A6.4,6.4,0,0,1,120,16.842a4.848,4.848,0,0,1-1.705,1.745,4.158,4.158,0,0,1-2.294.589,3.434,3.434,0,0,1-2.043-.65A3.611,3.611,0,0,1,112.7,16.8a5.547,5.547,0,0,1-.281-2.4,6.48,6.48,0,0,1,.8-2.654,4.96,4.96,0,0,1,1.718-1.824A4.109,4.109,0,0,1,117.257,9.314Zm-3.234,5.1a5.4,5.4,0,0,0,0,1.151,2.821,2.821,0,0,0,.62,1.652,1.86,1.86,0,0,0,1.419.642,2.534,2.534,0,0,0,1.459-.391,3.284,3.284,0,0,0,1.125-1.261,5.311,5.311,0,0,0,.589-1.872,8.431,8.431,0,0,0,.026-1.362,2.927,2.927,0,0,0-.642-1.679,1.9,1.9,0,0,0-1.424-.65,2.592,2.592,0,0,0-2.092.967,4.776,4.776,0,0,0-1.063,2.6Zm11.153-4.931-.229,1.2a3.749,3.749,0,0,1,2.918-1.371,2.359,2.359,0,0,1,1.986.932,3.619,3.619,0,0,1,.475,2.522L129.289,19H127.7l1.046-6.251a3.332,3.332,0,0,0,.009-.8,1.314,1.314,0,0,0-1.45-1.255,2.994,2.994,0,0,0-2.514,1.528L123.611,19h-1.591l1.652-9.51ZM49.225,35.176a3.429,3.429,0,0,1-2.777-1.31,4.507,4.507,0,0,1-.844-3.261l.044-.378a6.327,6.327,0,0,1,.839-2.584,4.882,4.882,0,0,1,1.683-1.762,3.927,3.927,0,0,1,2.145-.567,3.024,3.024,0,0,1,2.3.976,4.012,4.012,0,0,1,.914,2.549,7.448,7.448,0,0,1-.035,1.143l-.1.729H47.186a3.212,3.212,0,0,0,.426,2.2,2.019,2.019,0,0,0,1.745.94,3.383,3.383,0,0,0,2.6-1.266l.914.773a4.183,4.183,0,0,1-1.542,1.349A4.371,4.371,0,0,1,49.225,35.176Zm1.011-8.534a2.324,2.324,0,0,0-1.718.668,4.748,4.748,0,0,0-1.165,2.065l4.623.009.035-.141a2.6,2.6,0,0,0-.356-1.841A1.674,1.674,0,0,0,50.236,26.642Zm7.365-1.16-.229,1.2a3.749,3.749,0,0,1,2.918-1.371,2.359,2.359,0,0,1,1.986.932,3.619,3.619,0,0,1,.475,2.522L61.714,35H60.124l1.046-6.251a3.332,3.332,0,0,0,.009-.8,1.314,1.314,0,0,0-1.45-1.255,2.994,2.994,0,0,0-2.514,1.528L56.037,35H54.446L56.1,25.49Zm7.031,4.746a7.75,7.75,0,0,1,.839-2.7A4.39,4.39,0,0,1,67,25.829a3.545,3.545,0,0,1,1.973-.523,2.926,2.926,0,0,1,2.5,1.248l.316-1.063h1.459L71.664,34.8a4.627,4.627,0,0,1-1.477,2.914,4.159,4.159,0,0,1-3.015,1.042,4.281,4.281,0,0,1-1.85-.457,3.518,3.518,0,0,1-1.393-1.2l.905-.976a2.853,2.853,0,0,0,4.2.677,3.265,3.265,0,0,0,1.042-1.9l.176-.844a3.6,3.6,0,0,1-2.716,1.125A2.8,2.8,0,0,1,65.99,34.7a2.913,2.913,0,0,1-1.015-1.31,5.354,5.354,0,0,1-.4-1.912A9.825,9.825,0,0,1,64.632,30.228Zm1.538.9a3.345,3.345,0,0,0,.435,1.944A1.644,1.644,0,0,0,68,33.8a2.881,2.881,0,0,0,2.452-1.4l.747-4.363a2,2,0,0,0-1.907-1.352,2.468,2.468,0,0,0-2.123,1.053,5.488,5.488,0,0,0-.98,2.941ZM75.777,35H74.195l1.652-9.51h1.582Zm1.31-12.981a.87.87,0,0,1,.672.242.9.9,0,0,1,.268.681.938.938,0,0,1-.94.958.876.876,0,0,1-.677-.237.86.86,0,0,1-.255-.668,1,1,0,0,1,.264-.686A.93.93,0,0,1,77.086,22.019Zm4.447,3.463-.229,1.2a3.749,3.749,0,0,1,2.918-1.371,2.359,2.359,0,0,1,1.986.932,3.619,3.619,0,0,1,.475,2.522L85.647,35H84.056L85.1,28.749a3.332,3.332,0,0,0,.009-.8,1.314,1.314,0,0,0-1.45-1.255,2.994,2.994,0,0,0-2.514,1.528L79.969,35H78.378l1.652-9.51Zm10.679,9.694a3.429,3.429,0,0,1-2.777-1.31,4.507,4.507,0,0,1-.844-3.261l.044-.378a6.327,6.327,0,0,1,.839-2.584,4.882,4.882,0,0,1,1.683-1.762,3.927,3.927,0,0,1,2.145-.567,3.024,3.024,0,0,1,2.3.976,4.012,4.012,0,0,1,.914,2.549,7.448,7.448,0,0,1-.035,1.143l-.1.729H90.173a3.212,3.212,0,0,0,.426,2.2,2.019,2.019,0,0,0,1.745.94,3.383,3.383,0,0,0,2.6-1.266l.914.773a4.183,4.183,0,0,1-1.542,1.349A4.371,4.371,0,0,1,92.212,35.176Zm1.011-8.534a2.324,2.324,0,0,0-1.718.668,4.748,4.748,0,0,0-1.165,2.065l4.623.009L95,29.243a2.6,2.6,0,0,0-.356-1.841A1.674,1.674,0,0,0,93.223,26.642Z" transform="translate(730 900)" fill="#12263f"/>
    <path id="Trazado_228344" data-name="Trazado 228344" d="M563.268,45.205v2.514q0,57.949.058,115.9a8.7,8.7,0,0,1-4.053,7.781c-5.271,3.666-11.264,5.611-17.376,7.235a195.054,195.054,0,0,1-31.7,5.349,295.934,295.934,0,0,1-33.17,1.434c-19.211-.328-38.337-1.641-57.065-6.357-5.731-1.442-11.382-3.154-16.56-6.114a20.975,20.975,0,0,1-4.1-2.906,6.523,6.523,0,0,1-2.227-4.966q.046-58.957.031-117.913a1.84,1.84,0,0,1,.336-1.507,38.013,38.013,0,0,0,10.768,6A130.547,130.547,0,0,0,435.7,58.431a294.491,294.491,0,0,0,36.685,3,316.379,316.379,0,0,0,44.994-2.061,153.565,153.565,0,0,0,32.589-6.95,38.636,38.636,0,0,0,13.3-7.213" transform="translate(587.191 723.825)" fill="#4dd0e1"/>
    <path id="Trazado_228345" data-name="Trazado 228345" d="M480.277,25.947c19.909.1,39.7,1.42,59.123,6.115,6.466,1.562,12.851,3.424,18.566,7a13.2,13.2,0,0,1,4.111,3.5c1.547,2.245,1.522,4.12-.276,6.235-2.883,3.393-6.853,5.11-10.87,6.661-9.189,3.552-18.8,5.42-28.5,6.833a294.872,294.872,0,0,1-51.817,2.738c-17.25-.54-34.421-2.014-51.208-6.368-6.049-1.569-12.01-3.413-17.365-6.784a15.059,15.059,0,0,1-3.4-2.812c-2.092-2.4-2.074-4.868.144-7.17,3.461-3.593,7.945-5.435,12.523-7.035,9.607-3.355,19.556-5.174,29.618-6.491a295.651,295.651,0,0,1,39.357-2.43" transform="translate(587.194 717.195)" fill="#4dd0e1"/>
    <path id="Trazado_229927" data-name="Trazado 229927" d="M32.38,18.646h6.035L38,21h-8.9L31.579,6.781H34.44Zm13.2-8.408a4.238,4.238,0,0,1,2.407.718,4.042,4.042,0,0,1,1.484,1.924,5.952,5.952,0,0,1,.337,2.72,6.429,6.429,0,0,1-1.753,4.077A4.95,4.95,0,0,1,44.284,21.2a4.225,4.225,0,0,1-2.383-.708,4.027,4.027,0,0,1-1.484-1.909,5.821,5.821,0,0,1-.342-2.7,6.619,6.619,0,0,1,1.777-4.16A4.847,4.847,0,0,1,45.583,10.238ZM42.8,16.882a2.438,2.438,0,0,0,.439,1.477,1.46,1.46,0,0,0,1.182.561,2.141,2.141,0,0,0,1.992-1.165,5.808,5.808,0,0,0,.674-3.164,2.652,2.652,0,0,0-.454-1.5,1.436,1.436,0,0,0-1.187-.58,2.143,2.143,0,0,0-1.968,1.155A5.748,5.748,0,0,0,42.8,16.882ZM56.716,21a2.851,2.851,0,0,1-.107-.957,3.579,3.579,0,0,1-2.7,1.152,3.243,3.243,0,0,1-2.3-.9,2.733,2.733,0,0,1-.854-2.183,3.159,3.159,0,0,1,1.45-2.651,6.583,6.583,0,0,1,3.706-.923l1.289.02.137-.635a2.2,2.2,0,0,0,.029-.615,1.058,1.058,0,0,0-.347-.718,1.194,1.194,0,0,0-.786-.269,1.682,1.682,0,0,0-1.094.317,1.538,1.538,0,0,0-.576.972l-2.764.01A3.072,3.072,0,0,1,53.2,11.161a5.389,5.389,0,0,1,3.267-.923,3.9,3.9,0,0,1,2.813,1.069,3.128,3.128,0,0,1,.85,2.651l-.811,5.059-.049.625a3.015,3.015,0,0,0,.166,1.172l-.01.186ZM54.6,19.057a2.522,2.522,0,0,0,2.08-1.035l.342-1.826-.957-.01a2.674,2.674,0,0,0-2.2.928,1.615,1.615,0,0,0-.3.791.937.937,0,0,0,.22.835A1.113,1.113,0,0,0,54.6,19.057Zm11.748-8.828a3.007,3.007,0,0,1,2.383,1.182L69.763,6h2.764l-2.6,15H67.468l.156-1.133a3.42,3.42,0,0,1-2.754,1.338,3.042,3.042,0,0,1-1.729-.518,3.259,3.259,0,0,1-1.147-1.46A5.88,5.88,0,0,1,61.55,17.1a8,8,0,0,1,.029-1.191l.059-.439a8.458,8.458,0,0,1,.9-2.852,4.708,4.708,0,0,1,1.641-1.826A3.868,3.868,0,0,1,66.345,10.229Zm-2,5.684a7.908,7.908,0,0,0-.049,1.25q.1,1.719,1.387,1.748A2.357,2.357,0,0,0,67.7,17.816l.752-4.2a1.56,1.56,0,0,0-1.523-1.094,2.007,2.007,0,0,0-1.675.776A5.22,5.22,0,0,0,64.343,15.912Z" transform="translate(1017 682)" fill="#12263f"/>
    <path id="Trazado_229928" data-name="Trazado 229928" d="M57.03,7.583H53.048L51.071,19H49.427L51.4,7.583H47.423l.246-1.38h9.606ZM61.547,19a2.13,2.13,0,0,1-.062-.5l.026-.5a3.9,3.9,0,0,1-2.777,1.178,2.841,2.841,0,0,1-2.043-.8,2.407,2.407,0,0,1-.716-1.947,2.927,2.927,0,0,1,1.323-2.36,5.631,5.631,0,0,1,3.248-.848l1.661.009.105-.756a1.738,1.738,0,0,0-.33-1.349,1.591,1.591,0,0,0-1.252-.514,2.453,2.453,0,0,0-1.446.4,1.7,1.7,0,0,0-.769,1.1l-1.6.009a2.55,2.55,0,0,1,.65-1.481,3.784,3.784,0,0,1,1.468-1,4.742,4.742,0,0,1,1.854-.338,3.153,3.153,0,0,1,2.312.9,2.794,2.794,0,0,1,.694,2.3l-.773,4.711-.044.677a3.318,3.318,0,0,0,.105.958L63.165,19Zm-2.5-1.23A2.774,2.774,0,0,0,60.5,17.4a3.661,3.661,0,0,0,1.173-1.059l.343-1.96-1.2-.009a4.561,4.561,0,0,0-2.3.475A1.748,1.748,0,0,0,57.6,16.2a1.361,1.361,0,0,0,.312,1.112A1.486,1.486,0,0,0,59.051,17.77ZM71.233,10.94l-.747-.079a2.722,2.722,0,0,0-2.408,1.38L66.909,19H65.318L66.97,9.49l1.538-.009-.237,1.107A2.843,2.843,0,0,1,70.653,9.3a2.918,2.918,0,0,1,.756.132Zm.545,3.287a7.75,7.75,0,0,1,.839-2.7,4.39,4.39,0,0,1,1.529-1.7,3.545,3.545,0,0,1,1.973-.523,2.926,2.926,0,0,1,2.5,1.248l.316-1.063h1.459L78.809,18.8a4.627,4.627,0,0,1-1.477,2.914,4.159,4.159,0,0,1-3.015,1.042,4.281,4.281,0,0,1-1.85-.457,3.518,3.518,0,0,1-1.393-1.2l.905-.976a2.853,2.853,0,0,0,4.2.677,3.265,3.265,0,0,0,1.042-1.9l.176-.844a3.6,3.6,0,0,1-2.716,1.125,2.8,2.8,0,0,1-1.542-.479,2.913,2.913,0,0,1-1.015-1.31,5.354,5.354,0,0,1-.4-1.912A9.825,9.825,0,0,1,71.778,14.228Zm1.538.9a3.345,3.345,0,0,0,.435,1.944,1.644,1.644,0,0,0,1.393.724A2.881,2.881,0,0,0,77.6,16.4l.747-4.363a2,2,0,0,0-1.907-1.352,2.468,2.468,0,0,0-2.123,1.053,5.488,5.488,0,0,0-.98,2.941Zm12,4.048a3.429,3.429,0,0,1-2.777-1.31,4.507,4.507,0,0,1-.844-3.261l.044-.378a6.327,6.327,0,0,1,.839-2.584,4.882,4.882,0,0,1,1.683-1.762A3.927,3.927,0,0,1,86.4,9.314a3.024,3.024,0,0,1,2.3.976,4.012,4.012,0,0,1,.914,2.549,7.448,7.448,0,0,1-.035,1.143l-.1.729H83.274a3.212,3.212,0,0,0,.426,2.2,2.019,2.019,0,0,0,1.745.94,3.383,3.383,0,0,0,2.6-1.266l.914.773a4.183,4.183,0,0,1-1.542,1.349A4.371,4.371,0,0,1,85.313,19.176Zm1.011-8.534a2.324,2.324,0,0,0-1.718.668,4.748,4.748,0,0,0-1.165,2.065l4.623.009.035-.141a2.6,2.6,0,0,0-.356-1.841A1.674,1.674,0,0,0,86.324,10.642Zm8.411-3.454-.4,2.3h1.731l-.22,1.257H94.12l-.993,5.915a2.062,2.062,0,0,0-.009.422.67.67,0,0,0,.747.686,4.556,4.556,0,0,0,.773-.088l-.123,1.327a4.328,4.328,0,0,1-1.16.158,1.661,1.661,0,0,1-1.424-.7,2.7,2.7,0,0,1-.369-1.833l.967-5.889H90.85l.22-1.257h1.679l.4-2.3Z" transform="translate(996 828)" fill="#12263f"/>
    <path id="Trazado_229930" data-name="Trazado 229930" d="M17.286,19,19.509,6.2l3.322.009a4.613,4.613,0,0,1,2.694.782,4.314,4.314,0,0,1,1.622,2.158,6.707,6.707,0,0,1,.29,3.081l-.088.642a7.236,7.236,0,0,1-2.171,4.46A6.313,6.313,0,0,1,20.7,19Zm3.63-11.417-1.74,10.028,1.626.009a4.569,4.569,0,0,0,3.16-1.16,5.507,5.507,0,0,0,1.683-3.182,10.352,10.352,0,0,0,.211-2.751A3.35,3.35,0,0,0,24.95,8.4a2.931,2.931,0,0,0-2.074-.8ZM34.4,19a2.13,2.13,0,0,1-.062-.5l.026-.5a3.9,3.9,0,0,1-2.777,1.178,2.841,2.841,0,0,1-2.043-.8,2.407,2.407,0,0,1-.716-1.947,2.927,2.927,0,0,1,1.323-2.36,5.631,5.631,0,0,1,3.248-.848l1.661.009.105-.756a1.738,1.738,0,0,0-.33-1.349,1.591,1.591,0,0,0-1.252-.514,2.453,2.453,0,0,0-1.446.4,1.7,1.7,0,0,0-.769,1.1l-1.6.009a2.55,2.55,0,0,1,.65-1.481,3.784,3.784,0,0,1,1.468-1,4.742,4.742,0,0,1,1.854-.338,3.153,3.153,0,0,1,2.312.9,2.794,2.794,0,0,1,.694,2.3l-.773,4.711-.044.677a3.318,3.318,0,0,0,.105.958L36.015,19Zm-2.5-1.23a2.774,2.774,0,0,0,1.446-.365,3.661,3.661,0,0,0,1.173-1.059l.343-1.96-1.2-.009a4.561,4.561,0,0,0-2.3.475,1.748,1.748,0,0,0-.905,1.345,1.361,1.361,0,0,0,.312,1.112A1.486,1.486,0,0,0,31.9,17.77ZM42.37,7.188l-.4,2.3H43.7l-.22,1.257H41.754l-.993,5.915a2.062,2.062,0,0,0-.009.422.67.67,0,0,0,.747.686,4.556,4.556,0,0,0,.773-.088l-.123,1.327a4.328,4.328,0,0,1-1.16.158,1.661,1.661,0,0,1-1.424-.7,2.7,2.7,0,0,1-.369-1.833l.967-5.889H38.485L38.7,9.49h1.679l.4-2.3ZM49.779,19a2.13,2.13,0,0,1-.062-.5l.026-.5a3.9,3.9,0,0,1-2.777,1.178,2.841,2.841,0,0,1-2.043-.8,2.407,2.407,0,0,1-.716-1.947,2.927,2.927,0,0,1,1.323-2.36,5.631,5.631,0,0,1,3.248-.848l1.661.009.105-.756a1.738,1.738,0,0,0-.33-1.349,1.591,1.591,0,0,0-1.252-.514,2.453,2.453,0,0,0-1.446.4,1.7,1.7,0,0,0-.769,1.1l-1.6.009a2.55,2.55,0,0,1,.65-1.481,3.784,3.784,0,0,1,1.468-1,4.742,4.742,0,0,1,1.854-.338,3.153,3.153,0,0,1,2.312.9,2.794,2.794,0,0,1,.694,2.3l-.773,4.711-.044.677a3.318,3.318,0,0,0,.105.958L51.4,19Zm-2.5-1.23a2.774,2.774,0,0,0,1.446-.365A3.661,3.661,0,0,0,49.9,16.346l.343-1.96-1.2-.009a4.561,4.561,0,0,0-2.3.475,1.748,1.748,0,0,0-.905,1.345,1.361,1.361,0,0,0,.312,1.112A1.486,1.486,0,0,0,47.283,17.77ZM63.85,16.425q.132-.984-1.081-1.389l-1.652-.483q-2.092-.721-2.021-2.391A2.634,2.634,0,0,1,60.242,10.1,4.085,4.085,0,0,1,62.8,9.314a3.406,3.406,0,0,1,2.342.839A2.659,2.659,0,0,1,66,12.294l-1.582-.009a1.484,1.484,0,0,0-.448-1.16,1.774,1.774,0,0,0-1.239-.466,2.316,2.316,0,0,0-1.424.4,1.48,1.48,0,0,0-.642,1.037q-.114.826,1.011,1.2l.8.22a5.15,5.15,0,0,1,2.32,1.1,2.1,2.1,0,0,1,.633,1.679,2.666,2.666,0,0,1-.58,1.547,3.317,3.317,0,0,1-1.406,1.006,4.7,4.7,0,0,1-1.872.321,3.71,3.71,0,0,1-2.5-.883,2.731,2.731,0,0,1-.949-2.228l1.591.009a1.686,1.686,0,0,0,.51,1.283,1.948,1.948,0,0,0,1.4.483,2.741,2.741,0,0,0,1.5-.365A1.4,1.4,0,0,0,63.85,16.425Zm8.481-7.11a3.428,3.428,0,0,1,2.048.65,3.7,3.7,0,0,1,1.261,1.745,5.4,5.4,0,0,1,.277,2.43l-.018.193a6.4,6.4,0,0,1-.826,2.509,4.848,4.848,0,0,1-1.705,1.745,4.158,4.158,0,0,1-2.294.589,3.434,3.434,0,0,1-2.043-.65A3.611,3.611,0,0,1,67.779,16.8a5.547,5.547,0,0,1-.281-2.4,6.48,6.48,0,0,1,.8-2.654,4.96,4.96,0,0,1,1.718-1.824A4.109,4.109,0,0,1,72.332,9.314Zm-3.234,5.1a5.4,5.4,0,0,0,0,1.151,2.821,2.821,0,0,0,.62,1.652,1.86,1.86,0,0,0,1.419.642,2.534,2.534,0,0,0,1.459-.391,3.284,3.284,0,0,0,1.125-1.261,5.311,5.311,0,0,0,.589-1.872,8.431,8.431,0,0,0,.026-1.362,2.927,2.927,0,0,0-.642-1.679,1.9,1.9,0,0,0-1.424-.65,2.592,2.592,0,0,0-2.092.967,4.776,4.776,0,0,0-1.063,2.6ZM83.133,18.06a3.673,3.673,0,0,1-2.839,1.116,2.37,2.37,0,0,1-2.017-.976,3.731,3.731,0,0,1-.488-2.566l1.02-6.144H80.4l-1.028,6.17a4.1,4.1,0,0,0-.018.756,1.573,1.573,0,0,0,.378.993,1.29,1.29,0,0,0,.932.387,2.854,2.854,0,0,0,2.637-1.38L84.5,9.49h1.591L84.434,19h-1.5Zm9.589-7.119-.747-.079a2.722,2.722,0,0,0-2.408,1.38L88.4,19H86.807l1.652-9.51L90,9.481l-.237,1.107A2.843,2.843,0,0,1,92.142,9.3a2.918,2.918,0,0,1,.756.132Zm3.929,6.917a2.413,2.413,0,0,0,1.538-.5,2.362,2.362,0,0,0,.9-1.349l1.5-.009a3.391,3.391,0,0,1-.716,1.635,4.14,4.14,0,0,1-3.292,1.538,3.394,3.394,0,0,1-2.008-.62,3.469,3.469,0,0,1-1.208-1.679,5.593,5.593,0,0,1-.264-2.421l.044-.439a6.306,6.306,0,0,1,.8-2.452A4.624,4.624,0,0,1,95.6,9.881a4.1,4.1,0,0,1,2.25-.567,3.214,3.214,0,0,1,2.391,1,3.465,3.465,0,0,1,.9,2.452l-1.485-.009a2.283,2.283,0,0,0-.519-1.507,1.808,1.808,0,0,0-1.354-.611,2.536,2.536,0,0,0-2.061.923,4.834,4.834,0,0,0-1.024,2.654l-.026.229a7.623,7.623,0,0,0-.018,1.16,2.65,2.65,0,0,0,.58,1.626A1.863,1.863,0,0,0,96.651,17.857Zm9.325,1.318a3.429,3.429,0,0,1-2.777-1.31,4.507,4.507,0,0,1-.844-3.261l.044-.378a6.327,6.327,0,0,1,.839-2.584,4.882,4.882,0,0,1,1.683-1.762,3.927,3.927,0,0,1,2.145-.567,3.024,3.024,0,0,1,2.3.976,4.012,4.012,0,0,1,.914,2.549,7.448,7.448,0,0,1-.035,1.143l-.1.729h-6.214a3.212,3.212,0,0,0,.426,2.2,2.019,2.019,0,0,0,1.745.94,3.383,3.383,0,0,0,2.6-1.266l.914.773a4.183,4.183,0,0,1-1.542,1.349A4.371,4.371,0,0,1,105.976,19.176Zm1.011-8.534a2.324,2.324,0,0,0-1.718.668,4.748,4.748,0,0,0-1.165,2.065l4.623.009.035-.141a2.6,2.6,0,0,0-.356-1.841A1.674,1.674,0,0,0,106.987,10.642ZM123.686,19h-8.147l.193-1.239,4.72-4.588.861-.853a5.044,5.044,0,0,0,1.644-2.742A2.033,2.033,0,0,0,122.579,8a1.778,1.778,0,0,0-1.389-.646,2.619,2.619,0,0,0-1.925.672,3.088,3.088,0,0,0-.94,1.938l-1.573.009a4.451,4.451,0,0,1,.725-2.087,4.039,4.039,0,0,1,1.608-1.4,4.622,4.622,0,0,1,2.167-.461,3.551,3.551,0,0,1,2.527.962,2.852,2.852,0,0,1,.8,2.4,6.126,6.126,0,0,1-1.942,3.551l-.809.817-4.113,3.911H123.9Z" transform="translate(464 961)" fill="#12263f"/>
  </g>
</svg>
