<svg xmlns="http://www.w3.org/2000/svg" width="49.989" height="50" viewBox="0 0 49.989 50">
  <g id="Grupo_218430" data-name="Grupo 218430" opacity="0.5">
    <path id="Trazado_227357" data-name="Trazado 227357" d="M448.98,152.738v-.6c0-2.167,0-4.334,0-6.5a2.416,2.416,0,0,1,2.545-2.573q8.742-.006,17.484,0a2.415,2.415,0,0,1,2.544,2.574c0,2.167,0,4.334,0,6.5v.6c.622,0,1.207.042,1.785-.008,2.04-.174,3.105,1.118,3.078,3.035-.075,5.223-.025,10.448-.025,15.672v.654h.574q2.847,0,5.693,0a2.424,2.424,0,0,1,2.6,2.619q0,7.862,0,15.723a2.426,2.426,0,0,1-2.6,2.622q-8.691,0-17.383,0a2.421,2.421,0,0,1-2.592-2.579q-.006-3.25,0-6.5v-.569h-4.837v.521q0,3.251,0,6.5a2.434,2.434,0,0,1-2.645,2.627q-8.64,0-17.282,0a2.433,2.433,0,0,1-2.647-2.625q0-7.862,0-15.723a2.426,2.426,0,0,1,2.6-2.617c2.064,0,4.128,0,6.266,0v-.605q0-8.013,0-16.026a2.45,2.45,0,0,1,2.7-2.723Zm25.8,19.354v-.455q0-8.111,0-16.224c0-.117.041-.271-.017-.346-.192-.249-.4-.646-.639-.668-.841-.081-1.694-.032-2.569-.032v.6c0,2.167,0,4.333,0,6.5a2.417,2.417,0,0,1-2.562,2.557q-8.715,0-17.43,0a2.423,2.423,0,0,1-2.581-2.588q-.006-3.25,0-6.5v-.588c-.733,0-1.417,0-2.1,0-.883,0-1.124.245-1.124,1.144q0,8.036,0,16.073c0,.162.015.324.024.524h.577q4.408,0,8.816,0a2.44,2.44,0,0,1,2.675,2.7q0,3.2,0,6.4v.548h4.837v-.58c0-2.183-.005-4.367,0-6.55a2.408,2.408,0,0,1,2.5-2.512c1.7-.008,3.392,0,5.088,0Zm-4.837-20.93h-19.35v.484q0,4.836,0,9.671c0,.849.255,1.1,1.118,1.1h17.122c.856,0,1.11-.253,1.11-1.107q0-4.836,0-9.671Zm-33.056,29.014v.486q0,4.836,0,9.671c0,.86.251,1.113,1.1,1.113q8.561,0,17.122,0c.882,0,1.124-.247,1.124-1.144q0-4.81,0-9.62c0-.162-.014-.325-.023-.506Zm27.412,0v.5q0,4.835,0,9.671c0,.851.254,1.1,1.115,1.1q8.561,0,17.122,0c.858,0,1.112-.252,1.112-1.1q0-4.836,0-9.671c0-.162-.015-.323-.023-.5Zm5.642-30.68c0-1.363.01-2.671,0-3.978a.8.8,0,0,0-.916-.839q-8.761,0-17.522,0a.809.809,0,0,0-.9.905c-.011.722,0,1.444,0,2.166v1.746Zm-13.7,29.031c0-1.247,0-2.453,0-3.658,0-.925-.235-1.16-1.157-1.16H438.062a3.074,3.074,0,0,0-.453.01.724.724,0,0,0-.7.68c-.03,1.369-.011,2.74-.011,4.129Zm27.412,0c0-1.248,0-2.453,0-3.659,0-.925-.235-1.16-1.157-1.16H465.473a3.006,3.006,0,0,0-.453.01.725.725,0,0,0-.7.68c-.029,1.37-.011,2.74-.011,4.129Z" transform="translate(-435.273 -143.06)" fill="#4dd0e1"/>
    <path id="Trazado_227358" data-name="Trazado 227358" d="M482.726,166.99v1.551H466.665V166.99Z" transform="translate(-449.691 -154.051)" fill="#4dd0e1"/>
    <path id="Trazado_227359" data-name="Trazado 227359" d="M482.725,172.955v1.551H466.664v-1.551Z" transform="translate(-449.691 -156.79)" fill="#4dd0e1"/>
    <path id="Trazado_227360" data-name="Trazado 227360" d="M486.833,161.022v1.553H475.609v-1.553Z" transform="translate(-453.799 -151.31)" fill="#4dd0e1"/>
    <path id="Trazado_227361" data-name="Trazado 227361" d="M469.817,161.005v1.554h-3.173v-1.554Z" transform="translate(-449.682 -151.302)" fill="#4dd0e1"/>
    <path id="Trazado_227362" data-name="Trazado 227362" d="M457.352,222.236H441.287v-1.552h16.065Z" transform="translate(-438.035 -178.712)" fill="#4dd0e1"/>
    <path id="Trazado_227363" data-name="Trazado 227363" d="M441.26,228.2v-1.54h16.076v1.54Z" transform="translate(-438.023 -181.455)" fill="#4dd0e1"/>
    <path id="Trazado_227364" data-name="Trazado 227364" d="M461.486,214.714v1.552H450.262v-1.552Z" transform="translate(-442.158 -175.97)" fill="#4dd0e1"/>
    <path id="Trazado_227365" data-name="Trazado 227365" d="M441.309,214.686h3.158v1.569h-3.158Z" transform="translate(-438.045 -175.957)" fill="#4dd0e1"/>
    <path id="Trazado_227366" data-name="Trazado 227366" d="M508.06,220.681v1.55H491.981v-1.55Z" transform="translate(-461.319 -178.71)" fill="#4dd0e1"/>
    <path id="Trazado_227367" data-name="Trazado 227367" d="M491.981,228.18v-1.553h16.061v1.553Z" transform="translate(-461.319 -181.441)" fill="#4dd0e1"/>
    <path id="Trazado_227368" data-name="Trazado 227368" d="M500.925,216.249V214.7h11.224v1.551Z" transform="translate(-465.427 -175.962)" fill="#4dd0e1"/>
    <path id="Trazado_227369" data-name="Trazado 227369" d="M492.012,214.682h3.152v1.569h-3.152Z" transform="translate(-461.333 -175.955)" fill="#4dd0e1"/>
    <path id="Trazado_227370" data-name="Trazado 227370" d="M466.6,150.643V149.1h1.568v1.542Z" transform="translate(-449.664 -145.834)" fill="#4dd0e1"/>
    <path id="Trazado_227371" data-name="Trazado 227371" d="M474.178,149.1v1.549h-1.55V149.1Z" transform="translate(-452.43 -145.832)" fill="#4dd0e1"/>
    <path id="Trazado_227372" data-name="Trazado 227372" d="M478.594,149.047h1.532v1.569h-1.532Z" transform="translate(-455.17 -145.81)" fill="#4dd0e1"/>
    <path id="Trazado_227373" data-name="Trazado 227373" d="M442.856,202.77v1.548H441.3V202.77Z" transform="translate(-438.041 -170.484)" fill="#4dd0e1"/>
    <path id="Trazado_227374" data-name="Trazado 227374" d="M448.821,202.765v1.553h-1.562v-1.553Z" transform="translate(-440.778 -170.482)" fill="#4dd0e1"/>
    <path id="Trazado_227375" data-name="Trazado 227375" d="M454.784,204.335h-1.548v-1.557h1.548Z" transform="translate(-443.523 -170.488)" fill="#4dd0e1"/>
    <path id="Trazado_227376" data-name="Trazado 227376" d="M493.536,204.339h-1.554v-1.55h1.554Z" transform="translate(-461.319 -170.493)" fill="#4dd0e1"/>
    <path id="Trazado_227377" data-name="Trazado 227377" d="M497.92,204.333v-1.539h1.565v1.539Z" transform="translate(-464.046 -170.495)" fill="#4dd0e1"/>
    <path id="Trazado_227378" data-name="Trazado 227378" d="M505.5,202.778v1.539h-1.566v-1.539Z" transform="translate(-466.808 -170.488)" fill="#4dd0e1"/>
  </g>
</svg>
