<svg xmlns="http://www.w3.org/2000/svg" width="43.901" height="50" viewBox="0 0 43.901 50">
  <g id="Grupo_218431" data-name="Grupo 218431" transform="translate(-142.131 -15.084)" opacity="0.5">
    <path id="Trazado_217458" data-name="Trazado 217458" d="M150.4,33.33a5.236,5.236,0,1,1,5.234-5.236A5.242,5.242,0,0,1,150.4,33.33Zm0-8.8a3.565,3.565,0,1,0,3.564,3.566A3.57,3.57,0,0,0,150.4,24.529Z" transform="translate(1.148 2.946)" fill="#4dd0e1"/>
    <path id="Trazado_217459" data-name="Trazado 217459" d="M163.542,30.912h-7.756a.836.836,0,1,1,0-1.671h7.756a.836.836,0,1,1,0,1.671Z" transform="translate(4.857 5.364)" fill="#4dd0e1"/>
    <path id="Trazado_217460" data-name="Trazado 217460" d="M163.569,34.752h-17.3a.835.835,0,1,1,0-1.67h17.3a.835.835,0,1,1,0,1.67Z" transform="translate(1.25 6.819)" fill="#4dd0e1"/>
    <path id="Trazado_217461" data-name="Trazado 217461" d="M158.946,38.376H146.267a.835.835,0,1,1,0-1.67h12.679a.835.835,0,1,1,0,1.67Z" transform="translate(1.25 8.192)" fill="#4dd0e1"/>
    <path id="Trazado_217462" data-name="Trazado 217462" d="M157.3,42H146.267a.836.836,0,1,1,0-1.671H157.3a.836.836,0,0,1,0,1.671Z" transform="translate(1.25 9.565)" fill="#4dd0e1"/>
    <path id="Trazado_217463" data-name="Trazado 217463" d="M157.3,45.624H146.267a.836.836,0,1,1,0-1.671H157.3a.836.836,0,0,1,0,1.671Z" transform="translate(1.25 10.938)" fill="#4dd0e1"/>
    <path id="Trazado_217464" data-name="Trazado 217464" d="M163.542,27.991h-7.756a.835.835,0,1,1,0-1.67h7.756a.835.835,0,1,1,0,1.67Z" transform="translate(4.857 4.258)" fill="#4dd0e1"/>
    <path id="Trazado_217465" data-name="Trazado 217465" d="M163.542,25.071h-7.756a.836.836,0,1,1,0-1.671h7.756a.836.836,0,1,1,0,1.671Z" transform="translate(4.857 3.151)" fill="#4dd0e1"/>
    <path id="Trazado_217466" data-name="Trazado 217466" d="M171,58.022h-5.3a.835.835,0,0,1-.836-.836v-2.5c-.168-.065-.336-.135-.5-.211l-1.769,1.769a.835.835,0,0,1-1.182,0l-3.752-3.751a.837.837,0,0,1,0-1.182l1.769-1.769c-.076-.167-.145-.335-.211-.5h-2.5a.836.836,0,0,1-.834-.836V42.9a.835.835,0,0,1,.834-.836h2.5c.066-.168.137-.336.211-.5l-1.769-1.77a.836.836,0,0,1,0-1.18l3.752-3.752a.837.837,0,0,1,1.182,0l1.768,1.769q.252-.114.5-.211v-2.5a.835.835,0,0,1,.836-.834H171a.835.835,0,0,1,.836.834v2.5c.168.065.336.135.5.211l1.769-1.769a.835.835,0,0,1,1.182,0l3.751,3.752a.833.833,0,0,1,0,1.18l-1.769,1.77c.076.167.146.335.211.5h2.5a.835.835,0,0,1,.836.836v5.3a.836.836,0,0,1-.836.836h-2.5c-.065.168-.135.336-.211.5l1.769,1.769a.835.835,0,0,1,0,1.182l-3.751,3.751a.835.835,0,0,1-1.182,0l-1.769-1.769c-.167.076-.335.146-.5.211v2.5A.835.835,0,0,1,171,58.022Zm-4.47-1.671h3.635V54.094a.834.834,0,0,1,.589-.8,8.075,8.075,0,0,0,1.365-.572.835.835,0,0,1,.98.149l1.6,1.6,2.57-2.57-1.6-1.6a.837.837,0,0,1-.149-.98,8.087,8.087,0,0,0,.572-1.366.835.835,0,0,1,.8-.587h2.257V43.734h-2.257a.833.833,0,0,1-.8-.587,8.087,8.087,0,0,0-.572-1.366.835.835,0,0,1,.149-.979l1.6-1.6-2.57-2.57-1.6,1.6a.837.837,0,0,1-.98.148,8.067,8.067,0,0,0-1.365-.571.836.836,0,0,1-.589-.8V34.752h-3.635v2.257a.835.835,0,0,1-.587.8,7.972,7.972,0,0,0-1.365.571.834.834,0,0,1-.98-.148l-1.6-1.6-2.57,2.57,1.6,1.6a.832.832,0,0,1,.148.979,8.192,8.192,0,0,0-.571,1.366.833.833,0,0,1-.8.587h-2.259v3.635h2.259a.835.835,0,0,1,.8.587,8.192,8.192,0,0,0,.571,1.366.835.835,0,0,1-.148.98l-1.6,1.6,2.57,2.57,1.6-1.6a.833.833,0,0,1,.979-.149,8.086,8.086,0,0,0,1.366.572.833.833,0,0,1,.587.8Z" transform="translate(5.21 6.819)" fill="#4dd0e1"/>
    <path id="Trazado_217467" data-name="Trazado 217467" d="M166.763,50.654a6.69,6.69,0,1,1,6.69-6.69A6.7,6.7,0,0,1,166.763,50.654Zm0-11.71a5.02,5.02,0,1,0,5.021,5.019A5.025,5.025,0,0,0,166.763,38.944Z" transform="translate(6.798 8.407)" fill="#4dd0e1"/>
    <path id="Trazado_217468" data-name="Trazado 217468" d="M177.654,39.482a.834.834,0,0,1-.834-.834V16.754H148.508v1.575h25.9a.834.834,0,0,1,.834.834V37.156a.835.835,0,1,1-1.67,0V20h-25.9a.835.835,0,0,1-.836-.836V15.92a.835.835,0,0,1,.836-.836h29.981a.835.835,0,0,1,.836.836V38.648A.835.835,0,0,1,177.654,39.482Z" transform="translate(1.783 0)" fill="#4dd0e1"/>
    <path id="Trazado_217469" data-name="Trazado 217469" d="M172.058,37.1a.836.836,0,0,1-.836-.836V22.351h-25.9a.835.835,0,0,1-.836-.836V18.271a.835.835,0,0,1,.836-.834H175.3a.834.834,0,0,1,.834.834V35.742a.835.835,0,1,1-1.67,0V19.107H146.155V20.68h25.9a.836.836,0,0,1,.834.836v14.75A.836.836,0,0,1,172.058,37.1Z" transform="translate(0.892 0.892)" fill="#4dd0e1"/>
    <path id="Trazado_217470" data-name="Trazado 217470" d="M165.416,63.3h-22.45a.837.837,0,0,1-.836-.836V20.625a.837.837,0,0,1,.836-.836h29.983a.836.836,0,0,1,.834.836v14.75a.835.835,0,1,1-1.67,0V21.46H143.8V61.63h21.614a.836.836,0,0,1,0,1.671Z" transform="translate(0 1.783)" fill="#4dd0e1"/>
  </g>
</svg>
