<svg xmlns="http://www.w3.org/2000/svg" xmlns:xlink="http://www.w3.org/1999/xlink" width="150" height="150" viewBox="0 0 150 150">
  <defs>
    <clipPath id="clip-path">
      <rect id="Rectángulo_304608" data-name="Rectángulo 304608" width="80" height="80" fill="#fff"/>
    </clipPath>
  </defs>
  <g id="Grupo_219991" data-name="Grupo 219991" transform="translate(-7609 7352)">
    <g id="Grupo_218413" data-name="Grupo 218413" transform="translate(1467.5 3034.014)">
      <circle id="Elipse_4809" data-name="Elipse 4809" cx="75" cy="75" r="75" transform="translate(6141.5 -10386.014)" fill="#0f2771"/>
    </g>
    <g id="Grupo_218423" data-name="Grupo 218423" transform="translate(7644 -7317)">
      <g id="Grupo_218422" data-name="Grupo 218422" clip-path="url(#clip-path)">
        <path id="Trazado_229062" data-name="Trazado 229062" d="M70.968,51.613V43.634a3.849,3.849,0,0,0,0-7.268V27.1H78.71V3.871H60.645V27.1h7.742v9.269a3.849,3.849,0,0,0,0,7.268v7.979H59.355V61.935H56.708A16.777,16.777,0,0,0,41.29,46.517V33.548h12.9a3.875,3.875,0,0,0,3.871-3.871V24.516a3.848,3.848,0,0,0-1.007-2.581,3.839,3.839,0,0,0,1.007-2.58V14.194a3.847,3.847,0,0,0-1.007-2.581,3.848,3.848,0,0,0,1.007-2.581V3.871A3.876,3.876,0,0,0,54.194,0H25.806a3.876,3.876,0,0,0-3.871,3.871V9.032a3.848,3.848,0,0,0,1.007,2.581,3.847,3.847,0,0,0-1.007,2.581v5.161a3.844,3.844,0,0,0,1.007,2.58,3.844,3.844,0,0,0-1.007,2.581v5.161a3.875,3.875,0,0,0,3.871,3.871h12.9V46.517A16.777,16.777,0,0,0,23.292,61.935H20.645V51.613H11.613V43.634a3.849,3.849,0,0,0,0-7.268V27.1h7.742V3.871H1.29V27.1H9.032v9.269a3.849,3.849,0,0,0,0,7.268v7.979H0V74.839H20.645V64.516h2.647a16.756,16.756,0,0,0,33.416,0h2.647V74.839H80V51.613ZM63.226,6.452h12.9V24.517h-12.9ZM69.677,38.71A1.29,1.29,0,1,1,68.387,40a1.292,1.292,0,0,1,1.29-1.29M24.516,19.355V14.194a1.291,1.291,0,0,1,1.29-1.291H54.194a1.291,1.291,0,0,1,1.29,1.291v5.161a1.291,1.291,0,0,1-1.29,1.29H25.806a1.291,1.291,0,0,1-1.29-1.29m0-15.484a1.291,1.291,0,0,1,1.29-1.29H54.194a1.291,1.291,0,0,1,1.29,1.29V9.032a1.291,1.291,0,0,1-1.29,1.291H25.806a1.291,1.291,0,0,1-1.29-1.291Zm0,25.806V24.516a1.291,1.291,0,0,1,1.29-1.29H54.194a1.291,1.291,0,0,1,1.29,1.29v5.161a1.291,1.291,0,0,1-1.29,1.291H25.806a1.291,1.291,0,0,1-1.29-1.291M3.871,6.452h12.9V24.517H3.871ZM10.323,38.71A1.29,1.29,0,1,1,9.032,40a1.291,1.291,0,0,1,1.291-1.29m7.742,18.064H2.581V54.193H18.065ZM2.581,59.355H18.065v12.9H2.581ZM40,77.419c-1.387,0-2.865-1.97-3.883-5.161h7.766C42.865,75.449,41.387,77.419,40,77.419Zm-4.541-7.742a32.08,32.08,0,0,1-.593-5.161H45.134a32.194,32.194,0,0,1-.593,5.161Zm-9.587-5.161h6.414a35.514,35.514,0,0,0,.528,5.161H27.373A14.066,14.066,0,0,1,25.872,64.516ZM40,49.032c1.387,0,2.865,1.971,3.883,5.162H36.117C37.135,51,38.613,49.032,40,49.032m4.541,7.742a32.08,32.08,0,0,1,.593,5.161H34.866a32.194,32.194,0,0,1,.593-5.161ZM32.286,61.935H25.872a14.073,14.073,0,0,1,1.5-5.161h5.441A35.248,35.248,0,0,0,32.286,61.935Zm15.428,2.581h6.414a14.067,14.067,0,0,1-1.5,5.161H47.185a35.234,35.234,0,0,0,.529-5.161m0-2.581a35.529,35.529,0,0,0-.528-5.161h5.441a14.092,14.092,0,0,1,1.5,5.161Zm3.227-7.741H46.587a17.858,17.858,0,0,0-1.8-4.311,14.24,14.24,0,0,1,6.149,4.311M35.208,49.883a17.858,17.858,0,0,0-1.8,4.311H29.059A14.24,14.24,0,0,1,35.208,49.883ZM29.059,72.258h4.354a17.875,17.875,0,0,0,1.8,4.311A14.24,14.24,0,0,1,29.059,72.258Zm15.733,4.311a17.875,17.875,0,0,0,1.8-4.311h4.354a14.24,14.24,0,0,1-6.149,4.311m32.627-19.8H61.935V54.193H77.419ZM61.935,59.355H77.419v12.9H61.935Z" fill="#fff"/>
        <rect id="Rectángulo_304598" data-name="Rectángulo 304598" width="10.323" height="2.581" transform="translate(64.516 61.935)" fill="#fff"/>
        <rect id="Rectángulo_304599" data-name="Rectángulo 304599" width="10.323" height="2.581" transform="translate(64.516 67.097)" fill="#fff"/>
        <rect id="Rectángulo_304600" data-name="Rectángulo 304600" width="10.323" height="2.581" transform="translate(5.161 61.935)" fill="#fff"/>
        <rect id="Rectángulo_304601" data-name="Rectángulo 304601" width="10.323" height="2.581" transform="translate(5.161 67.097)" fill="#fff"/>
        <rect id="Rectángulo_304602" data-name="Rectángulo 304602" width="7.742" height="2.581" transform="translate(65.806 9.032)" fill="#fff"/>
        <rect id="Rectángulo_304603" data-name="Rectángulo 304603" width="7.742" height="2.581" transform="translate(65.806 14.194)" fill="#fff"/>
        <rect id="Rectángulo_304604" data-name="Rectángulo 304604" width="7.742" height="2.581" transform="translate(65.806 19.355)" fill="#fff"/>
        <rect id="Rectángulo_304605" data-name="Rectángulo 304605" width="7.742" height="2.581" transform="translate(6.452 9.032)" fill="#fff"/>
        <rect id="Rectángulo_304606" data-name="Rectángulo 304606" width="7.742" height="2.581" transform="translate(6.452 14.194)" fill="#fff"/>
        <rect id="Rectángulo_304607" data-name="Rectángulo 304607" width="7.742" height="2.581" transform="translate(6.452 19.355)" fill="#fff"/>
      </g>
    </g>
  </g>
</svg>
