<svg xmlns="http://www.w3.org/2000/svg" xmlns:xlink="http://www.w3.org/1999/xlink" width="164.74" height="164.74" viewBox="0 0 164.74 164.74">
  <defs>
    <clipPath id="clip-path">
      <rect id="Rectángulo_304282" data-name="Rectángulo 304282" width="74.76" height="87.86" fill="#fff"/>
    </clipPath>
  </defs>
  <g id="Grupo_219989" data-name="Grupo 219989" transform="translate(-745 -2229.899)">
    <g id="Grupo_139932" data-name="Grupo 139932" transform="translate(745 2229.899)">
      <circle id="Elipse_4809" data-name="Elipse 4809" cx="82.37" cy="82.37" r="82.37" fill="#0f2771"/>
    </g>
    <g id="Grupo_217337" data-name="Grupo 217337" transform="translate(790 2268.165)">
      <g id="Grupo_217337-2" data-name="Grupo 217337" clip-path="url(#clip-path)">
        <path id="Trazado_228348" data-name="Trazado 228348" d="M23.767,17.962A1.373,1.373,0,0,1,25.14,16.59H43.627a1.373,1.373,0,1,1,0,2.746H25.14a1.373,1.373,0,0,1-1.373-1.373m1.373,8.587H43.627a1.373,1.373,0,1,0,0-2.746H25.14a1.373,1.373,0,1,0,0,2.746m0,7.214H43.627a1.373,1.373,0,1,0,0-2.746H25.14a1.373,1.373,0,0,0,0,2.746m24.48,4.469H25.14a1.373,1.373,0,0,0,0,2.746H49.62a1.373,1.373,0,0,0,0-2.746m0,7.214H25.14a1.373,1.373,0,1,0,0,2.746H49.62a1.373,1.373,0,0,0,0-2.746M25.14,12.121H42.713a1.373,1.373,0,1,0,0-2.746H25.14a1.373,1.373,0,0,0,0,2.746Zm49.62,52.49a6.917,6.917,0,0,1-6.909,6.909H50.069v6.05h7.054c3.36,0,6.094,2.308,6.094,5.145v3.772a1.373,1.373,0,0,1-1.373,1.373H12.915a1.373,1.373,0,0,1-1.373-1.373V82.715c0-2.837,2.734-5.145,6.094-5.145h7.054V71.52H6.909A6.917,6.917,0,0,1,0,64.611V26.525a6.917,6.917,0,0,1,6.909-6.909h8.418V1.373A1.373,1.373,0,0,1,16.7,0h34.66a1.373,1.373,0,0,1,.971.4l6.7,6.7a1.373,1.373,0,0,1,.4.971V9.587H62.3a1.373,1.373,0,0,1,1.355,1.156l.462,2.886a10.677,10.677,0,0,1,1.117.463L67.6,12.378a1.373,1.373,0,0,1,1.776.141l2.451,2.451a1.373,1.373,0,0,1,.141,1.776l-1.714,2.368a10.641,10.641,0,0,1,.463,1.117l2.886.462a1.373,1.373,0,0,1,1.156,1.355ZM70.718,27.332a10.679,10.679,0,0,1-.463,1.117l1.714,2.368c.016.022.03.046.045.069V27.125ZM59.59,14.91a1.373,1.373,0,0,1-1.016,1.113,7.953,7.953,0,0,0-2.087.865,1.373,1.373,0,0,1-1.505-.069l-2.115-1.531-.8.8L53.6,18.2a1.373,1.373,0,0,1,.069,1.505,7.952,7.952,0,0,0-.865,2.087,1.373,1.373,0,0,1-1.113,1.015l-2.577.413v1.125l2.577.413a1.373,1.373,0,0,1,1.113,1.015,7.95,7.95,0,0,0,.865,2.087,1.373,1.373,0,0,1-.069,1.505L52.072,31.48l.8.8,2.115-1.531a1.372,1.372,0,0,1,1.505-.069,7.945,7.945,0,0,0,2.087.866,1.373,1.373,0,0,1,1.016,1.113L60,35.231h1.125l.413-2.577a1.373,1.373,0,0,1,1.015-1.113,7.949,7.949,0,0,0,2.087-.865,1.372,1.372,0,0,1,1.505.069l2.115,1.531.8-.8-1.531-2.115a1.373,1.373,0,0,1-.069-1.505,7.943,7.943,0,0,0,.865-2.087,1.373,1.373,0,0,1,1.113-1.015l2.577-.413V23.219l-2.577-.413a1.373,1.373,0,0,1-1.113-1.015,7.95,7.95,0,0,0-.865-2.087,1.373,1.373,0,0,1,.069-1.505l1.531-2.115-.8-.8L66.148,16.82a1.373,1.373,0,0,1-1.505.069,7.953,7.953,0,0,0-2.087-.865A1.373,1.373,0,0,1,61.54,14.91l-.413-2.577H60ZM52.732,6.7h2.014L52.732,4.687ZM18.072,53.607H56.687V33.81c-.267-.1-.532-.214-.79-.339l-2.368,1.714a1.373,1.373,0,0,1-1.776-.141L49.3,32.593a1.373,1.373,0,0,1-.141-1.776l1.714-2.368a10.66,10.66,0,0,1-.463-1.117l-2.886-.462a1.373,1.373,0,0,1-1.156-1.355V22.049a1.373,1.373,0,0,1,1.156-1.355l2.886-.462a10.674,10.674,0,0,1,.463-1.117l-1.714-2.368a1.373,1.373,0,0,1,.141-1.776l2.451-2.451a1.373,1.373,0,0,1,1.776-.141L55.9,14.092c.258-.125.523-.235.79-.339V9.447H51.359a1.373,1.373,0,0,1-1.373-1.373V2.746H18.072ZM16.7,56.353a1.373,1.373,0,0,1-1.373-1.373V26.991H7.375V59.449h60.01V35.029l-2.152-1.558a10.7,10.7,0,0,1-1.117.463l-.462,2.886A1.373,1.373,0,0,1,62.3,37.976H59.433v17a1.373,1.373,0,0,1-1.373,1.373H16.7ZM57.123,80.316H17.637c-1.815,0-3.348,1.1-3.348,2.4v2.4H60.472v-2.4c0-1.3-1.533-2.4-3.348-2.4m-9.8-8.8H27.436v6.05H47.324V71.52Zm24.691-6.909V32.359a1.372,1.372,0,0,1-.186.234l-1.7,1.7v26.53a1.373,1.373,0,0,1-1.373,1.373H6a1.373,1.373,0,0,1-1.373-1.373V26.386A2.143,2.143,0,0,1,6.77,24.245h8.557V22.361H6.909a4.168,4.168,0,0,0-4.163,4.163V64.611a4.168,4.168,0,0,0,4.163,4.163H67.851A4.168,4.168,0,0,0,72.014,64.611ZM60.565,17.287a6.494,6.494,0,1,1-6.494,6.494,6.5,6.5,0,0,1,6.494-6.494m-3.749,6.494a3.749,3.749,0,1,0,3.749-3.749,3.753,3.753,0,0,0-3.749,3.749" fill="#fff"/>
      </g>
    </g>
  </g>
</svg>
