<svg xmlns="http://www.w3.org/2000/svg" xmlns:xlink="http://www.w3.org/1999/xlink" width="150" height="150" viewBox="0 0 150 150">
  <defs>
    <clipPath id="clip-path">
      <rect id="Rectángulo_304588" data-name="Rectángulo 304588" width="80" height="80" fill="#fff"/>
    </clipPath>
  </defs>
  <g id="Grupo_219988" data-name="Grupo 219988" transform="translate(-701 -4348)">
    <g id="Grupo_139934" data-name="Grupo 139934" transform="translate(-5440.5 14734.014)">
      <circle id="Elipse_4809" data-name="Elipse 4809" cx="75" cy="75" r="75" transform="translate(6141.5 -10386.014)" fill="#0f2771"/>
    </g>
    <g id="Grupo_218417" data-name="Grupo 218417" transform="translate(736 4383)">
      <g id="Grupo_218417-2" data-name="Grupo 218417" clip-path="url(#clip-path)">
        <path id="Trazado_229028" data-name="Trazado 229028" d="M45.807,12.306V38.75H49.6a1.25,1.25,0,1,1,0,2.5H45.807V67.693H49.6a1.25,1.25,0,1,1,0,2.5H44.557a1.25,1.25,0,0,1-1.25-1.25V41.25H39.8a1.25,1.25,0,1,1,0-2.5h3.508V11.056a1.25,1.25,0,0,1,1.25-1.25H49.6a1.25,1.25,0,0,1,0,2.5ZM80,66.792v9.937A3.275,3.275,0,0,1,76.729,80H57.451a3.274,3.274,0,0,1-3.271-3.271V61.158a3.274,3.274,0,0,1,3.271-3.271h5.914a3.51,3.51,0,0,1,3.069,1.771l2.234,3.863h8.061A3.274,3.274,0,0,1,80,66.792ZM56.68,61.158v2.363h9.1l-1.51-2.612a1,1,0,0,0-.905-.522H57.451A.772.772,0,0,0,56.68,61.158ZM77.5,66.792a.772.772,0,0,0-.771-.771H56.68V76.729a.772.772,0,0,0,.771.771H76.729a.772.772,0,0,0,.771-.771V66.792ZM80,8.9v9.937a3.275,3.275,0,0,1-3.271,3.271H57.451a3.274,3.274,0,0,1-3.271-3.271V3.271A3.274,3.274,0,0,1,57.451,0h5.914a3.51,3.51,0,0,1,3.07,1.771l2.234,3.863h8.061A3.274,3.274,0,0,1,80,8.9ZM56.68,3.271V5.634h9.1L64.27,3.022a1,1,0,0,0-.905-.522H57.451a.771.771,0,0,0-.77.771M77.5,8.9a.772.772,0,0,0-.771-.771H56.68V18.842a.772.772,0,0,0,.771.771H76.729a.772.772,0,0,0,.771-.771V8.9ZM80,37.848v9.937a3.275,3.275,0,0,1-3.271,3.271H57.451a3.274,3.274,0,0,1-3.271-3.271V32.214a3.274,3.274,0,0,1,3.271-3.271h5.914a3.51,3.51,0,0,1,3.069,1.771l2.234,3.863h8.061A3.274,3.274,0,0,1,80,37.848ZM56.68,32.214v2.363h9.1l-1.51-2.612a1,1,0,0,0-.905-.522H57.451a.771.771,0,0,0-.77.771M77.5,37.848a.772.772,0,0,0-.771-.771H56.68V47.785a.772.772,0,0,0,.771.771H76.729a.772.772,0,0,0,.771-.771V37.848ZM35.221,20.913V59.178c0,2.256-2.026,3.972-6.023,5.1a44.6,44.6,0,0,1-11.587,1.346A44.611,44.611,0,0,1,6.023,64.279C2.027,63.151,0,61.435,0,59.178V20.914H0c0-4.293,8.86-6.539,17.61-6.539s17.61,2.246,17.61,6.539m-32.721,0h0c0,.882,2.212,2.3,6.391,3.2a48.175,48.175,0,0,0,8.719.745,48.183,48.183,0,0,0,8.719-.745c4.179-.9,6.391-2.318,6.392-3.2h0c0-1.371-5.334-4.039-15.11-4.039S2.5,19.542,2.5,20.914ZM32.721,59.178v-5.9A14.714,14.714,0,0,1,29.2,54.713a44.6,44.6,0,0,1-11.587,1.346A44.612,44.612,0,0,1,6.023,54.713,14.723,14.723,0,0,1,2.5,53.281v5.9c0,.93,1.61,1.963,4.2,2.695a42.711,42.711,0,0,0,10.908,1.252,42.715,42.715,0,0,0,10.908-1.252C31.111,61.141,32.721,60.109,32.721,59.178Zm0-9.566v-5.9A14.715,14.715,0,0,1,29.2,45.147,44.6,44.6,0,0,1,17.61,46.493,44.612,44.612,0,0,1,6.023,45.147,14.722,14.722,0,0,1,2.5,43.715v5.9c0,.93,1.61,1.963,4.2,2.695a42.711,42.711,0,0,0,10.908,1.252,42.715,42.715,0,0,0,10.908-1.252C31.11,51.575,32.721,50.543,32.721,49.612Zm0-9.566v-5.9A14.715,14.715,0,0,1,29.2,35.58,44.6,44.6,0,0,1,17.61,36.926,44.612,44.612,0,0,1,6.023,35.58,14.715,14.715,0,0,1,2.5,34.149v5.9c0,.93,1.61,1.963,4.2,2.695a42.719,42.719,0,0,0,10.908,1.252,42.717,42.717,0,0,0,10.908-1.252c2.592-.732,4.2-1.765,4.2-2.695m0-9.566v-5.9A14.715,14.715,0,0,1,29.2,26.014c-.839.237-1.757.443-2.735.62a46,46,0,0,1-8.852.819,45.986,45.986,0,0,1-8.853-.819c-.978-.177-1.9-.384-2.735-.62A14.715,14.715,0,0,1,2.5,24.582v5.9c0,.93,1.61,1.963,4.2,2.695a42.719,42.719,0,0,0,10.908,1.252,42.717,42.717,0,0,0,10.908-1.252c2.592-.732,4.2-1.765,4.2-2.695" fill="#fff"/>
      </g>
    </g>
  </g>
</svg>
