<svg xmlns="http://www.w3.org/2000/svg" xmlns:xlink="http://www.w3.org/1999/xlink" width="150" height="150" viewBox="0 0 150 150">
  <defs>
    <clipPath id="clip-path">
      <rect id="Rectángulo_304597" data-name="Rectángulo 304597" width="80" height="80" fill="#fff"/>
    </clipPath>
  </defs>
  <g id="Grupo_219989" data-name="Grupo 219989" transform="translate(-944 -4348)">
    <g id="Grupo_139934" data-name="Grupo 139934" transform="translate(-5197.5 14734.014)">
      <circle id="Elipse_4809" data-name="Elipse 4809" cx="75" cy="75" r="75" transform="translate(6141.5 -10386.014)" fill="#0f2771"/>
    </g>
    <g id="Grupo_218420" data-name="Grupo 218420" transform="translate(979 4383)">
      <rect id="Rectángulo_304591" data-name="Rectángulo 304591" width="7.742" height="2.581" transform="translate(67.097 41.29)" fill="#fff"/>
      <rect id="Rectángulo_304592" data-name="Rectángulo 304592" width="7.742" height="2.581" transform="translate(67.097 36.129)" fill="#fff"/>
      <rect id="Rectángulo_304593" data-name="Rectángulo 304593" width="7.742" height="2.581" transform="translate(67.097 61.935)" fill="#fff"/>
      <rect id="Rectángulo_304594" data-name="Rectángulo 304594" width="7.742" height="2.581" transform="translate(67.097 56.774)" fill="#fff"/>
      <g id="Grupo_218421" data-name="Grupo 218421">
        <g id="Grupo_218420-2" data-name="Grupo 218420" clip-path="url(#clip-path)">
          <path id="Trazado_229061" data-name="Trazado 229061" d="M77.419,28.387A2.583,2.583,0,0,0,80,25.807V12.9a2.583,2.583,0,0,0-2.581-2.58H72.258V6.452a3.876,3.876,0,0,0-3.871-3.871H46.214a3.848,3.848,0,0,0-7.267,0H16.774A3.876,3.876,0,0,0,12.9,6.452v6.473C4.8,13.151,0,15.516,0,19.355v41.29c0,3.839,4.8,6.2,12.9,6.43v6.474a3.876,3.876,0,0,0,3.871,3.871H38.947a3.849,3.849,0,0,0,7.267,0H68.387a3.876,3.876,0,0,0,3.871-3.871V69.678h5.161A2.584,2.584,0,0,0,80,67.1v-12.9a2.584,2.584,0,0,0-2.581-2.581H72.258v-2.58h5.161A2.584,2.584,0,0,0,80,46.452v-12.9a2.583,2.583,0,0,0-2.581-2.581H72.258V28.387Zm0-2.58h-12.9V12.9h12.9ZM42.58,2.581a1.291,1.291,0,1,1-1.29,1.29,1.292,1.292,0,0,1,1.29-1.29M12.9,15.505v5.14h2.58v-5.14c6.781.206,10.323,2.038,10.323,3.85,0,1.924-3.99,3.871-11.613,3.871S2.58,21.279,2.58,19.355c0-1.812,3.542-3.642,10.323-3.85M40.419,35.587a5.016,5.016,0,0,0,3.452,2.967v2.884a5.12,5.12,0,0,0-3.135,7.575l-2.04,2.04a5.086,5.086,0,0,0-4.606-.311,5.023,5.023,0,0,0-2.967,3.452H28.387V48.923a9.033,9.033,0,1,0,0-17.845V25.807h2.727a5.121,5.121,0,0,0,7.576,3.134l2.04,2.04A5.087,5.087,0,0,0,40.419,35.587ZM28.387,43.634a3.872,3.872,0,1,0,0-7.267V33.692a6.446,6.446,0,1,1,1.29,12.76,6.469,6.469,0,0,1-1.29-.143Zm1.29-4.924A1.291,1.291,0,1,1,28.387,40a1.291,1.291,0,0,1,1.29-1.29M2.58,23.451c2.4,1.513,6.377,2.356,11.613,2.356s9.216-.843,11.613-2.356v6.227c0,1.924-3.99,3.871-11.613,3.871S2.58,31.6,2.58,29.678Zm0,10.322c2.4,1.514,6.377,2.356,11.613,2.356s9.216-.842,11.613-2.356V40c0,1.924-3.99,3.871-11.613,3.871S2.58,41.924,2.58,40Zm0,10.323c2.4,1.513,6.377,2.356,11.613,2.356s9.216-.843,11.613-2.356v6.227c0,1.924-3.99,3.871-11.613,3.871S2.58,52.247,2.58,50.323Zm0,16.549V54.418c2.4,1.514,6.377,2.356,11.613,2.356s9.216-.842,11.613-2.356v6.227c0,1.924-3.99,3.871-11.613,3.871S2.58,62.569,2.58,60.645m40,16.775a1.291,1.291,0,1,1,1.291-1.291A1.291,1.291,0,0,1,42.58,77.42M77.422,67.1H64.516v-12.9h12.9Zm0-20.645H64.516v-12.9h12.9ZM69.677,30.968H64.516a2.583,2.583,0,0,0-2.581,2.581v12.9a2.583,2.583,0,0,0,2.581,2.581h5.161v2.58H64.516a2.583,2.583,0,0,0-2.581,2.581V67.1a2.583,2.583,0,0,0,2.581,2.581h5.161v3.871a1.291,1.291,0,0,1-1.29,1.29H46.214a3.848,3.848,0,0,0-7.267,0H16.774a1.291,1.291,0,0,1-1.291-1.29V67.075c8.1-.226,12.9-2.59,12.9-6.43V56.774h3.871l1.29-.073v-1.29a2.53,2.53,0,0,1,4.342-1.726l.912.913,4.561-4.562.861-.963-.912-.913a2.529,2.529,0,0,1,1.849-4.289h1.29V37.42l-.073-1.291H45.087a2.531,2.531,0,0,1-1.72-4.347l.9-.912-4.556-4.556-.964-.861-.912.912a2.528,2.528,0,0,1-4.289-1.849v-1.29H28.387V19.355c0-3.839-4.8-6.2-12.9-6.43V6.452a1.292,1.292,0,0,1,1.291-1.29H38.947a3.849,3.849,0,0,0,7.267,0H68.387a1.291,1.291,0,0,1,1.29,1.29v3.871H64.516a2.583,2.583,0,0,0-2.581,2.58v12.9a2.583,2.583,0,0,0,2.581,2.58h5.161Z" fill="#fff"/>
          <rect id="Rectángulo_304595" data-name="Rectángulo 304595" width="7.742" height="2.581" transform="translate(67.097 20.645)" fill="#fff"/>
          <rect id="Rectángulo_304596" data-name="Rectángulo 304596" width="7.742" height="2.581" transform="translate(67.097 15.484)" fill="#fff"/>
        </g>
      </g>
    </g>
  </g>
</svg>
