<svg xmlns="http://www.w3.org/2000/svg" xmlns:xlink="http://www.w3.org/1999/xlink" width="150" height="150" viewBox="0 0 150 150">
  <defs>
    <clipPath id="clip-path">
      <rect id="Rectángulo_304589" data-name="Rectángulo 304589" width="82.66" height="80" fill="#fff"/>
    </clipPath>
  </defs>
  <g id="Grupo_219992" data-name="Grupo 219992" transform="translate(-7838 7352)">
    <g id="Grupo_218415" data-name="Grupo 218415" transform="translate(1696.5 3034.014)">
      <circle id="Elipse_4809" data-name="Elipse 4809" cx="75" cy="75" r="75" transform="translate(6141.5 -10386.014)" fill="#0f2771"/>
    </g>
    <g id="Grupo_218418" data-name="Grupo 218418" transform="translate(7870 -7317)">
      <g id="Grupo_218418-2" data-name="Grupo 218418" clip-path="url(#clip-path)">
        <path id="Trazado_229029" data-name="Trazado 229029" d="M36.232,44.978h10.2a1.653,1.653,0,0,0,0-3.306h-10.2a1.653,1.653,0,0,0,0,3.306" fill="#fff"/>
        <path id="Trazado_229030" data-name="Trazado 229030" d="M81.007,0h-23.5a1.654,1.654,0,0,0-1.654,1.653V21.4L52.1,28.261H30.561L26.8,21.4V1.653A1.654,1.654,0,0,0,25.149,0H1.653A1.654,1.654,0,0,0,0,1.653V21.824a1.654,1.654,0,0,0,1.653,1.653H24.17l3.758,6.86V49.662L24.17,56.523H1.653A1.654,1.654,0,0,0,0,58.176v20.17A1.654,1.654,0,0,0,1.653,80h23.5A1.654,1.654,0,0,0,26.8,78.346V58.6l3.758-6.86H52.1l3.759,6.86V78.347A1.654,1.654,0,0,0,57.511,80h23.5a1.654,1.654,0,0,0,1.653-1.653V58.176a1.654,1.654,0,0,0-1.653-1.653H58.49l-3.759-6.861V30.338l3.759-6.86H81.007a1.654,1.654,0,0,0,1.653-1.653V1.653A1.654,1.654,0,0,0,81.007,0ZM59.164,3.306h20.19V6.65H59.164ZM31.236,31.568H51.425v3.344H31.236ZM3.306,3.306H23.5V6.65H3.306ZM23.5,20.172H3.306V9.957H23.5ZM3.306,59.829H23.5V70.043H3.306ZM23.5,76.694H3.306V73.351H23.5ZM51.424,48.432H31.235V38.218H51.424Zm27.93,28.262H59.164V73.351h20.19ZM59.164,59.829h20.19V70.043H59.164Zm20.19-39.657H59.164V9.957h20.19Z" fill="#fff"/>
        <path id="Trazado_229031" data-name="Trazado 229031" d="M64.161,16.717h10.2a1.653,1.653,0,1,0,0-3.306h-10.2a1.653,1.653,0,1,0,0,3.306" fill="#fff"/>
        <path id="Trazado_229032" data-name="Trazado 229032" d="M8.3,16.717H18.5a1.653,1.653,0,1,0,0-3.306H8.3a1.653,1.653,0,1,0,0,3.306" fill="#fff"/>
        <path id="Trazado_229033" data-name="Trazado 229033" d="M18.5,63.284H8.3a1.653,1.653,0,1,0,0,3.306H18.5a1.653,1.653,0,1,0,0-3.306" fill="#fff"/>
        <path id="Trazado_229034" data-name="Trazado 229034" d="M74.357,63.284h-10.2a1.653,1.653,0,1,0,0,3.306h10.2a1.653,1.653,0,1,0,0-3.306" fill="#fff"/>
        <path id="Trazado_229035" data-name="Trazado 229035" d="M33.273,9.1a32.331,32.331,0,0,1,16.114,0,1.653,1.653,0,1,0,.831-3.2,35.653,35.653,0,0,0-17.777,0,1.653,1.653,0,0,0,.832,3.2" fill="#fff"/>
        <path id="Trazado_229036" data-name="Trazado 229036" d="M9.243,29.927a1.652,1.652,0,0,0-2.015,1.185,35.473,35.473,0,0,0,0,17.772,1.655,1.655,0,0,0,1.6,1.238,1.7,1.7,0,0,0,.416-.053,1.653,1.653,0,0,0,1.185-2.015,32.193,32.193,0,0,1,0-16.11A1.655,1.655,0,0,0,9.243,29.927Z" fill="#fff"/>
        <path id="Trazado_229037" data-name="Trazado 229037" d="M49.387,70.9a32.334,32.334,0,0,1-16.109,0,1.653,1.653,0,0,0-.831,3.2,35.488,35.488,0,0,0,17.772,0,1.653,1.653,0,1,0-.832-3.2Z" fill="#fff"/>
        <path id="Trazado_229038" data-name="Trazado 229038" d="M73.416,50.073a1.654,1.654,0,0,0,2.016-1.185,35.466,35.466,0,0,0,0-17.778,1.653,1.653,0,0,0-3.2.832,32.186,32.186,0,0,1,0,16.116A1.653,1.653,0,0,0,73.416,50.073Z" fill="#fff"/>
      </g>
    </g>
  </g>
</svg>
