<svg xmlns="http://www.w3.org/2000/svg" xmlns:xlink="http://www.w3.org/1999/xlink" width="142" height="126.616" viewBox="0 0 142 126.616">
  <defs>
    <clipPath id="clip-path">
      <rect id="Rectángulo_44998" data-name="Rectángulo 44998" width="142" height="126.616" fill="none"/>
    </clipPath>
    <clipPath id="clip-path-2">
      <path id="Trazado_203907" data-name="Trazado 203907" d="M436.472,8.013a3.022,3.022,0,1,1,3.022,3.06,3.052,3.052,0,0,1-3.022-3.06M448.411,0H448.2a45.931,45.931,0,0,0-7.7.657c-6.815,1.2-8.053,3.724-8.053,8.372v6.138H448.56v2.046H426.41a10.056,10.056,0,0,0-10.061,8.166,30.1,30.1,0,0,0,0,16.369c1.145,4.768,3.879,8.166,8.56,8.166h5.538V42.553a10.235,10.235,0,0,1,10.061-10h16.087a8.114,8.114,0,0,0,8.053-8.184V9.026c0-4.364-3.682-7.644-8.053-8.372A50.178,50.178,0,0,0,448.485,0Z" transform="translate(-415.215 0.003)" fill="none"/>
    </clipPath>
    <linearGradient id="linear-gradient" x1="-0.129" y1="1.52" x2="-0.128" y2="1.52" gradientUnits="objectBoundingBox">
      <stop offset="0" stop-color="#5a9fd4"/>
      <stop offset="1" stop-color="#306998"/>
    </linearGradient>
    <clipPath id="clip-path-3">
      <path id="Trazado_203909" data-name="Trazado 203909" d="M627.655,231.916a3.023,3.023,0,1,1,3.022,3.078,3.044,3.044,0,0,1-3.022-3.078m12.07-41.9v7.152a10.33,10.33,0,0,1-10.062,10.212H613.577a8.216,8.216,0,0,0-8.053,8.184V230.9c0,4.365,3.8,6.932,8.053,8.184a26.941,26.941,0,0,0,16.087,0c4.055-1.174,8.053-3.537,8.053-8.184v-6.138H621.63v-2.046h24.14c4.681,0,6.425-3.265,8.053-8.166,1.682-5.045,1.611-9.9,0-16.369-1.157-4.66-3.366-8.166-8.053-8.166Z" transform="translate(-605.524 -190.018)" fill="none"/>
    </clipPath>
    <linearGradient id="linear-gradient-2" x1="-0.319" y1="1.353" x2="-0.318" y2="1.353" gradientUnits="objectBoundingBox">
      <stop offset="0" stop-color="#ffd43b"/>
      <stop offset="1" stop-color="#ffe873"/>
    </linearGradient>
  </defs>
  <g id="Grupo_218290" data-name="Grupo 218290" transform="translate(0 0.003)">
    <g id="Grupo_146944" data-name="Grupo 146944" transform="translate(0 -0.003)">
      <g id="Grupo_146943" data-name="Grupo 146943" transform="translate(0 0)" clip-path="url(#clip-path)">
        <path id="Trazado_203905" data-name="Trazado 203905" d="M17.226,831.018q0-10.419-5.942-10.707a11.157,11.157,0,0,0-4.612.758,6.765,6.765,0,0,0-2.422,1.279v16.579q3.8,2.385,6.746,2.213,6.227-.413,6.23-10.122m4.886.288a14.733,14.733,0,0,1-2.492,8.787,9.188,9.188,0,0,1-7.713,4.068,13.684,13.684,0,0,1-7.657-2.325V856.9L0,855.389V821.943a9.51,9.51,0,0,1,2.683-2.213,18.41,18.41,0,0,1,9.22-2.269l.06.06a8.459,8.459,0,0,1,7.643,4.068A17.287,17.287,0,0,1,22.112,831.306Zm25.97,9.889q0,7.1-1.422,9.833a10.031,10.031,0,0,1-5.444,4.361,20.857,20.857,0,0,1-7.039,1.4l-.7-2.678a33.779,33.779,0,0,0,5.412-1.046,7.15,7.15,0,0,0,4.249-3.2q.934-1.75.93-6.69V842.07a21.827,21.827,0,0,1-9.135,1.976A8.4,8.4,0,0,1,29.4,842.07a6.722,6.722,0,0,1-2.678-5.467V818.917l4.249-1.455v17.8a5.41,5.41,0,0,0,1.841,4.393,6.955,6.955,0,0,0,4.766,1.483,11.915,11.915,0,0,0,6.253-2.269V818.1h4.25V841.2Zm16.588,2.734q-.7.059-1.4.06a8.36,8.36,0,0,1-5.616-1.72,5.942,5.942,0,0,1-2-4.756V820.776H52.74V818.1h2.911V811l4.245-1.511v8.61H64.67v2.673H59.9V837.4a4.026,4.026,0,0,0,1.283,3.385,6.492,6.492,0,0,0,3.491.934v2.213ZM90.4,843.58H86.15v-16.4a7.751,7.751,0,0,0-1.167-4.3,4.246,4.246,0,0,0-3.743-2.037q-2.922,0-7.308,3.082V843.58H69.683V804.374l4.249-1.339v17.857a14.8,14.8,0,0,1,8.9-2.966,7.1,7.1,0,0,1,5.468,2.269,7.989,7.989,0,0,1,2.1,5.644V843.58h0Zm22.586-13.231a13.051,13.051,0,0,0-1.516-6.616,6.344,6.344,0,0,0-5.584-3.361q-6.988.4-6.983,10.005a16.458,16.458,0,0,0,1.46,7.35q1.869,3.759,5.607,3.7Q112.984,841.372,112.985,830.349Zm4.654.028a15.113,15.113,0,0,1-2.911,9.484,10.467,10.467,0,0,1-8.843,4.245,10.258,10.258,0,0,1-8.731-4.245,15.315,15.315,0,0,1-2.85-9.484,13.538,13.538,0,0,1,3.083-9.019,10.62,10.62,0,0,1,8.555-3.9,10.8,10.8,0,0,1,8.615,3.9A13.538,13.538,0,0,1,117.639,830.376ZM142,843.58h-4.249V826.248a5.8,5.8,0,0,0-1.715-4.454,6.234,6.234,0,0,0-4.57-1.539,10.212,10.212,0,0,0-5.76,1.976V843.58h-4.249V821.706a20.935,20.935,0,0,1,6.751-3.487,20.6,20.6,0,0,1,5.123-.758,13.281,13.281,0,0,1,2.85.293,8.2,8.2,0,0,1,4.073,2.152A5.7,5.7,0,0,1,142,824.1Z" transform="translate(0 -730.289)" fill="#646464"/>
      </g>
    </g>
    <g id="Grupo_146946" data-name="Grupo 146946" transform="translate(37.614 -0.003)">
      <g id="Grupo_146945" data-name="Grupo 146945" transform="translate(0 0)" clip-path="url(#clip-path-2)">
        <path id="Trazado_203906" data-name="Trazado 203906" d="M186.549-274.685l53.08,46.115L193.99-175l-53.08-46.115Z" transform="translate(-165.759 249.802)" fill="url(#linear-gradient)"/>
      </g>
    </g>
    <g id="Grupo_146948" data-name="Grupo 146948" transform="translate(54.854 17.211)">
      <g id="Grupo_146947" data-name="Grupo 146947" clip-path="url(#clip-path-3)">
        <path id="Trazado_203908" data-name="Trazado 203908" d="M383.954,25.844l-40.379-57.69,57.06-40.723,40.379,57.69Z" transform="translate(-367.304 48.782)" fill="url(#linear-gradient-2)"/>
      </g>
    </g>
  </g>
</svg>
