<svg id="Grupo_218353" data-name="Grupo 218353" xmlns="http://www.w3.org/2000/svg" xmlns:xlink="http://www.w3.org/1999/xlink" width="142" height="103.403" viewBox="0 0 142 103.403">
  <defs>
    <clipPath id="clip-path">
      <rect id="Rectángulo_304382" data-name="Rectángulo 304382" width="142" height="103.404" fill="none"/>
    </clipPath>
    <clipPath id="clip-path-3">
      <rect id="Rectángulo_304372" data-name="Rectángulo 304372" width="7.984" height="2.483" fill="none"/>
    </clipPath>
    <clipPath id="clip-path-4">
      <rect id="Rectángulo_304373" data-name="Rectángulo 304373" width="14.908" height="22.432" fill="none"/>
    </clipPath>
    <clipPath id="clip-path-5">
      <rect id="Rectángulo_304374" data-name="Rectángulo 304374" width="20.516" height="31.218" fill="none"/>
    </clipPath>
    <clipPath id="clip-path-6">
      <rect id="Rectángulo_304375" data-name="Rectángulo 304375" width="28.018" height="17.134" fill="none"/>
    </clipPath>
    <clipPath id="clip-path-7">
      <rect id="Rectángulo_304376" data-name="Rectángulo 304376" width="14.426" height="9.011" fill="none"/>
    </clipPath>
    <clipPath id="clip-path-8">
      <rect id="Rectángulo_304377" data-name="Rectángulo 304377" width="7.877" height="19.981" fill="none"/>
    </clipPath>
    <clipPath id="clip-path-9">
      <rect id="Rectángulo_304378" data-name="Rectángulo 304378" width="25.215" height="25.054" fill="none"/>
    </clipPath>
  </defs>
  <g id="Grupo_218316" data-name="Grupo 218316" clip-path="url(#clip-path)">
    <g id="Grupo_218315" data-name="Grupo 218315">
      <g id="Grupo_218314" data-name="Grupo 218314" clip-path="url(#clip-path)">
        <path id="Trazado_228811" data-name="Trazado 228811" d="M158.949,73.433a36.025,36.025,0,1,0-36.025-36.025,36.025,36.025,0,0,0,36.025,36.025" transform="translate(-87.949 -0.99)" fill="#fff"/>
        <path id="Trazado_228812" data-name="Trazado 228812" d="M157.96,0a36.419,36.419,0,1,0,36.419,36.419A36.42,36.42,0,0,0,157.96,0m0,.787a35.632,35.632,0,1,1-25.2,10.436A35.632,35.632,0,0,1,157.96.787" transform="translate(-86.96)" fill="#11557c"/>
        <path id="Trazado_228813" data-name="Trazado 228813" d="M158.716,72.935a.1.1,0,0,1,.1.079l0,.02v.157a.1.1,0,0,1-.2.02l0-.02v-.157a.1.1,0,0,1,.1-.1m0-.619a.1.1,0,0,1,.1.079l0,.02v.3a.1.1,0,0,1-.2.02l0-.02v-.3a.1.1,0,0,1,.1-.1m0-.618a.1.1,0,0,1,.1.079l0,.02v.3a.1.1,0,0,1-.2.02l0-.02v-.3a.1.1,0,0,1,.1-.1m0-.619a.1.1,0,0,1,.1.079l0,.02v.3a.1.1,0,0,1-.2.02l0-.02v-.3a.1.1,0,0,1,.1-.1m0-.618a.1.1,0,0,1,.1.079l0,.02v.3a.1.1,0,0,1-.2.02l0-.02v-.3a.1.1,0,0,1,.1-.1m0-.619a.1.1,0,0,1,.1.079l0,.02v.3a.1.1,0,0,1-.2.02l0-.02v-.3a.1.1,0,0,1,.1-.1m0-.618a.1.1,0,0,1,.1.079l0,.02v.3a.1.1,0,0,1-.2.02l0-.02v-.3a.1.1,0,0,1,.1-.1m0-.618a.1.1,0,0,1,.1.079l0,.02V69a.1.1,0,0,1-.2.02l0-.02v-.3a.1.1,0,0,1,.1-.1m0-.619a.1.1,0,0,1,.1.079l0,.02v.3a.1.1,0,0,1-.2.02l0-.02v-.3a.1.1,0,0,1,.1-.1m0-.618a.1.1,0,0,1,.1.079l0,.02v.3a.1.1,0,0,1-.2.02l0-.02v-.3a.1.1,0,0,1,.1-.1m0-.619a.1.1,0,0,1,.1.079l0,.02v.3a.1.1,0,0,1-.2.02l0-.02v-.3a.1.1,0,0,1,.1-.1m0-.618a.1.1,0,0,1,.1.079l0,.02v.3a.1.1,0,0,1-.2.02l0-.02v-.3a.1.1,0,0,1,.1-.1m0-.619a.1.1,0,0,1,.1.079l0,.02v.3a.1.1,0,0,1-.2.02l0-.02v-.3a.1.1,0,0,1,.1-.1m0-.618a.1.1,0,0,1,.1.079l0,.02v.3a.1.1,0,0,1-.2.02l0-.02v-.3a.1.1,0,0,1,.1-.1m0-.618a.1.1,0,0,1,.1.079l0,.02v.3a.1.1,0,0,1-.2.02l0-.02v-.3a.1.1,0,0,1,.1-.1m0-.619a.1.1,0,0,1,.1.079l0,.02v.3a.1.1,0,0,1-.2.02l0-.02v-.3a.1.1,0,0,1,.1-.1m0-.618a.1.1,0,0,1,.1.079l0,.02v.3a.1.1,0,0,1-.2.02l0-.02v-.3a.1.1,0,0,1,.1-.1m0-.619a.1.1,0,0,1,.1.079l0,.02v.3a.1.1,0,0,1-.2.02l0-.02v-.3a.1.1,0,0,1,.1-.1m-25.431.037a.1.1,0,0,1,.154.122l-.014.018-.11.11a.1.1,0,0,1-.154-.122l.014-.018Zm50.723,0a.1.1,0,0,1,.122-.014l.018.014.11.11a.1.1,0,0,1-.122.154l-.018-.014-.11-.11a.1.1,0,0,1,0-.14m-50.286-.437a.1.1,0,0,1,.154.122l-.014.018-.21.21a.1.1,0,0,1-.154-.122l.014-.018Zm49.849,0a.1.1,0,0,1,.122-.014l.018.014.21.21a.1.1,0,0,1-.122.154l-.018-.014-.21-.21a.1.1,0,0,1,0-.14M158.716,61.8a.1.1,0,0,1,.1.079l0,.02v.3a.1.1,0,0,1-.2.02l0-.02v-.3a.1.1,0,0,1,.1-.1m-24.557-.22a.1.1,0,0,1,.154.122l-.014.018-.21.209a.1.1,0,0,1-.154-.122l.014-.018Zm48.974,0a.1.1,0,0,1,.122-.014l.018.014.21.21a.1.1,0,0,1-.122.154l-.018-.014-.21-.209a.1.1,0,0,1,0-.14m-24.417-.4a.1.1,0,0,1,.1.079l0,.02v.3a.1.1,0,0,1-.2.02l0-.02v-.3a.1.1,0,0,1,.1-.1m-24.12-.038a.1.1,0,0,1,.154.121l-.014.018-.21.21a.1.1,0,0,1-.154-.122l.014-.018Zm48.1,0a.1.1,0,0,1,.122-.015l.018.015.21.209a.1.1,0,0,1-.122.154l-.018-.015-.21-.21a.1.1,0,0,1,0-.139m-47.662-.438a.1.1,0,0,1,.154.122l-.014.018-.21.21a.1.1,0,0,1-.154-.121l.014-.018Zm47.225,0a.1.1,0,0,1,.122-.014l.018.014.21.21a.1.1,0,0,1-.122.154l-.018-.014-.21-.21a.1.1,0,0,1,0-.14m-23.543-.143a.1.1,0,0,1,.1.079l0,.02v.3a.1.1,0,0,1-.2.02l0-.02v-.3a.1.1,0,0,1,.1-.1m-23.245-.295a.1.1,0,0,1,.154.122l-.014.018-.21.21a.1.1,0,0,1-.154-.122l.014-.018Zm46.35,0a.1.1,0,0,1,.122-.014l.018.014.21.21a.1.1,0,0,1-.122.154l-.018-.014-.21-.21a.1.1,0,0,1,0-.14m-23.105-.324a.1.1,0,0,1,.1.079l0,.02v.3a.1.1,0,0,1-.2.02l0-.02v-.3a.1.1,0,0,1,.1-.1m-22.808-.114a.1.1,0,0,1,.154.122l-.014.018-.21.21a.1.1,0,0,1-.154-.122l.014-.018Zm45.476,0a.1.1,0,0,1,.122-.014l.018.014.21.21a.1.1,0,0,1-.122.154l-.018-.014-.21-.21a.1.1,0,0,1,0-.14m-22.668-.5a.1.1,0,0,1,.1.079l0,.02v.3a.1.1,0,0,1-.2.02l0-.02v-.3a.1.1,0,0,1,.1-.1m-22.371.068a.1.1,0,0,1,.154.122l-.014.018-.21.21a.1.1,0,0,1-.154-.122l.014-.018Zm44.6,0a.1.1,0,0,1,.122-.014l.018.014.21.21a.1.1,0,0,1-.122.154l-.018-.014-.21-.21a.1.1,0,0,1,0-.14m-44.164-.437a.1.1,0,0,1,.154.122l-.014.018-.21.21a.1.1,0,0,1-.154-.122l.014-.018Zm43.727,0a.1.1,0,0,1,.122-.014l.018.014.21.21a.1.1,0,0,1-.122.154l-.018-.014-.21-.21a.1.1,0,0,1,0-.14m-21.794-.248a.1.1,0,0,1,.1.079l0,.02v.3a.1.1,0,0,1-.2.02l0-.02v-.3a.1.1,0,0,1,.1-.1m-21.5-.189a.1.1,0,0,1,.154.122l-.014.018-.21.21a.1.1,0,0,1-.154-.122l.014-.018Zm42.852,0a.1.1,0,0,1,.122-.014l.018.014.21.21a.1.1,0,0,1-.122.154l-.018-.014-.21-.21a.1.1,0,0,1,0-.14m-21.356-.43a.1.1,0,0,1,.1.079l0,.02v.3a.1.1,0,0,1-.2.02l0-.02v-.3a.1.1,0,0,1,.1-.1m20.919-.007a.1.1,0,0,1,.122-.014l.018.014.21.21a.1.1,0,0,1-.122.154l-.018-.014-.21-.21a.1.1,0,0,1,0-.14m-41.978,0a.1.1,0,0,1,.154.122l-.014.018-.21.21a.1.1,0,0,1-.154-.122l.014-.018Zm.437-.437a.1.1,0,0,1,.154.122l-.014.018-.21.21a.1.1,0,0,1-.154-.122l.014-.018Zm41.1,0a.1.1,0,0,1,.122-.015l.018.015.21.21a.1.1,0,0,1-.122.154L179.407,58l-.21-.21a.1.1,0,0,1,0-.139m-20.482-.174a.1.1,0,0,1,.1.079l0,.02v.3a.1.1,0,0,1-.2.02l0-.02v-.3a.1.1,0,0,1,.1-.1m20.045-.264a.1.1,0,0,1,.122-.014l.018.014.21.21a.1.1,0,0,1-.122.154l-.018-.014-.21-.21a.1.1,0,0,1,0-.14m-40.229,0a.1.1,0,0,1,.154.122l-.014.018-.21.21a.1.1,0,0,1-.154-.122l.014-.018Zm20.184-.355a.1.1,0,0,1,.1.079l0,.02v.3a.1.1,0,0,1-.2.02l0-.02v-.3a.1.1,0,0,1,.1-.1m-19.747-.083a.1.1,0,0,1,.154.122l-.014.018-.21.21a.1.1,0,0,1-.154-.122l.014-.018Zm39.354,0a.1.1,0,0,1,.122-.014l.018.014.21.21a.1.1,0,0,1-.122.154l-.018-.014-.21-.21a.1.1,0,0,1,0-.14m-19.607-.535a.1.1,0,0,1,.1.079l0,.02v.3a.1.1,0,0,1-.2.02l0-.02v-.3a.1.1,0,0,1,.1-.1m19.17.1a.1.1,0,0,1,.122-.015l.018.015.21.21a.1.1,0,0,1,0,.139.1.1,0,0,1-.122.015l-.018-.015-.21-.21a.1.1,0,0,1,0-.139m-38.48,0a.1.1,0,0,1,.154.121l-.014.018-.21.21a.1.1,0,0,1-.154-.122l.014-.017Zm38.042-.438a.1.1,0,0,1,.122-.014l.018.014.21.21a.1.1,0,0,1-.122.154l-.018-.014-.21-.21a.1.1,0,0,1,0-.14m-37.605,0a.1.1,0,0,1,.154.122l-.014.018-.21.21a.1.1,0,0,1-.154-.121l.014-.018Zm18.872-.28a.1.1,0,0,1,.1.079l0,.02v.3a.1.1,0,0,1-.2.02l0-.02v-.3a.1.1,0,0,1,.1-.1m18.3-.157a.1.1,0,0,1,.122-.014l.018.014.21.21a.1.1,0,0,1-.122.154l-.018-.014-.21-.21a.1.1,0,0,1,0-.14m-36.73,0a.1.1,0,0,1,.154.122l-.014.018-.21.21a.1.1,0,0,1-.154-.122l.014-.018ZM158.716,55a.1.1,0,0,1,.1.079l0,.02v.3a.1.1,0,0,1-.2.02l0-.02v-.3a.1.1,0,0,1,.1-.1m17.858.023a.1.1,0,0,1,.122-.014l.018.014.21.21a.1.1,0,0,1-.122.154l-.018-.014-.21-.21a.1.1,0,0,1,0-.14m-35.856,0a.1.1,0,0,1,.154.122l-.014.018-.21.21a.1.1,0,0,1-.154-.122l.014-.018Zm35.419-.437a.1.1,0,0,1,.122-.014l.018.014.21.21a.1.1,0,0,1-.122.154l-.018-.014-.21-.21a.1.1,0,0,1,0-.14m-34.981,0a.1.1,0,0,1,.154.122l-.014.018-.21.21a.1.1,0,0,1-.154-.122l.014-.018Zm17.561-.2a.1.1,0,0,1,.1.079l0,.02v.3a.1.1,0,0,1-.2.02l0-.02v-.3a.1.1,0,0,1,.1-.1M175.7,54.15a.1.1,0,0,1,.122-.014l.018.014.21.21a.1.1,0,0,1-.122.154l-.018-.014-.21-.21a.1.1,0,0,1,0-.14m-34.107,0a.1.1,0,0,1,.154.122l-.014.018-.21.21a.1.1,0,0,1-.154-.122l.014-.018Zm17.123-.386a.1.1,0,0,1,.1.079l0,.02v.3a.1.1,0,0,1-.2.02l0-.02v-.3a.1.1,0,0,1,.1-.1m-16.686-.051a.1.1,0,0,1,.154.122l-.014.018-.21.21a.1.1,0,0,1-.154-.122l.014-.018Zm33.233,0a.1.1,0,0,1,.122-.014l.018.014.21.21a.1.1,0,0,1-.122.154l-.018-.014-.21-.21a.1.1,0,0,1,0-.14m-32.8-.437a.1.1,0,0,1,.154.122l-.014.018-.21.21a.1.1,0,0,1-.154-.122l.014-.018Zm32.358,0a.1.1,0,0,1,.122-.014l.018.014.21.21a.1.1,0,0,1-.122.154l-.018-.014-.21-.21a.1.1,0,0,1,0-.14m-16.109-.13a.1.1,0,0,1,.1.079l0,.02v.3a.1.1,0,0,1-.2.02l0-.02v-.3a.1.1,0,0,1,.1-.1M142.9,52.838a.1.1,0,0,1,.154.122l-.014.018-.21.21a.1.1,0,0,1-.154-.122l.014-.018Zm31.483,0a.1.1,0,0,1,.122-.014l.018.014.21.21a.1.1,0,0,1-.122.154l-.018-.014-.21-.21a.1.1,0,0,1,0-.14m-15.672-.311a.1.1,0,0,1,.1.079l0,.02v.3a.1.1,0,0,1-.2.02l0-.02v-.3a.1.1,0,0,1,.1-.1M143.342,52.4a.1.1,0,0,1,.154.121l-.014.018-.21.21a.1.1,0,0,1-.154-.122l.014-.018Zm30.609,0a.1.1,0,0,1,.122-.015l.018.015.21.21a.1.1,0,0,1-.122.154l-.018-.015-.21-.21a.1.1,0,0,1,0-.139m-15.234-.492a.1.1,0,0,1,.1.079l0,.02v.3a.1.1,0,0,1-.2.02l0-.02v-.3a.1.1,0,0,1,.1-.1m-14.937.055a.1.1,0,0,1,.154.122l-.014.018-.21.21a.1.1,0,0,1-.154-.121l.014-.018Zm29.734,0a.1.1,0,0,1,.122-.014l.018.014.21.21a.1.1,0,0,1-.122.154l-.018-.014-.21-.21a.1.1,0,0,1,0-.14m-.437-.437a.1.1,0,0,1,.122-.014l.018.014.21.21a.1.1,0,0,1-.122.154l-.018-.014-.21-.21a.1.1,0,0,1,0-.14m-28.86,0a.1.1,0,0,1,.154.122l-.014.018-.21.21a.1.1,0,0,1-.154-.122l.014-.018Zm14.5-.236a.1.1,0,0,1,.1.079l0,.02v.3a.1.1,0,0,1-.2.02l0-.02v-.3a.1.1,0,0,1,.1-.1m-14.062-.2a.1.1,0,0,1,.154.122l-.014.018-.21.21a.1.1,0,0,1-.154-.122l.014-.018Zm27.985,0a.1.1,0,0,1,.122-.014l.018.014.21.21a.1.1,0,0,1-.122.154l-.018-.014-.21-.21a.1.1,0,0,1,0-.14m-13.923-.417a.1.1,0,0,1,.1.079l0,.02v.3a.1.1,0,0,1-.2.02l0-.02v-.3a.1.1,0,0,1,.1-.1m-13.625-.02a.1.1,0,0,1,.154.122l-.014.018-.21.21a.1.1,0,0,1-.154-.122l.014-.018Zm27.111,0a.1.1,0,0,1,.122-.014l.018.014.21.21a.1.1,0,0,1-.122.154L172.411,51l-.21-.21a.1.1,0,0,1,0-.14m-26.673-.437a.1.1,0,0,1,.154.122l-.014.018-.21.21a.1.1,0,0,1-.154-.122l.014-.018Zm26.236,0a.1.1,0,0,1,.122-.014l.018.014.21.21a.1.1,0,0,1-.122.154l-.018-.014-.21-.21a.1.1,0,0,1,0-.14m-13.048-.161a.1.1,0,0,1,.1.079l0,.02v.3a.1.1,0,0,1-.2.02l0-.02v-.3a.1.1,0,0,1,.1-.1m12.611-.277a.1.1,0,0,1,.122-.014l.018.014.21.21a.1.1,0,0,1-.122.154l-.018-.014-.21-.21a.1.1,0,0,1,0-.14m-25.361,0a.1.1,0,0,1,.154.122l-.014.018-.21.21a.1.1,0,0,1-.154-.122l.014-.018Zm12.751-.342a.1.1,0,0,1,.1.079l0,.02v.3a.1.1,0,0,1-.2.02l0-.02v-.3a.1.1,0,0,1,.1-.1m12.174-.1a.1.1,0,0,1,.122-.014l.018.014.21.21a.1.1,0,0,1-.122.154l-.018-.014-.21-.21a.1.1,0,0,1,0-.14m-24.487,0a.1.1,0,0,1,.154.122l-.014.018-.21.21a.1.1,0,0,1-.154-.122l.014-.018Zm12.314-.523a.1.1,0,0,1,.1.079l0,.02v.3a.1.1,0,0,1-.2.02l0-.02v-.3a.1.1,0,0,1,.1-.1m11.736.086a.1.1,0,0,1,.122-.014l.018.014.21.21a.1.1,0,0,1-.122.154l-.018-.014-.21-.21a.1.1,0,0,1,0-.14m-23.613,0a.1.1,0,0,1,.154.122l-.014.018-.21.21a.1.1,0,0,1-.154-.122l.014-.018Zm23.175-.437a.1.1,0,0,1,.122-.014l.018.014.21.21a.1.1,0,0,1-.122.154l-.018-.014-.21-.21a.1.1,0,0,1,0-.14m-22.738,0a.1.1,0,0,1,.154.122l-.014.018-.21.21a.1.1,0,0,1-.154-.122l.014-.018Zm11.439-.267a.1.1,0,0,1,.1.079l0,.02v.3a.1.1,0,0,1-.2.02l0-.02v-.3a.1.1,0,0,1,.1-.1m-11-.17a.1.1,0,0,1,.154.122l-.014.018-.21.21a.1.1,0,0,1-.154-.122l.014-.018Zm21.864,0a.1.1,0,0,1,.122-.014l.018.014.21.21a.1.1,0,0,1-.122.154l-.018-.014-.21-.21a.1.1,0,0,1,0-.14m-10.862-.448a.1.1,0,0,1,.1.079l0,.02v.3a.1.1,0,0,1-.2.02l0-.02v-.3a.1.1,0,0,1,.1-.1m-10.564.011a.1.1,0,0,1,.154.121l-.014.018-.21.21a.1.1,0,0,1-.14,0,.1.1,0,0,1-.014-.122l.014-.017Zm20.989,0a.1.1,0,0,1,.122-.015l.018.015.21.21a.1.1,0,0,1,0,.139.1.1,0,0,1-.122.015l-.018-.015-.21-.21a.1.1,0,0,1,0-.139m-20.552-.438a.1.1,0,0,1,.154.122l-.014.018-.21.21a.1.1,0,0,1-.154-.122l.014-.018Zm20.114,0a.1.1,0,0,1,.122-.014l.018.014.21.21a.1.1,0,0,1-.122.154l-.018-.014-.21-.21a.1.1,0,0,1,0-.14m-9.987-.192a.1.1,0,0,1,.1.079l0,.02v.3a.1.1,0,0,1-.2.02l0-.02v-.3a.1.1,0,0,1,.1-.1m-9.69-.245a.1.1,0,0,1,.154.122l-.014.018-.21.21a.1.1,0,0,1-.154-.122l.014-.018Zm19.24,0a.1.1,0,0,1,.122-.014l.018.014.21.21a.1.1,0,0,1-.122.154l-.018-.014-.21-.21a.1.1,0,0,1,0-.14m-9.55-.373a.1.1,0,0,1,.1.079l0,.02v.3a.1.1,0,0,1-.2.02l0-.02v-.3a.1.1,0,0,1,.1-.1m-9.253-.064a.1.1,0,0,1,.154.122l-.014.018-.21.21a.1.1,0,0,1-.154-.122l.014-.018Zm18.365,0a.1.1,0,0,1,.122-.014l.018.014.21.21a.1.1,0,0,1-.122.154l-.018-.014-.21-.21a.1.1,0,0,1,0-.14M149.9,45.842a.1.1,0,0,1,.154.122l-.014.018-.21.21a.1.1,0,0,1-.154-.122l.014-.018Zm17.491,0a.1.1,0,0,1,.122-.014l.018.014.21.21a.1.1,0,0,1-.122.154l-.018-.014-.21-.21a.1.1,0,0,1,0-.14m-8.675-.117a.1.1,0,0,1,.1.079l0,.02v.3a.1.1,0,0,1-.2.02l0-.02v-.3a.1.1,0,0,1,.1-.1m-8.378-.32a.1.1,0,0,1,.154.122l-.014.018-.21.21a.1.1,0,0,1-.154-.122l.014-.018Zm16.616,0a.1.1,0,0,1,.122-.014l.018.014.21.21a.1.1,0,0,1-.122.154l-.018-.014-.21-.21a.1.1,0,0,1,0-.14m-8.238-.3a.1.1,0,0,1,.1.079l0,.02v.3a.1.1,0,0,1-.2.02l0-.02v-.3a.1.1,0,0,1,.1-.1m-7.941-.139a.1.1,0,0,1,.154.122l-.014.018-.21.21a.1.1,0,0,1-.154-.122l.014-.018Zm15.742,0a.1.1,0,0,1,.122-.014l.018.014.21.21a.1.1,0,0,1-.122.154l-.018-.014-.21-.21a.1.1,0,0,1,0-.14m-7.8-.479a.1.1,0,0,1,.1.079l0,.02v.3a.1.1,0,0,1-.2.02l0-.02v-.3a.1.1,0,0,1,.1-.1m7.364.042a.1.1,0,0,1,.122-.014l.018.014.21.21a.1.1,0,0,1-.122.154l-.018-.014-.21-.21a.1.1,0,0,1,0-.14m-14.867,0a.1.1,0,0,1,.154.122l-.014.018-.21.21a.1.1,0,0,1-.154-.122L151,44.74Zm14.43-.437a.1.1,0,0,1,.122-.014l.018.014.21.21a.1.1,0,0,1-.122.154l-.018-.014-.21-.21a.1.1,0,0,1,0-.14m-13.993,0a.1.1,0,0,1,.154.122l-.014.018-.21.21a.1.1,0,0,1-.154-.122l.014-.018Zm7.066-.223a.1.1,0,0,1,.1.079l0,.02v.3a.1.1,0,0,1-.2.02l0-.02v-.3a.1.1,0,0,1,.1-.1m6.489-.214a.1.1,0,0,1,.122-.015l.018.015.21.21a.1.1,0,0,1,0,.139.1.1,0,0,1-.122.015l-.018-.015-.21-.21a.1.1,0,0,1,0-.139m-13.118,0a.1.1,0,0,1,.154.121l-.014.018-.21.21a.1.1,0,0,1-.154-.122l.014-.018Zm6.629-.4a.1.1,0,0,1,.1.079l0,.02v.3a.1.1,0,0,1-.2.02l0-.02v-.3a.1.1,0,0,1,.1-.1m6.052-.033a.1.1,0,0,1,.122-.014l.018.014.21.21a.1.1,0,0,1-.122.154l-.018-.014-.21-.21a.1.1,0,0,1,0-.14m-12.244,0a.1.1,0,0,1,.154.122l-.014.018-.21.21a.1.1,0,0,1-.154-.121l.014-.018Zm11.806-.437a.1.1,0,0,1,.122-.014l.018.014.21.21a.1.1,0,0,1-.122.154l-.018-.014-.21-.21a.1.1,0,0,1,0-.14m-11.369,0a.1.1,0,0,1,.154.122l-.014.018-.21.21a.1.1,0,0,1-.154-.122l.014-.018Zm5.754-.148a.1.1,0,0,1,.1.079l0,.02v.3a.1.1,0,0,1-.2.02l0-.02v-.3a.1.1,0,0,1,.1-.1m-5.317-.289a.1.1,0,0,1,.154.122l-.014.018-.21.21a.1.1,0,0,1-.154-.122l.014-.018Zm10.495,0a.1.1,0,0,1,.122-.014l.018.014.21.21a.1.1,0,0,1-.122.154l-.018-.014-.21-.21a.1.1,0,0,1,0-.14m-5.177-.329a.1.1,0,0,1,.1.079l0,.02v.3a.1.1,0,0,1-.2.02l0-.02v-.3a.1.1,0,0,1,.1-.1m-4.88-.108a.1.1,0,0,1,.154.122l-.014.018-.21.21a.1.1,0,0,1-.154-.122l.014-.018Zm9.62,0a.1.1,0,0,1,.122-.014l.018.014.21.21a.1.1,0,0,1-.122.154l-.018-.014-.21-.21a.1.1,0,0,1,0-.14m-4.74-.51a.1.1,0,0,1,.1.079l0,.02v.3a.1.1,0,0,1-.2.02l0-.02v-.3a.1.1,0,0,1,.1-.1m-4.443.073a.1.1,0,0,1,.154.122l-.014.018-.21.21a.1.1,0,0,1-.154-.122l.014-.018Zm8.745,0a.1.1,0,0,1,.122-.014l.018.014.21.21a.1.1,0,0,1-.122.154l-.018-.014-.21-.21a.1.1,0,0,1,0-.14m-8.308-.437a.1.1,0,0,1,.154.122l-.014.018-.21.21a.1.1,0,0,1-.154-.122l.014-.018Zm7.871,0a.1.1,0,0,1,.122-.014l.018.014.21.21a.1.1,0,0,1-.122.154l-.018-.014-.21-.21a.1.1,0,0,1,0-.14m-3.866-.254a.1.1,0,0,1,.1.079l0,.02v.3a.1.1,0,0,1-.2.02l0-.02v-.3a.1.1,0,0,1,.1-.1m-3.568-.183a.1.1,0,0,1,.154.122l-.014.018-.21.21a.1.1,0,0,1-.154-.122l.014-.018Zm7,0a.1.1,0,0,1,.122-.014l.018.014.21.21a.1.1,0,0,1-.122.154l-.018-.014-.21-.21a.1.1,0,0,1,0-.14m-3.428-.435a.1.1,0,0,1,.1.079l0,.02v.3a.1.1,0,0,1-.2.02l0-.02v-.3a.1.1,0,0,1,.1-.1m-3.131,0a.1.1,0,0,1,.154.122l-.014.018-.21.209a.1.1,0,0,1-.154-.122l.014-.018Zm6.122,0a.1.1,0,0,1,.122-.014l.018.014.21.21a.1.1,0,0,1-.122.154l-.018-.014-.21-.209a.1.1,0,0,1,0-.14m-5.684-.437a.1.1,0,0,1,.154.122l-.014.018-.21.21a.1.1,0,0,1-.154-.122l.014-.018Zm5.247,0a.1.1,0,0,1,.122-.015l.018.015.21.209a.1.1,0,0,1-.122.154l-.018-.014-.21-.21a.1.1,0,0,1,0-.14m-2.554-.179a.1.1,0,0,1,.1.079l0,.02v.3a.1.1,0,0,1-.2.02l0-.02v-.3a.1.1,0,0,1,.1-.1m-2.256-.258a.1.1,0,0,1,.154.122l-.014.018-.21.21a.1.1,0,0,1-.154-.122l.014-.018Zm4.373,0a.1.1,0,0,1,.122-.014l.018.014.21.21a.1.1,0,0,1-.122.154l-.018-.014-.21-.21a.1.1,0,0,1,0-.14m-2.117-.36a.1.1,0,0,1,.1.079l0,.02v.3a.1.1,0,0,1-.2.02l0-.02v-.3a.1.1,0,0,1,.1-.1m-1.819-.077a.1.1,0,0,1,.154.122l-.014.018-.21.21a.1.1,0,0,1-.154-.122l.014-.018Zm3.5,0a.1.1,0,0,1,.122-.014l.018.014.21.21a.1.1,0,0,1-.122.154L160.6,39.2l-.21-.21a.1.1,0,0,1,0-.14m-1.679-.541a.1.1,0,0,1,.1.079l0,.02v.3a.1.1,0,0,1-.2.02l0-.02v-.3a.1.1,0,0,1,.1-.1m-1.382.1a.1.1,0,0,1,.154.122l-.014.018-.21.21a.1.1,0,0,1-.154-.122l.014-.018Zm2.624,0a.1.1,0,0,1,.122-.014l.018.014.21.21a.1.1,0,0,1-.122.154l-.018-.014-.21-.21a.1.1,0,0,1,0-.14m-2.186-.437a.1.1,0,0,1,.154.122l-.014.018-.21.21a.1.1,0,0,1-.154-.121l.014-.018Zm1.749,0a.1.1,0,0,1,.122-.014l.018.014.21.21a.1.1,0,0,1-.122.154l-.018-.014-.21-.21a.1.1,0,0,1,0-.14m-.8-.285a.1.1,0,0,1,.1.079l0,.02v.3a.1.1,0,0,1-.2.02l0-.02v-.3a.1.1,0,0,1,.1-.1m.367-.152a.1.1,0,0,1,.122-.014l.018.014.21.21a.1.1,0,0,1-.122.154l-.018-.014-.21-.21a.1.1,0,0,1,0-.14m-.875,0a.1.1,0,0,1,.154.122l-.014.018-.21.21a.1.1,0,0,1-.154-.122l.014-.018Zm.507-.763a.1.1,0,0,1,.1.079l0,.02v.058l.041-.041a.1.1,0,0,1,.122-.014l.018.014a.1.1,0,0,1,.014.122l-.014.018-.041.04h.058a.1.1,0,0,1,.1.079l0,.02a.1.1,0,0,1-.079.1l-.02,0h-.058l.041.041a.1.1,0,0,1,.014.122l-.014.018a.1.1,0,0,1-.122.014l-.018-.014-.041-.041v.058a.1.1,0,0,1-.079.1l-.02,0a.1.1,0,0,1-.1-.079l0-.02v-.058l-.041.041a.1.1,0,0,1-.122.014l-.018-.014a.1.1,0,0,1-.014-.122l.014-.018.041-.041h-.058a.1.1,0,0,1-.1-.079l0-.02a.1.1,0,0,1,.079-.1l.02,0h.058l-.041-.04a.1.1,0,0,1-.014-.122l.014-.018a.1.1,0,0,1,.122-.014l.018.014.041.041V36.87a.1.1,0,0,1,.079-.1Zm-35.248.3a.1.1,0,0,1,.02.2l-.02,0h-.3a.1.1,0,0,1-.02-.2l.02,0Zm53.478,0a.1.1,0,0,1,.02.2l-.02,0h-.3a.1.1,0,0,1-.02-.2l.02,0Zm-30.6,0a.1.1,0,0,1,.02.2l-.02,0h-.3a.1.1,0,0,1-.02-.2l.02,0Zm-.618,0a.1.1,0,0,1,.02.2l-.02,0h-.3a.1.1,0,0,1-.02-.2l.02,0Zm-.619,0a.1.1,0,0,1,.02.2l-.02,0h-.3a.1.1,0,0,1-.02-.2l.02,0Zm-.618,0a.1.1,0,0,1,.02.2l-.02,0h-.3a.1.1,0,0,1-.02-.2l.02,0Zm-.618,0a.1.1,0,0,1,.02.2l-.02,0h-.3a.1.1,0,0,1-.02-.2l.02,0Zm-.619,0a.1.1,0,0,1,.02.2l-.02,0h-.3a.1.1,0,0,1-.02-.2l.02,0Zm-.618,0a.1.1,0,0,1,.02.2l-.02,0h-.3a.1.1,0,0,1-.02-.2l.02,0Zm4.329,0a.1.1,0,0,1,.02.2l-.02,0h-.3a.1.1,0,0,1-.02-.2l.02,0Zm-4.947,0a.1.1,0,0,1,.02.2l-.02,0h-.3a.1.1,0,0,1-.02-.2l.02,0Zm-.618,0a.1.1,0,0,1,.02.2l-.02,0h-.3a.1.1,0,0,1-.02-.2l.02,0Zm-.619,0a.1.1,0,0,1,.02.2l-.02,0h-.3a.1.1,0,0,1-.02-.2l.02,0Zm-.618,0a.1.1,0,0,1,.02.2l-.02,0h-.3a.1.1,0,0,1-.02-.2l.02,0Zm-.619,0a.1.1,0,0,1,.02.2l-.02,0h-.3a.1.1,0,0,1-.02-.2l.02,0Zm16.078,0a.1.1,0,0,1,.02.2l-.02,0h-.3a.1.1,0,0,1-.02-.2l.02,0Zm-.619,0a.1.1,0,0,1,.02.2l-.02,0h-.3a.1.1,0,0,1-.02-.2l.02,0Zm-.618,0a.1.1,0,0,1,.02.2l-.02,0h-.3a.1.1,0,0,1-.02-.2l.02,0Zm-.618,0a.1.1,0,0,1,.02.2l-.02,0h-.3a.1.1,0,0,1-.02-.2l.02,0Zm-.619,0a.1.1,0,0,1,.02.2l-.02,0h-.3a.1.1,0,0,1-.02-.2l.02,0Zm-.618,0a.1.1,0,0,1,.02.2l-.02,0h-.3a.1.1,0,0,1-.02-.2l.02,0Zm-.619,0a.1.1,0,0,1,.02.2l-.02,0h-.3a.1.1,0,0,1-.02-.2l.02,0Zm-.618,0a.1.1,0,0,1,.02.2l-.02,0H151a.1.1,0,0,1-.02-.2l.02,0Zm-.619,0a.1.1,0,0,1,.02.2l-.02,0h-.3a.1.1,0,0,1-.02-.2l.02,0Zm-.618,0a.1.1,0,0,1,.02.2l-.02,0h-.3a.1.1,0,0,1-.02-.2l.02,0Zm-.619,0a.1.1,0,0,1,.02.2l-.02,0h-.3a.1.1,0,0,1-.02-.2l.02,0Zm-.618,0a.1.1,0,0,1,.02.2l-.02,0h-.3a.1.1,0,0,1-.02-.2l.02,0Zm-.618,0a.1.1,0,0,1,.02.2l-.02,0h-.3a.1.1,0,0,1-.02-.2l.02,0Zm-.619,0a.1.1,0,0,1,.02.2l-.02,0h-.3a.1.1,0,0,1-.02-.2l.02,0Zm-8.657,0a.1.1,0,0,1,.02.2l-.02,0h-.3a.1.1,0,0,1-.02-.2l.02,0Zm17.315,0a.1.1,0,0,1,.02.2l-.02,0h-.3a.1.1,0,0,1-.02-.2l.02,0Zm.619,0a.1.1,0,0,1,.02.2l-.02,0h-.3a.1.1,0,0,1-.02-.2l.02,0Zm-18.552,0a.1.1,0,0,1,.02.2l-.02,0h-.3a.1.1,0,0,1-.02-.2l.02,0Zm54.1,0a.1.1,0,0,1,.02.2l-.02,0h-.3a.1.1,0,0,1-.02-.2l.02,0Zm.618,0a.1.1,0,0,1,.02.2l-.02,0h-.3a.1.1,0,0,1-.02-.2l.02,0Zm.619,0a.1.1,0,0,1,.02.2l-.02,0h-.3a.1.1,0,0,1-.02-.2l.02,0Zm.618,0a.1.1,0,0,1,.02.2l-.02,0h-.3a.1.1,0,0,1-.02-.2l.02,0Zm-69.556,0a.1.1,0,0,1,.02.2l-.02,0h-.3a.1.1,0,0,1-.02-.2l.02,0Zm.618,0a.1.1,0,0,1,.02.2l-.02,0h-.3a.1.1,0,0,1-.02-.2l.02,0Zm.619,0a.1.1,0,0,1,.02.2l-.02,0h-.3a.1.1,0,0,1-.02-.2l.02,0Zm.618,0a.1.1,0,0,1,.02.2l-.02,0h-.3a.1.1,0,0,1-.02-.2l.02,0Zm.619,0a.1.1,0,0,1,.02.2l-.02,0h-.3a.1.1,0,0,1-.02-.2l.02,0Zm.618,0a.1.1,0,0,1,.02.2l-.02,0h-.3a.1.1,0,0,1-.02-.2l.02,0Zm.619,0a.1.1,0,0,1,.02.2l-.02,0h-.3a.1.1,0,0,1-.02-.2l.02,0Zm.618,0a.1.1,0,0,1,.02.2l-.02,0h-.3a.1.1,0,0,1-.02-.2l.02,0Zm.618,0a.1.1,0,0,1,.02.2l-.02,0h-.3a.1.1,0,0,1-.02-.2l.02,0Zm.619,0a.1.1,0,0,1,.02.2l-.02,0h-.3a.1.1,0,0,1-.02-.2l.02,0Zm.618,0a.1.1,0,0,1,.02.2l-.02,0h-.3a.1.1,0,0,1-.02-.2l.02,0Zm.619,0a.1.1,0,0,1,.02.2l-.02,0h-.3a.1.1,0,0,1-.02-.2l.02,0Zm.618,0a.1.1,0,0,1,.02.2l-.02,0h-.3a.1.1,0,0,1-.02-.2l.02,0Zm.619,0a.1.1,0,0,1,.02.2l-.02,0h-.3a.1.1,0,0,1-.02-.2l.02,0Zm.618,0a.1.1,0,0,1,.02.2l-.02,0h-.3a.1.1,0,0,1-.02-.2l.02,0Zm.618,0a.1.1,0,0,1,.02.2l-.02,0h-.3a.1.1,0,0,1-.02-.2l.02,0Zm.619,0a.1.1,0,0,1,.02.2l-.02,0h-.3a.1.1,0,0,1-.02-.2l.02,0Zm.618,0a.1.1,0,0,1,.02.2l-.02,0h-.3a.1.1,0,0,1-.02-.2l.02,0Zm.619,0a.1.1,0,0,1,.02.2l-.02,0h-.3a.1.1,0,0,1-.02-.2l.02,0Zm.618,0a.1.1,0,0,1,.02.2l-.02,0h-.3a.1.1,0,0,1-.02-.2l.02,0Zm23.177,0a.1.1,0,0,1,.02.2l-.02,0h-.3a.1.1,0,0,1-.02-.2l.02,0Zm-21.94,0a.1.1,0,0,1,.02.2l-.02,0h-.3a.1.1,0,0,1-.02-.2l.02,0Zm23.177,0a.1.1,0,0,1,.02.2l-.02,0h-.3a.1.1,0,0,1-.02-.2l.02,0Zm.618,0a.1.1,0,0,1,.02.2l-.02,0h-.3a.1.1,0,0,1-.02-.2l.02,0Zm.618,0a.1.1,0,0,1,.02.2l-.02,0h-.3a.1.1,0,0,1-.02-.2l.02,0Zm.619,0a.1.1,0,0,1,.02.2l-.02,0h-.3a.1.1,0,0,1-.02-.2l.02,0Zm.618,0a.1.1,0,0,1,.02.2l-.02,0h-.3a.1.1,0,0,1-.02-.2l.02,0Zm.619,0a.1.1,0,0,1,.02.2l-.02,0h-.3a.1.1,0,0,1-.02-.2l.02,0Zm.618,0a.1.1,0,0,1,.02.2l-.02,0h-.3a.1.1,0,0,1-.02-.2l.02,0Zm.619,0a.1.1,0,0,1,.02.2l-.02,0h-.3a.1.1,0,0,1-.02-.2l.02,0Zm.618,0a.1.1,0,0,1,.02.2l-.02,0h-.3a.1.1,0,0,1-.02-.2l.02,0Zm.619,0a.1.1,0,0,1,.02.2l-.02,0h-.3a.1.1,0,0,1-.02-.2l.02,0Zm.618,0a.1.1,0,0,1,.02.2l-.02,0h-.3a.1.1,0,0,1-.02-.2l.02,0Zm.618,0a.1.1,0,0,1,.02.2l-.02,0h-.3a.1.1,0,0,1-.02-.2l.02,0Zm.619,0a.1.1,0,0,1,.02.2l-.02,0h-.3a.1.1,0,0,1-.02-.2l.02,0Zm.618,0a.1.1,0,0,1,.02.2l-.02,0h-.3a.1.1,0,0,1-.02-.2l.02,0Zm.619,0a.1.1,0,0,1,.02.2l-.02,0h-.3a.1.1,0,0,1-.02-.2l.02,0Zm.618,0a.1.1,0,0,1,.02.2l-.02,0h-.3a.1.1,0,0,1-.02-.2l.02,0Zm.619,0a.1.1,0,0,1,.02.2l-.02,0h-.3a.1.1,0,0,1-.02-.2l.02,0Zm.618,0a.1.1,0,0,1,.02.2l-.02,0h-.3a.1.1,0,0,1-.02-.2l.02,0Zm.618,0a.1.1,0,0,1,.02.2l-.02,0h-.3a.1.1,0,0,1-.02-.2l.02,0Zm.619,0a.1.1,0,0,1,.02.2l-.02,0h-.3a.1.1,0,0,1-.02-.2l.02,0Zm.618,0a.1.1,0,0,1,.02.2l-.02,0h-.3a.1.1,0,0,1-.02-.2l.02,0Zm.619,0a.1.1,0,0,1,.02.2l-.02,0h-.3a.1.1,0,0,1-.02-.2l.02,0Zm17.933,0a.1.1,0,0,1,.02.2l-.02,0h-.3a.1.1,0,0,1-.02-.2l.02,0Zm-17.315,0a.1.1,0,0,1,.02.2l-.02,0h-.3a.1.1,0,0,1-.02-.2l.02,0Zm.619,0a.1.1,0,0,1,.02.2l-.02,0h-.3a.1.1,0,0,1-.02-.2l.02,0Zm.618,0a.1.1,0,0,1,.02.2l-.02,0h-.3a.1.1,0,0,1-.02-.2l.02,0Zm.619,0a.1.1,0,0,1,.02.2l-.02,0h-.3a.1.1,0,0,1-.02-.2l.02,0Zm18.412,0a.1.1,0,0,1,.02.2l-.02,0h-.157a.1.1,0,0,1-.02-.2l.02,0Zm-17.175,0a.1.1,0,0,1,.02.2l-.02,0h-.3a.1.1,0,0,1-.02-.2l.02,0Zm.619,0a.1.1,0,0,1,.02.2l-.02,0h-.3a.1.1,0,0,1-.02-.2l.02,0Zm.618,0a.1.1,0,0,1,.02.2l-.02,0h-.3a.1.1,0,0,1-.02-.2l.02,0Zm.619,0a.1.1,0,0,1,.02.2l-.02,0h-.3a.1.1,0,0,1-.02-.2l.02,0Zm.618,0a.1.1,0,0,1,.02.2l-.02,0h-.3a.1.1,0,0,1-.02-.2l.02,0Zm.619,0a.1.1,0,0,1,.02.2l-.02,0h-.3a.1.1,0,0,1-.02-.2l.02,0Zm.618,0a.1.1,0,0,1,.02.2l-.02,0h-.3a.1.1,0,0,1-.02-.2l.02,0Zm.618,0a.1.1,0,0,1,.02.2l-.02,0h-.3a.1.1,0,0,1-.02-.2l.02,0Zm.619,0a.1.1,0,0,1,.02.2l-.02,0h-.3a.1.1,0,0,1-.02-.2l.02,0Zm.618,0a.1.1,0,0,1,.02.2l-.02,0h-.3a.1.1,0,0,1-.02-.2l.02,0Zm.619,0a.1.1,0,0,1,.02.2l-.02,0h-.3a.1.1,0,0,1-.02-.2l.02,0Zm.618,0a.1.1,0,0,1,.02.2l-.02,0h-.3a.1.1,0,0,1-.02-.2l.02,0Zm.619,0a.1.1,0,0,1,.02.2l-.02,0h-.3a.1.1,0,0,1-.02-.2l.02,0Zm.618,0a.1.1,0,0,1,.02.2l-.02,0h-.3a.1.1,0,0,1-.02-.2l.02,0Zm.619,0a.1.1,0,0,1,.02.2l-.02,0h-.3a.1.1,0,0,1-.02-.2l.02,0Zm-25.973,0a.1.1,0,0,1,.02.2l-.02,0h-.3a.1.1,0,0,1-.02-.2l.02,0Zm26.591,0a.1.1,0,0,1,.02.2l-.02,0h-.3a.1.1,0,0,1-.02-.2l.02,0Zm.618,0a.1.1,0,0,1,.02.2l-.02,0h-.3a.1.1,0,0,1-.02-.2l.02,0Zm.619,0a.1.1,0,0,1,.02.2l-.02,0h-.3a.1.1,0,0,1-.02-.2l.02,0Zm.618,0a.1.1,0,0,1,.02.2l-.02,0h-.3a.1.1,0,0,1-.02-.2l.02,0Zm.619,0a.1.1,0,0,1,.02.2l-.02,0h-.3a.1.1,0,0,1-.02-.2l.02,0Zm.618,0a.1.1,0,0,1,.02.2l-.02,0h-.3a.1.1,0,0,1-.02-.2l.02,0Zm.619,0a.1.1,0,0,1,.02.2l-.02,0h-.3a.1.1,0,0,1-.02-.2l.02,0Zm.618,0a.1.1,0,0,1,.02.2l-.02,0h-.3a.1.1,0,0,1-.02-.2l.02,0Zm-68.32,0a.1.1,0,0,1,.02.2l-.02,0h-.157a.1.1,0,0,1-.02-.2l.02,0Zm35.248,0a.1.1,0,0,1,.02.2l-.02,0h-.3a.1.1,0,0,1-.02-.2l.02,0Zm-.619,0a.1.1,0,0,1,.02.2l-.02,0h-.3a.1.1,0,0,1-.02-.2l.02,0Zm-33.393,0a.1.1,0,0,1,.02.2l-.02,0h-.3a.1.1,0,0,1-.02-.2l.02,0Zm12.986,0a.1.1,0,0,1,.02.2l-.02,0h-.3a.1.1,0,0,1-.02-.2l.02,0Zm22.221-.618a.1.1,0,0,1,.154.122l-.014.018-.21.21a.1.1,0,0,1-.154-.122l.014-.018Zm-1.294,0a.1.1,0,0,1,.122-.014l.018.014.21.21a.1.1,0,0,1-.122.154l-.018-.014-.21-.21a.1.1,0,0,1,0-.14m.717-.3a.1.1,0,0,1,.1.079l0,.02v.3a.1.1,0,0,1-.2.02l0-.02v-.3a.1.1,0,0,1,.1-.1m1.014-.141a.1.1,0,0,1,.154.122l-.014.018-.21.21a.1.1,0,0,1-.154-.122l.014-.018Zm-2.168,0a.1.1,0,0,1,.122-.014l.018.014.21.21a.1.1,0,0,1-.122.154l-.018-.014-.21-.21a.1.1,0,0,1,0-.14m1.154-.478a.1.1,0,0,1,.1.079l0,.02v.3a.1.1,0,0,1-.2.02l0-.02v-.3a.1.1,0,0,1,.1-.1m-1.591.041a.1.1,0,0,1,.122-.014l.018.014.21.21a.1.1,0,0,1-.122.154l-.018-.014-.21-.21a.1.1,0,0,1,0-.14m3.043,0a.1.1,0,0,1,.154.122l-.014.018-.21.21a.1.1,0,0,1-.154-.122l.014-.018Zm.437-.437a.1.1,0,0,1,.154.121l-.014.018-.21.21a.1.1,0,0,1-.154-.122l.014-.018Zm-3.918,0a.1.1,0,0,1,.122-.014l.018.014.21.21a.1.1,0,0,1,0,.14.1.1,0,0,1-.122.014l-.018-.014-.21-.21a.1.1,0,0,1,0-.14m2.029-.222a.1.1,0,0,1,.1.079l0,.02v.3a.1.1,0,0,1-.2.02l0-.02v-.3a.1.1,0,0,1,.1-.1M156.25,34.7a.1.1,0,0,1,.122-.015l.018.015.21.21a.1.1,0,0,1,0,.139.1.1,0,0,1-.122.015l-.018-.015-.21-.21a.1.1,0,0,1,0-.139m4.792,0a.1.1,0,0,1,.154.121l-.014.018-.21.21a.1.1,0,0,1-.154-.121l.014-.018Zm-2.326-.4a.1.1,0,0,1,.1.079l0,.02v.3a.1.1,0,0,1-.2.02l0-.02v-.3a.1.1,0,0,1,.1-.1m2.763-.034a.1.1,0,0,1,.154.122l-.014.018-.21.21a.1.1,0,0,1-.154-.121l.014-.018Zm-5.667,0a.1.1,0,0,1,.122-.014l.018.014.21.21a.1.1,0,0,1-.122.154l-.018-.014-.21-.21a.1.1,0,0,1,0-.14m6.1-.437a.1.1,0,0,1,.154.122l-.014.018-.21.21a.1.1,0,0,1-.154-.121l.014-.018Zm-6.541,0a.1.1,0,0,1,.122-.014l.018.014.21.21a.1.1,0,0,1-.122.154l-.018-.014-.21-.21a.1.1,0,0,1,0-.14m3.341-.147a.1.1,0,0,1,.1.079l0,.02v.3a.1.1,0,0,1-.2.02l0-.02v-.3a.1.1,0,0,1,.1-.1m-3.778-.291a.1.1,0,0,1,.122-.014l.018.014.21.21a.1.1,0,0,1-.122.154l-.018-.014-.21-.21a.1.1,0,0,1,0-.14m7.415,0a.1.1,0,0,1,.154.122l-.014.018-.21.21a.1.1,0,0,1-.154-.122l.014-.018Zm-3.638-.328a.1.1,0,0,1,.1.079l0,.02v.3a.1.1,0,0,1-.2.02l0-.02v-.3a.1.1,0,0,1,.1-.1m-4.215-.109a.1.1,0,0,1,.122-.014l.018.014.21.21a.1.1,0,0,1-.122.154l-.018-.014-.21-.21a.1.1,0,0,1,0-.14m8.29,0a.1.1,0,0,1,.154.122l-.014.018-.21.21a.1.1,0,0,1-.154-.122l.014-.018Zm-4.075-.509a.1.1,0,0,1,.1.079l0,.02v.3a.1.1,0,0,1-.2.02l0-.02v-.3a.1.1,0,0,1,.1-.1m-4.652.072a.1.1,0,0,1,.122-.014l.018.014.21.21a.1.1,0,0,1-.122.154l-.018-.014-.21-.21a.1.1,0,0,1,0-.14m9.165,0a.1.1,0,0,1,.154.122l-.014.018-.21.21a.1.1,0,0,1-.154-.122l.014-.018Zm.437-.437a.1.1,0,0,1,.154.122l-.014.018-.21.21a.1.1,0,0,1-.154-.122l.014-.018Zm-10.039,0a.1.1,0,0,1,.122-.014l.018.014.21.21a.1.1,0,0,1-.122.154l-.018-.014-.21-.21a.1.1,0,0,1,0-.14m5.09-.253a.1.1,0,0,1,.1.079l0,.02v.3a.1.1,0,0,1-.2.02l0-.02v-.3a.1.1,0,0,1,.1-.1m-5.527-.185a.1.1,0,0,1,.122-.014l.018.014.21.21a.1.1,0,0,1-.122.154l-.018-.014-.21-.21a.1.1,0,0,1,0-.14m10.914,0a.1.1,0,0,1,.154.122l-.014.018-.21.21a.1.1,0,0,1-.154-.122l.014-.018Zm-5.387-.434a.1.1,0,0,1,.1.079l0,.02v.3a.1.1,0,0,1-.2.02l0-.02v-.3a.1.1,0,0,1,.1-.1m-5.964,0a.1.1,0,0,1,.122-.014l.018.014.21.21a.1.1,0,0,1-.122.154l-.018-.014-.21-.21a.1.1,0,0,1,0-.14m11.788,0a.1.1,0,0,1,.154.121l-.014.018-.21.21a.1.1,0,0,1-.154-.122l.014-.018Zm-12.226-.437a.1.1,0,0,1,.122-.015l.018.015.21.21a.1.1,0,0,1-.122.154l-.018-.014-.21-.21a.1.1,0,0,1,0-.14m12.663,0a.1.1,0,0,1,.154.122l-.014.018-.21.21a.1.1,0,0,1-.154-.122l.014-.018Zm-6.261-.178a.1.1,0,0,1,.1.079l0,.02v.3a.1.1,0,0,1-.2.02l0-.02v-.3a.1.1,0,0,1,.1-.1m-6.838-.26a.1.1,0,0,1,.122-.014l.018.014.21.21a.1.1,0,0,1-.122.154l-.018-.014-.21-.21a.1.1,0,0,1,0-.14m13.537,0a.1.1,0,0,1,.154.122l-.014.018-.21.21a.1.1,0,0,1-.154-.122l.014-.018Zm-6.7-.359a.1.1,0,0,1,.1.079l0,.02v.3a.1.1,0,0,1-.2.02l0-.02v-.3a.1.1,0,0,1,.1-.1m7.136-.078a.1.1,0,0,1,.154.122l-.014.018-.21.21a.1.1,0,0,1-.154-.122l.014-.018Zm-14.412,0a.1.1,0,0,1,.122-.014l.018.014.21.21a.1.1,0,0,1-.122.154l-.018-.014-.21-.21a.1.1,0,0,1,0-.14m7.276-.54a.1.1,0,0,1,.1.079l0,.02v.3a.1.1,0,0,1-.2.02l0-.02v-.3a.1.1,0,0,1,.1-.1m-7.713.1a.1.1,0,0,1,.122-.014l.018.014.21.21a.1.1,0,0,1,0,.139.1.1,0,0,1-.122.015l-.018-.015-.21-.21a.1.1,0,0,1,0-.139m15.287,0a.1.1,0,0,1,.154.122l-.014.018-.21.21a.1.1,0,0,1-.154-.122l.014-.018Zm-15.724-.437a.1.1,0,0,1,.122-.015l.018.015.21.21a.1.1,0,0,1-.122.154l-.018-.014-.21-.21a.1.1,0,0,1,0-.14m16.161,0a.1.1,0,0,1,.154.121l-.014.018-.21.21a.1.1,0,0,1-.154-.122l.014-.018Zm-8.011-.284a.1.1,0,0,1,.1.079l0,.02v.3a.1.1,0,0,1-.2.02l0-.02v-.3a.1.1,0,0,1,.1-.1m8.448-.153a.1.1,0,0,1,.154.122l-.014.018-.21.21a.1.1,0,0,1-.154-.121l.014-.018Zm-17.036,0a.1.1,0,0,1,.122-.014l.018.014.21.21a.1.1,0,0,1-.122.154l-.018-.015-.21-.21a.1.1,0,0,1,0-.14m8.588-.465a.1.1,0,0,1,.1.079l0,.02v.3a.1.1,0,0,1-.2.02l0-.02v-.3a.1.1,0,0,1,.1-.1m8.885.028a.1.1,0,0,1,.154.122l-.014.018-.21.21a.1.1,0,0,1-.154-.122l.014-.018Zm-17.91,0a.1.1,0,0,1,.122-.014l.018.014.21.21a.1.1,0,0,1-.122.154l-.018-.014-.21-.21a.1.1,0,0,1,0-.14m18.347-.437a.1.1,0,0,1,.154.122l-.014.018-.21.21a.1.1,0,0,1-.154-.122l.014-.018Zm-18.785,0a.1.1,0,0,1,.122-.014l.018.014.21.21a.1.1,0,0,1-.122.154l-.018-.014-.21-.21a.1.1,0,0,1,0-.14m9.462-.209a.1.1,0,0,1,.1.079l0,.02v.3a.1.1,0,0,1-.2.02l0-.02v-.3a.1.1,0,0,1,.1-.1m9.76-.228a.1.1,0,0,1,.154.122l-.014.018-.21.21a.1.1,0,0,1-.154-.122l.014-.018Zm-19.659,0a.1.1,0,0,1,.122-.014l.018.014.21.21a.1.1,0,0,1-.122.154l-.018-.014-.21-.21a.1.1,0,0,1,0-.14m9.9-.39a.1.1,0,0,1,.1.079l0,.02v.3a.1.1,0,0,1-.2.02l0-.02v-.3a.1.1,0,0,1,.1-.1m10.2-.047a.1.1,0,0,1,.154.122l-.014.018-.21.21a.1.1,0,0,1-.154-.122l.014-.018Zm-20.534,0a.1.1,0,0,1,.122-.014l.018.014.21.21a.1.1,0,0,1-.122.154l-.018-.014-.21-.21a.1.1,0,0,1,0-.14m20.971-.437a.1.1,0,0,1,.154.122l-.014.018-.21.21a.1.1,0,0,1-.154-.122l.014-.018Zm-21.408,0a.1.1,0,0,1,.122-.014l.018.014.21.21a.1.1,0,0,1,0,.14.1.1,0,0,1-.122.014l-.018-.014-.21-.21a.1.1,0,0,1,0-.14m10.774-.134a.1.1,0,0,1,.1.079l0,.02v.3a.1.1,0,0,1-.2.02l0-.02v-.3a.1.1,0,0,1,.1-.1m11.072-.3a.1.1,0,0,1,.154.121l-.014.018-.21.21a.1.1,0,0,1-.154-.122l.014-.018Zm-22.283,0a.1.1,0,0,1,.122-.015l.018.015.21.21a.1.1,0,0,1-.122.154l-.018-.014-.21-.21a.1.1,0,0,1,0-.14m11.211-.315a.1.1,0,0,1,.1.079l0,.02v.3a.1.1,0,0,1-.2.02l0-.02v-.3a.1.1,0,0,1,.1-.1m-11.649-.122a.1.1,0,0,1,.122-.014l.018.014.21.209a.1.1,0,0,1-.122.154l-.018-.015-.21-.21a.1.1,0,0,1,0-.139m23.157,0a.1.1,0,0,1,.154.122l-.014.018-.21.21a.1.1,0,0,1-.154-.121l.014-.018Zm-11.509-.5a.1.1,0,0,1,.1.079l0,.02v.3a.1.1,0,0,1-.2.02l0-.02v-.3a.1.1,0,0,1,.1-.1m11.946.059a.1.1,0,0,1,.154.122l-.014.018-.21.21a.1.1,0,0,1-.154-.122l.014-.018Zm-24.032,0a.1.1,0,0,1,.122-.015l.018.015.21.21a.1.1,0,0,1-.122.154l-.018-.014-.21-.21a.1.1,0,0,1,0-.14m-.437-.438a.1.1,0,0,1,.122-.014l.018.014.21.21a.1.1,0,0,1-.122.154l-.018-.014-.21-.21a.1.1,0,0,1,0-.14m24.907,0a.1.1,0,0,1,.154.122l-.014.018-.21.21a.1.1,0,0,1-.154-.122l.014-.018Zm-12.383-.24a.1.1,0,0,1,.1.079l0,.02v.3a.1.1,0,0,1-.2.02l0-.02v-.3a.1.1,0,0,1,.1-.1m12.821-.2a.1.1,0,0,1,.154.122l-.014.018-.21.21a.1.1,0,0,1-.154-.122l.014-.018Zm-25.781,0a.1.1,0,0,1,.122-.014l.018.014.21.21a.1.1,0,0,1-.122.154l-.018-.014-.21-.21a.1.1,0,0,1,0-.14m12.96-.421a.1.1,0,0,1,.1.079l0,.02v.3a.1.1,0,0,1-.2.02l0-.02v-.3a.1.1,0,0,1,.1-.1m-13.4-.016a.1.1,0,0,1,.122-.014l.018.014.21.21a.1.1,0,0,1-.122.154l-.018-.015-.21-.21a.1.1,0,0,1,0-.14m26.655,0a.1.1,0,0,1,.154.122l-.014.018-.21.21A.1.1,0,0,1,171.75,24l.014-.018Zm-27.093-.437a.1.1,0,0,1,.122-.015l.018.015.21.21a.1.1,0,0,1-.122.154l-.018-.014-.21-.21a.1.1,0,0,1,0-.14m27.53,0a.1.1,0,0,1,.154.122l-.014.018-.21.21a.1.1,0,0,1-.154-.122l.014-.018Zm-13.7-.165a.1.1,0,0,1,.1.079l0,.02v.3a.1.1,0,0,1-.2.02l0-.02v-.3a.1.1,0,0,1,.1-.1m14.133-.272a.1.1,0,0,1,.154.122l-.014.018-.21.21a.1.1,0,0,1-.154-.122l.014-.018Zm-28.4,0a.1.1,0,0,1,.122-.014l.018.014.21.21a.1.1,0,0,1-.122.154l-.018-.014-.21-.21a.1.1,0,0,1,0-.14m14.272-.346a.1.1,0,0,1,.1.079l0,.02v.3a.1.1,0,0,1-.2.02l0-.02v-.3a.1.1,0,0,1,.1-.1m-14.71-.091a.1.1,0,0,1,.122-.014l.018.014.21.21a.1.1,0,0,1-.122.154l-.018-.014-.21-.21a.1.1,0,0,1,0-.14m29.279,0a.1.1,0,0,1,.154.122l-.014.018-.21.21a.1.1,0,0,1-.154-.122l.014-.018Zm-14.57-.527a.1.1,0,0,1,.1.079l0,.02v.3a.1.1,0,0,1-.2.02l0-.02v-.3a.1.1,0,0,1,.1-.1m15.007.09a.1.1,0,0,1,.154.122l-.014.018-.21.21a.1.1,0,0,1-.154-.122l.014-.018Zm-30.154,0a.1.1,0,0,1,.122-.015l.018.015.21.21a.1.1,0,0,1-.122.154l-.018-.014-.21-.21a.1.1,0,0,1,0-.14m-.437-.438a.1.1,0,0,1,.122-.014l.018.014.21.21a.1.1,0,0,1-.122.154l-.018-.014-.21-.21a.1.1,0,0,1,0-.14m31.028,0a.1.1,0,0,1,.154.122l-.014.018-.21.21a.1.1,0,0,1-.154-.122l.014-.018Zm-15.444-.271a.1.1,0,0,1,.1.079l0,.02v.3a.1.1,0,0,1-.2.02l0-.02v-.3a.1.1,0,0,1,.1-.1m15.881-.166a.1.1,0,0,1,.154.122l-.014.018-.21.21a.1.1,0,0,1-.154-.122l.014-.018Zm-31.9,0a.1.1,0,0,1,.122-.014l.018.014.21.21a.1.1,0,0,1-.122.154L142.9,21.5l-.21-.21a.1.1,0,0,1,0-.14m16.021-.452a.1.1,0,0,1,.1.079l0,.02v.3a.1.1,0,0,1-.2.02l0-.02v-.3a.1.1,0,0,1,.1-.1m16.319.015a.1.1,0,0,1,.154.122l-.014.018-.21.21a.1.1,0,0,1-.154-.122l.014-.018Zm-32.777,0a.1.1,0,0,1,.122-.014l.018.014.21.21a.1.1,0,0,1,0,.139.1.1,0,0,1-.122.015l-.018-.015-.21-.21a.1.1,0,0,1,0-.139m33.215-.437a.1.1,0,0,1,.154.121l-.014.018-.21.21a.1.1,0,0,1-.154-.122l.014-.017Zm-33.652,0a.1.1,0,0,1,.122-.015l.018.015.21.21a.1.1,0,0,1-.122.154l-.018-.014-.21-.21a.1.1,0,0,1,0-.14m16.9-.2a.1.1,0,0,1,.1.079l0,.02v.3a.1.1,0,0,1-.2.02l0-.02v-.3a.1.1,0,0,1,.1-.1m17.193-.241a.1.1,0,0,1,.154.122l-.014.018-.21.21a.1.1,0,0,1-.154-.121l.014-.018Zm-34.527,0a.1.1,0,0,1,.122-.014l.018.014.21.21a.1.1,0,0,1-.122.154l-.018-.015-.21-.21a.1.1,0,0,1,0-.14m17.333-.377a.1.1,0,0,1,.1.079l0,.02v.3a.1.1,0,0,1-.2.02l0-.02v-.3a.1.1,0,0,1,.1-.1m-17.77-.06a.1.1,0,0,1,.122-.014l.018.014.21.21a.1.1,0,0,1-.122.154l-.018-.014-.21-.21a.1.1,0,0,1,0-.14m35.4,0a.1.1,0,0,1,.154.122l-.014.018-.21.21a.1.1,0,0,1-.154-.122l.014-.018Zm.437-.437a.1.1,0,0,1,.154.122l-.014.018-.21.21a.1.1,0,0,1-.154-.122l.014-.018Zm-36.275,0a.1.1,0,0,1,.122-.014l.018.014.21.21a.1.1,0,0,1-.122.154l-.018-.014-.21-.21a.1.1,0,0,1,0-.14m18.208-.121a.1.1,0,0,1,.1.079l0,.02v.3a.1.1,0,0,1-.2.02l0-.02v-.3a.1.1,0,0,1,.1-.1m18.505-.316a.1.1,0,0,1,.154.122l-.014.018-.21.21A.1.1,0,0,1,177,18.75l.014-.018Zm-37.15,0a.1.1,0,0,1,.122-.014l.018.014.21.21a.1.1,0,0,1-.122.154l-.018-.014-.21-.21a.1.1,0,0,1,0-.14m18.645-.3a.1.1,0,0,1,.1.079l0,.02v.3a.1.1,0,0,1-.2.02l0-.02v-.3a.1.1,0,0,1,.1-.1m18.942-.135a.1.1,0,0,1,.154.122l-.014.018-.21.21a.1.1,0,0,1-.154-.122l.014-.018Zm-38.024,0a.1.1,0,0,1,.122-.014l.018.014.21.21a.1.1,0,0,1-.122.154l-.018-.014-.21-.21a.1.1,0,0,1,0-.14m19.082-.483a.1.1,0,0,1,.1.079l0,.02V18a.1.1,0,0,1-.2.02l0-.02v-.3a.1.1,0,0,1,.1-.1m-19.519.046a.1.1,0,0,1,.122-.014l.018.014.21.21a.1.1,0,0,1,0,.14.1.1,0,0,1-.122.014L139.406,18l-.21-.21a.1.1,0,0,1,0-.14m38.9,0a.1.1,0,0,1,.154.122l-.014.018-.21.21a.1.1,0,0,1-.154-.122l.014-.018Zm-39.336-.437a.1.1,0,0,1,.122-.014l.018.014.21.21a.1.1,0,0,1-.122.154l-.018-.014-.21-.21a.1.1,0,0,1,0-.14m39.774,0a.1.1,0,0,1,.154.121l-.014.018-.21.21a.1.1,0,0,1-.154-.122l.014-.018Zm-19.817-.227a.1.1,0,0,1,.1.079l0,.02v.3a.1.1,0,0,1-.2.02l0-.02v-.3a.1.1,0,0,1,.1-.1m-20.394-.21a.1.1,0,0,1,.122-.014l.018.014.21.21a.1.1,0,0,1,0,.139.1.1,0,0,1-.122.015l-.018-.015-.21-.21a.1.1,0,0,1,0-.139m40.648,0a.1.1,0,0,1,.154.122l-.014.018-.21.21a.1.1,0,0,1-.154-.121l.014-.018Zm-20.254-.408a.1.1,0,0,1,.1.079l0,.02v.3a.1.1,0,0,1-.2.02l0-.02v-.3a.1.1,0,0,1,.1-.1m-20.831-.029a.1.1,0,0,1,.122-.015l.018.015.21.21a.1.1,0,0,1-.122.154l-.018-.014-.21-.21a.1.1,0,0,1,0-.14m41.523,0a.1.1,0,0,1,.154.122l-.014.018-.21.21a.1.1,0,0,1-.14,0,.1.1,0,0,1-.014-.122l.014-.018Zm-41.96-.438a.1.1,0,0,1,.122-.014l.018.014.21.21a.1.1,0,0,1-.122.154l-.018-.014-.21-.21a.1.1,0,0,1,0-.14m42.4,0a.1.1,0,0,1,.154.122l-.014.018-.21.21a.1.1,0,0,1-.154-.122l.014-.018Zm-21.129-.152a.1.1,0,0,1,.1.079l0,.02v.3a.1.1,0,0,1-.2.02l0-.02v-.3a.1.1,0,0,1,.1-.1m-21.706-.285a.1.1,0,0,1,.122-.014l.018.014.21.21a.1.1,0,0,1-.122.154l-.018-.014-.21-.21a.1.1,0,0,1,0-.14m43.272,0a.1.1,0,0,1,.154.122l-.014.018-.21.21a.1.1,0,0,1-.154-.122l.014-.018Zm-21.566-.333a.1.1,0,0,1,.1.079l0,.02v.3a.1.1,0,0,1-.2.02l0-.02v-.3a.1.1,0,0,1,.1-.1m-22.143-.1a.1.1,0,0,1,.122-.014l.018.014.21.21a.1.1,0,0,1-.122.154l-.018-.015-.21-.21a.1.1,0,0,1,0-.14m44.146,0a.1.1,0,0,1,.154.122l-.014.018-.21.21a.1.1,0,0,1-.154-.122l.014-.018Zm-22-.514a.1.1,0,0,1,.1.079l0,.02v.3a.1.1,0,0,1-.2.02l0-.02v-.3a.1.1,0,0,1,.1-.1m-22.58.077a.1.1,0,0,1,.122-.014l.018.014.21.21a.1.1,0,0,1-.122.154l-.018-.014-.21-.21a.1.1,0,0,1,0-.14m45.021,0a.1.1,0,0,1,.154.122l-.014.018-.21.21a.1.1,0,0,1-.154-.122l.014-.018Zm.437-.437a.1.1,0,0,1,.154.122l-.014.018-.21.21a.1.1,0,0,1-.154-.122l.014-.018Zm-45.9,0a.1.1,0,0,1,.122-.014l.018.014.21.21a.1.1,0,0,1-.122.154l-.018-.014-.21-.21a.1.1,0,0,1,0-.14m23.018-.258a.1.1,0,0,1,.1.079l0,.02v.3a.1.1,0,0,1-.2.02l0-.02v-.3a.1.1,0,0,1,.1-.1m-23.455-.179a.1.1,0,0,1,.122-.014l.018.014.21.21a.1.1,0,0,1-.122.154l-.018-.014-.21-.21a.1.1,0,0,1,0-.14m46.77,0a.1.1,0,0,1,.154.122l-.014.018-.21.21a.1.1,0,0,1-.154-.122l.014-.018Zm-23.315-.44a.1.1,0,0,1,.1.079l0,.02v.3a.1.1,0,0,1-.2.02l0-.02v-.3a.1.1,0,0,1,.1-.1m-23.892,0a.1.1,0,0,1,.122-.015l.018.015.21.21a.1.1,0,0,1-.122.154l-.018-.014-.21-.21a.1.1,0,0,1,0-.14m47.644,0a.1.1,0,0,1,.154.122l-.014.018-.21.21a.1.1,0,0,1-.154-.122l.014-.018Zm.437-.438a.1.1,0,0,1,.154.122l-.014.018-.21.21a.1.1,0,0,1-.154-.122l.014-.018Zm-48.519,0a.1.1,0,0,1,.122-.014l.018.014.21.21a.1.1,0,0,1-.122.154l-.018-.014-.21-.21a.1.1,0,0,1,0-.14m24.329-.183a.1.1,0,0,1,.1.079l0,.02v.3a.1.1,0,0,1-.2.02l0-.02v-.3a.1.1,0,0,1,.1-.1M133.949,12.4a.1.1,0,0,1,.122-.015l.018.015.21.21a.1.1,0,0,1-.122.154l-.018-.014-.21-.21a.1.1,0,0,1,0-.14m49.393,0a.1.1,0,0,1,.154.122l-.014.018-.21.21a.1.1,0,0,1-.154-.122l.014-.018Zm-24.627-.364a.1.1,0,0,1,.1.079l0,.02v.3a.1.1,0,0,1-.2.02l0-.02v-.3a.1.1,0,0,1,.1-.1m-25.2-.073a.1.1,0,0,1,.122-.014l.018.014.21.21a.1.1,0,0,1-.122.154l-.018-.015-.21-.21a.1.1,0,0,1,0-.14m50.268,0a.1.1,0,0,1,.154.122l-.014.018-.21.21a.1.1,0,0,1-.154-.122l.014-.018Zm-25.064-.545a.1.1,0,0,1,.1.079l0,.02v.3a.1.1,0,0,1-.2.02l0-.02v-.3a.1.1,0,0,1,.1-.1m-25.541.208a.1.1,0,0,1,.122-.014l.018.014.11.11a.1.1,0,0,1-.122.154l-.018-.014-.11-.11a.1.1,0,0,1,0-.14m50.943,0a.1.1,0,0,1,.154.122l-.014.018-.11.11a.1.1,0,0,1-.154-.122l.014-.017Zm-25.4-.827a.1.1,0,0,1,.1.079l0,.02v.3a.1.1,0,0,1-.2.02l0-.02v-.3a.1.1,0,0,1,.1-.1m0-.618a.1.1,0,0,1,.1.079l0,.02v.3a.1.1,0,0,1-.2.02l0-.02v-.3a.1.1,0,0,1,.1-.1m0-.618a.1.1,0,0,1,.1.079l0,.02v.3a.1.1,0,0,1-.2.02l0-.02v-.3a.1.1,0,0,1,.1-.1m0-.619a.1.1,0,0,1,.1.079l0,.02v.3a.1.1,0,0,1-.2.02l0-.02v-.3a.1.1,0,0,1,.1-.1m0-.619a.1.1,0,0,1,.1.079l0,.02v.3a.1.1,0,0,1-.2.02l0-.02v-.3a.1.1,0,0,1,.1-.1m0-.618a.1.1,0,0,1,.1.079l0,.02v.3a.1.1,0,0,1-.2.02l0-.02v-.3a.1.1,0,0,1,.1-.1m0-.618a.1.1,0,0,1,.1.079l0,.02v.3a.1.1,0,0,1-.2.02l0-.02v-.3a.1.1,0,0,1,.1-.1m0-.618a.1.1,0,0,1,.1.079l0,.02v.3a.1.1,0,0,1-.2.02l0-.02v-.3a.1.1,0,0,1,.1-.1m0-.619a.1.1,0,0,1,.1.079l0,.02v.3a.1.1,0,0,1-.2.02l0-.02v-.3a.1.1,0,0,1,.1-.1m0-.618a.1.1,0,0,1,.1.079l0,.02v.3a.1.1,0,0,1-.2.02l0-.02v-.3a.1.1,0,0,1,.1-.1m0-.619a.1.1,0,0,1,.1.079l0,.02v.3a.1.1,0,0,1-.2.02l0-.02v-.3a.1.1,0,0,1,.1-.1m0-.618a.1.1,0,0,1,.1.079l0,.02v.3a.1.1,0,0,1-.2.02l0-.02V4.1a.1.1,0,0,1,.1-.1m0-.619a.1.1,0,0,1,.1.079l0,.02v.3a.1.1,0,0,1-.2.02l0-.02v-.3a.1.1,0,0,1,.1-.1m0-.618a.1.1,0,0,1,.1.079l0,.02v.3a.1.1,0,0,1-.2.02l0-.02v-.3a.1.1,0,0,1,.1-.1m0-.618a.1.1,0,0,1,.1.079l0,.02v.3a.1.1,0,0,1-.2.02l0-.02v-.3a.1.1,0,0,1,.1-.1m0-.619a.1.1,0,0,1,.1.079l0,.02v.3a.1.1,0,0,1-.2.02l0-.02v-.3a.1.1,0,0,1,.1-.1m0-.479a.1.1,0,0,1,.1.079l0,.02V1.3a.1.1,0,0,1-.2.02l0-.02V1.143a.1.1,0,0,1,.1-.1" transform="translate(-87.713 -0.747)" fill="#858585"/>
        <path id="Trazado_228814" data-name="Trazado 228814" d="M178.564,85.215l.343.018.14-.007.01.2-.15.007-.353-.018Zm1.1-.02.01.2-.494.025-.01-.2Zm-1.719-.011.494.025-.01.2-.494-.025Zm2.336-.02.01.2-.494.025-.01-.2Zm-2.954-.011.494.025-.01.2-.494-.025Zm3.572-.02.01.2-.494.025-.01-.2Zm-4.189-.011.494.025-.01.2-.494-.025Zm4.806-.021.01.2-.494.025-.01-.2Zm-5.424-.011.494.025-.01.2-.494-.025Zm6.028-.051.031.2-.3.048-.2.01-.01-.2.187-.009ZM175.492,85l.488.078-.031.2-.488-.078Zm7.24-.064.031.2-.488.078-.031-.2Zm-7.851-.033.488.078-.031.2-.488-.078Zm8.461-.064.031.2-.488.078-.031-.2Zm-9.072-.034.488.078-.031.2-.488-.078Zm9.683-.064.031.2-.488.078-.031-.2Zm-10.294-.034.488.078-.031.2-.488-.078Zm10.9-.064.031.2-.488.078-.031-.2Zm-11.515-.034.488.078-.031.2-.488-.078Zm12.106-.107.05.191-.478.126-.051-.191Zm-12.693-.054.478.126-.05.191-.478-.126Zm13.291-.1.05.191-.478.126-.051-.191ZM171.864,84.3l.478.126-.051.191-.478-.126Zm14.487-.1.051.191-.478.126-.05-.191Zm-15.085-.055.478.126-.05.191-.478-.126Zm15.683-.1.05.191-.478.126-.051-.191Zm-16.281-.055.478.126-.05.191-.478-.126Zm16.878-.1.051.191-.478.126-.05-.191ZM170.088,83.8l.191.074.269.071-.051.191-.279-.075-.2-.077Zm18.026-.145.071.185-.462.177-.071-.185Zm-18.6-.076.461.177-.071.185-.462-.177Zm19.182-.145.071.185-.461.177-.071-.185Zm-19.759-.076.461.177-.071.185-.462-.177Zm20.337-.145.071.185-.462.177-.071-.185Zm-20.914-.076.462.177-.071.185-.461-.177ZM189.847,83l.071.185-.462.177-.071-.185Zm-22.069-.076.462.177-.071.185-.462-.177Zm22.63-.156.09.176-.153.077-.312.119-.071-.185.3-.115Zm-23.183-.1.324.165.112.043-.071.185-.092-.035-.03-.012-.333-.169Zm23.734-.184.09.176-.441.224-.09-.176Zm-24.285-.1.441.224-.09.176-.441-.224ZM191.51,82.2l.09.176-.441.224-.089-.176Zm-25.388-.1.441.224-.09.176-.44-.224Zm25.939-.184.09.176-.441.224-.09-.176Zm-26.49-.1.441.224-.09.176L165.482,82Zm27.042-.184.09.176-.44.224-.09-.176Zm-27.593-.1.441.224-.09.176-.441-.224Zm28.118-.209.108.166-.28.182-.152.077-.09-.176.143-.072Zm-28.631-.116.414.27-.108.166-.414-.27ZM193.656,81l.108.166-.414.27-.108-.166Zm-29.667-.116.414.27-.108.166-.414-.27Zm30.185-.221.108.166-.414.27-.108-.166Zm-30.7-.117.414.27-.108.166-.414-.27Zm31.221-.221.108.166-.414.27-.108-.166Zm-31.739-.116.414.27-.108.166-.414-.27Zm32.257-.221.108.166-.414.27-.108-.166Zm-32.774-.116.414.27-.108.166-.414-.27Zm33.256-.255.124.154-.384.31-.124-.154Zm-33.725-.134.385.311-.124.154-.384-.31Zm34.206-.254.124.154-.384.311-.124-.154Zm-34.687-.134.385.31-.124.154-.384-.31Zm35.168-.255.124.154-.384.31-.124-.154ZM161,78.7l.385.311-.124.154-.384-.31Zm36.13-.254.124.154-.385.311-.124-.154Zm-36.611-.134.385.31-.124.154-.384-.31Zm37.093-.255.124.154-.385.31-.124-.154Zm-37.549-.145.157.158.2.164-.124.154-.211-.171-.165-.165Zm37.977-.287.14.14-.349.349-.14-.14Zm-38.415-.151.349.349-.14.14-.349-.349Zm38.852-.287.14.14-.349.349-.14-.14Zm-39.289-.151.35.349-.14.14-.349-.349Zm19.31.177.384.02.1-.005.01.2-.1.005h-.011l-.394-.02Zm1.1-.017.01.2-.494.025-.01-.2Zm-1.719-.015.493.025-.01.2-.494-.025Zm2.336-.017.01.2-.494.025-.01-.2Zm-2.954-.015.494.025-.01.2-.494-.025Zm3.571-.017.01.2-.494.025-.01-.2Zm-4.177-.03.148.023.334.017-.01.2-.344-.018-.158-.025Zm4.779-.05.03.2-.489.076-.03-.2Zm-5.391-.045.489.076-.03.2-.488-.076Zm22.869-.258.14.14-.349.349-.14-.14Zm-16.867.209.03.2-.489.076-.03-.2Zm-6.613-.045.488.076-.03.2-.488-.076Zm7.224-.05.03.2-.488.076-.03-.2Zm-7.835-.045.489.076-.03.2-.489-.076ZM158.754,76.6l.35.349-.14.14-.349-.35Zm24.5.147.05.191-.25.065-.243.038-.03-.2.233-.036Zm-9.02-.075.478.126-.05.191-.478-.126Zm9.618-.083.05.191-.478.126-.05-.191Zm-10.216-.075.478.126-.05.191-.478-.126Zm25.716-.2.14.14-.35.349-.14-.14Zm-14.9.118.05.191-.478.126-.05-.191Zm-11.412-.075.478.126-.05.191-.478-.126Zm-14.724-.194.349.349-.14.14-.35-.35Zm26.735.112.05.191-.478.126-.05-.191Zm-12.588-.1.266.1.192.051-.05.191-.2-.054-.276-.106Zm13.156-.116.071.185-.462.176-.071-.185Zm14.152-.185.154.124-.118.145-.225.225-.14-.14.218-.217Zm-27.886.08.462.176-.071.185-.461-.176Zm-13.968-.246.238.295.074.075-.14.14-.07-.07-.011-.012-.244-.3Zm28.28.13.071.185-.462.177-.071-.185Zm-14.889-.105.462.177-.071.185-.462-.177Zm15.466-.116.071.185-.462.176-.071-.185Zm13.385-.224.154.124L200,75.9l-.154-.124Zm-29.429.119.462.176-.071.185-.461-.176Zm16.594-.15.091.176-.346.178-.109.042-.071-.185.092-.035.006,0Zm-29.8-.135.31.384-.154.124-.31-.385Zm12.665,0,.439.227-.091.176L170.1,75.4Zm17.68-.149.091.176-.439.227-.091-.176Zm12.674-.167.154.124-.31.385-.154-.124Zm-30.9.031.439.227-.091.176-.439-.227Zm-12.5-.2.311.384-.154.124-.31-.385Zm31.283.048.091.176-.439.227-.091-.176ZM169.1,74.66l.439.227-.091.176L169,74.836Zm31.841-.229.154.124-.31.385-.154-.124Zm-11.979.073.107.166-.123.079-.318.164-.091-.176.31-.16Zm-20.381-.161.414.27-.108.166-.414-.27Zm-11.824-.077.31.384-.154.124-.31-.385Zm32.725-.1.107.166-.416.268-.107-.166Zm11.847-.22.154.124-.31.385-.154-.124Zm-33.266.055.414.27-.108.166-.414-.27Zm-11.7-.22.311.384-.154.124-.31-.385Zm33.634.05L190.1,74l-.415.268-.107-.166Zm-22.456-.167.414.27-.108.166-.414-.27Zm34.137-.212.166.108-.2.3-.089.11-.154-.124.083-.1Zm-11.161.044.107.166-.415.268-.107-.166Zm-34.491-.22.27.414-.166.108-.27-.414Zm11.017.041.14.114.254.166-.108.166-.263-.172-.148-.12ZM191,73.128l.124.154-.384.311-.124-.154Zm11.019-.19.166.108-.27.414-.166-.108Zm-35.454-.007.384.311-.124.154-.384-.311Zm-10.874-.17.27.414-.166.108-.27-.414Zm35.789-.022.124.154-.384.311-.124-.154Zm-25.4-.2.384.311-.124.154-.384-.311Zm36.273-.122.166.108-.27.414-.166-.108Zm-10.4-.071.124.154-.384.311-.124-.154Zm-36.608-.106.27.414-.166.108-.27-.414Zm10.25-.09.384.311-.124.154-.384-.311Zm26.813-.205.14.14-.191.19-.183.148-.124-.154.176-.141Zm10.278-.046.166.108-.27.414-.166-.108Zm-47.679-.177.27.414-.166.108-.27-.414Zm10.155,0,.349.349-.14.14-.35-.349Zm27.683-.216.14.14-.349.349-.14-.14Zm10.179-.126.166.108-.27.414-.166-.108Zm-38.3-.1.349.349-.14.14-.35-.349Zm-10.056-.082.27.414-.166.108-.27-.414Zm38.613-.135.14.14-.35.35-.14-.14Zm10.027-.225.176.09-.224.44-.176-.09Zm-39.022,0,.349.349-.14.14-.35-.35Zm-9.885-.191.224.44-.176.09-.224-.441Zm39.317-.025.14.14-.35.35-.14-.14ZM163.889,70.4l.206.255.11.11-.14.14-.118-.118-.213-.263Zm39.706-.1.176.09-.224.441-.176-.09Zm-9.49-.136.154.124-.311.384-.154-.124Zm-39.977-.051.224.441-.176.089-.224-.44Zm9.372-.192.311.384-.154.124-.311-.384Zm40.375-.172.176.089-.224.441-.176-.09Zm-9.381-.065.154.124-.311.384-.154-.124Zm-40.646-.122.224.441-.176.09-.224-.441Zm9.263-.121.311.384-.154.124-.311-.384Zm41.044-.243.176.09-.224.44-.176-.089Zm-9.272.005.154.124-.311.384-.154-.124Zm-41.316-.192.224.44-.176.09-.224-.44Zm9.169-.049.054.083.243.3-.154.125-.255-.316-.054-.083Zm16.862.255.02.2-.314.031-.192-.006.006-.2.1,0,.08,0Zm-1.1,0,.494.016-.006.2-.494-.016Zm-.618-.02.494.016-.006.2-.494-.016Zm2.331-.048.02.2-.492.05-.02-.2Zm-2.929-.024.357.064.118,0-.007.2-.1,0-.033,0-.371-.065Zm3.545-.039.02.2-.492.05-.02-.2Zm-4.153-.067.487.085-.034.195-.487-.085Zm4.743-.061.048.192-.479.12-.048-.192Zm13.814-.257.166.108-.27.414-.166-.108Zm-19.167.211.487.085-.034.195-.487-.085Zm28.369-.271.176.09-.224.441-.176-.09Zm-22.418.167.048.192-.479.12-.048-.192Zm-6.53-.074.471.151-.06.188-.471-.151Zm-22.173-.281.085.223.112.219-.176.09-.116-.228-.089-.232Zm29.3.2.048.192-.48.12-.048-.192Zm-20.22-.219.27.414-.166.108-.27-.414Zm12.5.107.471.151-.06.188-.471-.151Zm8.274-.125.076.183-.457.189-.076-.183Zm12.4-.238.165.108-.27.414L195.3,68.6Zm-21.24.165.088.044.362.116-.06.188-.38-.123-.1-.049Zm30.317-.277.185.071-.177.461-.185-.071Zm-20.9.113.075.183-.457.189-.076-.183Zm-9.968-.113.442.221-.088.177-.442-.221Zm-11.717-.15.27.414-.166.108-.27-.414Zm-8.966-.046.177.461-.185.071-.177-.461Zm31.2.053.1.172-.086.049-.112.063-.258.107-.075-.183.247-.1ZM173.225,67.8l.442.221-.088.177-.442-.221Zm22.684-.129.166.108-.27.414-.166-.108Zm-11.079-.044.1.172-.429.246-.1-.171Zm20.039-.127.185.071-.177.462-.185-.071Zm-43.146-.09.27.414-.166.108-.27-.414Zm10.979.088.082.055.147.1.183.092-.088.177-.088-.044-.106-.054-.24-.162ZM152.873,67.3l.177.461-.185.071-.177-.461Zm32.493.015.1.172-.429.246-.1-.172Zm10.861-.166.176.091-.081.156-.18.275-.166-.108.174-.267Zm-24.037,0,.409.277-.111.164-.409-.277Zm32.9-.229.185.071-.177.461-.185-.071Zm-19.23.051.122.156-.321.249-.088.051-.1-.172.082-.047Zm-24.428-.1.227.439-.176.091-.227-.439Zm-8.779-.149.177.461-.185.071-.177-.462Zm19.025.078.409.277-.111.164-.409-.277Zm24.833-.2.176.091-.227.439-.176-.091Zm-10.164-.011.122.156-.39.3-.122-.156Zm-15.131-.178.366.332-.133.147-.366-.332Zm34.094-.07.185.071-.177.462-.185-.071Zm-44.164-.018.227.439-.176.091-.227-.439Zm-8.716-.178.177.461-.185.071-.177-.461Zm34.4.063.121.156-.39.3-.121-.156Zm9.961-.157.176.091-.227.439-.176-.091ZM170.758,66l.366.332-.133.147-.366-.332Zm-9.9-.223.227.439-.176.091-.227-.439Zm44.644-.007.191.051-.057.212-.1.267-.185-.071.1-.256Zm-18.248.012.142.138-.345.354-.142-.138Zm-35.005-.214.126.478-.191.051-.126-.478Zm18.045.017.366.332-.133.147-.366-.332Zm26.78-.079.176.091-.227.439-.176-.091Zm-9.388-.166.142.138-.345.354-.142-.138Zm-27.083-.112.08.211.118.228-.176.091-.123-.239-.085-.221Zm45.058-.055.191.051-.126.478-.191-.05Zm-35.749-.055.317.38-.152.126-.316-.38ZM152.1,64.966l.126.478-.191.05-.126-.478Zm45.207-.028.185.071-.177.461-.185-.071Zm-9.2-.047.16.116-.058.08-.026.034-.256.263-.142-.138.247-.252Zm-27.712-.246.176.462-.185.071-.176-.462Zm9.133-.007.316.38-.152.127-.316-.38Zm36.3-.067.191.05-.126.478-.191-.051Zm-17.361-.18.16.116-.29.4-.16-.116Zm-36.523-.022.126.478-.191.05-.126-.478Zm45.585-.008.185.071-.176.462-.185-.071Zm-28.369-.2.052.084.051.084.182.218-.152.127-.189-.229-.112-.178Zm-8.99-.089.177.462-.185.071-.177-.461Zm45.815-.1.191.051-.126.478-.191-.05Zm-17.156-.083.16.116-.29.4-.16-.116Zm8.921-.107.185.071-.177.461-.185-.071Zm-45.964-.012.126.478-.191.051-.126-.478Zm17.047-.138.261.419-.168.1-.262-.419Zm-8.883-.142.176.462-.185.071-.176-.461Zm29.2-.112.175.092-.149.28-.112.154-.16-.116.058-.08.047-.063Zm16.995,0,.191.05-.126.478-.191-.05Zm-8.207-.17.191.05-.08.3-.069.18-.185-.071.066-.17Zm-46.309-.032.126.478-.191.05-.126-.478Zm16.878-.065.262.419-.168.1-.261-.419Zm-8.71-.205.126.478-.191.05-.126-.478Zm29.643-.071.175.092-.231.437-.175-.092Zm16.826-.052.2.031-.06.373-.032.123-.191-.051.03-.113Zm-8.169-.172.191.05-.126.478-.191-.05Zm-29.862-.037.152.342.056.09-.168.1-.052-.084-.011-.018-.158-.354Zm-16.7,0,.078.488-.2.031-.078-.488Zm8.11-.268.126.478-.191.05-.126-.478Zm30.089-.02.175.092-.231.437-.175-.092Zm16.634-.116.2.031-.078.488-.2-.031Zm-38.382-.162.2.451-.18.081-.2-.451Zm30.272,0,.191.05-.126.478-.191-.05Zm-46.821-.047.078.488-.2.031-.078-.488Zm38.521-.238.186.068-.17.464-.186-.068Zm-30.471-.017.126.478-.191.05-.126-.478Zm46.978-.149.2.031-.078.488-.2-.031Zm-38.732-.116.2.451-.181.081-.2-.451Zm30.683-.03.191.05-.126.478-.191-.05Zm-47.076-.06.078.488-.2.031-.078-.488Zm38.831-.208.186.068-.17.464-.186-.068Zm-30.8-.032.054.352.032.124-.191.05-.025-.1-.01-.038-.056-.362Zm47.193-.164.2.031-.078.488-.2-.031Zm-27.512.269.011.2-.494.027-.011-.2Zm.617-.034.011.2-.494.028-.011-.2Zm-1.693-.069.486.092-.037.194-.486-.092Zm-10.414-.25.136.475-.19.054-.136-.475Zm30.942-.054.2.03-.076.488-.2-.03Zm-18.272.176.059.189-.472.147-.059-.189Zm-2.813-.06.089.043.182.092.163.031-.037.194-.1-.018-.09-.02-.3-.143Zm-26.176-.184.078.488-.2.031-.078-.488Zm29.525,0,.1.169-.085.051-.227.133-.149.046-.059-.189.094-.029.033-.007Zm9.617-.174.185.068-.17.464-.186-.068Zm-13.523.093.445.215-.086.178-.445-.215ZM159.262,60.5l.076.489-.2.03-.076-.489Zm47.386-.164.2.031-.078.488-.2-.031Zm-25.363.081.1.169-.423.255-.1-.169Zm-13.906-.149.136.475-.19.055-.136-.475Zm9.006.017.383.312-.125.153-.383-.312Zm22.2-.088.2.03-.076.489-.2-.03Zm-47.44-.059,0,.1v0l.06.376-.2.031-.061-.387-.006-.113Zm39.346-.17.193.042-.1.483-.193-.042ZM181.706,60l.14.14-.349.35-.14-.14Zm-22.539-.11.076.488-.2.03-.076-.489Zm16.794-.015.059.079.063.089.2.166-.125.153-.077-.063-.143-.121-.139-.185Zm30.726-.143.2.01-.025.493-.2-.01Zm-39.458-.047.014.1,0,.021.1.347-.19.054-.1-.36-.019-.132Zm31.453-.1.2.03-.076.488-.2-.03Zm-16.6-.044.169.1-.051.085-.093.148-.173.173-.14-.14.07-.07.088-.084Zm-30.966-.021.025.494-.2.01-.025-.494Zm24.474-.142.3.395-.158.119-.3-.395Zm15.034-.015.193.042-.1.483-.193-.042Zm-31.536-.079,0,.1v.022l.056.359-.2.03-.057-.369-.007-.131Zm47.632-.174.2.01-.025.494-.2-.01Zm-39.577-.041.07.489-.2.028-.07-.489Zm15.258-.058.169.1-.255.423-.17-.1Zm16.331-.032.2.01-.025.494-.2-.01ZM151.084,58.9l.025.493-.2.01-.025-.494Zm24.248-.057.195.454-.182.078-.195-.454Zm15.387-.077.2.013-.006.1-.01.144-.056.259-.193-.042.021-.1L190.7,59Zm-31.663-.1.025.494-.2.01-.025-.494Zm47.7-.174.2.01-.025.494-.2-.01Zm-24.153-.04.189.059-.147.472-.189-.059Zm-15.542,0,.069.489-.2.028-.069-.489Zm31.707-.1.2.01-.025.494-.2-.01Zm-23.637-.07.015.1,0,.007.143.334-.182.078-.039-.091-.111-.267-.02-.129Zm-24.074-.007.025.494-.2.01-.025-.494Zm39.705-.133.2.013-.032.493-.2-.013Zm-31.734-.1.025.493-.2.01-.025-.494Zm23.721-.174.2.018-.009.1-.009.077-.1.324-.189-.059.029-.094.067-.209Zm24.037,0,.2.01-.025.494-.2-.01Zm-39.769-.02v.3l.026.18-.2.028-.014-.1-.013-.1v-.313Zm31.781-.111.2.01-.025.494-.2-.01Zm-23.763-.063.076.488-.2.03-.076-.489Zm-24.01-.014.025.494-.2.01-.025-.494Zm39.777-.133.2.013-.032.493-.2-.013Zm-31.805-.1.025.494-.2.01-.025-.493Zm23.966-.513.04.359h0l.015.131-.027,0-.032.358-.2-.018.043-.473-.038-.339Zm24.04,0,.025.494H207l-.017.344-.2-.01.025-.494h0l-.017-.325Zm-39.984.809h-.2v-.494h.2Zm31.979-.809.016.316h.009l0,.088,0,.088h-.009l-.011.213-.2-.01.015-.292-.02-.4Zm-24.158.15.2.017-.009.1-.027.269.016.1-.2.03-.015-.1v-.027Zm-24.016-.024.2.01-.014.258.012.225-.2.01-.012-.235Zm31.982.211,0,.02.017.152.169-.019L183,57.28h0Zm8.181-.338.032.493-.2.013-.032-.493Zm7.838.308-.005.1.005.1.188-.01,0-.089,0-.089Zm8,.028.009.169.177-.009.008-.15Zm-48-.444.2.01-.025.494-.2-.01Zm8.2.3h-.2V56.62h.2Zm7.876-.656.2.017-.044.493-.2-.018Zm-24.039-.025.2.01-.025.493-.2-.01Zm32.039-.127.055.491-.2.022-.055-.491Zm8.053,0,.032.493-.2.013-.032-.493Zm8.018,0,.025.493-.2.01-.025-.494Zm8.005,0,.025.493-.2.01-.025-.494ZM158.847,56.2l.2.01-.025.494-.2-.01Zm8.038-.205.2.028-.069.489-.2-.028Zm8.224-.14.187.065-.163.467-.187-.065Zm-24.227-.037.2.01-.025.494-.2-.01Zm31.767-.109.179.461-.184.071-.179-.461Zm8.254-.018.032.493-.2.013-.032-.493Zm8.026,0,.025.494-.2.01-.025-.493Zm8.006,0,.025.494-.2.01-.025-.494Zm-48.056-.109.2.01-.025.494-.2-.01Zm8.093-.2.2.028-.069.489-.2-.028Zm8.419-.1.165.109-.054.083-.1.151-.062.178-.187-.065.032-.093.04-.106ZM150.913,55.2l.2.01-.025.494-.2-.01Zm31.437-.054.056.081.129.19.068.176-.184.071-.036-.092-.022-.063-.174-.251Zm8.426-.075.1.483-.193.042-.1-.483Zm8.1-.006.026.169.017.333-.2.01-.016-.323-.025-.159Zm8.023.008.025.494-.2.01-.025-.494Zm-47.963-.116.2.03-.042.267-.011.214-.2-.01.012-.224Zm16.79-.192.165.109-.272.413-.165-.109Zm-8.671,0,.2.028-.069.489-.2-.028ZM182,54.636l.282.406-.162.113-.282-.406Zm-31.053-.055.2.01-.025.494-.2-.01Zm39.7-.116.1.483-.193.042-.1-.483Zm8.139-.013.076.489-.2.03-.076-.488Zm8.087,0,.025.494-.2.01-.025-.494Zm-47.837-.109.2.03-.076.488-.2-.03Zm17.156-.027.134.145-.363.336-.134-.145Zm-8.952-.156.19.054-.136.475-.19-.054Zm14.283.044.375.322-.129.15-.375-.322Zm-30.5-.248.2.031-.078.488-.2-.031Zm39.47-.1.034.093.018.051.075.347-.193.042-.071-.334-.048-.131Zm-13.8.073.1.173-.087.048-.078.04-.208.193-.134-.145.073-.067.155-.14Zm22-.084.076.489-.2.03-.076-.489Zm8.09-.009.078.488-.2.031-.078-.488Zm-25.775,0,.088.044.108.057.226.193-.129.15-.075-.064-.13-.116-.177-.088Zm-21.875-.1.2.03-.076.488-.2-.03Zm8.279-.166.19.055-.136.475-.19-.055Zm9.827.06.1.173-.433.238-.1-.173Zm3.217-.074.442.221-.089.177-.442-.221Zm-29.332-.207.2.031-.078.488-.2-.031Zm39.16-.075.17.464-.186.068-.17-.464Zm8.315-.042.076.488-.2.03-.076-.488Zm-20.754.193.052.191-.477.13-.052-.191Zm28.842-.2.078.488-.2.031-.078-.488Zm-26.846.157.483.107-.043.193-.483-.107Zm-20.612-.256.2.03-.076.489-.2-.03Zm19.24.162,0,.2-.1,0-.358.1-.052-.191.1-.026.3-.078Zm.841-.019.033,0,.376.084-.043.193-.1-.022-.256-.06-.108,0,0-.2Zm-11.691-.295.181.081-.04.09-.051.11-.072.25-.19-.054.077-.263Zm11.468.3,0,.2-.494.011,0-.2Zm-27.866-.535.2.031-.078.488-.2-.031Zm38.85-.044.17.464-.186.068-.17-.464Zm8.376-.071.126.478-.191.05-.126-.478Zm8.143-.01.078.488-.2.031-.078-.488Zm-47.2-.1.191.05-.126.478-.191-.05Zm8.479-.109.18.081-.2.451-.18-.081Zm-16.554-.282.2.031-.078.488-.2-.031Zm38.495-.009.154.294.061.165-.186.068-.034-.093-.021-.06-.149-.281Zm8.476-.094.126.478-.191.05-.126-.478Zm8.2-.022.078.488-.2.031-.078-.488Zm-46.942-.083.191.05-.126.478-.191-.05Zm8.574-.075.18.081-.2.451-.181-.081Zm21.4-.272.231.437-.175.092-.231-.437Zm-38.108-.055.2.031-.078.488-.2-.031Zm46.717-.09.126.478-.191.05-.126-.478Zm8.263-.035.078.488-.2.031-.078-.488ZM159.7,51.32l.191.05-.126.478-.191-.05Zm8.726-.027.168.1-.262.419-.168-.1Zm20.8-.269.231.437-.175.092-.231-.437Zm-37.662-.117.191.051-.126.478-.191-.05Zm46.368-.08.109.287.05.191-.191.05-.047-.181-.106-.277Zm8.284-.042.126.478-.191.05-.126-.478Zm-37.465-.016.168.1-.262.419-.168-.1Zm-8.85-.043.185.071-.176.462-.185-.071Zm28.968-.223.29.4-.16.116-.29-.4Zm-37.148-.194.191.05-.126.478-.191-.05Zm45.989-.06.177.461-.185.071-.177-.461Zm-28.632-.005.168.1-.262.419-.168-.1Zm36.979-.057.126.478-.191.051-.126-.478Zm-45.936-.038.185.071-.177.462-.185-.071ZM188.512,50l.29.4-.16.116-.29-.4Zm-19.027-.246.152.127-.316.38-.152-.126Zm-17.6-.044.191.05-.126.478-.191-.051Zm45.61-.04.177.461-.185.071-.177-.461Zm8.41-.083.126.478-.191.05-.126-.478Zm-45.557-.018.185.071-.176.462-.185-.071Zm27.8-.07.29.4-.16.116-.29-.4Zm-18.268-.221.152.127-.316.38-.152-.127Zm-17.838-.167.191.051-.126.478-.191-.05Zm45.231-.019.177.461-.185.071-.177-.461Zm-9.573-.041.345.354-.142.138-.345-.354Zm-27.109-.062.176.091-.046.088-.03.057-.114.3-.185-.071.119-.309Zm45.156,0,.126.478-.191.051-.126-.478ZM170.3,48.81l.133.147-.073.066-.032.028-.217.261-.152-.127.227-.271Zm16.968-.2.345.354-.142.138-.345-.354Zm9.71-.073.227.439-.176.091-.227-.439Zm-44.763-.027.185.071-.044.112-.093.352-.191-.051.1-.362Zm8.659-.068.176.091-.227.439-.176-.091Zm44.684-.05.1.25.061.229-.191.051-.057-.219-.092-.24Zm-34.8,0,.133.147-.366.332-.133-.147Zm16.048-.215.19.15.185.19-.142.138-.175-.181-.18-.141Zm9.888-.193.227.439-.176.091-.227-.439Zm-44.258-.056.185.071-.177.462-.185-.071Zm18.781.048.133.147-.366.331-.133-.147Zm-10.059-.088.176.091-.227.439-.176-.091Zm44.179-.079.177.461-.185.071-.177-.462ZM186.321,47.8l.389.3-.122.156-.39-.3Zm-14.6-.206.111.164-.267.18-.118.106-.133-.147.073-.067.055-.048Zm24.694-.156.227.439-.176.091-.227-.439Zm-43.752-.084.185.071-.177.462-.185-.071Zm33.174.065.39.3-.122.156-.39-.3Zm-24.388-.077.176.091-.227.439-.176-.091Zm43.674-.107.177.462-.185.071-.177-.461Zm-32.888.011.111.164-.409.277-.111-.164ZM185.3,47.08l.429.246-.1.172-.429-.246Zm10.784-.178.27.414-.166.108-.27-.414Zm-23.344,0,.111.164-.409.277-.111-.164Zm-10.96-.087.166.108-.27.414-.166-.108Zm-8.9-.036.185.071-.177.461-.185-.071Zm52.017-.118.177.462-.185.071-.177-.461Zm-20.133.114.429.246-.1.171-.429-.246ZM173.3,46.605l.089.177-.442.221-.088-.177Zm22.448-.221.27.414-.166.108-.27-.414Zm-11.519.08.429.246-.1.172-.429-.246Zm-22.109-.17.166.108-.27.414-.166-.108Zm-9.018-.1.185.071-.177.461-.185-.071Zm20.751.13.088.177-.442.221-.089-.177Zm30.824-.248.177.461-.185.071-.177-.461Zm-21.029.139.457.189-.075.183-.457-.189Zm-9.242-.167.088.177-.442.221-.088-.177Zm21-.186.27.414-.166.108-.27-.414Zm-12.334.117.457.189-.076.183L183,46.166Zm-20.618-.206.166.108-.27.414-.166-.108Zm12.555.091.06.188-.471.151-.06-.188Zm-21.658-.244.176.089-.127.248-.073.192-.185-.071.078-.2Zm29.129.138.1.024.062.017.32.132-.076.183-.306-.128-.144-.036Zm21.928-.251.224.44-.176.09-.224-.441Zm-28.81.168.06.188-.471.151-.06-.188Zm6.282-.067.48.12-.048.192-.479-.12Zm13.166-.261.126.157.165.254-.166.108-.159-.245-.12-.149Zm-18.839.168.034.195-.1.017-.128.022-.24.077-.06-.188.253-.08Zm-13.384-.25.154.124-.19.234-.1.153-.166-.108.106-.162Zm18.457.193.479.12-.048.192-.48-.12Zm-4.464-.05.034.195-.487.085-.034-.195Zm3.842-.057.339.036.162.04-.048.192-.1-.024-.053-.014-.325-.034Zm-27.027-.283.176.09-.224.44-.176-.089Zm23.795.233.034.195-.487.085-.034-.195Zm2.617-.013.492.05-.02.2-.492-.051Zm24.084-.333.224.441-.176.089-.224-.44Zm-24.7.27.492.051-.02.2-.492-.05Zm-1.373.028.006.2-.494.016-.007-.2Zm.618-.02.006.2-.494.016-.006-.2Zm.618-.02.006.2-.494.016-.006-.2Zm15.366-.347.311.384-.154.124L194.507,45Zm-31.445-.082.154.124-.311.384-.154-.124Zm-9.3-.267.176.09-.224.441-.176-.09Zm49.936-.113.224.441-.176.09-.224-.441Zm-9.579-.018.311.384-.154.124-.311-.384Zm-30.667-.082.154.124-.311.384-.154-.124Zm-9.41-.338.176.09-.224.44-.176-.09Zm39.688-.061.311.384-.154.124-.311-.384Zm9.688-.052.224.441-.176.089-.224-.44Zm-39.577-.03.154.124-.311.384-.154-.124Zm29.448-.366.35.349-.14.14L193.3,43.6Zm-38.967-.042.176.09-.224.441-.176-.09Zm9.969-.032.14.14-.349.349-.14-.14Zm38.846-.081.224.441-.176.09-.224-.441Zm-10.285-.282.349.349-.14.14-.35-.349Zm-28.124-.074.14.14-.349.349-.14-.14ZM154.8,42.883l.166.108-.27.414-.166-.108Zm48.148-.106.27.414-.166.108-.27-.414Zm-10.383-.19.349.349-.14.14-.35-.35Zm-27.249-.074.14.14-.35.349-.14-.14Zm-10.178-.148.166.108-.27.414-.166-.108Zm47.473-.106.27.414-.166.108-.27-.414Zm-10.513-.09.27.221.11.11-.14.14-.1-.1-.263-.214ZM165.791,42.1l.125.153-.382.314-.125-.153Zm-10.313-.254.166.108-.27.414-.166-.108Zm46.8-.106.27.414-.166.108-.27-.414Zm-10.655.036.383.312-.125.153-.383-.312Zm-25.351-.069.125.153-.382.313-.125-.153Zm24.872-.322.383.312-.125.153-.383-.312Zm-35.325-.057.166.108-.27.414-.166-.108Zm10.932-.013.125.153-.382.313-.125-.153Zm35.19-.093.27.414-.166.108-.27-.414ZM190.663,41l.383.312-.125.153-.383-.312Zm-23.414-.059.107.166-.083.053-.082.052-.222.182-.125-.153.231-.189Zm-11.095-.125.166.108-.27.414-.166-.108Zm45.431-.108.062.077.015.019.208.319-.166.108-.2-.311-.071-.088ZM190.13,40.66l.414.27-.108.165-.414-.27ZM167.769,40.6l.107.166-.415.268-.107-.166Zm-11.222-.281.154.124-.31.385-.154-.124Zm33.065,0,.414.27-.108.166-.414-.27Zm11.584-.1.311.385-.154.124-.31-.384Zm-32.908.044.107.166-.415.268-.107-.166Zm20.806-.283.414.27-.108.166-.414-.27Zm-20.286-.052.107.166-.415.268-.107-.166Zm-11.873-.092.154.124-.311.385-.154-.124Zm43.872-.1.31.385-.154.124-.311-.384Zm-12.264-.059.439.227-.091.176-.439-.227Zm-19.181-.043.091.176-.439.227-.091-.176Zm-12.039-.28.154.124-.31.385-.154-.124Zm30.67.039.439.227-.091.176-.439-.227Zm12.425-.138.311.385-.154.124-.31-.384Zm-30.507.094.091.176-.439.227-.091-.176Zm17.533-.241.439.227-.091.176-.439-.227Zm-16.984-.043.091.176-.439.227-.091-.176Zm-12.749-.193.154.124-.31.385-.154-.124Zm42.318-.1.31.385-.154.124-.311-.384Zm-13.155.07.226.087.234.121-.091.176-.224-.116-.216-.083Zm-15.839-.034.071.185-.294.112-.15.077-.091-.176.16-.082Zm15.261-.187.462.177-.071.185-.462-.177Zm-14.684-.034.071.185-.462.176-.071-.185ZM158.12,38.4l.14.14-.07.07-.028.027-.217.269-.154-.124.224-.277Zm41.494-.09.2.2.138.171-.154.124-.131-.163-.195-.194Zm-13.893.1.462.176-.071.185-.462-.176Zm-13.529-.034.071.185-.462.177-.071-.185Zm12.951-.187.462.177-.071.185-.462-.177Zm-12.374-.034.071.185-.462.176-.071-.185Zm-14.211-.19.14.14-.349.349-.14-.14Zm40.619-.089.349.349-.14.14-.35-.349Zm-14.642.152.478.126-.05.191-.478-.126ZM173.38,38l.05.191-.478.126-.05-.191Zm10.557-.133.478.126-.05.191-.478-.126Zm-9.959-.024.05.191-.478.126-.05-.191Zm9.361-.133.478.126-.05.191-.478-.126Zm-24.344-.185.14.14-.349.349-.14-.14Zm15.581.16.05.191-.478.126-.05-.191Zm24.163-.25.349.349-.14.14-.349-.349Zm-16.016.151.366.057.129.034-.05.191-.12-.032-.356-.055Zm-7.53-.015.03.2-.489.076-.03-.2Zm6.919-.081.489.076-.03.2-.489-.076Zm-6.308-.015.03.2-.489.076-.03-.2Zm5.7-.081.488.076-.03.2-.488-.076Zm-5.086-.015.03.2-.488.076-.03-.2Zm-16.983-.294.14.14-.349.349-.14-.14Zm21.447.226.135.007.364.057-.03.2-.355-.056-.125-.006Zm-3.84,0,.01.2-.209.01-.271.042-.03-.2.281-.043Zm3.222-.027.494.025-.01.2-.494-.025Zm-2.6,0,.01.2-.494.025-.01-.2ZM198.3,37l.349.349-.14.14-.349-.35Zm-18.658.252.493.025-.01.2-.494-.025Zm-1.369,0,.01.2-.494.025-.01-.2Zm.752-.027.494.025-.01.2-.494-.025Zm-.134,0,.01.2-.494.025-.01-.2Zm-19.023-.563.14.14-.349.349-.14-.14Zm38-.09.35.349-.14.14-.349-.35Zm-37.529-.331.124.154-.229.184-.135.135-.14-.14.142-.141Zm37.053-.08.384.31-.124.154-.385-.31Zm-36.572-.309.124.154-.384.31-.124-.154Zm36.091-.08.384.311-.124.154-.385-.31Zm-35.61-.309.124.154-.385.311-.124-.154Zm35.129-.08.384.31-.124.154-.385-.31Zm-34.648-.309.124.154-.385.31-.124-.154Zm34.167-.079.384.31-.124.154-.385-.311Zm-33.685-.309.124.154L162,35.14l-.124-.154Zm33.2-.08.384.31-.124.154-.385-.31Zm-32.687-.277.108.166-.414.27-.108-.166Zm32.163-.069.414.27-.108.166-.414-.27ZM163.3,33.982l.108.166-.414.27-.108-.166Zm31.127-.069.414.27-.108.166-.414-.27Zm-30.609-.269.108.166-.414.27-.108-.166Zm30.091-.069.414.27-.108.166-.414-.27Zm-29.573-.269.108.166-.414.27-.108-.166Zm29.055-.069.414.27-.108.166-.414-.27Zm-28.537-.269.108.166-.414.27-.108-.166Zm28-.063.088.045.035.018.307.2-.108.166-.3-.2-.114-.058Zm-27.442-.223.089.176-.44.224-.09-.176Zm26.891-.057.441.224-.09.176-.441-.224Zm-26.34-.223.09.176-.441.224-.089-.176Zm25.789-.057.44.224-.09.176-.44-.224Zm-25.237-.223.09.176-.441.224-.09-.176Zm24.686-.057.441.224-.09.176-.441-.224Zm-24.135-.223.09.176-.44.224-.09-.176Zm23.583-.057.441.224-.09.176-.44-.224Zm-23.015-.211.071.185-.143.054-.295.15-.09-.176.3-.154Zm22.442-.045.281.108.182.092-.089.176-.172-.088-.271-.1Zm-21.865-.176.071.185-.462.177-.071-.185Zm21.288-.045.462.177-.071.185-.461-.177Zm-20.71-.176.071.185-.462.177-.071-.185Zm20.133-.045.461.177-.071.185-.462-.177Zm-19.555-.176.071.185-.462.177-.071-.185Zm18.977-.045.461.177-.071.185-.461-.177Zm-18.4-.176.071.185-.461.177-.071-.185Zm17.822-.045.461.177-.071.185-.462-.177ZM170.539,30.5l.051.191-.3.079-.161.061-.071-.185.171-.065Zm16.622-.032.478.126-.05.191-.478-.126Zm-16.024-.125.05.191-.478.126-.051-.191Zm15.426-.032.478.126-.05.191-.478-.126Zm-14.828-.125.05.191-.478.126-.051-.191Zm14.23-.032.478.126-.051.191-.478-.126Zm-13.632-.125.051.191-.478.126-.05-.191Zm13.035-.032.478.126-.05.191-.478-.126Zm-12.436-.125.05.191-.478.126-.051-.191Zm11.838-.032.478.126-.05.191-.478-.126Zm-11.221-.081.031.2-.488.078-.031-.2Zm10.6-.02.488.078-.031.2-.488-.078Zm-9.99-.077.031.2-.488.078-.031-.2Zm9.38-.02.488.078-.031.2-.488-.078Zm-8.769-.077.031.2-.488.078-.031-.2Zm8.158-.02.488.078-.031.2-.488-.078Zm-7.548-.077.031.2-.488.078-.031-.2Zm6.937-.02.488.078-.031.2-.488-.078Zm-6.326-.077.031.2-.488.078-.031-.2Zm5.7,0,.165.009.335.053-.031.2-.325-.052-.154-.008Zm-5.075-.025.01.2-.494.025-.01-.2Zm4.457-.007.494.025-.01.2-.494-.025Zm-3.84-.025.01.2-.494.025-.01-.2Zm3.222-.007.494.025-.01.2-.494-.025Zm-2.6-.025.01.2-.494.025-.01-.2Zm1.987-.007.494.025-.01.2-.494-.025Zm-1.369-.025.01.2-.494.025-.01-.2Zm.752-.007.494.025-.01.2-.494-.025Zm-.308-.016.184.009-.01.2-.174-.009-.31.016-.01-.2Z" transform="translate(-107.898 -20.905)" fill="#818181"/>
        <g id="Grupo_218295" data-name="Grupo 218295" transform="translate(71.003 33.99)" opacity="0.56">
          <g id="Grupo_218294" data-name="Grupo 218294">
            <g id="Grupo_218293" data-name="Grupo 218293" clip-path="url(#clip-path-3)">
              <path id="Trazado_228815" data-name="Trazado 228815" d="M249.552,121.894l7.631-2.43.011.022.032.107.011.053.032.107.011.053.032.107.043.171.032.15.032.171.021.128.011.053.011.107v.053l.022.129v.053l.011.107.011.053.01.107.011.075v.075l.011.107v.492h-7.92Z" transform="translate(-249.552 -119.464)" fill="#004cff"/>
            </g>
          </g>
        </g>
        <g id="Grupo_218298" data-name="Grupo 218298" transform="translate(71.003 13.988)" opacity="0.56">
          <g id="Grupo_218297" data-name="Grupo 218297">
            <g id="Grupo_218296" data-name="Grupo 218296" clip-path="url(#clip-path-4)">
              <path id="Trazado_228816" data-name="Trazado 228816" d="M249.552,71.594l8.583-22.432.428.161.428.171.064.032.343.15.064.032.407.193.471.235.321.171.129.075.267.139.128.075.321.182.064.043.386.235.385.236.064.043.321.214.064.043.375.257.375.257.064.043.3.214.107.086.235.182.107.107.107.107-14.822,18.59Z" transform="translate(-249.552 -49.162)" fill="#ceff29"/>
            </g>
          </g>
        </g>
        <g id="Grupo_218301" data-name="Grupo 218301" transform="translate(50.487 5.201)" opacity="0.56">
          <g id="Grupo_218300" data-name="Grupo 218300">
            <g id="Grupo_218299" data-name="Grupo 218299" clip-path="url(#clip-path-5)">
              <path id="Trazado_228817" data-name="Trazado 228817" d="M197.961,49.5,177.445,24.917l.471-.385.588-.471.364-.268.107-.086.364-.267.246-.171.246-.171.246-.171.246-.171.374-.246.129-.086.385-.236.128-.075.535-.321.535-.3.663-.364.407-.214.139-.064.535-.267.535-.257.7-.3.428-.171.139-.053.557-.214.567-.214.717-.246.428-.139.139-.043.578-.171.578-.16.728-.193.428-.107.15-.032,7.064,30.908Z" transform="translate(-177.445 -18.281)" fill="#ff6800"/>
            </g>
          </g>
        </g>
        <g id="Grupo_218304" data-name="Grupo 218304" transform="translate(42.985 24.283)" opacity="0.56">
          <g id="Grupo_218303" data-name="Grupo 218303">
            <g id="Grupo_218302" data-name="Grupo 218302" clip-path="url(#clip-path-6)">
              <path id="Trazado_228818" data-name="Trazado 228818" d="M179.1,97.485l-27.569,5-.032-.171-.054-.342-.053-.353-.021-.171-.043-.353-.022-.171-.043-.353-.021-.171-.053-.535-.043-.535-.032-.535-.011-.171-.011-.353v-.171l-.011-.353V96.693l.011-.353.011-.171.021-.353.021-.353v-.171l.032-.353.021-.171.032-.353.043-.353.021-.171.043-.353.022-.171.053-.353.032-.171.107-.535.107-.514.107-.514.043-.171.086-.343.043-.171.086-.343.043-.171.107-.343.107-.343.053-.171.107-.321.053-.171.107-.321.107-.321.064-.16.107-.321.064-.161.128-.321.064-.16.214-.493.214-.481.214-.482.075-.16,24.99,12.029Z" transform="translate(-151.077 -85.348)" fill="#ffc400"/>
            </g>
          </g>
        </g>
        <g id="Grupo_218307" data-name="Grupo 218307" transform="translate(56.577 36.42)" opacity="0.56">
          <g id="Grupo_218306" data-name="Grupo 218306">
            <g id="Grupo_218305" data-name="Grupo 218305" clip-path="url(#clip-path-7)">
              <path id="Trazado_228819" data-name="Trazado 228819" d="M213.274,128l-13.228,9.011-.053-.086-.128-.193-.053-.086-.107-.171-.064-.107-.107-.171-.064-.107-.086-.15-.075-.128-.086-.15-.075-.128-.075-.129-.086-.16-.064-.139-.075-.16,14.277-6.881Z" transform="translate(-198.848 -128.003)" fill="#29ffce"/>
            </g>
          </g>
        </g>
        <g id="Grupo_218310" data-name="Grupo 218310" transform="translate(66.476 36.42)" opacity="0.56">
          <g id="Grupo_218309" data-name="Grupo 218309">
            <g id="Grupo_218308" data-name="Grupo 218308" clip-path="url(#clip-path-8)">
              <path id="Trazado_228820" data-name="Trazado 228820" d="M238.168,128l3.35,19.735-.385.064h-.075l-.321.043-.075.011-.321.032h-.075l-.321.032-.075.011-.321.021h-.075l-.321.021h-.161l-.235.011H237.58l-.321-.011h-.075l-.321-.021h-.075l-.321-.021-.16-.011-.16-.011h-.236l-.235-.032-.16-.022-.236-.032h-.16l-.236-.032-.15-.022-.236-.043-.15-.032-.236-.043-.15-.032-.321-.064,4.409-19.317Z" transform="translate(-233.641 -128.003)" fill="#7dff7a"/>
            </g>
          </g>
        </g>
        <g id="Grupo_218313" data-name="Grupo 218313" transform="translate(71.003 36.42)" opacity="0.56">
          <g id="Grupo_218312" data-name="Grupo 218312">
            <g id="Grupo_218311" data-name="Grupo 218311" clip-path="url(#clip-path-9)">
              <path id="Trazado_228821" data-name="Trazado 228821" d="M249.552,128l25.214,19.746-.374.471-.428.535-.4.46-.45.5-.428.428-.471.482-.428.428-.492.471-.45.407-.514.449-.46.386-.353.289-19.756-24.808Z" transform="translate(-249.552 -128.003)" fill="#ff6800"/>
            </g>
          </g>
        </g>
        <path id="Trazado_228822" data-name="Trazado 228822" d="M256.425,118.852l-.08-.16-8.094,2.577.369.308h8.167V120.9l-.011-.125v-.057l-.013-.1-.01-.1-.013-.071-.008-.09v-.035l0-.03-.019-.113v-.04l-.012-.125-.013-.071-.021-.123-.033-.175-.033-.154-.044-.177-.034-.115-.007-.037-.036-.123-.007-.037-.036-.123Zm-.294.288.033.112.007.037.036.124.04.163.031.144.031.167.021.125.012.059.008.09v.035l0,.03.019.114v.038l.011.125.013.071.008.09.011.083,0,.049.012.125v.293h-6.8Z" transform="translate(-177.618 -84.921)"/>
        <path id="Trazado_228823" data-name="Trazado 228823" d="M258.205,48.569l-.6-.225-8.647,22.6.329.15.077-.145,14.914-18.7-.329-.329-.253-.2-.1-.084-.308-.22-.069-.046-.747-.512-.451-.3-.777-.475-.058-.039-.332-.189-.127-.074-.275-.143-.121-.071L260,49.391l-.475-.238-.41-.194-.061-.03-.351-.154-.056-.028Zm-.391.241.259.1.424.17.05.026.351.154.056.028.41.194.467.234.317.169.122.072.275.143.121.071.323.183.053.036.777.475.443.3.747.512.066.044.295.211.1.08.238.184.082.084L249.753,69.879Z" transform="translate(-178.123 -34.589)"/>
        <path id="Trazado_228824" data-name="Trazado 228824" d="M197.417,48.606l-7.1-31.08-.325.069-.434.108-.73.193-.58.161-.581.172-.141.043-.431.14-.72.247-.572.216-.7.268-.43.172-.7.3-.542.26-.538.269-.134.062-.415.218-.666.365-.537.3-.54.324-.127.074-.388.238-.135.089-.374.246-.988.688-.368.27-.113.09-.358.263-.594.475-.614.5,21.131,25.32Zm-7.377-30.65,6.924,30.3L177.056,24.4l.329-.269.587-.47.358-.263.113-.09.358-.263.981-.682.371-.244.129-.086.379-.232.125-.073.537-.322.531-.3.662-.363.4-.213.131-.06.54-.27.532-.256.689-.3.424-.169.694-.267L186.5,19l.712-.244.425-.138.137-.042.576-.171.575-.16.726-.192Z" transform="translate(-126.313 -12.539)"/>
        <path id="Trazado_228825" data-name="Trazado 228825" d="M178.453,96.6,153.307,84.494l-.153.327-.429.966-.215.494-.259.647-.111.331-.061.151-.218.652-.055.174-.106.318-.269.86-.3,1.209-.216,1.035-.107.536-.032.174-.055.359-.129,1.054-.033.359-.021.165-.033.359v.188l-.053.866-.011.359V97.13l.011.358v.166l.011.359.043.712.043.539.054.539.15,1.224.054.358.053.343.066.354,28.351-5.14ZM153.48,84.98,178.033,96.8l-26.817,4.862-.051-.331-.053-.352-.128-1.044-.021-.172-.053-.531-.042-.531-.043-.7-.01-.347v-.166l-.011-.359V96.081l.011-.348.053-.872v-.182l.031-.337.021-.165.033-.359.064-.518.043-.354.021-.171.053-.348.031-.165.107-.533.214-1.026.3-1.192.265-.846.106-.318.055-.175.213-.639.061-.151.111-.331.253-.632.212-.487Z" transform="translate(-107.636 -60.454)"/>
        <path id="Trazado_228826" data-name="Trazado 228826" d="M212.6,127.417l-.15.064L198,134.444l.215.461.09.17.153.263.085.148.076.13.085.148.066.11.109.174.063.1.162.26.131.2.151.241,13.384-9.118Zm-2,1.359-11.1,7.565-.083-.124-.158-.252-.063-.1-.109-.174-.063-.1-.084-.147-.076-.13-.085-.149-.151-.258-.082-.154-.059-.129Z" transform="translate(-141.667 -91.164)"/>
        <path id="Trazado_228827" data-name="Trazado 228827" d="M241.178,146.434l-3.473-20.461-.366.732-.014.041-4.451,19.5.5.1.147.032.241.044.144.031.241.044.157.022.236.032.185,0,.211.03.4.053.26,0,.63.042h.087l.309.021h.087l.315.011h1.183l.244-.011h.152l.333-.022H239l.333-.022.088-.012.314-.031h.057l.339-.033.083-.012.32-.042h.051l.03,0Zm-3.612-19.115,3.193,18.817-.191.032h-.059l-.345.044-.076.011-.314.031h-.057l-.339.033-.083.011-.307.02h-.063l-.333.022h-.148l-.244.011h-1.169l-.315-.011h-.081l-.309-.021h-.087l-.63-.042h-.248l-.211-.03-.4-.053-.185,0-.36-.052-.229-.042-.144-.031-.241-.044-.144-.031-.141-.028Z" transform="translate(-166.616 -90.131)"/>
        <path id="Trazado_228828" data-name="Trazado 228828" d="M249.32,127.5l-.249.262.214.246,19.866,24.945.5-.405.462-.387.517-.452.452-.409.5-.474L272,150.4l.472-.483.426-.427.457-.51.4-.463.432-.54.489-.614Zm1.039,1.274,23.808,18.644-.261.328-.428.535-.392.455-.447.5-.421.421-.472.483-.427.427-.489.468-.446.4-.512.448-.457.383-.209.171Z" transform="translate(-178.205 -91.224)"/>
        <path id="Trazado_228829" data-name="Trazado 228829" d="M12.328,289.347a6.933,6.933,0,0,1,2.3-2.558,6,6,0,0,1,3.19-.834,4.5,4.5,0,0,1,3.765,1.725,7.835,7.835,0,0,1,1.351,4.884v9.485H20.347v-9.4a5.925,5.925,0,0,0-.8-3.362A2.872,2.872,0,0,0,17.1,288.2a4.022,4.022,0,0,0-3.19,1.351,5.322,5.322,0,0,0-1.148,3.622v8.881H10.173v-9.4a5.911,5.911,0,0,0-.8-3.362A2.926,2.926,0,0,0,6.9,288.2a4,4,0,0,0-3.16,1.351,5.321,5.321,0,0,0-1.15,3.622v8.881H0V286.33H2.585v2.442a5.792,5.792,0,0,1,2.128-2.126,5.8,5.8,0,0,1,2.931-.691,4.837,4.837,0,0,1,2.9.862,5.206,5.206,0,0,1,1.781,2.53" transform="translate(0 -204.594)" fill="#11557c"/>
        <path id="Trazado_228830" data-name="Trazado 228830" d="M103.381,294.146a9.414,9.414,0,0,0-4.339.718,2.619,2.619,0,0,0-1.207,2.442,2.738,2.738,0,0,0,.891,2.185,3.557,3.557,0,0,0,2.471.8,4.236,4.236,0,0,0,3.447-1.523,6.013,6.013,0,0,0,1.294-4.053v-.574Zm5.145-1.064v8.967h-2.587v-2.387a5.485,5.485,0,0,1-2.212,2.1,7.208,7.208,0,0,1-3.219.662,5.4,5.4,0,0,1-3.85-1.323,5.361,5.361,0,0,1,.373-7.615,8.68,8.68,0,0,1,5.288-1.351h3.62v-.259a3.438,3.438,0,0,0-1.178-2.758,5.061,5.061,0,0,0-3.276-.978,10.056,10.056,0,0,0-2.644.345,11.916,11.916,0,0,0-2.442.948v-2.385a16.964,16.964,0,0,1,2.731-.8,13.708,13.708,0,0,1,2.615-.288,6.716,6.716,0,0,1,5.086,1.783,7.5,7.5,0,0,1,1.7,5.345" transform="translate(-68.148 -204.594)" fill="#11557c"/>
        <path id="Trazado_228831" data-name="Trazado 228831" d="M158.316,271.611v4.456h5.318v2.01h-5.318v8.535a3.843,3.843,0,0,0,.518,2.472,2.984,2.984,0,0,0,2.156.547h2.644v2.155h-2.644q-3.018,0-4.138-1.121t-1.121-4.054v-8.535h-1.9v-2.01h1.9v-4.456Z" transform="translate(-110.063 -194.332)" fill="#11557c"/>
        <path id="Trazado_228832" data-name="Trazado 228832" d="M202.479,299.692V308h-2.587V286.33h2.587v2.385a5.224,5.224,0,0,1,2.04-2.069,6.113,6.113,0,0,1,2.99-.691,5.737,5.737,0,0,1,4.654,2.271,10.914,10.914,0,0,1,0,11.955,5.714,5.714,0,0,1-4.654,2.242,6.453,6.453,0,0,1-2.99-.661,4.881,4.881,0,0,1-2.04-2.069m8.795-5.489a7.508,7.508,0,0,0-1.18-4.454,3.786,3.786,0,0,0-3.218-1.639,3.718,3.718,0,0,0-3.219,1.639,7.318,7.318,0,0,0-1.178,4.454,7.417,7.417,0,0,0,1.178,4.483,3.7,3.7,0,0,0,3.219,1.61,3.764,3.764,0,0,0,3.218-1.61,7.61,7.61,0,0,0,1.18-4.483" transform="translate(-143.018 -204.594)" fill="#11557c"/>
        <rect id="Rectángulo_304379" data-name="Rectángulo 304379" width="2.585" height="21.843" transform="translate(75.211 75.613)" fill="#11557c"/>
        <path id="Trazado_228833" data-name="Trazado 228833" d="M295.69,288.14a3.857,3.857,0,0,0-3.276,1.637,8.858,8.858,0,0,0-.028,8.881,4.167,4.167,0,0,0,6.58,0,8.77,8.77,0,0,0,0-8.881,3.857,3.857,0,0,0-3.276-1.637m0-2.185a6.763,6.763,0,0,1,5.288,2.185A8.971,8.971,0,0,1,302.9,294.2a8.844,8.844,0,0,1-1.926,6.035,7.526,7.526,0,0,1-10.6,0,8.835,8.835,0,0,1-1.9-6.035,8.961,8.961,0,0,1,1.9-6.064,6.74,6.74,0,0,1,5.316-2.185" transform="translate(-206.398 -204.594)" fill="#11557c"/>
        <path id="Trazado_228834" data-name="Trazado 228834" d="M351.949,271.611v4.456h5.316v2.01h-5.316v8.535a3.842,3.842,0,0,0,.518,2.472,2.984,2.984,0,0,0,2.156.547h2.642v2.155h-2.642q-3.018,0-4.14-1.121t-1.121-4.054v-8.535h-1.9v-2.01h1.9v-4.456Z" transform="translate(-248.604 -194.332)" fill="#11557c"/>
        <rect id="Rectángulo_304380" data-name="Rectángulo 304380" width="2.587" height="21.843" transform="translate(112.053 75.613)" fill="#11557c"/>
        <path id="Trazado_228835" data-name="Trazado 228835" d="M421.911,271.876H424.5V287.6h-2.587Zm0-6.123H424.5v3.276h-2.587Z" transform="translate(-301.868 -190.14)" fill="#11557c"/>
        <path id="Trazado_228836" data-name="Trazado 228836" d="M461.069,279.75a7.523,7.523,0,0,0-1.178-4.454,3.788,3.788,0,0,0-3.219-1.639,3.718,3.718,0,0,0-3.218,1.639,7.317,7.317,0,0,0-1.178,4.454,7.415,7.415,0,0,0,1.178,4.484,3.7,3.7,0,0,0,3.218,1.61,3.765,3.765,0,0,0,3.219-1.61,7.625,7.625,0,0,0,1.178-4.484m-8.793-5.489a5.216,5.216,0,0,1,2.04-2.069,6.112,6.112,0,0,1,2.989-.691,5.739,5.739,0,0,1,4.655,2.271,10.915,10.915,0,0,1,0,11.955,5.717,5.717,0,0,1-4.655,2.242,6.456,6.456,0,0,1-2.989-.661,4.874,4.874,0,0,1-2.04-2.069V287.6h-2.587V265.753h2.587v8.508" transform="translate(-321.742 -190.14)" fill="#11557c"/>
      </g>
    </g>
  </g>
</svg>
