<svg xmlns="http://www.w3.org/2000/svg" xmlns:xlink="http://www.w3.org/1999/xlink" width="147.07" height="98.308" viewBox="0 0 147.07 98.308">
  <defs>
    <clipPath id="clip-path">
      <rect id="Rectángulo_304391" data-name="Rectángulo 304391" width="147.07" height="98.308" fill="none"/>
    </clipPath>
  </defs>
  <g id="Grupo_218318" data-name="Grupo 218318" clip-path="url(#clip-path)">
    <path id="Trazado_228837" data-name="Trazado 228837" d="M13.046,269.375a9.457,9.457,0,0,1-7.438-3.43v12.269H0V247.926H5.071l.194,3.332a9.456,9.456,0,0,1,7.776-3.913c5.652,0,9.815,4.736,9.815,11.015s-4.158,11.018-9.81,11.015M11.31,251.5c-3.285,0-5.941,2.56-5.941,6.86s2.656,6.865,5.941,6.865,5.941-2.56,5.941-6.86S14.595,251.5,11.31,251.5" transform="translate(0 -179.906)" fill="#130754"/>
    <path id="Trazado_228838" data-name="Trazado 228838" d="M113.908,268.822l-.194-3.332a9.451,9.451,0,0,1-7.779,3.91c-5.652,0-9.815-4.733-9.815-11.012s4.155-11.015,9.815-11.012a9.49,9.49,0,0,1,7.779,3.913l.194-3.332h5.082v20.866Zm-6.23-17.294c-3.285,0-5.941,2.56-5.944,6.86s2.656,6.863,5.941,6.863,5.944-2.56,5.944-6.86S110.963,251.527,107.678,251.527Z" transform="translate(-69.913 -179.928)" fill="#130754"/>
    <path id="Trazado_228839" data-name="Trazado 228839" d="M211.531,268.832V257.288c0-4.057-1.4-5.409-3.959-5.409-2.658,0-5.557,2.413-5.557,5.311v11.642H196.41V247.963h5.123l.243,3.866a8.888,8.888,0,0,1,7.73-4.444c5.554,0,7.634,3.866,7.634,9.033v12.416Z" transform="translate(-142.859 -179.936)" fill="#130754"/>
    <path id="Trazado_228840" data-name="Trazado 228840" d="M300.325,248.748l-.194-3.335a9.459,9.459,0,0,1-7.776,3.913c-5.652,0-9.815-4.736-9.815-11.015S286.7,227.3,292.355,227.3a9.47,9.47,0,0,1,7.438,3.43V219.765H305.4v28.983Zm-6.23-17.294c-3.272,0-5.941,2.56-5.941,6.857s2.656,6.857,5.941,6.857,5.941-2.557,5.941-6.857-2.647-6.857-5.941-6.857" transform="translate(-205.506 -159.846)" fill="#130754"/>
    <path id="Trazado_228841" data-name="Trazado 228841" d="M396.148,268.854l-.194-3.332a9.458,9.458,0,0,1-7.779,3.91c-5.652,0-9.815-4.733-9.815-11.015s4.155-11.012,9.815-11.012a9.485,9.485,0,0,1,7.779,3.915l.194-3.335h5.071v20.866Zm-6.23-17.294c-3.272,0-5.941,2.56-5.944,6.86s2.658,6.852,5.941,6.852,5.944-2.56,5.944-6.86S393.2,251.56,389.918,251.56Z" transform="translate(-275.2 -179.95)" fill="#130754"/>
    <path id="Trazado_228842" data-name="Trazado 228842" d="M485.437,269.417a16.4,16.4,0,0,1-8.357-2.369l.919-3.863a14.348,14.348,0,0,0,7.342,2.32c2.222,0,3.768-.676,3.768-2.416,0-1.5-1.6-2.029-4.444-2.7-5.12-1.112-6.955-3.817-6.955-6.764,0-3.285,2.56-6.375,8.212-6.375a15.616,15.616,0,0,1,7.089,1.884l-.919,3.673a12.156,12.156,0,0,0-6.036-1.74c-2.268,0-3.381.772-3.381,2.029,0,1.4,1.451,2.029,3.67,2.56,5.508,1.159,7.73,3.719,7.73,6.522.011,4.491-3.275,7.244-8.638,7.244" transform="translate(-347.004 -179.834)" fill="#130754"/>
    <rect id="Rectángulo_304383" data-name="Rectángulo 304383" width="6.568" height="13.638" transform="translate(65.193 3.553)" fill="#130754"/>
    <rect id="Rectángulo_304384" data-name="Rectángulo 304384" width="6.568" height="13.638" transform="translate(65.193 31.567)" fill="#130754"/>
    <rect id="Rectángulo_304385" data-name="Rectángulo 304385" width="6.568" height="6.435" transform="translate(65.193 21.171)" fill="#ffca00"/>
    <rect id="Rectángulo_304386" data-name="Rectángulo 304386" width="6.568" height="45.333" transform="translate(54.644 14.767)" fill="#130754"/>
    <rect id="Rectángulo_304387" data-name="Rectángulo 304387" width="6.568" height="13.638" transform="translate(75.527 42.82)" fill="#130754"/>
    <rect id="Rectángulo_304388" data-name="Rectángulo 304388" width="6.568" height="13.638" transform="translate(75.527 14.783)" fill="#130754"/>
    <rect id="Rectángulo_304389" data-name="Rectángulo 304389" width="6.568" height="6.435" transform="translate(75.527 32.402)" fill="#e70488"/>
    <rect id="Rectángulo_304390" data-name="Rectángulo 304390" width="6.568" height="45.333" transform="translate(85.857)" fill="#130754"/>
  </g>
</svg>
